<svg width="570" height="380" viewBox="0 0 570 380" fill="none" xmlns="http://www.w3.org/2000/svg">
<path d="M456.429 211.871C455.817 211.072 455.281 210.226 454.745 209.37C444.409 193.123 399.247 200.824 399.247 200.824C394.14 239.994 385.252 235.377 383.607 232.914C381.961 230.451 378.989 206.258 377.023 202.967C371.343 202.469 359.737 202.553 359.737 202.553C348.536 202.817 338.002 212.671 327.638 228.72C317.274 244.761 299 258.338 299 258.338C299 258.338 304.427 258.836 306.402 270.683C307.615 271.059 311.255 269.452 313.907 268.154C316.273 266.997 318.911 266.512 321.534 266.753C325.804 267.148 331.945 268.511 336.855 273.156C337.458 273.719 338.099 274.24 338.773 274.717C339.394 274.369 339.742 274.134 339.742 274.134C349.862 269.941 355.787 255.376 355.787 255.376C354.966 253.545 354.488 251.579 354.376 249.575C354.216 247.58 354.244 245.575 354.461 243.586C354.677 241.639 354.828 239.712 354.884 237.775C354.982 235.822 354.897 233.864 354.63 231.927C355.436 233.767 355.896 235.74 355.984 237.747C356.123 239.74 356.082 241.741 355.862 243.727C355.646 245.664 355.524 247.591 355.477 249.537C355.407 251.489 355.511 253.443 355.787 255.376C356.355 260.573 357.584 265.676 359.445 270.561C362.119 271.447 364.877 272.055 367.675 272.376C369.051 272.533 370.438 272.577 371.822 272.507C373.24 272.428 374.652 272.278 376.054 272.056C374.789 272.814 373.396 273.337 371.945 273.598C371.218 273.738 370.483 273.826 369.744 273.861C369.003 273.871 368.262 273.843 367.524 273.777C366.056 273.617 364.615 273.27 363.236 272.742C361.86 272.231 360.579 271.493 359.445 270.561C360.238 272.735 361.289 274.806 362.577 276.729C369.553 277.131 376.391 278.844 382.732 281.778C384.34 282.521 385.817 283.518 387.303 284.251C388.816 285.006 390.401 285.607 392.033 286.047C395.321 286.941 398.708 287.421 402.115 287.476C403.846 287.532 405.492 287.439 407.279 287.382C409.035 287.363 410.79 287.447 412.536 287.636C415.997 287.993 419.449 288.388 422.872 288.99C424.179 289.216 425.477 289.46 426.775 289.714C426.173 288.897 425.657 288.021 425.233 287.1C424.572 285.712 424.076 284.25 423.756 282.747C423.427 281.243 423.229 279.715 423.164 278.177C423.078 276.627 423.138 275.072 423.342 273.532L423.352 273.485L423.37 273.419C423.886 271.751 424.205 270.028 424.32 268.286C424.466 266.519 424.485 264.743 424.377 262.973C424.254 261.202 424.038 259.438 423.728 257.689C423.389 255.969 422.938 254.173 422.693 252.358C422.2 248.741 422.087 245.082 422.355 241.442C422.449 239.627 422.637 237.812 422.91 236.026C423.161 234.233 423.503 232.453 423.935 230.695C423.489 234.27 423.244 237.868 423.201 241.47C423.149 245.046 423.41 248.62 423.982 252.151C424.104 253.035 424.32 253.9 424.499 254.765L425.082 257.435C425.429 259.24 425.658 261.064 425.769 262.898C426.047 266.574 425.622 270.269 424.518 273.786C424.285 275.232 424.165 276.694 424.161 278.158C424.15 279.648 424.266 281.136 424.509 282.606C424.745 284.08 425.123 285.529 425.637 286.931C426 287.916 426.456 288.864 427.001 289.761C429.042 290.175 431.064 290.645 433.067 291.2C436.435 292.079 439.673 293.398 442.698 295.12C439.572 293.65 436.282 292.558 432.898 291.867C431.158 291.463 429.405 291.112 427.64 290.814C427.635 290.809 427.629 290.805 427.622 290.804C425.995 290.522 424.358 290.278 422.712 290.062C419.289 289.62 415.856 289.234 412.423 288.962C410.723 288.802 409.015 288.737 407.307 288.764C405.642 288.82 403.818 288.943 402.087 288.886C398.561 288.814 395.059 288.29 391.667 287.326C389.964 286.828 388.314 286.167 386.739 285.351C385.948 284.966 385.177 284.448 384.453 284.025C383.729 283.583 383.005 283.123 382.243 282.747C379.201 281.15 375.998 279.883 372.688 278.967C369.377 277.975 365.998 277.227 362.577 276.729L354.8 277.472C355.04 277.803 355.215 278.176 355.317 278.572C357.32 285.05 354.433 310.427 354.433 310.427C365.54 318.57 427.02 331.16 427.02 331.16C466.652 337.826 467.019 302.642 467.019 302.642C474.11 239.505 460.172 216.723 456.429 211.871ZM406.837 276.231C406.11 276.371 405.375 276.459 404.636 276.494C403.895 276.504 403.154 276.475 402.416 276.41C400.948 276.25 399.507 275.902 398.128 275.375C396.752 274.863 395.471 274.126 394.338 273.194C397.011 274.08 399.769 274.688 402.567 275.008C403.943 275.165 405.331 275.209 406.714 275.14C408.132 275.061 409.544 274.911 410.947 274.689C409.681 275.447 408.289 275.969 406.837 276.231V276.231Z" fill="black"/>
<path d="M376.796 202.652C376.521 202.244 376.214 201.856 375.879 201.494C375.545 201.137 375.179 200.811 374.784 200.52C374.392 200.236 373.97 199.995 373.523 199.803C373.094 199.614 372.637 199.492 372.169 199.443L372.318 199.414C371.358 199.868 370.342 200.201 369.297 200.406C368.235 200.63 367.141 200.666 366.066 200.51C364.95 200.347 363.899 199.896 363.019 199.202C362.211 198.491 361.502 197.678 360.91 196.785C359.755 195.065 358.727 193.265 357.836 191.4C356.937 189.548 356.129 187.676 355.376 185.752L356.149 186.253C355.258 186.342 354.358 186.208 353.533 185.863C353.053 185.641 352.648 185.289 352.366 184.847C352.107 184.42 351.952 183.94 351.915 183.444C351.87 182.594 351.993 181.744 352.277 180.94C352.526 180.173 352.855 179.433 353.259 178.732C354.015 177.645 354.37 176.336 354.265 175.024C354.204 174.384 354.025 173.762 353.736 173.186L353.215 172.226C353.034 171.886 352.859 171.54 352.696 171.187C352.357 170.479 352.088 169.741 351.89 168.984C351.674 168.246 351.5 167.497 351.367 166.741C351.2 165.991 351.149 165.221 351.053 164.461C351.022 163.694 350.975 162.928 351.016 162.161C351.081 159.079 351.85 156.049 353.265 153.297C353.314 153.204 353.388 153.127 353.48 153.075C353.572 153.022 353.677 152.996 353.784 153C353.89 153.004 353.993 153.038 354.08 153.097C354.168 153.156 354.237 153.239 354.278 153.335L354.287 153.356C355.455 156.005 356.946 158.506 358.727 160.802C360.5 163.121 362.631 165.155 365.041 166.831C367.445 168.51 370.19 169.659 373.089 170.196C375.983 170.72 378.957 170.642 381.818 169.967L381.838 169.962C381.905 169.947 381.976 169.951 382.041 169.974C382.106 169.997 382.163 170.037 382.205 170.091C383.36 171.652 384.164 173.436 384.565 175.325C384.992 177.17 385.209 179.056 385.214 180.948C385.225 182.831 385.088 184.713 384.806 186.575C384.469 188.344 384.342 190.145 384.428 191.942C384.514 193.679 384.993 195.375 385.828 196.908C386.662 198.385 387.936 199.576 389.479 200.32C391.052 201.041 392.79 201.344 394.52 201.2C396.292 201.06 398.026 200.621 399.647 199.904C399.804 199.837 399.975 199.812 400.144 199.831C400.313 199.851 400.474 199.913 400.61 200.013C400.747 200.113 400.854 200.247 400.921 200.4C400.989 200.554 401.013 200.722 400.993 200.888L400.992 200.901C400.289 206.892 399.196 212.834 397.72 218.688C396.955 221.643 395.95 224.533 394.714 227.33C394.08 228.759 393.3 230.121 392.387 231.396C391.91 232.053 391.368 232.663 390.771 233.217C390.15 233.815 389.42 234.293 388.62 234.626C387.762 234.987 386.815 235.09 385.897 234.92C384.989 234.737 384.155 234.3 383.494 233.661C383.142 233.333 382.86 232.938 382.667 232.5C382.512 232.121 382.381 231.734 382.275 231.34C382.06 230.588 381.898 229.849 381.737 229.107C381.105 226.148 380.67 223.183 380.188 220.223L378.771 211.353C378.528 209.877 378.274 208.403 377.98 206.938C377.741 205.472 377.344 204.035 376.796 202.652L376.79 202.638C376.78 202.616 376.779 202.591 376.787 202.568C376.795 202.545 376.812 202.527 376.834 202.516C376.856 202.505 376.882 202.503 376.905 202.51C376.929 202.517 376.949 202.533 376.96 202.555C377.627 203.918 378.129 205.354 378.455 206.832C378.835 208.288 379.174 209.751 379.502 211.216C380.166 214.145 380.725 217.091 381.324 220.026C381.913 222.961 382.523 225.898 383.194 228.788C383.369 229.507 383.548 230.227 383.763 230.912C383.861 231.24 383.978 231.561 384.113 231.875C384.232 232.122 384.401 232.343 384.61 232.523C385.044 232.936 385.596 233.21 386.193 233.307C386.79 233.404 387.403 233.32 387.949 233.066C389.155 232.433 390.168 231.498 390.885 230.354C391.689 229.153 392.38 227.883 392.949 226.559C394.108 223.846 395.044 221.046 395.748 218.186C397.171 212.404 398.28 206.552 399.07 200.655L400.414 201.651C398.58 202.431 396.624 202.896 394.629 203.023C392.582 203.161 390.534 202.769 388.688 201.887C386.834 200.97 385.316 199.507 384.347 197.703C383.435 195.942 382.933 194.003 382.879 192.028C382.829 190.123 383.01 188.219 383.418 186.356C383.759 184.568 383.961 182.757 384.02 180.939C384.088 179.127 383.946 177.314 383.597 175.534C383.283 173.778 382.604 172.104 381.602 170.617L381.989 170.741C379.016 171.346 375.95 171.372 372.966 170.816C371.48 170.531 370.033 170.08 368.652 169.471C367.267 168.88 365.944 168.158 364.7 167.317C362.223 165.623 360.006 163.589 358.117 161.276C356.186 158.984 354.546 156.469 353.235 153.787L354.258 153.846C353.057 156.463 352.461 159.309 352.511 162.18C352.517 163.612 352.669 165.04 352.966 166.442C353.105 167.144 353.283 167.839 353.499 168.522C353.691 169.198 353.94 169.857 354.243 170.492C354.393 170.812 354.555 171.13 354.725 171.446C354.896 171.771 355.07 172.048 355.273 172.447C355.656 173.203 355.895 174.022 355.978 174.863C356.108 176.534 355.657 178.2 354.697 179.586C353.99 180.707 353.593 181.989 353.544 183.307C353.54 183.544 353.604 183.778 353.73 183.981C353.855 184.185 354.036 184.349 354.252 184.456C354.824 184.69 355.446 184.784 356.063 184.729L356.074 184.729C356.239 184.722 356.402 184.767 356.539 184.857C356.677 184.947 356.781 185.079 356.837 185.232C357.522 187.109 358.295 188.986 359.12 190.82C359.914 192.659 360.841 194.439 361.895 196.148C362.399 196.976 363.01 197.737 363.713 198.411C364.432 199.018 365.302 199.426 366.234 199.595C368.205 199.902 370.224 199.655 372.057 198.882L372.096 198.866C372.131 198.853 372.169 198.848 372.207 198.853C372.742 198.934 373.26 199.1 373.74 199.347C374.207 199.58 374.645 199.865 375.047 200.194C375.439 200.527 375.796 200.896 376.115 201.297C376.428 201.695 376.711 202.115 376.96 202.555C376.967 202.566 376.971 202.577 376.972 202.59C376.974 202.602 376.973 202.614 376.97 202.626C376.966 202.638 376.961 202.649 376.953 202.659C376.945 202.669 376.936 202.677 376.925 202.683C376.903 202.694 376.878 202.697 376.854 202.692C376.831 202.686 376.81 202.672 376.796 202.652Z" fill="black"/>
<path d="M354.757 185C354.555 186.479 354.344 187.947 354.179 189.416C354.024 190.886 353.873 192.353 353.825 193.819C353.748 195.277 353.813 196.738 354.018 198.185C354.119 198.902 354.324 199.602 354.627 200.267C354.912 200.949 355.386 201.547 356 202C355.273 201.649 354.674 201.105 354.277 200.434C353.884 199.763 353.593 199.044 353.412 198.298C353.073 196.818 352.942 195.304 353.023 193.792C353.088 192.295 353.271 190.805 353.571 189.333C353.85 187.863 354.247 186.414 354.757 185Z" fill="black"/>
<path d="M354.379 153.594C354.186 153.255 354.063 152.88 354.019 152.492C353.974 152.104 354.009 151.71 354.121 151.336L354.276 150.775L354.518 150.254C354.603 150.082 354.679 149.903 354.772 149.735L355.09 149.263C355.513 148.632 355.993 148.043 356.524 147.501C357.061 146.976 357.633 146.492 358.194 145.99C360.562 144.19 363.097 142.626 365.765 141.318C367.096 140.683 368.441 140.076 369.787 139.472C371.147 138.91 372.516 138.368 373.888 137.835C375.263 137.329 376.659 136.892 378.047 136.428C378.75 136.216 379.427 135.975 380.178 135.766C380.906 135.569 381.644 135.412 382.388 135.293C385.345 134.804 388.37 134.928 391.277 135.657C394.173 136.391 396.849 137.816 399.08 139.813C401.28 141.84 403.093 144.255 404.429 146.938C405.771 149.611 406.796 152.432 407.485 155.344L407.498 155.422C408.223 159.419 409.499 163.294 411.288 166.937C412.171 168.754 413.193 170.5 414.346 172.158C415.48 173.819 416.76 175.374 418.171 176.805L420.403 178.884C421.206 179.59 421.961 180.35 422.662 181.159C424.098 182.753 425.282 184.559 426.174 186.514C428.022 190.377 428.485 194.763 427.483 198.93C427.476 198.953 427.462 198.973 427.442 198.986C427.421 198.998 427.397 199.003 427.374 198.998C427.35 198.993 427.33 198.98 427.316 198.96C427.302 198.941 427.296 198.917 427.299 198.893L427.301 198.882C427.565 196.848 427.483 194.784 427.06 192.777C426.676 190.789 425.98 188.875 424.998 187.107C424.516 186.228 423.98 185.381 423.391 184.57C422.789 183.77 422.134 183.01 421.433 182.296C420.749 181.564 420.015 180.881 419.238 180.25L416.853 178.174C413.79 175.2 411.303 171.679 409.519 167.791C408.631 165.866 407.88 163.88 407.271 161.848C406.639 159.815 406.179 157.732 405.896 155.621L405.91 155.699C405.349 152.866 404.511 150.095 403.409 147.427C402.305 144.755 400.686 142.329 398.644 140.291C397.593 139.305 396.424 138.456 395.163 137.763C393.893 137.085 392.535 136.588 391.129 136.287C388.314 135.723 385.409 135.793 382.623 136.491C381.933 136.652 381.251 136.848 380.582 137.081C379.938 137.309 379.254 137.606 378.574 137.866L374.475 139.408C373.129 139.953 371.78 140.489 370.422 141.005L366.432 142.73C363.804 143.915 361.27 145.301 358.853 146.876C358.289 147.309 357.704 147.727 357.157 148.183C356.619 148.643 356.118 149.145 355.658 149.685L355.315 150.09C355.215 150.234 355.132 150.386 355.038 150.534L354.765 150.985L354.576 151.469C354.304 152.11 354.289 152.832 354.532 153.485L354.541 153.505C354.551 153.526 354.552 153.55 354.545 153.573C354.538 153.595 354.522 153.614 354.501 153.625C354.481 153.637 354.457 153.64 354.434 153.634C354.411 153.628 354.392 153.614 354.379 153.594V153.594Z" fill="black"/>
<path d="M356 172C357.309 170.805 358.738 169.837 360.248 169.12C361.003 168.751 361.778 168.456 362.568 168.236C363.363 167.98 364.19 167.932 365 168.094C364.226 168.306 363.468 168.597 362.731 168.965L360.521 170.027C359.041 170.733 357.564 171.46 356 172Z" fill="black"/>
<path d="M360.5 177C360.903 176.991 361.284 176.882 361.564 176.695C361.844 176.509 362 176.259 362 176C362 175.741 361.844 175.491 361.564 175.305C361.284 175.118 360.903 175.009 360.5 175C360.097 175.009 359.716 175.118 359.436 175.305C359.156 175.491 359 175.741 359 176C359 176.259 359.156 176.509 359.436 176.695C359.716 176.882 360.097 176.991 360.5 177Z" fill="black"/>
<path d="M359 190.649C359.515 190.659 360.03 190.65 360.543 190.621C361.044 190.591 361.538 190.551 362.027 190.49C362.517 190.428 363.005 190.356 363.494 190.268C363.984 190.181 364.477 190.086 365 190C364.611 190.242 364.166 190.443 363.682 190.596C363.197 190.751 362.682 190.864 362.152 190.931C361.083 191.082 359.968 190.982 359 190.649Z" fill="black"/>
<path d="M354.171 306.75C351.324 305.722 348.396 304.922 345.417 304.357C342.484 303.772 339.471 303.678 336.506 304.079L335.415 304.259L334.349 304.543C333.642 304.736 332.947 304.971 332.268 305.246C330.911 305.818 329.609 306.511 328.381 307.315C327.128 308.12 325.941 309.041 324.542 309.837C323.142 310.608 321.635 311.175 320.069 311.521C318.513 311.883 316.915 312.041 315.318 311.991C313.644 311.993 311.994 311.6 310.508 310.847C310.097 310.602 309.732 310.291 309.425 309.928C309.151 309.598 308.981 309.357 308.741 309.086C308.29 308.577 307.768 308.133 307.19 307.767C305.92 307.044 304.579 306.447 303.187 305.987C301.685 305.519 300.245 304.879 298.897 304.079C298.214 303.627 297.614 303.064 297.121 302.416C296.879 302.111 296.663 301.819 296.43 301.549C296.316 301.408 296.196 301.289 296.073 301.153C295.94 300.998 295.786 300.843 295.672 300.686C294.768 299.457 293.937 298.176 293.186 296.851C292.425 295.549 291.667 294.251 290.941 292.93L291.163 293.09L289.213 292.673C288.539 292.56 287.878 292.383 287.239 292.144C285.959 291.619 284.834 290.785 283.971 289.72C283.499 289.186 283.174 288.543 283.029 287.851C282.974 287.487 282.998 287.115 283.099 286.76C283.2 286.405 283.377 286.075 283.617 285.792C284.078 285.26 284.641 284.822 285.275 284.505C285.909 284.188 286.601 283.997 287.31 283.943C287.996 283.904 288.684 283.932 289.365 284.025L291.35 284.165C292.674 284.247 293.998 284.308 295.324 284.348C297.973 284.428 300.624 284.41 303.258 284.248C305.873 284.116 308.471 283.759 311.022 283.182C312.256 282.895 313.451 282.466 314.582 281.904C315.113 281.633 315.606 281.297 316.051 280.905C316.498 280.504 316.904 280.061 317.263 279.582C317.563 279.249 317.75 278.833 317.799 278.391C317.783 278.295 317.767 278.258 317.642 278.153C317.456 278.036 317.253 277.948 317.04 277.891C315.856 277.656 314.637 277.639 313.447 277.843C312.838 277.926 312.237 278.055 311.649 278.23C311.41 278.3 311.178 278.395 310.96 278.515L310.756 278.645C310.666 278.705 310.576 278.754 310.486 278.804C310.31 278.901 310.128 278.987 309.942 279.062C309.247 279.334 308.521 279.519 307.779 279.613C307.423 279.663 307.069 279.697 306.716 279.721C306.307 279.757 305.895 279.742 305.49 279.677C304.633 279.535 303.84 279.142 303.214 278.55C302.619 277.964 302.187 277.239 301.96 276.443C301.564 274.917 301.773 273.3 302.546 271.919C302.93 271.149 303.536 270.507 304.289 270.073C304.54 269.943 304.813 269.857 305.094 269.818C305.259 269.797 305.425 269.795 305.59 269.814C305.676 269.823 305.761 269.838 305.845 269.859L305.952 269.887L305.964 269.885C306.157 269.904 306.352 269.892 306.542 269.849C307.76 269.575 308.948 269.183 310.088 268.68C310.687 268.431 311.284 268.17 311.878 267.897L312.768 267.484C313.088 267.334 313.412 267.193 313.742 267.062C315.062 266.543 316.449 266.208 317.864 266.067C319.262 265.943 320.671 265.991 322.057 266.209C323.413 266.391 324.755 266.658 326.075 267.007C328.735 267.694 331.264 268.798 333.565 270.276C334.706 271.026 335.774 271.877 336.755 272.819C337.703 273.674 338.717 274.456 339.787 275.158C344.352 277.768 349.623 278.946 354.891 278.534L354.9 278.534C354.924 278.532 354.948 278.54 354.967 278.556C354.985 278.571 354.997 278.593 355 278.617C355.002 278.641 354.995 278.665 354.98 278.684C354.964 278.703 354.942 278.715 354.918 278.718C349.532 279.529 344.023 278.607 339.216 276.092C338.039 275.395 336.921 274.608 335.871 273.739C332.964 271.207 329.451 269.437 325.659 268.591C324.401 268.294 323.125 268.076 321.838 267.938C320.588 267.772 319.322 267.761 318.07 267.906C316.834 268.048 315.625 268.357 314.475 268.823C314.189 268.942 313.908 269.068 313.629 269.203L312.72 269.638C312.112 269.925 311.497 270.203 310.876 270.473C309.597 271.062 308.255 271.511 306.875 271.81C306.413 271.906 305.935 271.906 305.472 271.812L305.362 271.787C305.325 271.778 305.354 271.787 305.348 271.785L305.357 271.786C305.362 271.787 305.364 271.786 305.356 271.786C305.307 271.796 305.261 271.813 305.218 271.837C304.833 272.092 304.525 272.444 304.326 272.856C303.801 273.786 303.648 274.875 303.898 275.909C304.029 276.377 304.272 276.807 304.609 277.162C304.944 277.487 305.371 277.705 305.834 277.789C306.086 277.833 306.343 277.844 306.597 277.821C306.908 277.805 307.217 277.779 307.52 277.742C308.101 277.678 308.672 277.544 309.22 277.344C309.342 277.297 309.461 277.243 309.576 277.182C309.631 277.155 309.684 277.125 309.735 277.092L309.951 276.958C310.311 276.754 310.696 276.595 311.096 276.484C311.784 276.289 312.488 276.147 313.199 276.061C314.642 275.838 316.115 275.893 317.537 276.222C317.965 276.343 318.367 276.538 318.727 276.796C318.951 276.966 319.138 277.178 319.276 277.421C319.414 277.663 319.501 277.93 319.532 278.207C319.57 278.683 319.475 279.16 319.257 279.588C319.093 279.939 318.887 280.271 318.643 280.576C318.205 281.142 317.707 281.662 317.157 282.125C316.599 282.593 315.984 282.99 315.325 283.307C314.064 283.895 312.737 284.335 311.371 284.617C308.718 285.153 306.018 285.431 303.309 285.449C300.623 285.504 297.947 285.415 295.28 285.248C293.946 285.163 292.615 285.055 291.287 284.925L289.295 284.716C288.659 284.619 288.014 284.583 287.37 284.609C286.748 284.647 286.141 284.806 285.581 285.074C285.022 285.343 284.523 285.717 284.111 286.176C283.919 286.391 283.777 286.644 283.694 286.918C283.61 287.192 283.587 287.48 283.627 287.763C283.749 288.355 284.023 288.907 284.423 289.367C285.218 290.359 286.266 291.13 287.461 291.6C288.068 291.82 288.697 291.982 289.337 292.082L291.296 292.456C291.341 292.464 291.384 292.482 291.421 292.508C291.458 292.534 291.489 292.567 291.512 292.605L291.519 292.616C292.985 295.208 294.632 297.698 296.448 300.067C296.562 300.211 296.684 300.317 296.8 300.444C296.936 300.582 297.089 300.723 297.22 300.87C297.492 301.159 297.738 301.462 297.976 301.737C298.418 302.273 298.951 302.732 299.551 303.093C300.848 303.782 302.223 304.321 303.648 304.697C305.168 305.126 306.636 305.717 308.026 306.459C308.741 306.889 309.391 307.416 309.956 308.024C310.225 308.309 310.502 308.675 310.717 308.916C310.908 309.12 311.128 309.295 311.371 309.436C312.617 310.034 313.988 310.338 315.375 310.326C316.828 310.37 318.281 310.237 319.701 309.929C321.116 309.633 322.48 309.137 323.75 308.456C324.996 307.762 326.244 306.872 327.555 306.062C328.883 305.236 330.286 304.531 331.745 303.957C332.487 303.69 333.244 303.468 334.013 303.29L335.166 303.034L336.336 302.887C339.436 302.577 342.568 302.806 345.587 303.564C348.562 304.302 351.46 305.311 354.244 306.579C354.266 306.588 354.283 306.606 354.293 306.628C354.302 306.65 354.303 306.674 354.294 306.697C354.285 306.719 354.268 306.737 354.246 306.747C354.225 306.758 354.199 306.759 354.176 306.752L354.171 306.75Z" fill="black"/>
<path d="M292 293.292C293.78 293.172 295.56 293.115 297.34 293.068C299.121 293.015 300.901 293.007 302.681 293L305.351 293.015C306.269 293.015 307.182 293.115 308.065 293.311C309.756 293.786 311.405 294.35 313 295C312.141 294.805 311.299 294.575 310.447 294.364C309.626 294.115 308.785 293.909 307.929 293.748C307.082 293.61 306.216 293.55 305.351 293.569L302.681 293.585C300.901 293.577 299.121 293.57 297.34 293.516C295.56 293.47 293.78 293.413 292 293.292Z" fill="black"/>
<path d="M293 295C294.232 295.908 295.411 296.877 296.581 297.855C297.186 298.326 297.723 298.88 298.313 299.271C298.907 299.68 299.573 299.984 300.28 300.168C300.961 300.364 301.748 300.393 302.525 300.531C303.299 300.653 304.065 300.813 304.822 301.011C306.37 301.321 307.808 302.006 309 303C308.359 302.593 307.656 302.284 306.916 302.083C306.187 301.86 305.443 301.684 304.689 301.557C303.934 301.432 303.179 301.302 302.417 301.213C301.63 301.141 300.848 301.027 300.074 300.869C299.284 300.653 298.542 300.299 297.886 299.825C297.282 299.337 296.711 298.813 296.175 298.256C295.093 297.198 294.02 296.129 293 295Z" fill="black"/>
<path d="M274.999 270.51C274.386 269.271 273.637 268.105 272.767 267.031L272.913 267.126C271.456 266.897 270.098 266.248 269.008 265.257C268.439 264.684 268.089 263.931 268.018 263.127C267.982 262.729 268 262.327 268.071 261.933C268.168 261.558 268.285 261.188 268.423 260.826C269.088 259.413 270.26 258.299 271.706 257.705C272.43 257.361 273.218 257.173 274.019 257.152C274.882 257.147 275.725 257.411 276.43 257.908L275.181 258.306C275.371 257.79 275.633 257.302 275.957 256.858C276.265 256.422 276.625 256.026 277.03 255.677C277.847 254.981 278.817 254.486 279.862 254.232C280.871 253.991 281.916 253.937 282.944 254.073L283.678 254.167C283.965 254.209 284.246 254.279 284.519 254.375C285.026 254.547 285.512 254.776 285.968 255.057C287.69 256.167 289.066 257.733 289.943 259.581C290.804 261.33 291.43 263.184 291.807 265.096L290.014 265.206C290.17 263.989 290.537 262.809 291.099 261.719C291.66 260.596 292.495 259.631 293.528 258.914C294.584 258.225 295.812 257.846 297.073 257.818C297.374 257.806 297.676 257.815 297.976 257.845L298.425 257.874C298.6 257.881 298.775 257.91 298.944 257.958C299.55 258.138 300.123 258.417 300.638 258.783C302.488 260.232 303.855 262.205 304.561 264.444C305.307 266.562 305.79 268.764 306 271C305.507 268.844 304.8 266.743 303.889 264.727C303.06 262.761 301.694 261.067 299.947 259.837C299.535 259.585 299.087 259.394 298.618 259.273C298.518 259.249 298.415 259.239 298.312 259.245L297.925 259.241C296.687 259.179 295.464 259.528 294.446 260.233C293.684 260.865 293.058 261.645 292.607 262.526C292.156 263.407 291.889 264.369 291.822 265.356L291.822 265.362C291.799 265.576 291.7 265.774 291.544 265.922C291.388 266.07 291.185 266.158 290.97 266.171C290.755 266.183 290.542 266.119 290.37 265.99C290.198 265.861 290.078 265.675 290.03 265.465C289.667 263.723 289.079 262.035 288.281 260.444C287.536 258.914 286.402 257.605 284.993 256.647C284.657 256.434 284.298 256.259 283.922 256.126C283.756 256.063 283.584 256.018 283.408 255.99L282.755 255.899C281.93 255.78 281.09 255.807 280.274 255.979C279.493 256.142 278.76 256.485 278.136 256.983C277.527 257.477 277.043 258.108 276.724 258.824L276.685 258.915C276.604 259.106 276.449 259.257 276.256 259.335C276.062 259.412 275.846 259.41 275.654 259.329C275.59 259.301 275.529 259.265 275.474 259.222C275.007 258.906 274.463 258.72 273.899 258.685C273.336 258.649 272.773 258.765 272.27 259.021C271.097 259.434 270.114 260.257 269.503 261.338C269.187 261.844 269.033 262.435 269.063 263.031C269.093 263.627 269.305 264.199 269.671 264.671C270.571 265.638 271.73 266.327 273.01 266.656L273.042 266.665C273.09 266.679 273.13 266.71 273.157 266.751C273.94 267.914 274.56 269.179 274.999 270.51Z" fill="black"/>
<path d="M268.935 269.144C268.424 268.08 267.516 267.263 266.411 266.873C265.337 266.562 264.189 266.649 263.173 267.119C262.684 267.272 262.245 267.555 261.902 267.938C261.559 268.322 261.325 268.792 261.223 269.299C261.177 270.361 261.463 271.41 262.04 272.298C262.622 273.279 263.313 274.188 264.101 275.008C264.293 275.221 264.494 275.415 264.693 275.612L265.34 276.184C265.801 276.587 266.247 276.999 266.689 277.413C268.459 279.069 270.112 280.807 271.761 282.572C271.885 282.704 271.967 282.871 271.995 283.051L272.005 283.112C272.114 283.673 272.295 284.218 272.544 284.731C273.066 285.833 273.808 286.814 274.724 287.611C275.19 288.037 275.654 288.322 276.277 288.805C277.417 289.71 278.379 290.823 279.112 292.087C279.851 293.328 280.398 294.677 280.735 296.085L280.691 295.948C281.126 297.165 281.943 298.205 283.016 298.91C284.162 299.586 285.464 299.948 286.791 299.958C288.183 299.989 289.574 299.844 290.93 299.525C292.318 299.22 293.679 298.801 295 298.275C293.759 299.012 292.448 299.62 291.086 300.091C289.703 300.581 288.261 300.88 286.799 300.978C285.261 301.09 283.723 300.78 282.345 300.081C281.649 299.69 281.023 299.182 280.495 298.58C279.985 297.972 279.559 297.296 279.23 296.571L279.213 296.526L279.187 296.433C278.834 295.225 278.313 294.074 277.639 293.015C276.972 291.968 276.133 291.044 275.157 290.285C274.719 289.945 274.039 289.519 273.507 289.041C272.947 288.565 272.438 288.031 271.988 287.448C271.528 286.863 271.137 286.226 270.822 285.551C270.488 284.845 270.257 284.095 270.137 283.322L270.38 283.862C268.783 282.106 267.135 280.374 265.482 278.682C265.065 278.263 264.645 277.848 264.219 277.449L263.544 276.808C263.326 276.576 263.105 276.346 262.903 276.107C262.078 275.152 261.37 274.101 260.792 272.976C260.118 271.796 259.863 270.418 260.07 269.071C260.144 268.716 260.276 268.377 260.46 268.067C260.657 267.773 260.881 267.499 261.128 267.247L261.956 266.67L262.846 266.301C264.063 265.865 265.396 265.904 266.586 266.41C267.142 266.677 267.638 267.058 268.043 267.529C268.447 268 268.751 268.55 268.935 269.144Z" fill="black"/>
<path d="M271.158 283C270.933 282.02 270.949 280.982 271.203 280.012C271.326 279.506 271.542 279.039 271.838 278.649C271.982 278.449 272.161 278.287 272.361 278.175C272.561 278.064 272.779 278.004 273 278C272.672 278.246 272.4 278.586 272.207 278.989C272.021 279.379 271.875 279.796 271.773 280.229C271.536 281.105 271.392 282.033 271.158 283Z" fill="black"/>
<path d="M273 266.588C273.735 266.435 274.335 266.329 274.973 266.223C275.639 266.096 276.318 266.022 277 266C276.537 266.496 275.874 266.831 275.137 266.941C274.772 267.013 274.392 267.019 274.024 266.958C273.655 266.898 273.306 266.771 273 266.588Z" fill="black"/>
<path d="M276.916 258.51C276.905 259.333 277.01 260.153 277.226 260.944C277.418 261.735 277.824 262.451 278.398 263.008C278.702 263.273 279.054 263.472 279.434 263.591C279.814 263.709 280.213 263.747 280.608 263.7C281.018 263.665 281.425 263.596 281.824 263.492L283 263.052L281.86 263.605C281.46 263.75 281.048 263.861 280.631 263.936C280.197 264.025 279.751 264.021 279.319 263.926C278.888 263.831 278.479 263.646 278.118 263.383C277.41 262.815 276.876 262.049 276.578 261.175C276.261 260.324 276.067 259.428 276.002 258.518C275.996 258.455 276.003 258.392 276.021 258.332C276.039 258.272 276.069 258.216 276.108 258.168C276.147 258.12 276.195 258.081 276.249 258.052C276.303 258.024 276.362 258.006 276.423 258.001C276.483 257.997 276.544 258.004 276.601 258.024C276.659 258.044 276.712 258.075 276.758 258.116C276.804 258.157 276.841 258.207 276.868 258.264C276.895 258.32 276.911 258.381 276.915 258.444C276.916 258.459 276.917 258.473 276.917 258.487L276.916 258.51Z" fill="black"/>
<path d="M280 264C280.695 264.917 281.308 265.878 281.836 266.875C282.426 267.878 282.83 268.956 283.032 270.069C283.089 270.276 283.203 270.468 283.364 270.629C283.525 270.789 283.729 270.914 283.957 270.991C284.481 271.219 285.042 271.375 285.621 271.453C286.213 271.547 286.819 271.551 287.413 271.466C288.025 271.421 288.594 271.173 289 270.774C288.847 271.025 288.635 271.246 288.378 271.423C288.121 271.6 287.825 271.728 287.507 271.8C286.875 271.963 286.214 272.027 285.556 271.99C284.884 271.964 284.223 271.826 283.611 271.584C283.254 271.463 282.939 271.264 282.696 271.007C282.453 270.75 282.291 270.443 282.224 270.116C282.023 269.077 281.7 268.059 281.261 267.077L280 264Z" fill="black"/>
<path d="M291.873 264.811C292.08 266.216 292.545 267.574 293.246 268.823C293.421 269.122 293.62 269.407 293.842 269.676C294.123 270 294.372 270.349 294.586 270.717C294.801 271.09 294.973 271.485 295.099 271.894C295.227 272.325 295.288 272.682 295.377 273.038C295.422 273.356 295.513 273.666 295.646 273.96C295.829 274.224 296.06 274.455 296.328 274.642C296.593 274.841 296.896 274.987 297.22 275.073C297.544 275.158 297.882 275.181 298.215 275.14C298.917 275.001 299.549 274.635 300.005 274.104C300.518 273.557 300.955 272.949 301.304 272.294L301.285 272.352C301.519 271.293 301.675 270.22 301.751 269.14C301.853 268.056 301.778 266.963 301.528 265.901C301.86 266.953 302.018 268.048 301.998 269.146C302.004 270.248 301.928 271.349 301.771 272.44C301.769 272.457 301.764 272.473 301.756 272.488L301.751 272.498C301.43 273.224 301.011 273.905 300.506 274.527C299.985 275.212 299.237 275.707 298.384 275.93C297.934 276.02 297.471 276.023 297.021 275.94C296.57 275.857 296.141 275.689 295.759 275.445C295.366 275.21 295.02 274.908 294.739 274.554C294.586 274.358 294.474 274.135 294.409 273.897L294.234 273.336C294.076 272.646 293.8 271.986 293.419 271.382C293.224 271.097 293.002 270.832 292.755 270.588C292.46 270.279 292.19 269.949 291.949 269.601C291.03 268.225 290.378 266.701 290.024 265.103C289.996 264.987 289.993 264.868 290.013 264.751C290.033 264.635 290.078 264.523 290.143 264.423C290.208 264.322 290.294 264.236 290.394 264.167C290.495 264.098 290.608 264.049 290.728 264.023C290.848 263.996 290.973 263.993 291.094 264.012C291.216 264.032 291.332 264.075 291.436 264.137C291.541 264.2 291.631 264.282 291.703 264.378C291.774 264.475 291.825 264.584 291.853 264.699C291.858 264.72 291.862 264.742 291.866 264.763L291.873 264.811Z" fill="black"/>
<path d="M309.527 279.987C293.269 277.504 277.948 271.169 274.144 269.523C273.485 269.233 272.78 269.062 272.062 269.019C268.599 268.838 267.407 269.97 267.085 271.14C266.94 271.705 266.981 272.302 267.201 272.842C267.421 273.382 267.808 273.836 268.305 274.137L285.216 284.829L285.226 284.819C286.077 283.79 287.064 282.881 288.159 282.118C287.76 282.963 287.268 283.76 286.692 284.496C288.267 284.061 289.929 284.068 291.5 284.515C311.079 286.379 316 282.27 316 282.27C313.899 280.301 309.527 279.987 309.527 279.987ZM295.247 278.36L299.222 281.271L290.109 279.901L281.904 274.375L295.247 278.36ZM300.357 283.297C296.97 282.983 293.591 282.593 290.213 282.213C290.147 282.201 290.083 282.178 290.023 282.146C286.901 280.253 283.787 278.341 280.702 276.382L276.075 273.423C274.561 272.406 273.018 271.426 271.513 270.379C273.132 271.236 274.721 272.139 276.321 273.014L281.081 275.744C284.222 277.542 287.326 279.407 290.43 281.28C293.761 281.69 297.111 282.108 300.442 282.584C303.802 283.059 307.171 283.554 310.521 284.144C307.124 283.934 303.736 283.62 300.357 283.297H300.357Z" fill="black"/>
<path d="M175 145.962C175 145.962 172.601 144.5 170.362 147.099C170.362 147.099 166.365 141.328 149.414 146.326C149.414 146.326 151.653 150.673 153.252 150.673C154.851 150.673 150.213 158.146 145.896 157.822C145.896 157.822 138.54 168.706 144.137 179.266C149.653 189.674 153.616 192.98 159.088 186.229C159.256 186.019 159.443 185.827 159.647 185.654C161.221 184.335 168.187 178.854 170.656 182.941C171.182 183.849 171.332 184.932 171.075 185.952C169.948 190.747 164.678 208.409 149.414 201.36C149.414 201.36 131.626 194.583 135.821 178.53C136.27 176.897 136.92 175.328 137.758 173.862C138.565 172.364 139.062 170.714 139.219 169.013C139.376 167.313 139.19 165.598 138.672 163.973C138.029 161.657 136.578 159.658 134.591 158.349C132.664 157.128 130.124 156.582 128.2 159.996C127.403 161.416 126.984 163.022 126.981 164.657C126.978 166.153 127.252 167.988 128.465 168.869L126.981 171.793C126.174 170.125 125.143 168.579 123.916 167.201C121.861 165.087 120.541 162.349 120.156 159.404C119.613 154.732 120.267 147.756 125.746 139.626C125.746 139.626 133.103 124.68 146.855 125.005C160.608 125.33 172.441 129.067 175 145.962Z" fill="black"/>
<path d="M152 165.576C154.35 165.09 156.764 164.91 159.17 165.042C160.382 165.096 161.585 165.261 162.76 165.535C163.96 165.767 165.074 166.272 166 167C164.931 166.551 163.79 166.26 162.619 166.138C161.463 165.988 160.296 165.878 159.119 165.831C156.767 165.699 154.402 165.689 152 165.576Z" fill="black"/>
<path d="M175 165C174.194 165.274 173.449 165.734 172.812 166.35C172.51 166.629 172.264 166.976 172.089 167.369C171.915 167.762 171.817 168.191 171.801 168.629C171.861 169.528 172.071 170.406 172.422 171.218L173.385 173.868C174.103 175.662 174.52 177.588 174.616 179.55C174.615 180.067 174.53 180.58 174.366 181.063C174.19 181.552 173.901 181.981 173.53 182.306C172.777 182.838 171.887 183.074 171 182.979C171.831 182.9 172.623 182.546 173.274 181.961C173.541 181.642 173.742 181.261 173.864 180.846C173.986 180.43 174.024 179.99 173.978 179.556C173.914 178.638 173.748 177.732 173.482 176.861C173.235 175.968 172.939 175.084 172.624 174.203C172.321 173.315 171.994 172.432 171.699 171.523C171.558 171.064 171.415 170.607 171.304 170.123C171.167 169.623 171.12 169.097 171.167 168.576C171.217 168.058 171.367 167.558 171.609 167.113C171.85 166.668 172.176 166.288 172.564 166C173.293 165.454 174.128 165.111 175 165Z" fill="black"/>
<path d="M175.003 146C175.306 147.799 175.531 149.607 175.678 151.425C175.846 153.24 175.95 155.06 175.99 156.886C176.018 158.712 175.991 160.54 175.848 162.371C175.763 164.236 175.344 166.072 174.609 167.791C174.599 167.812 174.585 167.832 174.569 167.85C174.002 168.456 173.47 169.094 172.975 169.759C172.73 170.093 172.511 170.445 172.322 170.813C172.112 171.171 172.027 171.589 172.083 172C171.953 171.586 171.976 171.14 172.149 170.742C172.297 170.341 172.478 169.952 172.689 169.579C173.111 168.836 173.598 168.132 174.146 167.475L174.105 167.533C174.418 166.712 174.627 165.856 174.726 164.983C174.866 164.103 174.922 163.205 174.989 162.309C175.096 160.512 175.114 158.703 175.125 156.894C175.125 153.273 175.045 149.644 175.003 146Z" fill="black"/>
<path d="M165.538 178C165.441 178.269 165.362 178.549 165.303 178.837C165.243 179.103 165.229 179.384 165.264 179.658C165.293 179.93 165.382 180.183 165.519 180.387C165.664 180.612 165.825 180.817 166 181C165.888 180.956 165.778 180.903 165.671 180.842C165.566 180.765 165.467 180.674 165.376 180.57C165.186 180.349 165.057 180.047 165.011 179.715C164.979 179.386 165.016 179.051 165.117 178.749C165.212 178.459 165.356 178.203 165.538 178Z" fill="black"/>
<path d="M128 169C128.547 169.631 128.983 170.338 129.292 171.093C129.458 171.478 129.578 171.879 129.651 172.289C129.689 172.503 129.705 172.721 129.697 172.938L129.692 173.106L129.703 173.196C129.699 173.255 129.713 173.314 129.743 173.367C129.879 173.632 130.118 173.842 130.413 173.953C130.764 174.117 131.133 174.246 131.515 174.337C132.326 174.538 133.16 174.649 134 174.669C133.17 174.968 132.272 175.067 131.389 174.956C130.928 174.913 130.477 174.806 130.051 174.64C129.8 174.551 129.57 174.416 129.376 174.245C129.182 174.073 129.027 173.868 128.919 173.641C128.862 173.513 128.835 173.376 128.837 173.238L128.834 173.034L128.841 172.907C128.851 172.731 128.847 172.554 128.828 172.379C128.793 172.007 128.73 171.637 128.639 171.273C128.46 170.526 128.224 169.775 128 169Z" fill="black"/>
<path d="M127 172C126.632 173.302 126.114 174.559 125.455 175.746C124.809 176.951 124.03 178.083 123.132 179.122C122.232 180.18 121.166 181.09 119.973 181.82C118.776 182.544 117.407 182.951 116 183C117.288 182.622 118.497 182.027 119.574 181.24C120.628 180.448 121.588 179.543 122.435 178.542C123.305 177.542 124.109 176.49 124.843 175.39C125.582 174.286 126.316 173.166 127 172Z" fill="black"/>
<path d="M139 209C140.032 208.593 141.008 208.079 141.909 207.469C142.802 206.87 143.649 206.217 144.445 205.515C145.266 204.833 146.001 204.072 146.766 203.326L147.878 202.171C148.24 201.777 148.601 201.38 149 201C148.772 201.476 148.508 201.937 148.244 202.4C147.945 202.842 147.652 203.291 147.323 203.719C146.661 204.577 145.908 205.375 145.074 206.102C144.237 206.836 143.302 207.474 142.292 208.002C141.29 208.549 140.166 208.89 139 209Z" fill="black"/>
<path d="M122.214 178.24C121.404 177.024 120.403 175.952 119.249 175.066C119.009 174.852 118.718 174.703 118.405 174.636C118.091 174.569 117.766 174.585 117.461 174.682C116.921 175.054 116.533 175.612 116.371 176.252C116.149 176.934 115.988 177.635 115.892 178.347C115.844 178.702 115.801 179.07 115.77 179.411C115.771 179.735 115.799 180.116 115.832 180.47C115.972 181.923 116.238 183.361 116.627 184.767C117.343 187.628 118.456 190.372 119.932 192.916C121.427 195.46 123.216 197.815 125.261 199.931C126.286 200.981 127.352 201.992 128.433 202.977C129.557 203.915 130.63 204.923 131.799 205.785C132.363 206.246 132.985 206.62 133.574 207.043C134.198 207.406 134.796 207.818 135.446 208.126C136.701 208.817 138.036 209.347 139.42 209.703C142.185 210.446 145.122 210.134 147.674 208.826C150.239 207.44 152.393 205.388 153.916 202.88C153.921 202.87 153.931 202.862 153.942 202.858C153.954 202.854 153.966 202.855 153.977 202.861C153.987 202.867 153.994 202.877 153.998 202.888C154.001 202.899 154.001 202.911 153.996 202.922C152.672 205.645 150.591 207.916 148.008 209.457C146.685 210.217 145.231 210.711 143.723 210.912C142.211 211.093 140.679 210.994 139.201 210.621C137.734 210.268 136.322 209.712 135.005 208.969C134.332 208.631 133.722 208.193 133.084 207.802C132.485 207.355 131.851 206.953 131.283 206.469C130.092 205.563 129.05 204.505 127.948 203.512C127.386 203.027 126.909 202.449 126.393 201.917C125.896 201.365 125.358 200.854 124.896 200.27C122.969 198.015 121.22 195.611 119.663 193.079C118.078 190.549 116.816 187.825 115.906 184.973C115.462 183.53 115.172 182.043 115.041 180.538C115.016 180.152 114.993 179.793 115.002 179.374C115.045 178.978 115.098 178.609 115.158 178.229C115.278 177.472 115.466 176.728 115.721 176.006C115.836 175.608 116.028 175.237 116.285 174.914C116.543 174.592 116.862 174.324 117.223 174.128C117.629 173.967 118.078 173.958 118.49 174.102C118.865 174.232 119.214 174.426 119.524 174.675C120.661 175.656 121.601 176.851 122.292 178.192C122.295 178.197 122.297 178.203 122.297 178.209C122.298 178.215 122.298 178.221 122.296 178.227C122.294 178.233 122.292 178.238 122.288 178.243C122.284 178.247 122.28 178.251 122.275 178.254C122.265 178.26 122.253 178.261 122.242 178.258C122.231 178.256 122.221 178.249 122.214 178.24Z" fill="black"/>
<path d="M125.391 174.138C123.95 173.246 122.344 172.66 120.67 172.415C119.021 172.112 117.319 172.419 115.877 173.279C115.198 173.755 114.626 174.37 114.2 175.085L112.737 177.2C111.768 178.637 110.684 179.992 109.494 181.25C109.466 181.278 109.433 181.299 109.397 181.313C109.36 181.327 109.321 181.333 109.283 181.331L109.261 181.329C103.233 180.97 97.1844 180.826 91.1518 180.867C88.1349 180.892 85.1211 181.014 82.1247 181.251C79.1513 181.416 76.2074 181.931 73.3526 182.783L73.3021 182.797L73.233 182.812C71.653 183.219 70.1479 183.878 68.7752 184.764C68.0612 185.2 67.3741 185.678 66.7177 186.197L65.7232 186.967C65.4023 187.238 65.0998 187.533 64.7872 187.814C62.2965 190.105 60.0838 192.683 58.195 195.497C54.4039 201.171 51.3054 207.283 48.9661 213.702C48.3879 215.313 47.7547 216.903 47.2212 218.529L45.6944 223.437C45.1778 225.052 44.7157 226.765 44.1139 228.401C43.5288 230.053 42.8441 231.651 42.1887 233.238L40.1708 238.005L39.1199 240.38C38.7618 241.202 38.3626 242.005 37.9239 242.786C37.8349 242.932 37.7337 243.07 37.6216 243.198C37.6856 243.201 37.6911 243.053 37.6947 243.112C37.6844 243.205 37.6883 243.298 37.7062 243.39C37.7734 243.725 37.8884 244.049 38.0476 244.352C38.3997 245.028 38.8698 245.636 39.4355 246.145C40.5909 247.19 42.0358 247.855 43.5769 248.05L42.9711 249.53C42.0206 248.783 41.121 247.972 40.2783 247.104C39.8165 246.636 39.4138 246.113 39.0793 245.546C38.9785 245.361 38.8985 245.166 38.8407 244.964C38.8103 244.83 38.7898 244.695 38.7792 244.558C38.7792 244.379 38.8094 244.202 38.8687 244.033C38.9363 243.852 39.0449 243.689 39.1859 243.558C39.2514 243.496 39.3202 243.439 39.3922 243.385C39.4546 243.349 39.5154 243.32 39.5787 243.29C39.7909 243.192 40.0172 243.128 40.2492 243.102C40.9122 243.054 41.5785 243.102 42.2282 243.243C42.8352 243.354 43.4163 243.502 43.9952 243.655L45.7209 244.207L47.3901 244.88C51.7501 246.86 55.617 249.488 59.6424 251.801C63.6416 254.151 67.7778 256.256 72.0284 258.106C76.2931 259.934 80.6519 261.531 85.0861 262.89L85.0914 262.891C85.2129 262.929 85.318 263.008 85.3892 263.114C85.4604 263.22 85.4935 263.347 85.483 263.475C85.099 267.835 84.9434 272.212 85.0169 276.588C85.0471 278.764 85.2319 280.935 85.57 283.085C85.7307 284.134 86.0302 285.156 86.4605 286.125C86.6606 286.562 86.9603 286.944 87.335 287.242C87.4309 287.284 87.524 287.329 87.6168 287.379C87.7148 287.409 87.8192 287.407 87.9194 287.431C88.1447 287.458 88.4523 287.441 88.7148 287.449L114.928 287.521C123.665 287.564 132.403 287.516 141.14 287.506L167.353 287.417L167.05 287.551C168.835 285.66 170.789 283.937 172.886 282.404C174.979 280.849 177.253 279.557 179.657 278.555C182.086 277.526 184.696 276.999 187.332 277.005C188.669 277.029 189.998 277.223 191.288 277.582L194.919 278.807C196.133 279.203 197.35 279.589 198.569 279.947C199.742 280.344 200.955 280.608 202.187 280.733C203.554 280.888 204.876 281.32 206.074 282.002C206.704 282.341 207.273 282.783 207.757 283.311C208.028 283.602 208.238 283.946 208.374 284.321C208.511 284.696 208.571 285.095 208.55 285.494C208.584 286.174 208.561 286.856 208.482 287.531C208.398 288.316 208.069 289.054 207.541 289.638C206.972 290.202 206.223 290.546 205.427 290.609C204.726 290.684 204.019 290.662 203.324 290.542C202.662 290.437 202.008 290.287 201.366 290.093L199.533 289.536C198.947 289.367 198.351 289.236 197.749 289.144C197.25 289.041 196.735 289.046 196.238 289.159L196.42 287.903C198.844 289.612 201.692 290.612 204.646 290.792C206.14 290.872 207.637 290.786 209.112 290.534C210.635 290.325 212.145 290.068 213.68 289.811C214.452 289.688 215.22 289.552 216.069 289.497C216.535 289.458 217.003 289.486 217.461 289.58C218.014 289.699 218.513 289.995 218.884 290.424C219.203 290.806 219.448 291.245 219.605 291.718C220.055 292.989 220.122 294.366 219.798 295.675C219.57 296.544 219.164 297.355 218.606 298.057C218.048 298.759 217.35 299.335 216.557 299.75C215.072 300.517 213.455 300.994 211.793 301.156L212.518 300.607C212.13 301.498 211.649 302.345 211.082 303.133C210.519 303.929 209.863 304.654 209.129 305.293C208.357 305.943 207.479 306.454 206.534 306.803C205.562 307.133 204.534 307.264 203.511 307.189L204.286 306.869C202.711 308.715 201.166 310.527 199.393 312.272C199.167 312.489 198.927 312.708 198.661 312.924C198.387 313.134 198.1 313.326 197.801 313.5C197.242 313.817 196.66 314.094 196.061 314.328C194.893 314.785 193.685 315.133 192.454 315.368C190.015 315.825 187.525 315.941 185.055 315.71C184.439 315.667 183.831 315.567 183.219 315.497L181.404 315.177L179.703 314.897L177.972 314.715C173.259 314.471 168.534 314.625 163.847 315.174C159.127 315.656 154.421 316.372 149.738 317.207C147.414 317.622 145.113 318.172 142.769 318.691C140.434 319.213 138.092 319.721 135.743 320.199C131.043 321.143 126.323 322.004 121.575 322.688C112.081 324.106 102.502 324.868 92.9043 324.969C91.7047 324.974 90.5057 325.019 89.3062 324.991L85.7081 324.909C83.3085 324.892 80.914 324.72 78.5191 324.577C76.1213 324.475 73.7362 324.195 71.3485 323.961C70.1493 323.828 68.9747 323.754 67.7516 323.563C66.5406 323.374 65.3416 323.114 64.161 322.783C59.3924 321.489 55.0669 318.906 51.6532 315.314C48.235 311.702 46.0735 307.072 45.4932 302.119C44.4426 292.518 44.0207 282.905 43.7815 273.286C43.5728 263.669 43.5467 254.052 43.703 244.436C43.7033 244.411 43.7135 244.387 43.7313 244.369C43.7491 244.351 43.7732 244.342 43.7982 244.342C43.8232 244.342 43.8471 244.352 43.8646 244.37C43.8821 244.388 43.8918 244.412 43.8915 244.438C43.9315 254.049 44.1515 263.657 44.5515 273.261C44.9741 282.854 45.4956 292.465 46.6807 301.964C47.2891 306.633 49.3892 310.978 52.6644 314.342C55.928 317.709 60.0429 320.115 64.5654 321.301C65.6889 321.606 66.8294 321.843 67.9807 322.012C69.1202 322.182 70.333 322.251 71.5086 322.371C73.8771 322.583 76.2413 322.839 78.6194 322.92C80.9941 323.042 83.3672 323.192 85.7465 323.188L89.3127 323.238C90.5013 323.256 91.6904 323.201 92.8791 323.186L96.445 323.112L100.007 322.927C102.384 322.833 104.753 322.623 107.124 322.431C109.497 322.276 111.857 321.958 114.224 321.726C116.584 321.43 118.945 321.137 121.298 320.783C126.007 320.095 130.69 319.233 135.356 318.286C137.689 317.807 140.016 317.298 142.344 316.773C144.663 316.255 147.011 315.689 149.39 315.259C154.112 314.409 158.858 313.677 163.643 313.18C168.45 312.606 173.298 312.463 178.129 312.751L179.96 312.952L181.794 313.263L183.506 313.574C184.08 313.641 184.651 313.739 185.227 313.782C187.519 314.008 189.832 313.913 192.098 313.5C193.216 313.293 194.312 312.983 195.374 312.575C195.889 312.377 196.39 312.143 196.873 311.873C197.092 311.747 197.304 311.608 197.507 311.456C197.706 311.296 197.911 311.113 198.118 310.916C199.77 309.308 201.354 307.478 202.896 305.684C202.986 305.58 203.098 305.496 203.224 305.44C203.351 305.385 203.488 305.358 203.625 305.362L203.671 305.364C204.439 305.421 205.21 305.326 205.942 305.085C206.682 304.812 207.37 304.414 207.977 303.908C208.599 303.368 209.156 302.756 209.636 302.084C210.123 301.413 210.539 300.693 210.88 299.936L210.882 299.931C210.945 299.785 211.046 299.658 211.172 299.563C211.299 299.467 211.448 299.406 211.605 299.386C213.031 299.255 214.421 298.859 215.703 298.217C216.293 297.922 216.813 297.505 217.231 296.992C217.649 296.48 217.954 295.885 218.127 295.246C218.297 294.6 218.332 293.927 218.231 293.267C218.168 292.657 217.956 292.072 217.614 291.565C217.479 291.395 217.287 291.28 217.074 291.242C216.772 291.184 216.463 291.167 216.156 291.192C215.459 291.228 214.697 291.348 213.94 291.462C212.418 291.701 210.872 291.948 209.325 292.144C207.741 292.393 206.135 292.467 204.535 292.363C201.271 292.134 198.138 290.985 195.493 289.05L195.479 289.039C195.375 288.962 195.294 288.858 195.245 288.737C195.196 288.617 195.181 288.486 195.201 288.357C195.221 288.229 195.276 288.109 195.359 288.009C195.442 287.91 195.551 287.836 195.674 287.795C196.417 287.571 197.204 287.539 197.963 287.702C198.625 287.81 199.28 287.961 199.924 288.153L201.761 288.733C202.343 288.916 202.937 289.06 203.538 289.162C204.697 289.361 205.958 289.339 206.578 288.688C207.231 288.047 207.272 286.779 207.242 285.512C207.247 285.368 207.241 285.223 207.224 285.08C207.223 284.975 207.2 284.872 207.157 284.776C207.074 284.548 206.947 284.339 206.783 284.16C206.399 283.739 205.947 283.386 205.448 283.113C204.416 282.512 203.276 282.123 202.094 281.966C200.778 281.822 199.482 281.53 198.231 281.094C196.997 280.718 195.775 280.316 194.558 279.904L190.92 278.635C189.742 278.302 188.529 278.115 187.306 278.08C184.81 278.052 182.333 278.527 180.022 279.476C175.354 281.465 171.143 284.402 167.654 288.103L167.641 288.117C167.604 288.155 167.558 288.186 167.509 288.207C167.459 288.227 167.406 288.238 167.352 288.238L141.142 288.149C132.405 288.138 123.668 288.091 114.932 288.134L88.7225 288.206C88.4396 288.202 88.1986 288.223 87.8813 288.198C87.712 288.183 87.5441 288.155 87.379 288.115L86.9197 287.901C86.4202 287.534 86.0183 287.049 85.7496 286.489C85.2697 285.457 84.9307 284.364 84.7417 283.24C84.3655 281.051 84.1459 278.838 84.0847 276.618C83.9497 272.203 84.0462 267.784 84.3739 263.379L84.7708 263.964C80.2746 262.653 75.8518 261.1 71.5215 259.311C67.1964 257.497 62.9836 255.423 58.9061 253.099C54.8105 250.835 50.9121 248.205 46.7582 246.348L45.1832 245.72L43.5782 245.214C43.0305 245.071 42.4814 244.934 41.942 244.839C41.452 244.733 40.9502 244.692 40.4496 244.718C40.3827 244.736 40.2658 244.75 40.282 244.759L40.2711 244.756C40.2878 244.752 40.3029 244.743 40.3142 244.73C40.3222 244.704 40.377 244.666 40.3867 244.61C40.4151 244.385 40.3857 244.596 40.5101 244.768C40.7794 245.204 41.098 245.607 41.4595 245.969C42.2489 246.773 43.0903 247.524 43.9782 248.217L43.9859 248.223C44.1275 248.335 44.2287 248.49 44.274 248.666C44.3192 248.841 44.306 249.027 44.2364 249.194C44.1667 249.362 44.0445 249.501 43.8884 249.592C43.7324 249.683 43.5511 249.719 43.3723 249.696C41.4899 249.464 39.723 248.658 38.3092 247.386C37.5938 246.745 36.999 245.979 36.553 245.126C36.3099 244.666 36.1374 244.172 36.0413 243.661C35.9787 243.329 35.9874 242.987 36.0668 242.658C36.132 242.414 36.2534 242.189 36.4212 242C36.4399 241.948 36.4274 241.995 36.4881 241.885C36.8581 241.243 37.2332 240.429 37.5872 239.669L38.6376 237.327L40.6706 232.594C41.3378 231.002 42.0177 229.437 42.5903 227.845C43.1858 226.25 43.6288 224.635 44.1686 222.973L45.7373 218.022C46.2854 216.38 46.935 214.771 47.5289 213.145C49.945 206.624 53.1329 200.419 57.0238 194.666C58.0154 193.232 59.0786 191.85 60.2094 190.525C61.3614 189.209 62.5946 187.968 63.9016 186.808C64.2306 186.519 64.5485 186.218 64.8869 185.94L65.9378 185.147C66.6351 184.611 67.364 184.117 68.1204 183.669C69.6456 182.709 71.3201 182.013 73.0742 181.611L72.955 181.639C75.9153 180.789 78.965 180.292 82.0409 180.16C85.078 179.959 88.1146 179.876 91.1475 179.889C97.2148 179.902 103.266 180.212 109.308 180.697L109.075 180.776C110.258 179.571 111.342 178.272 112.317 176.891L113.818 174.817C114.291 174.068 114.916 173.427 115.651 172.936C116.394 172.454 117.241 172.155 118.121 172.066C118.983 171.963 119.856 171.98 120.713 172.118C122.417 172.403 124.045 173.037 125.496 173.981C125.517 173.995 125.532 174.016 125.537 174.04C125.543 174.065 125.539 174.09 125.526 174.111C125.512 174.132 125.492 174.148 125.467 174.153C125.443 174.159 125.418 174.155 125.397 174.142L125.391 174.138Z" fill="black"/>
<path d="M81 191C82.1811 191.335 83.2528 191.974 84.107 192.855C84.9872 193.722 85.6911 194.75 86.1801 195.884C86.6701 197.011 86.9455 198.22 86.9924 199.448C87.0159 200.052 86.9849 200.658 86.8998 201.257C86.7966 201.851 86.6393 202.434 86.4298 203C86.2196 202.415 86.1247 201.85 85.9703 201.298C85.8046 200.749 85.7053 200.203 85.5211 199.681C85.2272 198.645 84.867 197.628 84.4426 196.637C84.0168 195.652 83.519 194.7 82.9532 193.788C82.3606 192.819 81.7082 191.888 81 191Z" fill="black"/>
<path d="M85.1714 213C85.5559 217.252 85.7435 221.504 85.8618 225.755C85.9925 230.006 86.0065 234.256 85.998 238.506C85.9521 242.756 85.881 247.006 85.6939 251.255C85.5192 255.504 85.2736 259.753 84.8296 264C84.4426 259.747 84.2539 255.496 84.1362 251.245C84.006 246.994 83.9919 242.744 84.003 238.494C84.0514 234.244 84.1223 229.994 84.3101 225.745C84.4853 221.496 84.7298 217.247 85.1714 213Z" fill="black"/>
<path d="M171.146 186.014C174.635 188.173 178.06 190.422 181.421 192.76C183.103 193.928 184.772 195.116 186.426 196.326L188.888 198.186C189.32 198.506 189.727 198.858 190.105 199.239L190.69 199.844L191.183 200.461C192.459 202.089 193.624 203.799 194.668 205.581C195.72 207.337 196.744 209.105 197.74 210.884C199.708 214.458 201.735 217.992 203.821 221.487C204.864 223.235 205.927 224.972 207.01 226.698L208.63 229.285C209.11 230.131 209.681 230.923 210.332 231.648C211.022 232.318 211.844 232.982 212.559 233.815C213.406 234.688 213.916 235.827 214 237.033C213.936 238.271 213.391 239.436 212.479 240.285C212.089 240.675 211.679 241.044 211.251 241.392C210.867 241.697 210.495 242.018 210.13 242.349C209.397 243.015 208.723 243.715 208.037 244.467C207.338 245.23 206.615 245.971 205.882 246.703C204.4 248.166 202.827 249.535 201.172 250.802C199.485 252.095 197.648 253.184 195.7 254.046C194.678 254.474 193.605 254.768 192.506 254.92C191.353 255.09 190.175 254.988 189.068 254.625C188.892 254.572 188.742 254.457 188.646 254.301L188.64 254.291C187.925 253.119 187.142 251.951 186.35 250.807C185.559 249.659 184.731 248.538 183.865 247.445C182.995 246.36 182.066 245.323 181.082 244.339C180.134 243.327 178.973 242.532 177.681 242.013L177.674 242.01C177.651 242.002 177.632 241.986 177.621 241.965C177.61 241.944 177.607 241.919 177.614 241.896C177.62 241.873 177.635 241.854 177.655 241.841C177.676 241.829 177.7 241.824 177.724 241.829C179.136 242.189 180.441 242.875 181.533 243.831C182.653 244.727 183.702 245.705 184.672 246.758C186.621 248.846 188.412 251.072 190.03 253.42L189.602 253.085C191.416 253.452 193.302 253.18 194.936 252.318C196.719 251.478 198.396 250.431 199.93 249.2C201.52 247.979 203.04 246.673 204.483 245.286C205.214 244.595 205.936 243.894 206.635 243.17C207.343 242.433 208.107 241.681 208.905 240.996C209.306 240.651 209.717 240.315 210.142 239.995C210.526 239.678 210.891 239.406 211.213 239.083C211.837 238.551 212.245 237.814 212.36 237.007C212.311 236.171 211.973 235.376 211.404 234.755C210.82 234.013 210.084 233.34 209.368 232.532C209.18 232.321 209.003 232.1 208.84 231.869L208.427 231.178L207.684 229.83L206.231 227.14C205.273 225.342 204.294 223.558 203.294 221.786C201.29 218.245 199.177 214.763 196.888 211.395C194.62 208.032 192.318 204.627 189.86 201.52L189.395 200.946L188.911 200.456C188.578 200.104 188.218 199.78 187.833 199.485L185.438 197.604L180.602 193.849C177.371 191.348 174.182 188.788 171.034 186.167C171.016 186.152 171.004 186.13 171.001 186.106C170.998 186.082 171.004 186.058 171.018 186.039C171.032 186.02 171.054 186.006 171.077 186.002C171.101 185.997 171.126 186.002 171.146 186.014L171.146 186.014Z" fill="black"/>
<path d="M184 216C182.347 222.232 180.786 228.479 179.483 234.751C178.812 237.859 178.344 241.009 178.081 244.178C177.991 245.703 177.982 247.386 177.849 249.016C177.719 250.68 177.441 252.328 177.02 253.942C176.028 257.132 174.438 260.103 172.335 262.695C171.364 263.995 170.334 265.252 169.371 266.514C168.907 267.141 168.437 267.764 168.021 268.435C167.574 269.082 167.171 269.763 166.769 270.446C165.188 273.218 163.774 276.084 162.535 279.026C161.228 281.958 160.101 284.969 159 288C160.402 281.665 162.579 275.528 165.481 269.728C166.23 268.262 167.088 266.854 168.048 265.517C169 264.196 169.975 262.936 170.894 261.633C172.828 259.194 174.289 256.413 175.202 253.434C175.607 251.934 175.878 250.402 176.013 248.854C176.163 247.275 176.158 245.734 176.302 244.045C176.64 240.799 177.224 237.584 178.05 234.427C179.636 228.162 181.623 222.007 184 216Z" fill="black"/>
<path d="M212 239C214.052 240.625 215.996 242.357 217.971 243.97C218.47 244.362 218.968 244.748 219.456 245.087L220.269 245.581C220.567 245.774 220.852 245.976 221.123 246.189C222.17 247.049 223.134 248.01 224 249.059C225.72 251.137 227.073 253.503 227.998 256.054C228.966 258.579 229.239 261.327 228.789 264C228.517 261.433 227.798 258.935 226.666 256.625C225.563 254.348 224.189 252.218 222.576 250.284C221.799 249.312 220.939 248.413 220.006 247.597C219.781 247.393 219.548 247.204 219.315 247.03L218.506 246.457C217.975 246.037 217.471 245.582 216.998 245.094C215.152 243.225 213.478 241.184 212 239Z" fill="black"/>
<path d="M191 254C192.808 256.476 194.044 259.338 194.614 262.371C194.678 262.757 194.733 263.147 194.784 263.539C194.819 263.918 194.823 264.366 194.87 264.691C194.941 265.355 195.096 266.006 195.331 266.629C195.844 267.96 196.501 269.227 197.291 270.408C198.073 271.631 198.933 272.8 199.866 273.907C200.317 274.477 200.815 275.007 201.294 275.555C201.813 276.059 202.287 276.621 202.822 277.11C204.862 279.224 207.305 280.889 210 282C208.499 281.844 207.038 281.41 205.69 280.718C204.343 280.017 203.068 279.18 201.885 278.22C199.503 276.303 197.433 274.014 195.753 271.436C194.899 270.117 194.206 268.696 193.689 267.206C193.439 266.408 193.296 265.579 193.264 264.741C193.239 264.318 193.25 264.013 193.25 263.641L193.197 262.565C192.868 259.618 192.128 256.734 191 254Z" fill="black"/>
<path d="M212 278C212.175 276.801 212.566 275.65 213.151 274.609C213.726 273.557 214.424 272.586 215.228 271.72C216.042 270.87 216.945 270.121 217.919 269.49C218.403 269.176 218.903 268.892 219.417 268.638C219.941 268.409 220.466 268.186 221 268C220.071 268.685 219.156 269.343 218.287 270.059C217.42 270.766 216.595 271.529 215.816 272.344C215.049 273.166 214.34 274.047 213.696 274.981C213.038 275.925 212.47 276.937 212 278Z" fill="black"/>
<path d="M215.014 280.383C217.136 277.011 219.461 273.77 221.976 270.676C223.233 269.126 224.54 267.612 225.896 266.133C227.276 264.663 228.737 263.27 230.273 261.961C231.838 260.595 233.6 259.469 235.5 258.62C236.527 258.19 237.633 257.979 238.747 258.002C239.889 258.031 241.005 258.348 241.99 258.923C243.824 260.098 245.227 261.829 245.991 263.859C246.389 264.825 246.677 265.833 246.849 266.863C247.062 267.929 247.04 269.028 246.786 270.084L246.48 269.419C248.629 270.508 250.698 271.688 252.75 272.916C254.798 274.145 256.819 275.419 258.767 276.805C260.757 278.153 262.6 279.702 264.268 281.428C265.112 282.318 265.828 283.32 266.396 284.406C267.019 285.561 267.167 286.913 266.808 288.175L266.818 288.14C266.548 289.185 265.966 290.124 265.15 290.836C264.706 291.189 264.19 291.441 263.637 291.575C263.085 291.709 262.509 291.721 261.952 291.61C260.917 291.401 259.934 290.993 259.056 290.409C258.213 289.862 257.417 289.246 256.675 288.569L257.955 288.02C257.919 289.321 257.639 290.605 257.128 291.804C256.628 293.014 255.88 294.108 254.93 295.016C253.979 295.909 252.865 296.614 251.647 297.092C251.132 297.313 250.63 297.564 250.144 297.842C249.92 297.969 249.706 298.111 249.501 298.266C249.424 298.325 249.352 298.389 249.285 298.46C249.234 298.503 249.248 298.555 249.294 298.386L248.969 297.478C249.565 297.991 250.057 298.612 250.42 299.307C250.807 300.02 251.01 300.819 251.01 301.63C251.01 302.441 250.807 303.239 250.42 303.953C250.068 304.631 249.604 305.246 249.048 305.772C247.931 306.817 246.512 307.488 244.991 307.69C244.284 307.775 243.573 307.808 242.862 307.789C242.097 307.788 241.336 307.668 240.609 307.433L241.284 307.435C239.06 308.12 236.774 308.588 234.458 308.833C232.148 309.068 229.819 309.055 227.512 308.796C226.311 308.683 225.131 308.406 224.006 307.973C223.381 307.733 222.814 307.362 222.347 306.884C221.879 306.407 221.52 305.835 221.295 305.207C220.964 303.95 221.117 302.616 221.722 301.464C221.992 300.907 222.342 300.391 222.761 299.933C223.207 299.379 223.848 299.014 224.554 298.91L224.475 298.919C224.808 298.87 225.144 298.842 225.481 298.836C225.812 298.828 226.143 298.84 226.473 298.872C227.147 298.926 227.805 299.101 228.417 299.388L227.924 299.959C227.621 299.424 227.383 298.854 227.218 298.261C227.047 297.672 226.97 297.06 226.991 296.447C227.013 295.828 227.189 295.224 227.503 294.689C227.823 294.173 228.256 293.736 228.771 293.412C228.792 293.399 228.818 293.394 228.843 293.398C228.868 293.403 228.89 293.418 228.904 293.439C228.917 293.459 228.921 293.483 228.918 293.507C228.914 293.53 228.901 293.552 228.883 293.567C228.435 293.912 228.073 294.354 227.824 294.86C227.589 295.357 227.477 295.903 227.5 296.453C227.526 297.004 227.64 297.548 227.836 298.065C228.026 298.581 228.278 299.073 228.585 299.531C228.632 299.599 228.655 299.681 228.652 299.763C228.65 299.846 228.62 299.925 228.569 299.99C228.518 300.055 228.447 300.102 228.367 300.124C228.287 300.147 228.202 300.143 228.124 300.114L228.093 300.103C227.552 299.906 226.984 299.798 226.409 299.782C226.116 299.771 225.822 299.778 225.53 299.801C225.243 299.823 224.958 299.863 224.677 299.921L224.639 299.927L224.597 299.93C224.197 300.068 223.85 300.327 223.606 300.672C223.289 301.064 223.03 301.5 222.838 301.966C222.43 302.842 222.361 303.838 222.644 304.762C222.822 305.183 223.09 305.562 223.428 305.872C223.767 306.182 224.169 306.415 224.606 306.557C225.602 306.89 226.638 307.089 227.686 307.148C229.871 307.314 232.067 307.247 234.237 306.949C236.403 306.682 238.539 306.211 240.615 305.541C240.826 305.471 241.055 305.469 241.267 305.536L241.291 305.543C242.413 305.789 243.57 305.835 244.709 305.681C245.808 305.54 246.835 305.061 247.646 304.31C248.442 303.622 248.941 302.656 249.04 301.612C249.044 301.113 248.927 300.62 248.698 300.175C248.462 299.708 248.146 299.285 247.763 298.926L247.695 298.863C247.58 298.758 247.495 298.624 247.45 298.475C247.405 298.326 247.401 298.168 247.439 298.017C247.514 297.703 247.675 297.415 247.905 297.187C248.045 297.042 248.198 296.909 248.361 296.789C248.635 296.587 248.924 296.404 249.223 296.241C249.782 295.935 250.357 295.662 250.947 295.422C251.975 295.049 252.921 294.482 253.732 293.751C254.528 293.016 255.171 292.131 255.622 291.148C256.081 290.162 256.357 289.103 256.436 288.019L256.44 287.963C256.449 287.82 256.498 287.683 256.583 287.567C256.668 287.452 256.785 287.363 256.919 287.311C257.053 287.259 257.2 287.246 257.341 287.274C257.482 287.303 257.612 287.371 257.716 287.47C258.376 288.113 259.085 288.705 259.837 289.24C260.54 289.768 261.339 290.155 262.19 290.382C262.577 290.486 262.982 290.503 263.376 290.432C263.77 290.361 264.143 290.204 264.468 289.971C265.137 289.436 265.63 288.714 265.886 287.899L265.896 287.864C266.231 286.831 266.15 285.709 265.668 284.734C265.19 283.688 264.546 282.725 263.759 281.883C262.156 280.16 260.369 278.614 258.431 277.274C254.522 274.599 250.359 272.31 246.001 270.441C245.884 270.389 245.789 270.298 245.731 270.184C245.674 270.069 245.658 269.939 245.686 269.814L245.695 269.775C245.84 268.885 245.797 267.975 245.571 267.102C245.364 266.186 245.055 265.295 244.649 264.447C243.921 262.771 242.7 261.354 241.146 260.382C240.379 259.968 239.526 259.735 238.654 259.702C237.782 259.668 236.914 259.835 236.117 260.189C234.371 260.955 232.745 261.967 231.289 263.195C229.761 264.422 228.302 265.732 226.919 267.119C225.509 268.493 224.146 269.923 222.822 271.391C220.19 274.341 217.628 277.372 215.171 280.491C215.164 280.501 215.154 280.509 215.143 280.515C215.133 280.522 215.121 280.526 215.108 280.528C215.096 280.529 215.083 280.529 215.071 280.526C215.059 280.522 215.047 280.517 215.037 280.51C215.019 280.495 215.006 280.474 215.002 280.451C214.997 280.427 215.002 280.403 215.014 280.383Z" fill="black"/>
<path d="M234.276 266C234.286 267.795 234.505 269.582 234.929 271.322C235.148 272.145 235.498 272.923 235.962 273.626C236.401 274.287 237.062 274.753 237.815 274.93C238.591 275.124 239.401 275.114 240.172 274.902C240.973 274.708 241.732 274.36 242.41 273.875C243.818 272.854 245.035 271.573 246 270.094C245.317 271.815 244.226 273.328 242.831 274.491C242.112 275.115 241.268 275.563 240.361 275.802C239.454 276.041 238.507 276.064 237.59 275.87C236.632 275.627 235.797 275.017 235.25 274.161C234.751 273.349 234.404 272.447 234.226 271.5C233.909 269.68 233.926 267.814 234.276 266Z" fill="black"/>
<path d="M248 283C249.828 283.061 251.607 283.571 253.155 284.478C253.935 284.916 254.658 285.438 255.31 286.031C255.962 286.617 256.53 287.279 257 288C256.316 287.449 255.658 286.902 254.958 286.406C254.27 285.905 253.549 285.443 252.8 285.023C252.054 284.599 251.28 284.219 250.482 283.886C249.675 283.542 248.847 283.246 248 283Z" fill="black"/>
<path d="M228 300C228.432 300.376 228.929 300.692 229.474 300.936C230.003 301.201 230.541 301.45 231.084 301.693C232.172 302.176 233.275 302.638 234.385 303.092C236.597 304.02 238.837 304.906 241 306C238.569 305.511 236.208 304.791 233.961 303.853C232.83 303.389 231.739 302.856 230.695 302.257C229.599 301.704 228.674 300.929 228 300Z" fill="black"/>
<path d="M244.913 287C245.266 287.202 245.574 287.478 245.818 287.813C245.959 287.99 246.06 288.198 246.115 288.422C246.17 288.645 246.177 288.878 246.136 289.105C246.008 289.554 245.74 289.946 245.374 290.219C245.045 290.483 244.684 290.703 244.3 290.872C244.125 290.949 243.955 291.04 243.791 291.142C243.637 291.221 243.487 291.311 243.344 291.412L242.955 291.769C242.838 291.902 242.73 292.043 242.633 292.193C242.221 292.791 241.975 293.495 241.921 294.229C241.818 294.953 241.922 295.693 242.22 296.356C242.519 297.019 242.997 297.574 243.597 297.954C243.744 298.059 243.908 298.136 244.08 298.184C244.251 298.242 244.416 298.322 244.593 298.37C244.957 298.444 245.327 298.491 245.698 298.51C246.08 298.52 246.462 298.507 246.843 298.468C247.222 298.398 247.607 298.339 248 298.287C247.637 298.436 247.266 298.58 246.889 298.713C246.503 298.825 246.111 298.911 245.714 298.971C245.306 299.007 244.896 299.009 244.487 298.978C244.281 298.941 244.077 298.891 243.876 298.83C243.667 298.789 243.465 298.714 243.278 298.609C242.482 298.232 241.837 297.576 241.455 296.754C241.086 295.938 240.937 295.033 241.024 294.135C241.112 293.237 241.432 292.382 241.951 291.66C242.083 291.481 242.227 291.312 242.384 291.155L242.898 290.734C243.26 290.516 243.641 290.335 244.036 290.194C244.725 290.029 245.327 289.592 245.714 288.975C245.772 288.806 245.793 288.626 245.776 288.448C245.759 288.27 245.705 288.098 245.617 287.944C245.433 287.592 245.195 287.273 244.913 287Z" fill="black"/>
<path d="M237.025 269C237.134 269.456 237.284 269.902 237.474 270.334C237.632 270.744 237.912 271.105 238.282 271.374C238.467 271.496 238.679 271.579 238.901 271.618C239.124 271.657 239.354 271.651 239.574 271.6C239.815 271.559 240.053 271.503 240.286 271.431C240.52 271.348 240.751 271.251 241 271.175C240.805 271.33 240.59 271.465 240.38 271.613C240.145 271.729 239.901 271.828 239.65 271.909C239.381 271.994 239.094 272.02 238.811 271.985C238.529 271.95 238.259 271.855 238.023 271.708C237.593 271.383 237.287 270.937 237.153 270.438C237.01 269.971 236.967 269.482 237.025 269Z" fill="black"/>
<path d="M238 268.226C238.53 268.071 239.078 267.995 239.628 268C240.189 268.003 240.746 268.095 241.279 268.272C241.835 268.46 242.32 268.823 242.667 269.31C242.966 269.816 243.069 270.419 242.955 271C242.891 270.467 242.692 269.961 242.378 269.534C242.04 269.15 241.605 268.872 241.123 268.728C240.109 268.412 239.058 268.243 238 268.226Z" fill="black"/>
<path d="M245 296.3C245.199 295.902 245.503 295.562 245.88 295.315C246.082 295.18 246.309 295.085 246.548 295.037C246.788 294.989 247.035 294.988 247.275 295.035C247.733 295.177 248.135 295.454 248.426 295.827C248.546 296.016 248.671 296.199 248.774 296.39C248.851 296.597 248.94 296.793 249 297C248.705 296.673 248.445 296.348 248.15 296.064C247.877 295.793 247.538 295.595 247.164 295.487C246.79 295.402 246.398 295.451 246.059 295.627C245.679 295.807 245.323 296.033 245 296.3Z" fill="black"/>
<path d="M229 298.936C229.02 298.194 229.176 297.467 229.455 296.806C229.529 296.621 229.633 296.456 229.762 296.322C229.89 296.188 230.039 296.087 230.2 296.025C230.371 295.985 230.546 295.993 230.714 296.047C230.882 296.101 231.037 296.201 231.169 296.338C231.425 296.574 231.643 296.866 231.811 297.2C231.982 297.553 232.04 297.971 231.973 298.373C231.881 298.736 231.725 299.07 231.516 299.351C231.307 299.632 231.049 299.853 230.762 300C231.226 299.59 231.556 298.992 231.692 298.314C231.717 297.997 231.656 297.68 231.521 297.409C231.367 297.133 231.174 296.894 230.951 296.702C230.863 296.597 230.757 296.517 230.64 296.469C230.523 296.42 230.399 296.405 230.277 296.424C230.034 296.522 229.827 296.723 229.695 296.99C229.389 297.596 229.155 298.251 229 298.936Z" fill="black"/>
<path d="M217 293.116C216.964 293.856 216.794 294.576 216.502 295.226C216.425 295.408 216.318 295.569 216.188 295.699C216.057 295.829 215.907 295.925 215.745 295.981C215.575 296.016 215.401 296.003 215.235 295.943C215.07 295.884 214.918 295.779 214.79 295.638C214.54 295.395 214.33 295.097 214.171 294.759C214.008 294.401 213.959 293.982 214.034 293.584C214.133 293.225 214.295 292.897 214.509 292.624C214.723 292.35 214.984 292.137 215.272 292C214.802 292.394 214.462 292.979 214.312 293.652C214.281 293.967 214.334 294.285 214.463 294.56C214.61 294.84 214.796 295.084 215.014 295.282C215.099 295.39 215.203 295.473 215.318 295.525C215.433 295.577 215.556 295.596 215.678 295.581C215.922 295.491 216.131 295.297 216.268 295.035C216.585 294.441 216.831 293.795 217 293.116Z" fill="black"/>
<path d="M224 305.048C224.181 304.574 224.436 304.131 224.755 303.734C224.918 303.524 225.114 303.34 225.334 303.19C225.461 303.097 225.609 303.035 225.765 303.011C225.921 302.987 226.08 303.001 226.23 303.052C226.494 303.201 226.693 303.442 226.787 303.728C226.882 303.973 226.942 304.229 226.966 304.49C227.028 304.994 227.005 305.504 226.899 306C226.844 305.511 226.76 305.026 226.646 304.547C226.593 304.319 226.522 304.095 226.434 303.877C226.333 303.686 226.212 303.479 226.059 303.434C225.771 303.278 225.323 303.63 224.994 303.95C224.644 304.299 224.313 304.666 224 305.048Z" fill="black"/>
<path d="M211.35 280L207.486 284.369C207.486 284.369 207.514 289.955 204.759 290.191C204.759 290.191 203.363 291.487 204.358 291.752C205.247 291.978 208.452 291.163 209.839 291.329C209.839 291.329 216.41 289.994 217.529 290.721C217.866 290.955 218.149 291.262 218.359 291.619C218.569 291.977 218.7 292.377 218.744 292.792L219.28 292.734L240.008 294L249 280L211.35 280ZM238.057 289.798L208.968 289.297L212.766 283.024H241.912L238.057 289.798Z" fill="black"/>
<path d="M188 290C189.072 289.24 190.284 288.688 191.571 288.374C192.878 288.047 194.233 287.933 195.579 288.037C195.699 288.047 195.811 288.102 195.89 288.192C195.969 288.281 196.008 288.397 195.999 288.515C195.99 288.632 195.933 288.741 195.841 288.818C195.75 288.895 195.631 288.934 195.51 288.926C195.491 288.924 195.472 288.922 195.454 288.918C194.204 288.679 192.923 288.642 191.662 288.81C190.374 288.974 189.131 289.379 188 290Z" fill="black"/>
<path d="M196 300.163C198.612 300.193 201.223 300.249 203.835 300.402C204.481 300.438 205.157 300.503 205.781 300.548C206.411 300.59 207.047 300.598 207.679 300.571C208.932 300.518 210.162 300.336 211.318 300.033L211.348 300.024C211.461 299.994 211.589 299.992 211.703 300.019C211.818 300.047 211.911 300.101 211.96 300.171C212.01 300.24 212.013 300.319 211.969 300.39C211.924 300.461 211.836 300.518 211.723 300.548L211.697 300.555C210.418 300.842 209.068 300.993 207.707 301C207.034 301.003 206.363 300.971 205.7 300.902C205.033 300.828 204.425 300.746 203.775 300.686C201.206 300.44 198.602 300.288 196 300.163Z" fill="black"/>
<path d="M198 307C198.883 306.798 199.776 306.61 200.677 306.436C201.589 306.254 202.519 306.109 203.461 306.004C203.583 305.991 203.707 306.01 203.807 306.056C203.907 306.102 203.974 306.171 203.994 306.248C204.014 306.325 203.984 306.404 203.912 306.467C203.84 306.531 203.731 306.573 203.609 306.586C203.585 306.588 203.56 306.589 203.535 306.589H203.526C202.605 306.596 201.686 306.641 200.774 306.723C199.849 306.799 198.923 306.893 198 307Z" fill="black"/>
<path d="M202 283C202.396 283.512 202.861 283.934 203.374 284.244C203.894 284.544 204.44 284.769 205 284.916C204.704 285.002 204.398 285.022 204.096 284.975C203.79 284.924 203.492 284.816 203.212 284.656C202.937 284.478 202.687 284.247 202.47 283.971C202.253 283.699 202.092 283.366 202 283Z" fill="black"/>
<path d="M215.959 300C215.706 300.001 215.462 299.903 215.283 299.727C215.103 299.551 215.001 299.311 215 299.061C214.999 298.811 215.098 298.57 215.276 298.392C215.454 298.215 215.697 298.114 215.95 298.113L228.037 298C228.163 297.997 228.288 298.018 228.406 298.064C228.523 298.109 228.63 298.177 228.72 298.265C228.81 298.352 228.881 298.456 228.929 298.571C228.977 298.687 229.001 298.81 229 298.935C229.001 299.059 228.978 299.182 228.931 299.297C228.884 299.412 228.815 299.516 228.727 299.605C228.639 299.693 228.535 299.764 228.419 299.812C228.304 299.861 228.18 299.886 228.055 299.888L215.967 300H215.959Z" fill="black"/>
<path d="M248.949 300C248.697 300 248.456 299.897 248.278 299.714C248.1 299.531 248 299.282 248 299.023C248 298.764 248.1 298.515 248.277 298.332C248.455 298.148 248.696 298.045 248.947 298.045L282.05 298H282.051C282.303 298 282.544 298.103 282.722 298.286C282.9 298.469 283 298.718 283 298.977C283 299.236 282.9 299.485 282.723 299.668C282.545 299.852 282.304 299.955 282.053 299.955L248.95 300H248.949Z" fill="black"/>
<path d="M467.939 299C467.69 299 467.451 298.948 467.275 298.857C467.099 298.765 467 298.64 467 298.51C467 298.38 467.099 298.255 467.275 298.163C467.45 298.071 467.689 298.019 467.938 298.019L498.06 298H498.061C498.31 298 498.549 298.052 498.725 298.143C498.901 298.235 499 298.36 499 298.49C499 298.62 498.901 298.745 498.725 298.837C498.55 298.929 498.311 298.981 498.062 298.981L467.94 299H467.939Z" fill="black"/>
<path d="M3.93848 302C3.69073 302.001 3.45267 301.915 3.27667 301.76C3.10068 301.605 3.00116 301.394 3.00001 301.174C2.99886 300.954 3.09617 300.742 3.27055 300.586C3.44492 300.429 3.68206 300.341 3.92981 300.34L45.0572 300C45.3028 300.004 45.5375 300.091 45.7129 300.244C45.8883 300.397 45.991 300.604 46 300.822C46.0011 300.931 45.9781 301.039 45.9323 301.14C45.8864 301.242 45.8185 301.334 45.7326 301.412C45.6467 301.489 45.5443 301.551 45.4314 301.594C45.3185 301.637 45.1972 301.659 45.0745 301.66L3.94714 302H3.93848Z" fill="black"/>
<path d="M160.5 171C160.903 170.991 161.284 170.882 161.564 170.695C161.844 170.509 162 170.259 162 170C162 169.741 161.844 169.491 161.564 169.305C161.284 169.118 160.903 169.009 160.5 169C160.097 169.009 159.716 169.118 159.436 169.305C159.156 169.491 159 169.741 159 170C159 170.259 159.156 170.509 159.436 170.695C159.716 170.882 160.097 170.991 160.5 171Z" fill="black"/>
<path d="M229.031 144.906L217.878 145.326C214.22 145.438 210.602 145.528 207.004 145.596C203.412 145.646 199.832 145.704 196.267 145.663C192.7 145.636 189.133 145.475 185.531 145.374L186.061 144.838C186.004 146.918 185.91 148.997 185.883 151.076C185.832 153.155 185.83 155.235 185.818 157.314C185.815 161.473 185.902 165.631 186.018 169.79L185.531 169.298L194.431 169.048C194.521 169.045 194.612 169.061 194.696 169.094C194.781 169.127 194.858 169.176 194.924 169.24L194.95 169.265L198.349 172.568H197.181L200.467 169.152C200.546 169.069 200.641 169.004 200.746 168.958C200.85 168.913 200.963 168.889 201.076 168.888L201.099 168.888C205.765 168.849 210.432 168.752 215.099 168.761C217.432 168.749 219.765 168.759 222.098 168.79L229.098 168.879L228.197 169.79C228.261 165.737 228.377 161.684 228.543 157.547L229.031 144.906ZM229.166 144.77L229.654 157.082C229.82 161.262 229.936 165.525 230 169.79C230.003 170.028 229.913 170.257 229.749 170.428C229.585 170.599 229.361 170.697 229.126 170.701H229.123L229.098 170.701L222.098 170.79C219.765 170.819 217.432 170.828 215.099 170.819C210.432 170.828 205.765 170.731 201.099 170.692L201.73 170.428L198.349 173.749L198.329 173.768C198.253 173.843 198.163 173.902 198.064 173.942C197.965 173.982 197.86 174.001 197.753 174C197.647 173.998 197.542 173.976 197.444 173.933C197.346 173.891 197.258 173.829 197.183 173.752L197.18 173.749L193.911 170.315L194.431 170.532L185.531 170.282L185.503 170.282C185.378 170.278 185.259 170.224 185.173 170.132C185.086 170.04 185.04 169.917 185.043 169.79V169.79C185.16 165.631 185.246 161.473 185.243 157.314C185.231 155.235 185.229 153.156 185.179 151.076C185.151 148.997 185.057 146.918 185 144.838C184.998 144.77 185.01 144.702 185.034 144.638C185.058 144.574 185.094 144.516 185.141 144.466C185.188 144.416 185.243 144.376 185.305 144.348C185.367 144.32 185.434 144.305 185.501 144.303H185.502L185.531 144.302C189.19 144.202 192.884 144.041 196.578 144.014C200.274 143.973 203.956 144.031 207.625 144.081C211.289 144.149 214.932 144.238 218.535 144.351L229.166 144.77Z" fill="black"/>
<path d="M355.381 99.8354L339.165 100.114L323.087 100.315L291.153 100.538L275.267 100.482L259.389 100.283C248.794 100.122 238.145 100.044 227.501 100.071L227.805 99.7693L227.861 111.884L228.002 123.998L227.501 123.501C236.882 123.374 246.262 123.254 255.643 123.19L283.784 123.035C293.165 122.963 302.545 123.046 311.926 123.044C321.307 123.033 330.687 123.155 340.068 123.23L340.081 123.23C340.282 123.232 340.474 123.313 340.615 123.455L343.879 126.755H342.844L346.174 123.521L346.186 123.508C346.248 123.448 346.321 123.401 346.402 123.369C346.482 123.337 346.568 123.321 346.655 123.322L355.447 123.449L354.895 123.998C354.959 120.022 355.011 116.046 355.122 112.017L355.381 99.8354ZM355.514 99.7029L355.772 111.75C355.883 115.797 355.936 119.898 356 123.998C356.002 124.142 355.947 124.28 355.846 124.383C355.746 124.486 355.609 124.545 355.464 124.547H355.464L355.447 124.547L346.655 124.674L347.136 124.476L343.879 127.784C343.745 127.92 343.562 127.998 343.37 128C343.177 128.002 342.992 127.928 342.855 127.795L342.854 127.794L342.843 127.784L339.52 124.542L340.068 124.767C330.687 124.842 321.306 124.964 311.926 124.953C302.545 124.951 293.165 125.033 283.784 124.961L255.643 124.807C246.262 124.743 236.881 124.623 227.501 124.496H227.488C227.423 124.495 227.359 124.481 227.3 124.456C227.24 124.431 227.186 124.394 227.14 124.347C227.095 124.301 227.059 124.247 227.035 124.187C227.011 124.127 226.999 124.063 227 123.998L227.14 111.884L227.197 99.7692C227.197 99.6892 227.229 99.6124 227.286 99.5558C227.343 99.4991 227.42 99.4672 227.501 99.4671C238.182 99.4938 248.857 99.4168 259.586 99.2553L275.695 99.0558L291.795 99L323.834 99.223L339.743 99.424L355.514 99.7029Z" fill="black"/>
<path d="M266.224 47.8556C259.304 48.051 252.503 48.187 245.739 48.304C238.962 48.4436 232.265 48.506 225.572 48.5572C218.88 48.6093 212.233 48.5677 205.572 48.4199C198.908 48.3067 192.212 48.1223 185.494 48.0891L185.796 47.7895C185.794 49.8069 185.765 51.8244 185.787 53.8419L185.825 59.8944C185.829 63.9296 185.929 67.9645 185.988 71.9996L185.494 71.5096L194.289 71.3462C194.371 71.3446 194.453 71.3591 194.53 71.389C194.607 71.419 194.677 71.4637 194.737 71.5205L194.755 71.5377L198.102 74.7535H197.065L200.318 71.4442C200.388 71.3724 200.472 71.3151 200.565 71.2756C200.658 71.2362 200.758 71.2153 200.859 71.2143L200.878 71.2141L217.231 71.073C222.682 71.0301 228.133 70.9905 233.584 70.999C244.486 70.994 255.389 71.1521 266.291 71.2961L265.582 71.9996L265.871 60.0668L266.224 47.8556ZM266.357 47.7232L266.71 59.7221L267 71.9996C267.004 72.1818 266.935 72.3582 266.808 72.4901C266.682 72.6219 266.507 72.6984 266.324 72.7027L266.316 72.7029L266.291 72.7031C255.389 72.8471 244.486 73.0053 233.584 73.0002C228.133 73.0089 222.682 72.9692 217.231 72.9264L200.878 72.7852L201.437 72.5552L198.102 75.7822L198.087 75.7966C197.95 75.9292 197.765 76.0023 197.574 75.9999C197.383 75.9976 197.2 75.9199 197.066 75.784L197.065 75.7822L193.823 72.4618L194.289 72.6531L185.494 72.4896L185.478 72.4894C185.414 72.4884 185.351 72.475 185.292 72.4498C185.234 72.4247 185.181 72.3883 185.137 72.3428C185.092 72.2973 185.057 72.2436 185.034 72.1847C185.01 72.1258 184.999 72.0629 185 71.9996C185.06 67.9645 185.159 63.9296 185.164 59.8945L185.201 53.8419C185.224 51.8245 185.195 49.807 185.192 47.7895C185.192 47.71 185.224 47.6337 185.281 47.5774C185.337 47.5212 185.414 47.4895 185.494 47.4894C192.242 47.4563 199.013 47.2718 205.815 47.159C212.62 47.0109 219.439 46.9695 226.213 47.0214C232.986 47.0728 239.755 47.1352 246.444 47.2748C253.147 47.3916 259.811 47.5278 266.357 47.7232V47.7232Z" fill="black"/>
</svg>
