<svg width="215" height="212" viewBox="0 0 215 212" fill="none" xmlns="http://www.w3.org/2000/svg">
<path d="M158.081 211.331C161.496 201.75 164.71 192.092 165.504 181.875C166.189 172.999 164.4 164.612 159.609 156.974C157.624 153.814 155.21 151.04 152.36 148.624C143.36 140.975 132.886 136.383 121.531 133.484C110.007 130.541 98.2603 129.005 86.4974 127.496C72.9725 125.759 59.4475 123.984 46.287 120.222C38.5538 118.012 31.1415 115.075 24.3437 110.721C19.3949 107.551 15.0769 103.707 11.4278 99.0822C5.86995 92.0412 3.73273 83.9959 4.02639 75.1688C4.29287 67.1235 6.61498 59.6482 10.2314 52.5312C15.5663 42.0267 22.8427 33.1019 32.2617 25.9849C47.4507 14.5086 64.3256 6.79989 83.2018 3.74896C90.9948 2.48951 98.853 1.90319 106.597 3.93352C109.42 4.67182 112.242 5.84986 114.706 7.40246C120.187 10.8551 122.069 16.5281 120.214 22.7385C118.414 28.7589 114.629 33.433 110.045 37.5588C109.458 38.0854 108.892 38.6609 108.229 39.0735C107.826 39.3232 107.19 39.4969 106.793 39.3503C106.494 39.2418 106.184 38.5251 106.254 38.1451C106.603 36.2668 106.934 34.3668 107.538 32.5645C108.62 29.3452 110.088 26.2455 111.051 22.9937C112.818 16.995 111.334 14.4543 105.303 12.5977C101.278 11.36 97.1291 11.1537 92.9743 11.4034C68.5076 12.8746 47.6139 22.5702 30.0375 39.3449C21.9563 47.0536 16.2135 56.429 13.304 67.3407C11.9771 72.3133 11.7705 77.362 12.5264 82.4487C13.1735 86.8079 15.0606 90.6026 17.6873 94.0878C22.7339 100.781 29.3088 105.569 36.7646 109.228C46.2489 113.886 56.3803 116.568 66.7293 118.3C79.7322 120.482 92.8111 122.241 105.847 124.239C116.859 125.927 127.708 128.278 138.041 132.566C144.654 135.308 150.723 138.994 156.286 143.483C165.82 151.176 170.551 161.382 171.753 173.385C172.661 182.461 170.921 191.267 168.93 200.04C168.169 203.4 167.185 206.717 166.309 210.055C166.2 210.473 166.162 210.913 166.091 211.342C163.421 211.331 160.751 211.331 158.081 211.331Z" fill="#C9FF56"/>
<path d="M145.935 62.3262C148.345 62.3262 150.466 62.374 152.587 62.2837C152.985 62.2677 153.623 61.7204 153.694 61.3431C154.774 55.5029 155.81 49.6575 156.775 43.7961C157.222 41.0807 158.438 39.4811 160.434 39.3376C162.446 39.1942 164.071 40.698 164.633 43.456C165.375 47.0749 164.884 50.6831 164.12 54.2329C163.455 57.2991 162.626 60.3334 161.787 63.3624C161.519 64.3243 161.083 65.2861 160.521 66.1204C159.338 67.8847 157.408 68.2832 155.428 67.4489C154.741 67.1566 153.912 67.0185 153.16 67.0556C141.894 67.5658 130.775 68.9953 119.88 71.9818C117.983 72.5026 115.834 72.6567 113.893 72.3803C110.583 71.9127 109.65 68.9846 111.761 66.4233C113.124 64.7653 114.962 63.7238 117.034 63.389C121.467 62.6716 125.933 62.0977 130.405 61.6513C132.646 61.4281 134.936 61.6141 137.215 61.6141C137.428 57.9368 137.63 54.3923 137.837 50.7309C137.303 50.7309 136.725 50.6725 136.163 50.7416C126.669 51.8416 117.176 52.9362 107.693 54.1C106.826 54.2063 105.899 54.6208 105.206 55.1469C101.863 57.6764 98.2536 59.5947 94.0275 60.2537C86.8568 61.375 82.5871 58.5373 81.0439 51.6397C80.9839 51.3633 80.924 51.0817 80.8258 50.63C80.0733 50.7894 79.3699 50.9222 78.6773 51.0817C73.9441 52.1763 69.2 53.2073 64.2814 52.4474C63.9869 52.3995 63.6925 52.3783 63.398 52.3252C55.0767 50.8 51.6849 43.9077 55.6602 36.6062C57.2034 33.7685 59.5209 31.7386 62.471 30.3729C65.9064 28.784 69.5435 27.7902 73.3279 27.5777C74.8984 27.4873 76.6052 27.8274 78.0721 28.4013C79.0645 28.7893 80.0024 29.7989 80.5204 30.7555C81.4093 32.4081 80.2423 33.9598 78.3556 33.7898C74.0641 33.4019 70.3124 34.8154 66.9752 37.2067C65.6828 38.1313 64.6522 39.5661 63.8779 40.9637C63.0217 42.5101 63.4852 43.4029 65.2139 43.9715C66.8934 44.5241 68.6438 45.1299 70.3833 45.1884C73.6824 45.3053 76.9923 45.1034 80.2914 44.8961C80.8967 44.8589 81.611 44.285 82.0091 43.7642C82.9688 42.5208 84.0704 41.5536 85.6681 41.2188C87.3585 40.8681 89.0544 41.5005 89.9923 42.8236C90.9466 44.1734 90.9848 45.8845 89.8669 47.2875C88.4328 49.0889 88.5145 51.0391 89.0053 53.0691C89.3543 54.4986 90.3958 55.3595 91.8191 55.0513C93.5204 54.6846 95.3526 54.201 96.7104 53.2232C98.5481 51.9 100.091 50.1358 101.574 48.414C102.621 47.1971 103.668 46.3628 105.381 46.2512C112.59 45.7783 119.798 45.2787 126.996 44.6782C130.497 44.386 133.971 43.7802 137.472 43.4879C138.819 43.3763 139.173 42.8555 139.347 41.6652C139.909 37.8922 140.58 34.1352 141.251 30.3782C141.376 29.6714 141.61 28.9646 141.927 28.3216C142.826 26.4777 144.621 25.4574 146.594 25.5849C148.618 25.7178 150.395 27.0144 150.897 29.0231C151.219 30.3144 151.322 31.7014 151.268 33.0352C150.875 42.4889 149.07 51.7194 146.387 60.7957C146.273 61.1518 146.169 61.5131 145.935 62.3262Z" fill="#C9FF56"/>
<path d="M65.6143 83.7633C64.3837 85.0946 63.3211 86.3933 62.1013 87.529C60.9574 88.5941 59.743 89.6591 58.3877 90.4144C54.7066 92.4631 50.6677 91.523 47.9516 88.1648C46.0704 85.839 45.2952 83.0351 44.4766 80.2312C43.9832 78.5412 43.3706 76.8784 42.6875 75.2591C41.9881 73.5963 41.7279 71.9335 42.3568 70.2273C43.8151 66.2985 48.8461 65.19 51.7791 68.3906C53.1507 69.8849 53.9042 71.9879 54.75 73.9006C55.2758 75.0852 55.4385 76.4328 55.7637 77.7044C55.9318 77.8294 56.1053 77.9489 56.2733 78.0739C56.6149 77.5414 56.8643 76.9002 57.3197 76.4926C59.087 74.9331 60.7676 73.1942 62.7573 71.9933C67.4793 69.1459 72.2663 70.8902 74.2939 76.0144C74.8848 77.5142 75.248 79.1064 75.7848 80.8724C76.3432 80.4649 76.8853 80.166 77.3135 79.7421C79.2327 77.8294 81.1031 75.8677 83.0276 73.9604C88.4436 68.5917 92.5312 68.722 97.6978 74.3353C99.8988 76.7263 102.16 79.0683 104.447 81.3778C105.239 82.1766 106.209 82.7906 107.06 83.5296C107.44 83.8611 108.074 84.3882 107.993 84.649C107.857 85.1109 107.331 85.5891 106.854 85.8065C104.073 87.0617 101.243 86.9639 98.5977 85.5348C96.0063 84.1328 93.4962 82.5569 91.0729 80.8833C90.0699 80.1877 89.5712 80.2312 88.7742 81.0735C86.8768 83.0732 84.9739 85.0946 82.8867 86.8878C81.3362 88.2246 79.6068 89.4526 77.7635 90.3221C73.9848 92.1044 70.3038 91.0176 67.8642 87.6105C67.0455 86.464 66.4275 85.1707 65.6143 83.7633Z" fill="#C9FF56"/>
<path d="M164.812 116.014C163.186 117.198 161.554 118.354 159.954 119.559C157.576 121.353 155.134 122.972 152.086 123.376C145.585 124.238 139.624 118.665 140.019 112.072C140.127 110.294 141.024 109.04 142.51 108.582C144.007 108.118 145.655 108.707 146.601 110.19C147.179 111.101 147.557 112.137 148.071 113.092C149.114 115.038 150.589 115.534 152.475 114.4C153.858 113.571 155.074 112.459 156.425 111.559C158.63 110.098 160.77 108.451 163.148 107.344C167.347 105.386 170.859 106.788 172.978 110.959C173.648 112.274 174.172 113.664 174.858 115.24C175.312 114.836 175.691 114.504 176.069 114.171C177.804 112.639 179.419 110.943 181.289 109.607C185.569 106.559 189.8 107.502 192.638 111.941C194.059 114.171 194.707 114.275 196.712 112.475C197.739 111.554 198.652 110.501 199.69 109.602C202.414 107.246 205.586 107.24 208.185 109.743C211.552 112.993 213.924 116.887 214.897 121.544C215.221 123.082 214.805 123.491 213.308 123.109C210.006 122.269 207.407 120.295 205.056 117.896C203.532 116.336 203.559 116.462 201.738 117.585C199.738 118.817 197.707 120.077 195.54 120.922C192.524 122.095 189.514 121.56 186.817 119.777C185.904 119.172 185.315 119.243 184.499 119.881C182.754 121.238 180.987 122.591 179.122 123.78C174.734 126.582 171.043 125.863 168.028 121.576C166.86 119.897 165.963 118.021 164.812 116.014Z" fill="#C9FF56"/>
<path d="M128.563 99.381C129.682 98.1205 130.571 96.9706 131.608 95.9755C133.588 94.0792 135.525 92.0945 137.719 90.4802C140.638 88.3297 143.552 88.8549 145.96 91.5804C146.19 91.8402 146.41 92.1167 146.624 92.3931C148.605 94.9085 149.658 95.2734 152.659 94.1069C154.228 93.4987 155.704 92.6253 157.202 91.8402C159.073 90.8617 160.971 90.4083 162.864 91.6744C164.757 92.9404 165.239 94.9416 164.899 96.9927C164.608 98.7397 163.879 100.426 163.248 102.101C162.935 102.925 162.227 103.079 161.574 102.449C160.719 101.626 159.939 100.713 158.985 99.6961C158.497 99.9559 157.904 100.282 157.306 100.597C154.48 102.095 151.529 103.046 148.275 102.709C144.566 102.328 141.895 100.371 139.969 96.9263C139.014 97.8662 138.136 98.6512 137.352 99.5192C135.744 101.305 134.279 103.218 132.601 104.931C129.259 108.337 125.424 108.32 122.127 104.871C120.788 103.472 119.658 101.847 118.561 100.243C117.848 99.204 117.244 99.1653 116.267 99.8619C114.32 101.255 112.394 102.731 110.287 103.848C107.84 105.142 105.289 106.402 102.634 107.11C98.1732 108.293 93.9761 106.391 91.9735 102.223C90.6458 99.4584 89.779 96.4177 89.0822 93.4103C88.4787 90.8119 91.3152 88.7499 93.7512 90.0048C94.9033 90.5963 95.8579 91.796 96.6151 92.9127C97.5039 94.2285 98.0745 95.7599 98.8096 97.1807C99.4296 98.3693 100.406 98.7176 101.553 98.0431C103.221 97.059 104.867 96.0086 106.452 94.8974C108.619 93.3826 110.622 91.6025 112.877 90.248C118.281 86.9973 122.868 88.3076 125.924 93.8581C126.873 95.5553 127.613 97.3741 128.563 99.381Z" fill="#C9FF56"/>
<path d="M9.47973 12.5908C12.2736 12.6285 14.4702 13.6368 15.5792 16.4246C16.1924 17.956 16.2564 19.1422 14.9448 20.6251C12.7428 23.1162 10.2368 25.0952 7.47498 26.8261C4.61183 28.6216 0.948929 27.0202 0.202485 23.677C-1.03981 18.1069 3.60414 12.553 9.47973 12.5908Z" fill="#C9FF56"/>
<path d="M20.9188 16.5854C20.2437 15.9792 19.3453 15.5591 19.0948 14.8569C18.8444 14.1426 19.1438 13.1223 19.3725 12.2941C19.4869 11.8919 19.9606 11.5738 20.3308 11.3097C22.6612 9.6592 24.9861 8.00266 27.36 6.43015C28.0189 5.99801 28.8193 5.69793 29.5815 5.6139C31.3511 5.42184 32.4455 7.13237 31.8248 8.96896C31.7758 9.11901 31.7159 9.28708 31.6233 9.40112C28.7703 12.9363 24.9534 14.6648 20.9188 16.5854Z" fill="#C9FF56"/>
<path d="M38.8342 0.605818C40.7128 0.585727 41.9635 1.43457 41.9993 2.76558C42.0401 4.11166 40.3963 5.5632 38.7882 5.59836C37.2517 5.63352 36.0418 4.57374 36.001 3.15735C35.9601 1.73091 37.1904 0.625908 38.8342 0.605818Z" fill="#C9FF56"/>
</svg>
