<svg width="56" height="76" viewBox="0 0 56 76" fill="none" xmlns="http://www.w3.org/2000/svg">
<path d="M6.451 63.9712C7.39703 61.2471 8.87884 58.924 10.5352 56.6743C13.2324 53.0136 16.94 50.9904 21.2293 49.9069C22.0345 49.7049 22.9407 49.7876 23.7827 49.8825C24.2511 49.9375 24.6858 50.2895 25.3716 50.6262C24.248 51.3088 23.4153 51.9087 22.506 52.3494C19.126 53.99 16.4624 56.3988 14.1938 59.3892C12.3017 61.8807 10.3729 64.3018 9.43605 67.3503C9.20337 68.1094 8.61248 68.3022 7.81035 68.3389C5.3825 68.446 3.98335 67.0258 2.75565 65.2292C0.0706372 61.293 -0.575359 57.011 0.483952 52.4106C1.53408 47.8501 3.85783 43.969 6.88881 40.4828C9.92591 36.9874 13.358 33.896 16.9492 30.9944C22.4417 26.5563 28.0016 22.2039 33.5124 17.7872C38.1171 14.0989 42.2165 9.93322 45.4159 4.93804C46.0007 4.02592 46.5456 3.11993 46.4354 1.92929C46.4048 1.58648 46.8334 1.00188 47.1763 0.879446C47.5651 0.741711 48.3213 0.839665 48.5204 1.1182C48.9796 1.76402 49.4541 2.58124 49.4603 3.33113C49.4694 4.49728 49.2704 5.73078 48.8541 6.82042C47.3998 10.6219 45.2751 13.9857 42.339 16.8842C37.9334 21.2305 33.0287 24.98 28.2924 28.9314C24.196 32.3534 20.0261 35.6866 15.9817 39.1697C12.7793 41.9275 10.1402 45.1933 8.04609 48.8785C5.79276 52.8453 5.05185 57.0906 5.74989 61.5899C5.82949 62.1102 5.98257 62.6183 6.12341 63.1264C6.21219 63.4141 6.34384 63.6896 6.451 63.9712Z" fill="#C9FF56"/>
<path d="M41.6992 65.6976C42.0666 65.6976 42.5044 65.5721 42.7861 65.7251C43.2974 66.0036 43.5882 66.4413 43.4413 67.1484C42.5748 71.3753 38.0681 75.3788 33.7421 75.5686C30.2182 75.7247 27.6954 73.9586 25.9687 71.0172C24.5664 68.6298 24.0796 65.9669 24.1654 63.2367C24.3062 58.7741 25.8156 54.7553 28.4455 51.1711C29.7008 49.4601 31.3571 48.2756 33.5217 47.9542C35.0249 47.7338 35.7107 48.2511 36.6721 49.4173C37.5967 50.5375 37.6518 51.7741 37.811 53.0596C38.2978 56.9835 38.9346 60.8738 40.7011 64.4732C40.943 64.966 41.2522 65.4251 41.5308 65.8996C41.5921 65.8322 41.6472 65.7649 41.6992 65.6976ZM39.6663 68.4339C39.6663 68.3574 39.6663 68.2839 39.6663 68.2074C36.8404 67.2586 35.6097 64.9936 34.9698 62.3705C34.532 60.5738 34.2748 58.7129 34.1217 56.8672C33.9809 55.1746 34.0911 53.4606 34.0911 51.7557C33.9625 51.7006 33.8339 51.6455 33.7054 51.5904C33.0165 52.3556 32.245 53.0627 31.6602 53.9013C30.6866 55.294 30.307 56.9284 30.0437 58.5874C29.5477 61.7277 29.9916 64.7426 31.3326 67.6105C32.3368 69.7623 34.0207 70.4938 36.274 69.7776C37.4313 69.4103 38.5396 68.8869 39.6663 68.4339Z" fill="#C9FF56"/>
<path d="M47.4183 36.5067C47.4397 40.4552 46.8243 44.2689 44.9843 47.8071C44.6445 48.4621 44.2005 49.0927 43.6954 49.6283C43.2055 50.1456 42.5319 50.418 41.7941 50.1058C41.0562 49.7936 40.8021 49.1202 40.7991 48.4071C40.7991 47.6939 40.9185 46.9715 41.0501 46.2645C41.6931 42.7416 42.4462 39.2339 42.982 35.6956C43.3525 33.2378 43.08 30.7586 42.5809 28.3161C42.4799 27.8264 42.3789 27.3305 42.3513 26.8347C42.3146 26.1521 42.5442 25.5583 43.2239 25.2706C43.9372 24.9707 44.5771 25.2002 45.0088 25.7757C45.4037 26.3021 45.7313 26.899 45.9793 27.5111C47.1642 30.3913 47.403 33.4337 47.4183 36.5067Z" fill="#C9FF56"/>
<path d="M27.23 45.3557C25.9778 45.1812 24.8359 45.0986 23.7337 44.8445C22.3131 44.517 21.1068 43.7855 20.3598 42.4663C19.7352 41.3644 19.8577 40.1921 20.6353 39.479C21.3671 38.8087 22.4233 38.7567 23.4704 39.5127C25.5645 41.0278 27.9709 41.7746 30.408 42.4479C30.8733 42.5765 31.3907 42.5183 31.8837 42.5612C32.0888 42.5796 32.2908 42.6316 32.496 42.6653C32.4409 42.8887 32.4378 43.1458 32.3215 43.3325C31.7336 44.2936 30.8121 44.8047 29.7558 45.0343C28.8955 45.221 28.0046 45.2608 27.23 45.3557Z" fill="#C9FF56"/>
<path d="M52.0994 49.8855C50.5227 49.9069 49.2246 48.6948 49.1205 47.241C49.0165 45.8269 51.1932 43.7363 52.3199 43.7486C53.8353 43.767 55.2651 45.0556 55.2926 46.5553C55.3294 48.4071 53.9333 49.861 52.0994 49.8855Z" fill="#C9FF56"/>
<path d="M34.1615 40.0114C31.8378 39.9379 29.1864 37.3362 29.0915 35.0896C29.0486 34.1193 29.4925 33.3817 30.2824 33.1093C31.0968 32.8277 32.0276 33.1215 32.4746 34.003C33.3594 35.7538 34.186 37.5352 34.9423 39.3441C35.2729 40.143 34.5289 39.9655 34.1615 40.0114Z" fill="#C9FF56"/>
<path d="M44.124 62.9091C43.1045 62.9091 42.3881 62.202 42.385 61.1981C42.382 60.2064 43.132 59.429 44.0934 59.4351C45.0884 59.4412 45.9763 60.3197 45.9671 61.2869C45.9579 62.2265 45.1833 62.9091 44.124 62.9091Z" fill="#C9FF56"/>
<path d="M37.8446 35.1907C38.5396 35.2121 39.0295 35.7386 38.9652 36.3507C38.8978 36.9965 38.509 37.3455 37.8599 37.3485C37.2415 37.3516 36.7546 36.816 36.8189 36.2007C36.8894 35.5518 37.2904 35.2366 37.8446 35.1907Z" fill="#C9FF56"/>
</svg>
