<svg width="140" height="119" viewBox="0 0 140 119" fill="none" xmlns="http://www.w3.org/2000/svg">
<path d="M48.9173 43.3422C48.9194 42.1159 49.606 41.2674 50.7462 41.2367C52.352 41.1911 54.0501 41.2161 55.5646 41.6794C65.155 44.6397 69.569 52.0462 70.2433 61.3003C70.76 68.4021 66.3176 73.5614 59.2667 74.5802C58.055 74.7549 56.8139 74.8201 55.592 74.792C48.4038 74.6256 43.8333 71.3383 41.3238 64.5915C41.233 64.3479 41.1148 64.1118 40.9673 63.766C40.2313 64.2791 39.5807 64.7547 38.9029 65.1971C34.1637 68.3149 29.0652 69.4997 23.5655 67.7315C18.7772 66.1944 16.9436 61.6038 19.2074 57.0916C19.7741 55.9597 20.5158 54.9056 21.2883 53.8983C22.0289 52.9362 22.9088 52.0835 23.863 51.0421C23.2491 50.8729 22.7463 50.7216 22.2415 50.6039C20.0348 50.0768 18.0195 49.168 16.3299 47.6251C12.9699 44.5561 11.9436 39.7598 13.9798 35.6316C14.8341 33.9014 15.9734 32.2489 17.2596 30.8027C23.7644 23.4643 41.4916 17.7528 52.1725 21.1691C54.5161 21.92 56.8905 22.6076 58.6637 24.4767C60.1141 26.0031 60.5667 28.0652 59.7997 29.6142C59.1607 30.9013 58.188 31.1329 57.4109 29.9837C56.4418 28.5556 55.048 28.0636 53.5299 27.6967C48.9739 26.589 44.3818 26.3755 39.9229 27.9354C35.9828 29.3084 32.089 30.8818 28.3172 32.6647C25.7634 33.8712 23.5967 35.7701 21.9543 38.1338C20.4496 40.2992 20.8795 42.0297 23.3063 43.0776C24.7988 43.7193 26.4271 44.0456 27.9982 44.501C29.5253 44.9426 31.1077 45.2483 32.5794 45.8258C35.2832 46.8947 36.0491 49.8672 34.1792 52.0939C33.3759 53.0544 32.2376 53.7232 31.3141 54.5912C29.4627 56.3248 27.5661 58.0265 25.8483 59.8893C24.8392 60.9858 25.0707 61.577 26.4905 62.084C29.9924 63.3241 33.2942 62.7059 36.1507 60.464C37.8478 59.1278 39.2219 57.3792 40.7287 55.8115C40.8868 55.648 40.9934 55.4432 41.1366 55.2653C42.6108 53.3835 44.2278 52.8174 45.8415 53.6101C47.4768 54.4153 48.0463 55.9542 47.4594 58.3136C46.9828 60.2214 46.944 62.0924 47.5697 63.9649C48.5957 67.018 50.5781 69.0659 53.8293 69.5475C55.4785 69.7875 57.1955 69.9103 58.8467 69.746C63.0837 69.3319 65.4588 66.6211 65.4898 62.3484C65.5157 59.0166 64.3863 56.0022 62.6972 53.1857C59.5714 47.9474 54.565 45.3349 48.9173 43.3422Z" fill="#1B1B1B"/>
<path d="M77.8951 102.382C76.6549 102.135 76.1713 101.109 75.7208 100.165C74.5403 97.7003 74.3801 95.0717 74.8478 92.4176C75.6861 87.6788 77.2511 83.1743 79.4603 78.897C81.5452 74.8548 84.2794 71.2916 87.5356 68.1168C87.8173 67.8394 88.0755 67.5426 88.4404 67.1511C87.9136 66.9511 87.4991 66.7871 87.0833 66.6455C83.355 65.3267 81.3347 62.0817 82.0614 58.1875C82.3568 56.6036 83.007 55.0566 83.6885 53.5856C84.2977 52.2698 85.1582 51.07 85.9373 49.8407C87.2039 47.8274 87.15 47.5299 84.8017 46.9674C82.2809 46.3632 79.6934 46.0447 77.1858 45.4076C74.5477 44.7357 71.9076 43.9873 69.3912 42.9745C68.146 42.4756 66.9878 41.4653 66.1195 40.4139C64.596 38.5731 65.0464 35.9091 66.8866 34.4354C67.7927 33.7078 68.7871 33.4887 69.7929 34.1215C70.7423 34.7218 71.1061 35.7251 70.7189 36.7465C70.2839 37.8908 70.9221 38.3287 71.7354 38.5435C74.3255 39.2282 76.929 39.8396 79.54 40.438C82.1466 41.0339 84.8642 41.3175 87.3607 42.2146C92.0873 43.9186 93.2369 47.6396 90.6312 51.9022C89.7992 53.2631 88.8742 54.5646 88.0769 55.9456C87.5579 56.8445 87.0958 57.8052 86.7915 58.7934C86.2376 60.6044 86.8626 61.8569 88.665 62.4228C89.9982 62.8393 91.4051 63.0783 92.7992 63.2289C93.3099 63.2864 93.9171 62.9363 94.4039 62.6441C98.4281 60.2137 102.701 58.4652 107.387 57.8645C113.173 57.1229 118.319 58.6409 122.7 62.5076C128.263 67.422 129.691 74.5692 126.742 82.2818C123.104 91.7905 110.703 95.1516 103.059 88.6889C100.21 86.2793 98.8359 83.1873 99.3807 79.4777C99.7765 76.788 100.562 74.1552 101.089 71.4778C101.215 70.8496 101.239 69.8155 100.882 69.5516C100.076 68.9644 99.0797 68.6152 97.9999 69.393C90.1505 75.0519 84.3372 82.3149 80.7634 91.3109C79.4031 94.7292 78.0296 98.1804 78.1041 101.97C78.1017 102.084 77.9867 102.203 77.8951 102.382ZM104.78 66.3881C106.696 68.3916 106.49 70.7513 105.934 73.1686C105.463 75.207 104.907 77.2314 104.556 79.2926C104.017 82.45 105.401 84.5632 108.457 85.534C114.422 87.4379 119.748 83.414 120.376 76.8635C121.142 68.8926 112.854 62.8855 104.78 66.3881Z" fill="#1B1B1B"/>
<path d="M79.0065 28.5148C78.4168 29.5061 77.2595 29.747 76.1461 29.11C75.0154 28.4629 74.695 27.4847 75.294 26.4872C75.9081 25.4636 77.2336 25.152 78.2774 25.7893C79.2517 26.3866 79.5686 27.5713 79.0065 28.5148Z" fill="#1B1B1B"/>
</svg>
