<svg width="40" height="40" viewBox="0 0 40 40" fill="none" xmlns="http://www.w3.org/2000/svg">
<path fill-rule="evenodd" clip-rule="evenodd" d="M32.9969 17.0625C32.1277 11.7127 27.5836 7.73279 22.166 7.57612C21.9084 7.56603 21.6574 7.65877 21.4682 7.83391C21.2791 8.00905 21.1673 8.25222 21.1576 8.50982V8.50982V8.59697L21.7676 17.7223C21.8076 18.3366 22.3357 18.8036 22.9503 18.7681L32.1006 18.1581C32.3584 18.139 32.598 18.0179 32.7662 17.8216C32.9345 17.6253 33.0175 17.37 32.9969 17.1123V17.0625Z" stroke="#C9FF56" stroke-width="1.5" stroke-linecap="round" stroke-linejoin="round"/>
<path d="M15.8293 13.004C16.4113 12.8694 17.007 13.1672 17.2485 13.7136C17.3118 13.8422 17.3498 13.9816 17.3605 14.1245C17.485 15.8923 17.7465 19.764 17.8959 21.8555C17.9214 22.2323 18.096 22.5833 18.381 22.831C18.6661 23.0786 19.0381 23.2025 19.4147 23.1751V23.1751L27.0959 22.7021C27.4388 22.6814 27.775 22.8034 28.0249 23.0392C28.2748 23.2749 28.4162 23.6035 28.4156 23.947V23.947C28.1043 28.5854 24.7717 32.4631 20.2328 33.4682C15.694 34.4733 11.0359 32.3651 8.79541 28.2918C8.12659 27.1194 7.70303 25.8234 7.55048 24.4823C7.48526 24.0707 7.46024 23.6538 7.47578 23.2374C7.48899 18.2839 10.9678 14.0159 15.8168 13.004" stroke="#C9FF56" stroke-width="1.5" stroke-linecap="round" stroke-linejoin="round"/>
</svg>
