<svg width="40" height="40" viewBox="0 0 40 40" fill="none" xmlns="http://www.w3.org/2000/svg">
<path fill-rule="evenodd" clip-rule="evenodd" d="M32.6267 13.7365L31.7289 12.1786C30.9693 10.8603 29.2861 10.4056 27.9661 11.1619V11.1619C27.3377 11.5321 26.5879 11.6371 25.882 11.4538C25.1762 11.2706 24.5722 10.814 24.2033 10.1849C23.966 9.78507 23.8384 9.32963 23.8336 8.86466V8.86466C23.855 8.1192 23.5738 7.39682 23.0539 6.86207C22.5341 6.32732 21.82 6.02575 21.0742 6.02606H19.2654C18.5348 6.02605 17.8343 6.31719 17.3189 6.83506C16.8035 7.35293 16.5157 8.05483 16.5193 8.78544V8.78544C16.4976 10.2939 15.2685 11.5054 13.7599 11.5052C13.2949 11.5004 12.8395 11.3729 12.4396 11.1355V11.1355C11.1195 10.3791 9.43633 10.8339 8.6768 12.1522L7.713 13.7365C6.95438 15.0531 7.40296 16.7352 8.71641 17.4993V17.4993C9.57017 17.9922 10.0961 18.9032 10.0961 19.889C10.0961 20.8748 9.57017 21.7858 8.71641 22.2787V22.2787C7.40462 23.0376 6.95556 24.7157 7.713 26.0283V26.0283L8.62399 27.5994C8.97986 28.2416 9.57695 28.7154 10.2831 28.9161C10.9893 29.1168 11.7464 29.0278 12.3868 28.6688V28.6688C13.0163 28.3015 13.7665 28.2009 14.4707 28.3893C15.1748 28.5777 15.7744 29.0396 16.1364 29.6723C16.3737 30.0721 16.5012 30.5276 16.5061 30.9925V30.9925C16.5061 32.5165 17.7415 33.7519 19.2654 33.7519H21.0742C22.593 33.7519 23.8263 32.5245 23.8336 31.0057V31.0057C23.8301 30.2728 24.1197 29.5689 24.6379 29.0507C25.1562 28.5324 25.8601 28.2428 26.593 28.2464C27.0568 28.2588 27.5104 28.3858 27.9133 28.616V28.616C29.2299 29.3746 30.912 28.9261 31.6761 27.6126V27.6126L32.6267 26.0283C32.9946 25.3967 33.0956 24.6445 32.9073 23.9383C32.7189 23.232 32.2568 22.63 31.6232 22.2655V22.2655C30.9897 21.901 30.5276 21.299 30.3392 20.5927C30.1509 19.8865 30.2519 19.1343 30.6198 18.5027C30.8591 18.0849 31.2055 17.7386 31.6232 17.4993V17.4993C32.9288 16.7357 33.3763 15.0633 32.6267 13.7497V13.7497V13.7365Z" stroke="#C9FF56" stroke-width="1.5" stroke-linecap="round" stroke-linejoin="round"/>
<circle cx="20.1764" cy="19.889" r="3.8024" stroke="#C9FF56" stroke-width="1.5" stroke-linecap="round" stroke-linejoin="round"/>
</svg>
