<svg width="40" height="40" viewBox="0 0 40 40" fill="none" xmlns="http://www.w3.org/2000/svg">
<path d="M18.9575 7.71558H14.1267C10.1538 7.71558 7.66276 10.5283 7.66276 14.5102V25.252C7.66276 29.234 10.1421 32.0467 14.1267 32.0467H25.5274C29.5132 32.0467 31.9926 29.234 31.9926 25.252V20.0478" stroke="#C9FF56" stroke-width="1.5" stroke-linecap="round" stroke-linejoin="round"/>
<path fill-rule="evenodd" clip-rule="evenodd" d="M15.5149 18.2221L25.1701 8.56695C26.373 7.36538 28.3226 7.36538 29.5255 8.56695L31.0979 10.1393C32.3007 11.3422 32.3007 13.2931 31.0979 14.4947L21.3962 24.1964C20.8703 24.7222 20.1571 25.0181 19.4129 25.0181H14.5731L14.6945 20.1343C14.7126 19.4159 15.0059 18.7312 15.5149 18.2221Z" stroke="#C9FF56" stroke-width="1.5" stroke-linecap="round" stroke-linejoin="round"/>
<path d="M23.7029 10.0587L29.6022 15.958" stroke="#C9FF56" stroke-width="1.5" stroke-linecap="round" stroke-linejoin="round"/>
</svg>
