<svg width="40" height="40" viewBox="0 0 40 40" fill="none" xmlns="http://www.w3.org/2000/svg">
<path fill-rule="evenodd" clip-rule="evenodd" d="M21.5127 8.61227L24.8034 15.0831C24.9682 15.4095 25.2865 15.6373 25.6559 15.6901L33.023 16.7304C33.3214 16.7693 33.5899 16.922 33.7732 17.1554C34.1171 17.5929 34.0645 18.2123 33.6524 18.5887L28.3129 23.636C28.0415 23.886 27.9207 24.2526 27.9918 24.6096L29.2705 31.7319C29.3601 32.3221 28.948 32.8749 28.3442 32.9708C28.0941 33.0083 27.8383 32.9694 27.611 32.8597L21.0495 29.4971C20.7199 29.3221 20.3249 29.3221 19.9953 29.4971L13.3855 32.8777C12.8328 33.1527 12.1564 32.9485 11.8552 32.4194C11.7401 32.2055 11.7003 31.9624 11.7401 31.7249L13.0189 24.6027C13.0828 24.2471 12.9621 23.8818 12.6978 23.6304L7.32982 18.5846C6.8922 18.1596 6.88936 17.4679 7.32556 17.0401C7.32698 17.0387 7.3284 17.0359 7.32982 17.0345C7.51027 16.8748 7.73192 16.7679 7.97204 16.7262L15.3406 15.6859C15.7086 15.629 16.0254 15.404 16.1931 15.0776L19.4809 8.61227C19.613 8.34977 19.8475 8.14838 20.1317 8.05671C20.4172 7.96365 20.7298 7.98588 20.9984 8.11782C21.2186 8.22477 21.399 8.39838 21.5127 8.61227Z" stroke="#C9FF56" stroke-width="1.5" stroke-linecap="round" stroke-linejoin="round"/>
</svg>
