<svg width="137" height="152" viewBox="0 0 137 152" fill="none" xmlns="http://www.w3.org/2000/svg">
<path d="M46.6374 126.482L45.5612 105.799C45.2268 103.969 44.9274 102.138 44.6104 100.308L43.7153 94.8101C43.1198 91.1426 42.5695 87.4716 42.0157 83.7971C41.4759 80.1226 40.9396 76.4481 40.4415 72.7702L39.6962 67.248C39.4802 65.4908 39.2469 63.7371 39.0449 61.9798C38.8673 61.9276 38.6931 61.8754 38.519 61.8163L38.512 61.872L38.4668 62.3869C38.4354 62.7279 38.4249 63.0724 38.411 63.4169C38.3727 64.1024 38.3623 64.7913 38.3414 65.4803C38.317 66.8548 38.3066 68.2327 38.3031 69.6107C38.2857 72.3631 38.2891 75.1178 38.3135 77.8748C38.3449 83.3831 38.3727 88.8913 38.4354 94.3996L38.5504 110.931L38.5922 119.195V127.46C45.1676 126.871 46.6374 126.482 46.6374 126.482ZM58.0435 68.5146C57.6021 67.9075 57.2492 67.2409 56.9952 66.5347C56.7235 65.8388 56.4902 65.1289 56.2777 64.4121C55.8528 62.9819 55.515 61.531 55.2085 60.0765C54.909 58.615 54.6409 57.1536 54.4249 55.6817C54.1985 54.2098 54.0232 52.7321 53.899 51.2486C53.899 51.2486 51.3147 49.7281 50.5973 49.0113C50.0923 48.5067 49.1694 48.451 48.6644 48.4649C48.514 48.4731 48.3637 48.4487 48.2236 48.3934C48.0836 48.3382 47.9571 48.2534 47.8529 48.1448C47.7913 48.0933 47.7437 48.0271 47.7144 47.9524C47.6851 47.8777 47.675 47.7968 47.6851 47.7172C47.6951 47.6375 47.725 47.5617 47.772 47.4966C47.8189 47.4315 47.8815 47.3792 47.9539 47.3445C48.1476 47.208 48.3827 47.1428 48.6191 47.1601C49.2355 47.1949 50.6008 47.3132 51.2451 47.7342C51.026 47.5576 50.7944 47.3971 50.552 47.254C43.1337 45.4203 30.9404 46.7878 30.9404 46.7878C30.9404 46.7878 30.721 48.3919 30.3901 51.3252C30.7246 50.7086 31.0956 50.1126 31.5012 49.5402C31.6997 49.2583 31.8982 48.9764 32.1037 48.698C32.3121 48.4095 32.5353 48.1319 32.7724 47.8665C32.7248 48.2273 32.6239 48.5791 32.4729 48.9103C32.3305 49.2401 32.1555 49.5548 31.9505 49.8498C31.7464 50.1452 31.5143 50.4202 31.2574 50.6711C31.0017 50.9302 30.7096 51.1505 30.3901 51.3252C29.1398 62.3069 26.263 91.9186 27.1163 125.501C30.7061 127.139 34.6615 127.814 38.5921 127.46C38.4842 124.707 38.4145 121.951 38.3274 119.199L38.1359 110.935C38.0175 105.427 37.9583 99.9148 37.8921 94.4065C37.8677 88.8947 37.8398 83.3831 37.8921 77.8713C37.9234 75.1155 37.9652 72.3631 38.0384 69.6072C38.0801 68.2293 38.1335 66.8513 38.1986 65.4734C38.2404 64.7879 38.2682 64.099 38.3274 63.41C38.3553 63.0655 38.3797 62.7245 38.4284 62.38L38.4911 61.8685L38.5016 61.8094C38.3448 61.7572 38.1881 61.7049 38.0314 61.6493C37.5647 61.4718 37.1015 61.2874 36.6488 61.0716C36.1896 60.8626 35.7461 60.6208 35.3218 60.3478C35.8207 60.424 36.3141 60.5333 36.7985 60.675C37.2791 60.8107 37.7493 60.9743 38.2195 61.1377C38.6827 61.3153 39.1459 61.4962 39.6022 61.7015C40.0584 61.9033 40.5042 62.126 40.95 62.373C40.4451 62.3341 39.9455 62.2432 39.4594 62.1016C39.3235 62.0668 39.1912 62.0251 39.0588 61.9868C39.3723 63.7232 39.6579 65.4664 39.9609 67.2063L40.8559 72.7041C41.4515 76.3716 42.0018 80.0426 42.5555 83.7171C43.0919 87.3916 43.6317 91.0661 44.1298 94.7475L44.8716 100.27C45.1015 102.11 45.3487 103.951 45.5612 105.799L48.9952 126.283C48.9952 126.283 60.0809 128.737 67.4401 126.381C67.4401 126.381 61.1223 91.3201 58.0435 68.5146ZM38.1776 53.1068C38.1359 53.9036 38.0871 54.697 38.0035 55.4903C37.9269 56.2837 37.8294 57.077 37.6796 57.8634C37.603 57.0631 37.5821 56.2662 37.5786 55.4695C37.5751 54.6726 37.603 53.8758 37.6344 53.0824C37.6796 52.2856 37.7284 51.4923 37.8085 50.6988C37.8886 49.9055 37.9861 49.1157 38.1359 48.3258C38.209 49.126 38.2299 49.9229 38.2334 50.7197C38.2369 51.5166 38.2125 52.3134 38.1776 53.1068ZM38.1359 47.8839C38.03 47.88 37.9297 47.8352 37.8561 47.7589C37.7826 47.6827 37.7415 47.5809 37.7415 47.475C37.7415 47.3691 37.7826 47.2673 37.8561 47.1911C37.9297 47.1148 38.03 47.07 38.1359 47.0661C38.2418 47.07 38.3421 47.1148 38.4157 47.1911C38.4892 47.2673 38.5303 47.3691 38.5303 47.475C38.5303 47.5809 38.4892 47.6827 38.4157 47.7589C38.3421 47.8352 38.2418 47.88 38.1359 47.8839ZM52.5511 54.3733C52.1697 54.3004 51.7929 54.2051 51.4227 54.0881C50.6733 53.8389 49.9732 53.4609 49.354 52.9711C48.744 52.4598 48.249 51.8254 47.9016 51.1095C47.5489 50.4097 47.3844 49.6302 47.4245 48.8477C47.5927 49.5774 47.8798 50.2745 48.2743 50.9111C48.6607 51.5303 49.1427 52.0846 49.7022 52.5535C49.9859 52.7831 50.2862 52.9913 50.6008 53.1764C50.9138 53.3699 51.2396 53.542 51.5759 53.6914C51.7434 53.7734 51.9155 53.8454 52.0914 53.9071L52.6173 54.1124C52.976 54.2272 53.3383 54.3317 53.704 54.4673C53.3208 54.45 52.9378 54.4186 52.5511 54.3733ZM56.3996 52.0699C56.3927 51.5375 56.4031 51.0781 56.4345 50.6954L55.8912 51.0468C55.268 51.3335 54.567 51.4046 53.899 51.2486C54.2299 52.6996 54.5433 54.1518 54.8394 55.6052L55.7414 59.9651C56.0374 61.4161 56.3532 62.8625 56.6887 64.3042C56.8628 65.0211 57.0405 65.7413 57.2459 66.4511C57.4297 67.1679 57.6974 67.8605 58.0435 68.5146C57.0718 61.3153 56.424 55.3372 56.3997 52.0699H56.3996Z" fill="black"/>
<path d="M55.3931 46.1789C55.3523 45.075 54.887 44.0293 54.094 43.2594C52.7914 42.5287 53.683 44.6095 53.7318 44.7278C53.7144 44.7104 53.6413 44.6339 53.5194 44.5261C53.4428 44.1467 53.3731 43.7465 53.3069 43.336L53.2965 43.2734C53.1084 42.0903 52.9482 40.7958 52.8193 39.4423C52.8199 39.4294 52.8187 39.4165 52.8158 39.404C52.6994 36.8349 52.9993 34.264 53.704 31.7906C54.2194 29.8002 55.3722 29.7341 55.3722 29.7341L62.3378 37.4762L55.6647 45.3193C55.4886 45.5715 55.3938 45.8714 55.3931 46.1789Z" fill="black"/>
<path d="M136.901 87.1689C136.901 87.1689 131.409 101.581 121.204 99.6225C120.167 99.4275 119.109 99.3609 118.056 99.4242C115.983 98.2758 113.935 97.0963 111.884 95.9237C109.836 94.7405 107.806 93.5401 105.807 92.284C103.797 91.0452 101.829 89.7438 99.9276 88.3589C99.4505 88.0109 98.9663 87.6735 98.5136 87.2976C98.0573 86.9288 97.5802 86.5808 97.1379 86.1946L95.8074 85.0254C95.4035 84.6009 94.9902 84.1787 94.5676 83.7589C95.9468 85.7005 97.7474 87.3046 99.5967 88.7904C100.06 89.1627 100.523 89.5385 101.011 89.8795L102.456 90.9234C103.442 91.5881 104.427 92.2491 105.437 92.8755C107.457 94.1246 109.516 95.3077 111.623 96.3968C113.726 97.4964 115.865 98.5159 118.056 99.4242C108.645 99.9495 98.7156 109.665 97.6568 111.777C96.4796 114.129 73.1275 89.0374 67.7779 73.2191C66.1933 68.5355 62.0452 60.3861 56.4693 52.1882C56.4428 52.1508 56.4195 52.1112 56.3997 52.0698C56.2812 51.861 56.0966 51.4817 55.8912 51.0468L56.4345 50.6954C56.768 50.4244 57.0379 50.0835 57.2251 49.6967C57.4061 49.902 57.5281 50.0238 57.5281 50.0238C57.5281 50.0238 67.1441 42.9672 69.3034 40.4166C71.4627 37.8695 69.3034 35.3189 69.3034 35.3189C69.3034 35.3189 62.9264 25.4193 59.6874 22.1867C58.6462 21.2101 57.3636 20.5279 55.9713 20.2103C63.3827 21.6509 80.8245 27.695 99.2275 53.0963C123.558 86.6852 136.901 87.1689 136.901 87.1689Z" fill="black"/>
<path d="M24.56 147.28C24.8107 147.269 25.0615 147.262 25.3088 147.241C22.0976 147.568 18.169 147.133 16.9919 143.455C17.2645 142.982 17.625 142.565 18.054 142.227C18.1374 142.15 18.2361 142.091 18.3437 142.054C18.4514 142.017 18.5656 142.003 18.679 142.013C18.7923 142.023 18.9022 142.057 19.0016 142.113C19.101 142.168 19.1875 142.244 19.2557 142.335C19.5836 142.749 19.8553 143.204 20.0636 143.689C20.3109 144.183 20.5617 144.687 20.8507 145.188C21.1507 145.711 21.5466 146.172 22.0175 146.549C22.5108 146.907 23.0874 147.133 23.6927 147.206C23.9799 147.25 24.2696 147.274 24.56 147.28Z" fill="black"/>
<path d="M42.5451 137.439C42.2316 137.029 41.9495 136.291 41.8833 134.962C41.7162 131.646 39.2991 133.504 39.2991 133.504C35.1859 135.678 34.0575 132.31 33.751 131.778C33.4445 131.249 30.8777 130.95 29.8573 132.536C29.4866 133.045 29.0277 133.483 28.5024 133.831C28.9652 133.887 29.417 134.011 29.8433 134.2C30.2726 134.378 30.6803 134.605 31.0588 134.875C31.4496 135.145 31.7932 135.478 32.0758 135.859C32.3934 136.234 32.5554 136.716 32.5286 137.206C32.3072 136.828 32.0179 136.494 31.6753 136.221C31.3514 135.946 31.0065 135.689 30.6513 135.438L29.5786 134.673C29.2164 134.412 28.8577 134.144 28.5024 133.834C27.7122 134.384 26.8822 134.875 26.0192 135.303C26.4752 135.3 26.9269 135.392 27.3462 135.571C27.7693 135.743 28.1629 135.98 28.5129 136.273C28.8694 136.566 29.1682 136.922 29.3941 137.324C29.6274 137.72 29.7646 138.164 29.7945 138.622C29.4881 138.278 29.2513 137.94 28.9517 137.644C28.6738 137.346 28.3771 137.066 28.0636 136.806C27.4402 136.273 26.7576 135.821 26.0192 135.303C25.3644 135.633 24.8943 135.839 24.8943 135.839C24.3614 136.006 23.8634 136.18 23.4002 136.354C23.8585 136.462 24.2969 136.641 24.6992 136.886C25.1078 137.123 25.4847 137.41 25.8207 137.742C26.1687 138.076 26.4562 138.468 26.6705 138.901C26.8978 139.333 26.9843 139.826 26.9178 140.31C26.7241 139.911 26.4858 139.535 26.2073 139.189C25.9352 138.853 25.642 138.535 25.3297 138.236C24.7202 137.613 24.0445 137.046 23.3967 136.354C15.9401 139.155 16.7794 142.624 16.7794 142.624C16.8318 142.905 16.9015 143.183 16.9883 143.456C17.1456 142.898 17.436 142.387 17.8347 141.966C18.0646 141.726 18.3767 141.58 18.7089 141.559C19.0524 141.567 19.3804 141.704 19.6283 141.942C19.8562 142.146 20.0522 142.383 20.2099 142.645C20.3702 142.895 20.5025 143.135 20.6452 143.382C20.917 143.877 21.1676 144.371 21.4498 144.83C21.6975 145.285 22.0269 145.691 22.4215 146.027C22.5225 146.097 22.6165 146.18 22.7245 146.246L23.0589 146.427C23.2995 146.528 23.5475 146.611 23.8007 146.674C24.8798 146.884 25.9792 146.971 27.078 146.935C28.7033 146.507 30.2366 145.785 31.6022 144.806C35.1441 142.325 39.1006 142.457 41.7545 141.041C41.8102 141.009 41.8659 140.978 41.9216 140.95C42.2141 140.778 42.4658 140.545 42.6594 140.267C42.8531 139.989 42.984 139.672 43.0433 139.338C43.1025 139.005 43.0887 138.662 43.0027 138.334C42.9167 138.006 42.7606 137.701 42.5451 137.439ZM37.5717 137.874C37.1433 138.201 36.701 138.511 36.2447 138.796C35.7885 139.081 35.3183 139.346 34.8377 139.586C34.3525 139.837 33.8468 140.047 33.3261 140.212C33.7031 139.818 34.112 139.455 34.5486 139.127C34.977 138.8 35.4193 138.49 35.8755 138.205C36.3283 137.919 36.7985 137.658 37.2826 137.415C37.7675 137.163 38.2732 136.954 38.7941 136.788C38.418 137.184 38.0091 137.547 37.5717 137.874Z" fill="black"/>
<path d="M25.3087 147.241C25.3923 147.234 25.4759 147.224 25.5595 147.217C25.5108 147.22 25.4655 147.227 25.4167 147.234C25.3819 147.238 25.3436 147.241 25.3087 147.241Z" fill="white"/>
<path d="M26.3918 147.088C26.3501 147.099 26.3048 147.106 26.2595 147.116C26.169 147.133 26.0784 147.147 25.9879 147.158C26.1237 147.137 26.2595 147.116 26.3918 147.088Z" fill="white"/>
<path d="M33.7517 131.779C33.7812 131.062 33.835 130.36 33.8526 129.657C33.8819 128.953 33.8481 128.247 33.7517 127.549C34.0401 128.215 34.1679 128.94 34.1248 129.664C34.1083 130.384 33.9825 131.097 33.7517 131.779Z" fill="black"/>
<path d="M41.1035 133.092C40.9759 132.599 40.8848 132.1 40.8018 131.599C40.7164 131.099 40.6555 130.595 40.6023 130.091C40.5562 129.586 40.5139 129.08 40.5049 128.572C40.4871 128.063 40.5011 127.554 40.5467 127.048L40.7141 128.558L40.8734 130.064C40.9195 130.567 40.9732 131.069 41.009 131.574C41.0485 132.078 41.0872 132.583 41.1035 133.092Z" fill="black"/>
<path d="M37.4777 7.42231C37.4576 8.22875 37.3611 9.03148 37.1895 9.81974C37.0913 10.2005 37.0286 10.5895 37.0019 10.9818C36.9775 11.3794 36.9797 11.7782 37.0084 12.1755C36.8744 11.7901 36.8005 11.3865 36.7893 10.9787C36.7772 10.5688 36.8224 10.1593 36.9233 9.7619C37.0946 8.98339 37.2525 8.19911 37.4777 7.42231Z" fill="black"/>
<path d="M36.7478 9.95638C36.7478 9.95638 38.7611 9.36196 39.5518 10.6217C39.5518 10.6217 40.4378 10.445 40.8534 10.8721C41.2885 10.5649 41.8104 10.4044 42.3431 10.4142C42.8758 10.424 43.3915 10.6035 43.8149 10.9266C43.8149 10.9266 43.9418 13.0359 42.27 13.1101C42.27 13.1101 40.5669 12.7728 40.82 11.2068C40.82 11.2068 40.5166 10.6216 39.5184 10.9558C39.5184 10.9558 38.7973 12.86 37.5816 12.2326C36.3659 11.6053 36.7478 9.95638 36.7478 9.95638Z" fill="black"/>
<path d="M39.3758 21.1779C40.0196 21.2412 40.6592 21.3416 41.2915 21.4785C41.9462 21.6042 42.5919 21.7734 43.224 21.9851L43.5698 22.1085L43.3205 22.3293C42.8867 22.7136 42.4311 23.0766 42.0234 23.4862C41.6152 23.8965 41.2282 24.3272 40.8636 24.7767L40.7945 24.8596L40.6746 24.8029C40.338 24.6438 40.0003 24.4867 39.6709 24.315L38.6875 23.7919C38.3594 23.618 38.0329 23.4414 37.7125 23.2542C37.391 23.0689 37.0756 22.8731 36.7605 22.6767L36.33 22.4083L36.7743 22.209C37.6232 21.8209 38.4915 21.4767 39.3758 21.1779ZM39.3815 21.232C38.5716 21.7817 37.796 22.2481 37.0121 22.6841L37.026 22.2164C37.3541 22.3903 37.6818 22.5648 38.0035 22.7498C38.3262 22.9329 38.6428 23.1266 38.9579 23.3231L39.9041 23.9108C40.2178 24.1095 40.5232 24.3226 40.8298 24.5338L40.6409 24.56C41.0809 24.1839 41.5015 23.7859 41.9012 23.3673C42.3001 22.9492 42.6512 22.4845 43.0241 22.041L43.1205 22.3852C42.4899 22.2706 41.8681 22.1123 41.2595 21.9115C40.642 21.7176 40.0233 21.5052 39.3815 21.232Z" fill="black"/>
<path d="M43.1724 22.1852L40.7522 24.6682L42.5657 26.6942L46.4967 23.7286L43.1724 22.1852Z" fill="black"/>
<path d="M38.292 15.3771C38.5496 15.8175 38.7638 16.2817 38.9318 16.7634C39.1061 17.2437 39.2432 17.7367 39.342 18.238C39.4448 18.7391 39.5044 19.248 39.5202 19.7593C39.5414 20.2693 39.5097 20.7801 39.4258 21.2837C39.4008 21.0287 39.4119 20.7771 39.3797 20.5256C39.3658 20.2742 39.3452 20.0239 39.3112 19.7749C39.2501 19.2771 39.1784 18.7814 39.0749 18.2911C38.9802 17.7993 38.8613 17.3121 38.7328 16.8261C38.6019 16.3405 38.4528 15.8595 38.292 15.3771Z" fill="black"/>
<path d="M44.9981 15.4724C45.0255 15.8932 45.0748 16.3073 45.1312 16.717C45.1857 17.1245 45.2717 17.527 45.3883 17.9212C45.4951 18.3128 45.6581 18.6867 45.8724 19.0315C46.0958 19.3765 46.3914 19.6691 46.7388 19.889C46.3266 19.7538 45.9644 19.498 45.6993 19.1549C45.4366 18.8094 45.2424 18.4169 45.1272 17.9985C45.0069 17.5882 44.9374 17.1647 44.9203 16.7374C44.8963 16.3142 44.9224 15.8895 44.9981 15.4724Z" fill="black"/>
<path d="M36.9011 22.4726C36.2597 22.7162 35.6231 22.9645 35.007 23.2579C34.386 23.5365 33.7798 23.8467 33.1908 24.1875C32.0079 24.8473 30.9036 25.6388 29.899 26.5469C27.8617 28.3653 26.0636 30.4347 24.5476 32.7053C24.1735 33.2748 23.834 33.8664 23.531 34.4767C23.4593 34.6239 23.4001 34.7769 23.3542 34.9341C23.3148 35.095 23.2862 35.2583 23.2687 35.423C23.2328 35.7508 23.2419 36.082 23.2957 36.4074C23.3225 36.5688 23.3598 36.7284 23.4075 36.885C23.4314 36.9649 23.4569 37.0373 23.4848 37.1116L23.5929 37.3451L24.0126 38.2839C24.2952 38.9087 24.5589 39.5406 24.8322 40.1688C25.9298 42.6795 26.9121 45.2338 27.8185 47.8232L27.7124 47.7522C27.9738 47.7716 28.2335 47.8091 28.4896 47.8647L29.2424 48.0233L29.9924 48.1819C30.2404 48.2372 30.4918 48.2757 30.745 48.2971V48.3516C30.487 48.3471 30.2297 48.325 29.9748 48.2856L29.215 48.168L28.4581 48.0503C28.2114 48.0106 27.9623 47.9876 27.7124 47.9816L27.6402 47.9818L27.6062 47.9105C26.4249 45.4325 25.3194 42.9194 24.3294 40.3628C24.0807 39.724 23.8224 39.0891 23.5831 38.4469L23.2199 37.4855L23.1323 37.244C23.1051 37.1562 23.0789 37.0652 23.0589 36.9795C22.9327 36.4578 22.9117 35.9163 22.997 35.3864C23.0247 35.2114 23.0641 35.0386 23.1151 34.8689C23.1731 34.6995 23.2457 34.5355 23.3322 34.3788C23.6602 33.7666 24.0229 33.1841 24.4038 32.6115C25.1677 31.4698 25.9537 30.3434 26.7926 29.2508C27.6234 28.1458 28.5538 27.1191 29.572 26.1835C30.0894 25.7181 30.6375 25.288 31.2127 24.896C31.7903 24.5123 32.3905 24.1638 33.01 23.8522C33.6278 23.5419 34.2611 23.2636 34.9076 23.0183C35.5547 22.781 36.2151 22.5814 36.8853 22.4204L36.9011 22.4726Z" fill="black"/>
<path d="M34.6961 25.6214C34.4442 27.3994 34.1448 29.1673 33.8296 30.9318C33.5085 32.6952 33.1825 34.4572 32.7779 36.2044C32.3881 37.9543 31.9926 39.7046 31.7233 41.4766C31.5758 42.3603 31.4528 43.2481 31.3475 44.1369C31.2952 44.5811 31.2473 45.026 31.2094 45.4697C31.1634 45.9008 31.1463 46.3346 31.1581 46.768L30.9352 46.5709C32.5753 46.4956 34.2148 46.457 35.8551 46.4174C37.4954 46.3751 39.1364 46.3674 40.7777 46.3851C42.419 46.4029 44.0602 46.4535 45.7015 46.5368C46.5217 46.587 47.3418 46.6449 48.1606 46.7279C48.5699 46.7714 48.9785 46.8246 49.3855 46.8931C49.8 46.9393 50.2035 47.0561 50.5785 47.2386L50.5481 47.2838C50.3649 47.2017 50.1701 47.1485 49.9705 47.1262C49.77 47.0945 49.5681 47.0702 49.3646 47.0532C48.9587 47.0158 48.5502 46.9991 48.142 46.9818C47.3256 46.9459 46.5072 46.935 45.6888 46.9316C44.0523 46.9108 42.4145 46.9307 40.7768 46.9424L30.947 47.0064L30.729 47.0078L30.7241 46.8093C30.7232 46.346 30.7634 45.8835 30.844 45.4273C30.9094 44.9806 30.9876 44.5379 31.064 44.0951L31.5447 41.4462C31.8792 39.6841 32.1332 37.9081 32.406 36.1345C32.6655 34.3584 33.0217 32.6004 33.3937 30.8461C33.7725 29.0931 34.1764 27.3452 34.6426 25.6105L34.6961 25.6214Z" fill="black"/>
<path d="M29.49 60.3343C29.0519 59.9983 28.6907 59.5725 28.4308 59.0856C28.2974 58.8442 28.177 58.5958 28.07 58.3416L27.9132 57.958L27.7876 57.5651C27.4716 56.5132 27.2898 55.4256 27.2466 54.3282C27.2235 53.7826 27.235 53.2375 27.2434 52.6936C27.2923 52.1519 27.3072 51.608 27.3863 51.0709C27.4647 50.5343 27.5397 49.9976 27.6488 49.4677C27.7715 48.9396 27.892 48.4124 28.0433 47.8928C28.0448 48.437 28.0155 48.9737 27.9884 49.5093L27.9283 51.1125L27.9028 52.7079C27.9147 53.2375 27.9083 53.7682 27.942 54.295L27.9849 55.0855C27.9993 55.3491 28.0447 55.608 28.0657 55.8707C28.0839 56.1344 28.1258 56.3931 28.1697 56.6519C28.2092 56.9121 28.251 57.1712 28.3109 57.4262C28.4843 58.4706 28.887 59.4637 29.49 60.3343Z" fill="black"/>
<path d="M29.7215 56.9034C29.3847 56.8948 29.0635 56.7595 28.8222 56.5246C28.5967 56.3011 28.4384 56.0189 28.3654 55.71C28.2534 55.1287 28.2352 54.5332 28.3116 53.9462L28.5274 50.4831L28.4967 53.9515C28.4536 54.5155 28.4965 55.0827 28.6239 55.6339C28.6946 55.8889 28.8358 56.1188 29.0313 56.2974C29.2168 56.462 29.4556 56.5538 29.7036 56.5558L29.7215 56.9034Z" fill="black"/>
<path d="M49.7823 148.536C49.4929 148.562 49.2019 148.568 48.9116 148.553C48.3017 148.542 47.7047 148.376 47.1772 148.069C46.6713 147.743 46.2317 147.324 45.8816 146.834C45.5403 146.364 45.2408 145.888 44.9412 145.421C44.6865 144.959 44.3702 144.533 44.0009 144.155C43.843 143.999 43.6337 143.906 43.4123 143.894C43.1797 143.905 42.9598 144.003 42.7958 144.169C42.4046 144.551 42.0881 145.003 41.8625 145.501C43.4088 149.026 47.3339 149.071 50.4859 148.431C50.256 148.469 50.0191 148.501 49.7823 148.536ZM66.6739 136.928C66.3221 136.548 65.9669 135.842 65.7648 134.53C65.2598 131.249 63.0448 133.337 63.0448 133.337C59.1754 135.919 57.7092 132.682 57.3504 132.185C56.9952 131.687 54.4075 131.653 53.5542 133.333C53.2372 133.875 52.8269 134.357 52.3422 134.756C52.8063 134.766 53.2664 134.845 53.7074 134.989C54.1522 135.124 54.5808 135.308 54.9856 135.536C55.402 135.766 55.7784 136.062 56.1001 136.413C56.4527 136.754 56.6629 137.217 56.6887 137.707C56.4279 137.355 56.1059 137.054 55.7379 136.816C55.3861 136.576 55.0205 136.353 54.6408 136.141L53.495 135.487C53.1084 135.264 52.7253 135.035 52.3387 134.76C51.6096 135.386 50.8355 135.958 50.0226 136.472C50.474 136.425 50.9301 136.47 51.3635 136.604C51.8021 136.734 52.218 136.932 52.5964 137.189C52.9797 137.445 53.3136 137.768 53.582 138.142C53.853 138.513 54.0331 138.942 54.1079 139.395C53.7701 139.081 53.4984 138.768 53.1711 138.507C52.8646 138.239 52.5412 137.99 52.2028 137.763C51.5272 137.296 50.8062 136.914 50.0191 136.475C49.3992 136.872 48.9534 137.122 48.9534 137.122C48.4414 137.345 47.9608 137.564 47.515 137.787C47.9834 137.848 48.4394 137.982 48.8663 138.184C49.2962 138.378 49.6999 138.626 50.0679 138.921C50.4489 139.218 50.7743 139.58 51.0292 139.99C51.3001 140.396 51.4365 140.876 51.4192 141.364C51.186 140.986 50.9102 140.636 50.5973 140.32C50.2927 140.015 49.9693 139.729 49.6291 139.464C48.9569 138.907 48.229 138.41 47.515 137.787C40.3823 141.326 41.5699 144.694 41.5699 144.694C41.6489 144.97 41.7466 145.239 41.8625 145.501C41.9624 144.93 42.199 144.392 42.5521 143.932C42.7553 143.67 43.05 143.493 43.3775 143.438C43.7215 143.413 44.0626 143.516 44.3352 143.727C44.5811 143.908 44.7993 144.123 44.983 144.367C45.1676 144.6 45.3208 144.826 45.488 145.056C45.8119 145.519 46.1114 145.989 46.4388 146.417C46.7307 146.844 47.0991 147.215 47.5255 147.509C47.6334 147.568 47.7379 147.641 47.8493 147.697L48.2011 147.843C48.4513 147.917 48.7061 147.974 48.9638 148.014C50.0615 148.111 51.1666 148.085 52.2586 147.937C53.8288 147.345 55.278 146.473 56.5354 145.362C59.8093 142.537 63.7588 142.265 66.2525 140.588C66.3081 140.553 66.3604 140.515 66.4092 140.48C66.6831 140.281 66.9104 140.024 67.0751 139.728C67.2399 139.431 67.3383 139.103 67.3635 138.765C67.3887 138.427 67.34 138.088 67.221 137.771C67.1019 137.453 66.9152 137.166 66.6739 136.928ZM61.7701 137.864C61.3766 138.232 60.9679 138.583 60.5441 138.914C60.1192 139.245 59.6804 139.551 59.2242 139.843C58.7672 140.142 58.286 140.401 57.7858 140.619C58.1207 140.189 58.4899 139.786 58.8898 139.415C59.2834 139.047 59.692 138.696 60.1157 138.365C60.5406 138.034 60.9806 137.724 61.4357 137.436C61.8927 137.134 62.3752 136.874 62.8776 136.656C62.5425 137.089 62.172 137.492 61.7701 137.864Z" fill="black"/>
<path d="M50.7888 148.369C50.7366 148.379 50.6809 148.393 50.6286 148.407C50.5903 148.414 50.5555 148.421 50.5172 148.424C50.6078 148.407 50.6983 148.389 50.7888 148.369Z" fill="white"/>
<path d="M50.0229 136.472L50.0193 136.475C50.0193 136.475 50.0192 136.474 50.019 136.474C50.0189 136.474 50.0186 136.473 50.0183 136.473C50.0179 136.472 50.0175 136.472 50.0171 136.472C50.0166 136.472 50.0161 136.472 50.0157 136.472H50.0229Z" fill="white"/>
<path d="M52.3424 134.756L52.3388 134.76C52.3388 134.759 52.3388 134.759 52.3386 134.758C52.3384 134.758 52.3381 134.758 52.3378 134.757C52.3375 134.757 52.3371 134.757 52.3366 134.757C52.3362 134.756 52.3357 134.756 52.3352 134.756H52.3424Z" fill="white"/>
<path d="M56.6873 133.092L56.8514 131.676C56.9023 131.205 56.9574 130.736 56.9964 130.267C57.0439 129.798 57.064 129.328 57.0726 128.859C57.0906 128.388 57.0401 127.917 56.9227 127.461C57.1417 127.893 57.2644 128.367 57.2821 128.851C57.319 129.33 57.3142 129.812 57.2678 130.29C57.225 130.767 57.1548 131.24 57.0574 131.709C56.9649 132.178 56.8413 132.64 56.6873 133.092Z" fill="black"/>
<path d="M64.7992 133.83C64.6338 133.289 64.5019 132.741 64.3767 132.191C64.2486 131.642 64.1441 131.089 64.0443 130.534C63.9508 129.979 63.8605 129.422 63.7997 128.861C63.7293 128.301 63.6881 127.737 63.6764 127.173C63.7939 127.726 63.9002 128.277 64.0068 128.829C64.1162 129.381 64.2133 129.934 64.3126 130.488C64.4054 131.042 64.5028 131.596 64.5818 132.153C64.6641 132.71 64.7441 133.267 64.7992 133.83Z" fill="black"/>
<path d="M36.726 7.52011C36.726 7.52011 37.4235 8.26449 38.0059 6.29823C38.0059 6.29823 38.3462 5.42843 39.3971 6.13579C39.3971 6.13579 40.1471 6.59621 40.51 5.86123C40.5933 5.76674 40.6953 5.69045 40.8094 5.63712C40.9236 5.58379 41.0476 5.55458 41.1735 5.55132C41.2995 5.54805 41.4248 5.5708 41.5416 5.61814C41.6584 5.66549 41.7642 5.7364 41.8523 5.82645C41.8523 5.82645 42.0935 6.06741 42.65 5.80964C43.2064 5.55186 44.1127 4.93134 44.4889 5.39062C44.8651 5.8499 44.3445 6.11126 44.7864 6.63734C45.2283 7.16342 45.749 7.02258 45.6045 7.62269C45.4601 8.22281 45.9283 8.60693 45.8579 9.19036C45.7875 9.77378 45.5707 13.1502 45.105 13.4652C44.6333 13.8675 44.2145 14.3278 43.8585 14.8351C43.665 15.0809 42.2965 15.2576 41.912 14.7613C41.6343 14.4323 41.2916 14.1643 40.9052 13.974C40.9052 13.974 40.1217 13.3657 39.5414 13.7416C39.5414 13.7416 38.3519 13.0927 37.6189 14.0318C37.6189 14.0318 37.0517 14.0354 36.9895 13.5713C36.9593 13.1062 36.9657 12.6395 37.0084 12.1754C37.0084 12.1754 36.7194 12.0502 36.7101 13.8326C36.7008 15.6151 37.6207 18.5988 37.7867 18.7479C37.9527 18.8971 39.3584 19.7964 42.2971 18.8726C45.2358 17.9488 45.6977 16.2235 45.8385 15.7797C45.9896 14.8719 46.0813 13.9553 46.1128 13.0356C46.1223 12.6991 46.0122 11.1458 46.9913 10.2795C46.9913 10.2795 47.6337 9.64468 47.9609 9.99063C47.9609 9.99063 48.6463 8.75578 48.4529 6.55065C48.4343 6.33989 48.3714 6.13542 48.2684 5.95058C48.1654 5.76573 48.0245 5.60466 47.8549 5.47788C47.824 5.45473 47.7927 5.43165 47.7615 5.40894C47.473 5.1917 47.2794 4.87176 47.2208 4.51561C47.2048 4.39753 47.1656 4.28377 47.1054 4.18089C47.0452 4.078 46.9653 3.988 46.8702 3.91607C46.7751 3.84414 46.6667 3.7917 46.5513 3.76175C46.4359 3.7318 46.3156 3.72493 46.1975 3.74155C44.8935 3.75604 44.0907 3.34166 43.6908 3.48095C43.2909 3.62025 41.5043 2.6708 39.89 3.85932C39.1602 4.45053 38.3304 4.90643 37.4398 5.20543C37.1341 5.36775 35.6869 6.33195 36.726 7.52011Z" fill="black"/>
<path d="M47.9609 9.99067C48.1357 10.1137 48.2551 10.3003 48.2936 10.5103C48.3271 10.7266 48.2969 10.9479 48.2068 11.1474C48.063 11.5191 47.9398 11.8984 47.8376 12.2836C47.7102 12.6828 47.5053 13.0529 47.2347 13.3729C47.0902 13.5374 46.9011 13.6565 46.6904 13.7158C46.4814 13.7604 46.2633 13.7228 46.0814 13.6108C46.2676 13.6689 46.4683 13.6611 46.6495 13.5887C46.8182 13.5089 46.9637 13.3874 47.0723 13.2357C47.2921 12.9154 47.4633 12.5644 47.5804 12.1941C47.6506 12.0072 47.6976 11.825 47.7631 11.6229C47.8301 11.4269 47.9146 11.2374 48.0155 11.0565C48.1193 10.8955 48.1699 10.706 48.1601 10.5148C48.1503 10.3235 48.0807 10.1402 47.9609 9.99067Z" fill="black"/>
<path d="M38.4651 10.9336C38.5429 10.9309 38.6165 10.8981 38.6706 10.8422C38.7247 10.7863 38.7549 10.7116 38.7549 10.6338C38.7549 10.5561 38.7247 10.4813 38.6706 10.4254C38.6165 10.3695 38.5429 10.3367 38.4651 10.3341C38.3873 10.3367 38.3136 10.3695 38.2596 10.4254C38.2055 10.4813 38.1753 10.5561 38.1753 10.6338C38.1753 10.7116 38.2055 10.7863 38.2596 10.8422C38.3136 10.8981 38.3873 10.9309 38.4651 10.9336Z" fill="black"/>
<path d="M42.179 11.4246C42.2567 11.4219 42.3304 11.3891 42.3845 11.3332C42.4386 11.2773 42.4688 11.2026 42.4688 11.1248C42.4688 11.0471 42.4386 10.9724 42.3845 10.9165C42.3304 10.8605 42.2567 10.8278 42.179 10.8251C42.1012 10.8278 42.0275 10.8605 41.9734 10.9165C41.9194 10.9724 41.8891 11.0471 41.8891 11.1248C41.8891 11.2026 41.9194 11.2773 41.9734 11.3332C42.0275 11.3891 42.1012 11.4219 42.179 11.4246Z" fill="black"/>
<path d="M37.1838 9.16347C37.6128 9.05832 38.0603 9.05393 38.4912 9.15065C38.7083 9.19844 38.9187 9.27271 39.1176 9.37178C39.317 9.4727 39.4933 9.61397 39.6352 9.7866C39.2478 9.62395 38.8452 9.5 38.4334 9.41654C38.0258 9.32675 37.6131 9.26254 37.1838 9.16347Z" fill="black"/>
<path d="M40.9488 9.91761C41.4119 9.76273 41.9017 9.70382 42.3884 9.74448C42.8811 9.76593 43.3583 9.92317 43.7671 10.1988C43.3048 10.1095 42.8375 10.0484 42.3679 10.0158C41.9014 9.97937 41.4344 9.96467 40.9488 9.91761Z" fill="black"/>
<path d="M38.9939 12.5824C39.0585 12.6737 39.1341 12.7566 39.2192 12.8292C39.2957 12.8943 39.3782 12.952 39.4655 13.0017C39.639 13.1077 39.8359 13.1847 40.0545 13.3148C39.9359 13.355 39.8099 13.3686 39.6854 13.3547C39.5588 13.34 39.4366 13.2995 39.3263 13.2357C39.2123 13.1688 39.1177 13.0734 39.0517 12.959C38.9834 12.846 38.9626 12.7106 38.9939 12.5824Z" fill="black"/>
<path d="M47.3713 9.99567C46.8077 10.2428 46.2244 10.4425 45.6276 10.5927C45.0339 10.7547 44.4275 10.8664 43.815 10.9266C44.3783 10.6789 44.9616 10.4792 45.5586 10.3295C46.1525 10.1681 46.7588 10.0564 47.3713 9.99567Z" fill="black"/>
<path d="M42.5657 26.6942C42.5657 26.6942 37.2423 37.4766 37.1822 40.1232L38.9769 42.6534L42.3974 40.5153C42.3974 40.5153 43.2999 28.9487 42.5657 26.6942Z" fill="black"/>
<path d="M53.7192 44.733C53.4928 44.4086 53.3424 44.0374 53.2794 43.647C53.2639 43.5408 53.2674 43.4328 53.2899 43.3279C53.3005 43.2646 53.3279 43.2052 53.3692 43.156C53.4105 43.1068 53.4642 43.0696 53.5248 43.0481C53.6348 43.0271 53.7486 43.0432 53.8485 43.0938C53.9423 43.1315 54.0276 43.1782 54.1145 43.2229L54.1178 43.2246L54.1206 43.227C54.3344 43.4072 54.532 43.6058 54.7109 43.8205C54.8829 44.043 55.029 44.2841 55.1467 44.5394C55.3685 45.0553 55.4593 45.6181 55.4108 46.1775L55.409 46.171L55.4102 46.1997H55.383L55.3772 46.1868L55.3754 46.1802C55.3344 46.0472 55.3033 45.9151 55.2687 45.7848C55.2256 45.6559 55.1973 45.5254 55.1539 45.399C55.077 45.1435 54.9748 44.8997 54.8804 44.6537C54.7826 44.4075 54.6672 44.1688 54.5351 43.9392C54.4154 43.6995 54.2574 43.4809 54.0675 43.2919L54.0735 43.296C53.9202 43.2068 53.705 43.1275 53.5801 43.195C53.4776 43.2517 53.5062 43.4471 53.522 43.6169C53.5675 43.9741 53.6755 44.3401 53.7444 44.7226L53.7192 44.733Z" fill="black"/>
<path d="M51.7923 46.4351C51.3553 46.0422 50.9268 45.6397 50.4775 45.2781C50.3692 45.1888 50.2539 45.1083 50.1329 45.0372C50.0802 45.0056 50.0225 44.983 49.9623 44.9705L49.7506 44.93C49.4684 44.8776 49.1833 44.8428 48.8968 44.8257C48.6089 44.8082 48.3126 44.8185 48.0145 44.788C47.9333 44.7888 47.8532 44.7704 47.7806 44.7342C47.708 44.698 47.6451 44.6451 47.597 44.5798C47.5511 44.5129 47.5237 44.435 47.5176 44.3541C47.5114 44.2732 47.5267 44.1921 47.5618 44.1189C47.7025 43.8423 47.9464 43.632 48.2409 43.5335C48.5222 43.4256 48.8161 43.3539 49.1155 43.3203L49.0255 43.4529C48.9844 43.3199 48.9756 43.1791 48.9996 43.042C49.0118 42.9678 49.0386 42.8967 49.0787 42.833C49.1187 42.7692 49.1711 42.7142 49.2327 42.6709C49.471 42.5358 49.7489 42.4877 50.0188 42.5347C50.5098 42.6061 50.9868 42.7528 51.4329 42.9697C51.874 43.1808 52.2929 43.4355 52.6832 43.73C53.0709 44.0225 53.4268 44.3549 53.745 44.7217L53.7257 44.7409C53.3589 44.4338 52.9719 44.1516 52.5674 43.8961C52.1695 43.6392 51.7512 43.4151 51.3168 43.2261C50.8903 43.0359 50.4435 42.8947 49.9851 42.8052C49.7795 42.7603 49.5648 42.7846 49.3743 42.8741C49.2989 42.9346 49.2438 43.0168 49.2167 43.1096C49.1896 43.2024 49.1917 43.3013 49.2227 43.3929L49.2519 43.52L49.1325 43.5256C48.8458 43.5316 48.5611 43.5751 48.2857 43.655C48.1491 43.6875 48.0209 43.7487 47.9098 43.8345C47.7987 43.9204 47.7072 44.0289 47.6413 44.1528C47.6127 44.2125 47.6008 44.2788 47.6067 44.3447C47.6127 44.4105 47.6364 44.4736 47.6752 44.5272C47.7141 44.5807 47.7667 44.6228 47.8275 44.649C47.8883 44.6752 47.955 44.6845 48.0207 44.6759C48.3091 44.6771 48.5995 44.6377 48.8984 44.6274C49.1986 44.6132 49.4994 44.6341 49.7947 44.6897C49.869 44.7009 49.9414 44.7202 50.0144 44.7365C50.0973 44.7573 50.1763 44.791 50.2485 44.8366C50.3777 44.9187 50.5002 45.0109 50.6146 45.1125C51.0546 45.5081 51.4557 45.9447 51.8124 46.4166L51.7923 46.4351Z" fill="black"/>
<path d="M51.7962 46.439L51.7923 46.4359L51.7947 46.4379C51.078 46.1173 50.3342 45.8606 49.5723 45.6706C49.1955 45.5588 48.8074 45.4896 48.4152 45.4643C48.2193 45.4524 48.0227 45.4623 47.829 45.4937C47.7391 45.4986 47.6511 45.5213 47.5701 45.5604C47.489 45.5995 47.4165 45.6543 47.3567 45.7215C47.2867 45.8454 47.4001 46.0237 47.5197 46.1364C47.6498 46.2503 47.8133 46.319 47.9858 46.3322C48.3912 46.3389 48.7939 46.3983 49.1839 46.5091C49.9625 46.7397 50.6729 47.1566 51.2536 47.7236L51.2366 47.7449C50.5787 47.3199 49.8599 46.9974 49.1049 46.7886C48.7301 46.684 48.346 46.6164 47.9581 46.5869C47.7319 46.56 47.5224 46.4545 47.3663 46.2889C47.288 46.2063 47.2288 46.1075 47.1928 45.9995C47.1703 45.9411 47.1621 45.8781 47.1686 45.8158C47.1752 45.7535 47.1965 45.6936 47.2308 45.6411C47.3871 45.488 47.5966 45.4012 47.8155 45.3988C48.0153 45.3789 48.2162 45.3713 48.4169 45.3761C48.8193 45.3655 49.2219 45.39 49.62 45.4493C50.4148 45.5974 51.1644 45.9276 51.8099 46.4139L51.8123 46.4156L51.8125 46.4158L51.8155 46.4197L51.7962 46.439Z" fill="black"/>
<path d="M57.2376 49.7021C56.9811 50.3378 56.501 50.858 55.8875 51.1647C55.5757 51.3127 55.2401 51.4043 54.8963 51.435C54.5547 51.4621 54.211 51.435 53.8778 51.355L53.8557 51.3499L53.8439 51.3421L51.4845 49.771C51.2892 49.638 51.0917 49.507 50.8998 49.3664C50.7064 49.2309 50.5264 49.0484 50.3506 48.933C49.9532 48.7147 49.507 48.6001 49.0535 48.5999C48.9391 48.5945 48.8245 48.5947 48.7096 48.5984C48.5804 48.606 48.4507 48.596 48.3241 48.5687C48.0548 48.5149 47.8168 48.359 47.66 48.1338C47.5679 48.009 47.5252 47.8546 47.5402 47.7003C47.568 47.5507 47.6471 47.4154 47.764 47.3179C47.964 47.1351 48.2244 47.0324 48.4955 47.0293C48.9753 47.0528 49.4526 47.1142 49.9227 47.2129C50.3957 47.2924 50.8479 47.4656 51.2528 47.7225L51.2591 47.7342C51.26 47.7299 51.2523 47.7225 51.2486 47.7241V47.7514C51.2411 47.7531 51.23 47.7424 51.2311 47.7344L51.2374 47.7459C50.8123 47.5524 50.3578 47.4312 49.8927 47.3873C49.4332 47.3275 48.9705 47.2949 48.5072 47.2896C48.1108 47.3065 47.6398 47.6723 47.9003 47.9703C48.0172 48.1355 48.1909 48.2519 48.3882 48.2975C48.4918 48.323 48.5984 48.3339 48.705 48.3301C48.8259 48.3296 48.9472 48.3329 49.0682 48.3421C49.5629 48.3563 50.0443 48.5057 50.4599 48.7742C50.6659 48.9359 50.8021 49.1091 50.9867 49.2569C51.1673 49.4052 51.3489 49.5547 51.541 49.6904C52.31 50.2345 53.1164 50.7239 53.954 51.1552L53.9202 51.1423C54.5498 51.2686 55.2025 51.2097 55.7993 50.9728C56.0927 50.8429 56.3627 50.6656 56.5986 50.4481C56.8399 50.2279 57.0469 49.9728 57.2125 49.6914L57.2376 49.7021Z" fill="black"/>
<path d="M49.1448 43.2886C49.4806 43.3587 49.8112 43.4514 50.1344 43.5661C50.4567 43.6773 50.7701 43.8127 51.072 43.971C51.6888 44.2649 52.2057 44.7334 52.5582 45.3183C52.1745 44.7672 51.6368 44.3411 51.0123 44.0934C50.708 43.9591 50.3941 43.848 50.0731 43.7609C49.7549 43.6716 49.4311 43.6038 49.1039 43.5578L49.1448 43.2886Z" fill="black"/>
<path d="M53.2979 43.4296L53.2781 43.3432L53.2776 43.3408C53.1369 42.6959 53.0109 42.044 52.916 41.3882C52.8674 41.0604 52.8246 40.7315 52.7878 40.4016L52.7377 39.9064L52.6993 39.4331L52.6959 39.4098C52.5805 37.6505 52.6724 35.8836 52.9698 34.1457C53.1181 33.2739 53.3168 32.4242 53.547 31.5656C53.6672 31.1172 53.8653 30.6933 54.1322 30.3133C54.2735 30.1047 54.4547 29.9261 54.6652 29.7876C54.8757 29.6491 55.1115 29.5535 55.3591 29.5061L55.4593 29.4905L55.5423 29.5815C56.7116 30.8642 57.8801 32.1478 59.0303 33.4478L60.7628 35.3913L62.4772 37.351L62.5868 37.4763L62.4806 37.5976L59.088 41.4715L55.7273 45.3724L55.7318 45.3666C55.616 45.5474 55.5374 45.7494 55.5007 45.9609C55.464 46.1724 55.4698 46.389 55.5179 46.5982C55.6081 47.0303 55.7667 47.4452 55.9877 47.8274C56.4302 48.6025 56.9746 49.3149 57.6063 49.9456L57.4626 49.9347C60.2173 47.843 62.952 45.7184 65.5966 43.4962C66.2548 42.9378 66.9084 42.3739 67.5451 41.7965C67.8667 41.5101 68.177 41.2149 68.4792 40.9137C68.6368 40.7672 68.7728 40.6082 68.916 40.4537C68.9854 40.3754 69.0618 40.3003 69.1254 40.2193L69.3069 39.9727C69.5456 39.6468 69.7299 39.2845 69.853 38.8999C69.9604 38.515 70.0025 38.1148 69.9775 37.716C69.8931 36.9098 69.583 36.1436 69.0829 35.5052L69.0666 35.4843L69.0605 35.475C68.132 34.0415 67.186 32.6171 66.2225 31.2017C65.2622 29.7864 64.2722 28.3921 63.2772 27.0032C62.2741 25.6216 61.2525 24.2482 60.1329 22.971C59.8426 22.6659 59.5659 22.3359 59.2586 22.0637C58.9492 21.7849 58.6136 21.5366 58.2564 21.3223C57.5308 20.8936 56.7496 20.5667 55.9348 20.3507L55.9712 20.3552L55.9643 20.3552L55.9439 20.3549L55.9279 20.3505C54.9704 20.0981 53.9907 19.9391 53.0026 19.876C52.0099 19.8069 51.0132 19.8219 50.0231 19.9206L50.0152 19.8668C51.0072 19.725 52.0093 19.6673 53.011 19.6943C54.0182 19.7115 55.0206 19.8375 56.0006 20.0701L55.9643 20.0655L55.9712 20.0654L55.9878 20.0651L56.0078 20.0701C56.8582 20.2694 57.6771 20.5848 58.4414 21.0072C58.8259 21.2228 59.1886 21.4751 59.5245 21.7606C59.8666 22.0486 60.145 22.3751 60.451 22.684C61.6134 23.9632 62.6633 25.3239 63.6971 26.6948C64.7317 28.0653 65.7101 29.475 66.6846 30.8861C67.6548 32.3008 68.6087 33.7264 69.5462 35.1627L69.524 35.1325C70.0956 35.8666 70.4439 36.7493 70.5276 37.6755C70.5531 38.1416 70.4992 38.6087 70.368 39.0567C70.2239 39.4959 70.0095 39.9089 69.7331 40.2796L69.5267 40.5531C69.4557 40.6412 69.3765 40.7176 69.3018 40.8003C69.1495 40.9617 69.0015 41.1299 68.8404 41.2766C68.5265 41.5833 68.2061 41.8801 67.8792 42.1672C67.2311 42.7492 66.5579 43.2973 65.885 43.8448C63.1804 46.0175 60.4017 48.0843 57.5936 50.1129L57.5144 50.1701L57.4498 50.1019C57.1377 49.7705 56.8435 49.4227 56.5685 49.06C56.2913 48.6983 56.0422 48.3161 55.8232 47.9166C55.5961 47.5154 55.4346 47.0805 55.3448 46.6283C55.2948 46.3968 55.2914 46.1576 55.3348 45.9248C55.3782 45.6919 55.4676 45.47 55.5977 45.2721L55.6 45.2688L55.6023 45.2662L58.9145 41.3241L62.195 37.3549L62.1984 37.6014L60.43 35.6901L58.6797 33.7626C57.5081 32.4818 56.3547 31.1847 55.2023 29.8867L55.3853 29.9621C55.2112 29.9945 55.0467 30.0657 54.9038 30.1703C54.7453 30.2853 54.6046 30.423 54.4862 30.579C54.2471 30.9146 54.0684 31.2893 53.9581 31.6863C53.7227 32.5132 53.5256 33.3687 53.3516 34.2157C53.0156 35.9217 52.8761 37.6604 52.9359 39.398L52.9324 39.3749C52.938 39.4241 52.941 39.4735 52.9415 39.523L52.9457 39.6446L52.9565 39.891L52.9855 40.3839C53.0081 40.7124 53.0368 41.0406 53.0716 41.3684C53.1416 42.0242 53.2333 42.6768 53.3362 43.331L53.3358 43.3288L53.3508 43.4163L53.2979 43.4296Z" fill="black"/>
<path d="M46.7465 19.9151C46.1821 20.3944 45.6176 20.8265 45.0447 21.2316C44.4809 21.6418 43.8953 22.0213 43.2906 22.3684L43.2643 21.9875C43.8017 22.2806 44.3282 22.5971 44.8725 22.8753C45.4191 23.1493 45.9796 23.3946 46.5519 23.6099L46.4001 23.6401L47.2163 22.6224C47.4911 22.2857 47.7786 21.9606 48.0657 21.6352C48.6357 20.9804 49.2195 20.3382 49.8169 19.7086L50.0175 20.1649L46.7465 19.9151ZM46.7312 19.8628L50.0181 19.6203L50.6671 19.5724L50.2186 20.0766C49.6419 20.7252 49.0519 21.3617 48.4487 21.9861C48.149 22.3 47.8497 22.6143 47.5377 22.9169L46.5934 23.8172L46.5172 23.8898L46.4414 23.8475C45.9076 23.5493 45.3586 23.2793 44.7965 23.0386C44.2328 22.8022 43.6511 22.6043 43.0804 22.3829L42.7256 22.2452L43.0541 22.0019C43.6375 21.584 44.2425 21.197 44.8665 20.8425C45.4824 20.4822 46.1068 20.1489 46.7312 19.8628L46.7312 19.8628Z" fill="black"/>
<path d="M32.7819 35.2302C32.4841 35.4902 32.1724 35.7339 31.8483 35.9602C31.5358 36.1703 31.2533 36.4217 31.0084 36.7077C30.7445 36.9853 30.5428 37.3159 30.4167 37.6775C30.2997 38.0464 30.2786 38.439 30.3553 38.8183C30.5434 39.5545 30.7859 40.3241 30.9536 41.0858C31.1241 41.8556 31.2491 42.6348 31.328 43.4193L31.2941 43.4272C31.016 42.6894 30.7816 41.9359 30.592 41.1705C30.4977 40.7891 30.4222 40.4033 30.3442 40.018C30.2547 39.6299 30.195 39.2355 30.1657 38.8383C30.1561 38.4362 30.2041 38.0349 30.3081 37.6464C30.3963 37.2486 30.5561 36.8701 30.7799 36.5295C31.0212 36.1952 31.3376 35.9222 31.7038 35.7323C32.047 35.5361 32.4007 35.3587 32.7632 35.2008L32.7819 35.2302Z" fill="black"/>
</svg>
