<svg width="172" height="152" viewBox="0 0 172 152" fill="none" xmlns="http://www.w3.org/2000/svg">
<path d="M55.9652 120.818C55.9481 120.818 55.9312 120.815 55.9153 120.808C55.8995 120.802 55.8851 120.792 55.873 120.78C55.8609 120.768 55.8513 120.754 55.8447 120.738C55.8381 120.722 55.8348 120.705 55.8348 120.688V108.382C55.8353 108.348 55.8493 108.315 55.8737 108.291C55.8981 108.267 55.931 108.254 55.9652 108.254C55.9995 108.254 56.0324 108.267 56.0568 108.291C56.0812 108.315 56.0951 108.348 56.0957 108.382V120.688C56.0957 120.705 56.0923 120.722 56.0858 120.738C56.0792 120.754 56.0696 120.768 56.0575 120.78C56.0454 120.792 56.031 120.802 56.0151 120.808C55.9993 120.815 55.9824 120.818 55.9652 120.818Z" fill="black"/>
<path d="M68.9654 98.6233C68.6846 99.0989 68.3541 99.5435 67.9793 99.9497C67.6195 100.368 67.225 100.753 66.8375 101.145C66.0382 101.903 65.2174 102.64 64.3541 103.326C62.6322 104.707 60.8075 105.955 58.8958 107.06C56.9859 108.181 54.9674 109.106 52.871 109.822C51.8189 110.179 50.742 110.458 49.6489 110.658C49.0953 110.724 48.5436 110.832 47.9877 110.863C47.4314 110.879 46.8743 110.904 46.3179 110.911C44.0992 110.837 41.8949 110.526 39.7428 109.983C37.5944 109.465 35.4796 108.817 33.4101 108.044C31.3386 107.284 29.3047 106.431 27.2808 105.57C26.7747 105.357 26.2672 105.14 25.7574 104.954C25.5079 104.867 25.239 104.776 24.972 104.666C24.8483 104.594 24.7187 104.531 24.6008 104.451C24.4849 104.368 24.3741 104.277 24.269 104.181C23.8672 103.78 23.5654 103.29 23.3881 102.752C23.2078 102.221 23.1081 101.667 23.0924 101.107L23.0938 101.123C21.7677 93.8778 20.0651 86.7057 17.9928 79.6361C16.9843 76.0948 15.8578 72.5884 14.7004 69.0942C13.5409 65.6004 12.3048 62.1334 10.9921 58.6932C10.3298 56.9762 9.66622 55.2597 8.9706 53.5564C8.63396 52.702 8.23919 51.8717 7.94788 50.9675C7.65916 50.0712 7.47051 49.146 7.38535 48.2085C7.33766 47.7335 7.32417 47.2557 7.34498 46.7788C7.39781 46.2625 7.61165 45.7757 7.95645 45.3868C8.30124 44.998 8.75964 44.7266 9.26719 44.6109C9.72802 44.4958 10.1976 44.4186 10.6711 44.3802C11.628 44.3164 12.5879 44.4475 13.4923 44.7655L16.1257 45.6269L26.6598 49.0724C27.1106 49.2013 27.5505 49.3655 27.9754 49.5635C28.4004 49.777 28.7901 50.0542 29.1307 50.3854C29.8192 51.0472 30.2686 51.9175 30.4087 52.8606L31.1903 58.3319C31.1913 58.3387 31.1895 58.3455 31.1854 58.3509C31.1813 58.3564 31.1752 58.36 31.1685 58.3611C31.1618 58.3621 31.1549 58.3605 31.1493 58.3565C31.1438 58.3525 31.14 58.3466 31.1388 58.3399L30.2187 52.8918C30.0604 52.0011 29.6179 51.1852 28.9571 50.5654C28.6311 50.2567 28.2594 49.9998 27.8551 49.8036C27.4401 49.6176 27.011 49.4645 26.5718 49.3458L15.9919 46.043L13.3469 45.2173C12.4995 44.9302 11.602 44.8191 10.7098 44.8907C10.2628 44.9344 9.81952 45.0109 9.38374 45.1195C8.98401 45.2117 8.62327 45.4263 8.35218 45.7333C8.08108 46.0402 7.91324 46.4241 7.87222 46.831C7.8567 47.2744 7.87138 47.7183 7.91613 48.1597C7.99981 49.0581 8.18268 49.9446 8.46142 50.803C8.7361 51.6536 9.13482 52.4925 9.47593 53.3508C10.1763 55.0581 10.851 56.7751 11.5 58.502C14.0954 65.4088 16.369 72.4228 18.321 79.5441C19.296 83.0995 20.2057 86.6728 21.0121 90.2692C21.8635 93.8557 22.5626 97.4748 23.2731 101.091L23.2742 101.1L23.2745 101.107C23.271 102.19 23.6762 103.234 24.4095 104.032C24.5073 104.121 24.6103 104.204 24.7179 104.28C24.8267 104.354 24.9482 104.408 25.0624 104.474C25.3051 104.568 25.5595 104.651 25.8309 104.74C26.3581 104.922 26.8668 105.129 27.3784 105.334C29.4188 106.162 31.4598 106.977 33.5343 107.699C35.6042 108.425 37.7105 109.043 39.8447 109.552C41.9698 110.067 44.1412 110.37 46.3266 110.456C46.8704 110.452 47.414 110.431 47.9579 110.419C48.5005 110.393 49.0346 110.29 49.5738 110.23C50.6477 110.041 51.7062 109.773 52.7409 109.43C54.8151 108.729 56.8188 107.836 58.726 106.763C60.6408 105.693 62.4741 104.484 64.2112 103.146C65.0884 102.487 65.9241 101.775 66.7401 101.043C67.1356 100.663 67.5391 100.291 67.9073 99.8853C68.289 99.4934 68.6281 99.0624 68.9189 98.5995L68.9206 98.5968C68.9241 98.5909 68.9299 98.5867 68.9366 98.585C68.9432 98.5833 68.9503 98.5843 68.9563 98.5878C68.9622 98.5913 68.9665 98.597 68.9682 98.6037C68.9699 98.6104 68.9689 98.6174 68.9653 98.6233L68.9654 98.6233Z" fill="black"/>
<path d="M9.48375 46.9869L13.4794 48.3848L17.4651 49.8089L21.446 51.2461L25.4199 52.7021C25.4536 52.7144 25.4838 52.7348 25.5076 52.7616C25.5315 52.7883 25.5484 52.8205 25.5568 52.8553L25.5576 52.8591C26.3523 56.2476 27.116 59.6432 27.8486 63.0458C28.588 66.4468 29.2969 69.8548 30.0651 73.2493C31.5778 80.0437 33.2302 86.8065 34.8268 93.582C35.2078 95.2542 35.9035 96.8392 36.8772 98.253C37.8491 99.6596 39.1204 100.835 40.6006 101.696C42.0853 102.537 43.7593 102.992 45.4672 103.016C46.3295 103.01 47.1909 102.96 48.0479 102.865C48.9109 102.773 49.7734 102.676 50.628 102.535C52.3394 102.274 54.0228 101.856 55.6564 101.285C57.286 100.69 58.8689 99.9741 60.3917 99.1443C61.9276 98.33 63.4273 97.4418 64.9131 96.531C66.4063 95.6316 67.8855 94.7071 69.3661 93.7852C69.3719 93.7816 69.3789 93.7804 69.3856 93.7818C69.3923 93.7833 69.3982 93.7873 69.4019 93.793C69.4057 93.7988 69.407 93.8057 69.4056 93.8124C69.4043 93.8191 69.4003 93.825 69.3946 93.8288C66.4997 95.7739 63.619 97.7461 60.5678 99.4646C59.0442 100.337 57.454 101.088 55.812 101.711C54.1597 102.321 52.4518 102.77 50.7123 103.051C49.8449 103.197 48.9727 103.297 48.1005 103.394C47.2228 103.493 46.3406 103.547 45.4572 103.555C43.6562 103.541 41.8896 103.062 40.3291 102.166C38.8058 101.236 37.4923 100.002 36.4713 98.5417C35.4504 97.0811 34.7442 95.4254 34.3974 93.6791C32.9042 86.8802 31.4669 80.0688 29.89 73.2889C29.1135 69.8962 28.2776 66.517 27.472 63.131C26.6634 59.7455 25.8822 56.3539 25.1285 52.9562L25.2662 53.1131L21.3058 51.6209L17.3525 50.11L13.4041 48.586L9.46547 47.0357C9.45911 47.0332 9.45398 47.0283 9.4512 47.0221C9.44842 47.0158 9.4482 47.0088 9.45059 47.0024C9.45299 46.996 9.4578 46.9908 9.46399 46.9879C9.47019 46.985 9.47728 46.9847 9.48373 46.987L9.48375 46.9869Z" fill="black"/>
<path d="M55.6348 26.9214C54.5403 26.2589 54.2643 24.263 55.1082 22.9271C56.1723 21.2425 57.3617 24.2998 57.3617 24.2998C59.3022 27.17 63.2458 19.4955 63.2458 19.4955C63.2458 19.4955 60.116 15.5646 52.9798 18.1852C45.8437 20.8057 50.7263 29.7281 50.7263 29.7281C50.7263 29.7281 43.2772 33.2222 45.7811 42.5189C45.7811 42.5189 52.4376 40.975 52.0409 29.9017C52.0409 29.9017 54.8265 28.8078 55.6348 26.9214" fill="black"/>
<path d="M56.4149 27.1193C56.0169 27.2173 55.5963 27.1572 55.242 26.9517C55.2272 26.9428 55.2144 26.9311 55.2042 26.9172C55.194 26.9033 55.1866 26.8875 55.1825 26.8708C55.1784 26.8541 55.1777 26.8367 55.1803 26.8197C55.183 26.8027 55.1889 26.7864 55.1979 26.7717C55.2069 26.757 55.2187 26.7441 55.2326 26.734C55.2465 26.7238 55.2623 26.7165 55.2791 26.7124C55.2959 26.7083 55.3133 26.7076 55.3304 26.7102C55.3475 26.7129 55.3638 26.7188 55.3786 26.7278C55.388 26.7338 55.3968 26.7408 55.4048 26.7486C55.6813 26.9967 56.043 27.1294 56.4149 27.1193Z" fill="black"/>
<path d="M63.0428 19.8968C63.4679 20.5749 63.8005 21.3064 64.0317 22.072C64.2793 22.8478 64.3727 23.6643 64.3067 24.4757L64.2567 24.3283C64.4947 24.5777 64.7269 24.8327 64.9561 25.0904L65.643 25.878C65.7032 25.9575 65.7465 26.0485 65.7702 26.1453C65.7939 26.2421 65.7975 26.3427 65.7809 26.4409C65.7642 26.5391 65.7276 26.633 65.6734 26.7166C65.6191 26.8003 65.5483 26.872 65.4652 26.9275C65.3241 27.0352 65.1732 27.1296 65.0146 27.2095C64.9328 27.2605 64.8406 27.2926 64.7447 27.3034C64.6489 27.3143 64.5518 27.3036 64.4606 27.2722L64.5514 27.2177C64.541 28.3404 64.4227 29.4596 64.198 30.5598C64.0805 31.134 63.8361 31.6749 63.4827 32.1432C63.2757 32.3993 62.9837 32.5733 62.6594 32.6338C62.4963 32.6526 62.3312 32.646 62.1701 32.6142L61.7684 32.5453C61.2454 32.4517 60.7098 32.4519 60.1869 32.5458C59.6727 32.6521 59.197 32.895 58.81 33.2488C58.0557 34.0465 57.4736 34.9899 57.0997 36.0208C57.0977 36.0259 57.0938 36.03 57.0887 36.0322C57.0837 36.0345 57.0779 36.0346 57.0728 36.0326C57.0681 36.0307 57.0642 36.0271 57.0619 36.0225C57.0596 36.018 57.0591 36.0128 57.0603 36.0078C57.1952 35.4624 57.3811 34.9308 57.6155 34.4199C57.8453 33.8926 58.1664 33.4097 58.564 32.9933C58.9794 32.564 59.5104 32.2635 60.0932 32.128C60.6681 32.0067 61.2616 32.001 61.8387 32.1112L62.2597 32.1965C62.372 32.2222 62.4875 32.2312 62.6024 32.2233C62.8325 32.1837 63.0408 32.0639 63.1903 31.8852C63.5189 31.4681 63.7588 30.9886 63.8953 30.476C64.2161 29.4174 64.3947 28.3211 64.4264 27.2158C64.4271 27.199 64.4343 27.1832 64.4466 27.1718C64.459 27.1604 64.4753 27.1543 64.4921 27.1549C64.5008 27.1554 64.5094 27.1575 64.5173 27.1612C64.5911 27.1811 64.6683 27.185 64.7437 27.1727C64.8191 27.1604 64.891 27.1321 64.9545 27.0897C65.1019 27.0093 65.2402 26.9134 65.367 26.8037C65.4262 26.7604 65.4757 26.7054 65.5125 26.6421C65.5492 26.5788 65.5724 26.5085 65.5805 26.4358C65.5886 26.3631 65.5816 26.2895 65.5597 26.2197C65.5378 26.1499 65.5017 26.0853 65.4535 26.0301L64.7165 25.3175C64.4697 25.0765 64.2258 24.8326 63.9878 24.5832C63.97 24.5646 63.9563 24.5425 63.9476 24.5183C63.9389 24.4941 63.9354 24.4684 63.9372 24.4428L63.9378 24.4357C63.9709 24.0552 63.9699 23.6725 63.9349 23.2922C63.8948 22.9073 63.8311 22.5252 63.7442 22.148C63.5619 21.3848 63.3151 20.6384 63.0065 19.9168C63.0053 19.9143 63.0046 19.9117 63.0045 19.9089C63.0044 19.9062 63.0047 19.9035 63.0057 19.9009C63.0066 19.8983 63.008 19.896 63.0098 19.8939C63.0117 19.8919 63.0139 19.8903 63.0163 19.8891C63.021 19.8872 63.0261 19.8869 63.031 19.8883C63.0358 19.8897 63.04 19.8927 63.0428 19.8968Z" fill="black"/>
<path d="M61.9156 22.9583C62.1511 22.7216 62.4663 22.5804 62.8002 22.5619C63.1299 22.5302 63.4613 22.6034 63.7466 22.7711C63.4172 22.7962 63.1211 22.7941 62.8228 22.8208C62.5178 22.8476 62.2148 22.8935 61.9156 22.9583Z" fill="black"/>
<path d="M62.7138 24.565C62.8152 24.5615 62.9113 24.5188 62.9818 24.4461C63.0523 24.3733 63.0917 24.2761 63.0917 24.175C63.0917 24.0739 63.0523 23.9767 62.9818 23.9039C62.9113 23.8312 62.8152 23.7885 62.7138 23.785C62.6123 23.7885 62.5163 23.8312 62.4458 23.9039C62.3753 23.9767 62.3358 24.0739 62.3358 24.175C62.3358 24.2761 62.3753 24.3733 62.4458 24.4461C62.5163 24.5188 62.6123 24.5615 62.7138 24.565Z" fill="black"/>
<path d="M57.6433 29.0418C58.0082 29.4838 58.3402 29.9307 58.6951 30.3595C59.0436 30.7957 59.4301 31.2003 59.8499 31.5687C59.3138 31.3451 58.8461 30.985 58.4936 30.5243C58.1264 30.0828 57.8387 29.5812 57.6433 29.0418Z" fill="black"/>
<path d="M30.8621 56.6442C31.1212 55.4447 31.4359 54.2802 31.7757 53.1107C32.1197 51.9454 32.4789 50.7828 32.8948 49.6393C33.7032 47.3384 34.6695 45.0957 35.7868 42.9271C36.3564 41.8424 36.986 40.7901 37.6726 39.7749C38.3542 38.7465 39.1258 37.7803 39.9785 36.8876C40.8316 35.9725 41.8163 35.1885 42.9002 34.5614C44.006 33.9251 45.2444 33.5523 46.5187 33.472L46.5222 33.4719C46.5438 33.4709 46.5655 33.4719 46.587 33.4749C47.8198 33.654 49.0411 33.8655 50.2606 34.1052C51.4798 34.3423 52.6958 34.5987 53.9045 34.8964C55.1293 35.1679 56.3258 35.5535 57.4783 36.0481C58.0492 36.3305 58.5671 36.6291 59.1297 36.8963L60.8062 37.6958C61.3719 37.9626 61.9196 38.266 62.4456 38.6041C62.9862 38.9422 63.4539 39.3843 63.8212 39.9045C64.5427 40.8876 65.39 41.8013 66.2008 42.7287C67.8411 44.5759 69.5132 46.3954 71.217 48.1873C71.2457 48.2176 71.2639 48.2563 71.269 48.2976C71.274 48.3389 71.2656 48.3808 71.2451 48.417L71.2434 48.4199C70.6116 49.5292 69.9298 50.5979 69.2136 51.6502C68.4962 52.7004 67.7346 53.7229 66.9174 54.705C66.0983 55.6942 65.1997 56.6152 64.2307 57.4591C63.2499 58.3449 62.0977 59.0215 60.8449 59.4472L61.0119 59.3484C60.1065 60.2659 59.1803 61.1469 58.2038 61.9917C57.7145 62.4123 57.2139 62.8225 56.6783 63.2048C56.4069 63.4017 56.1237 63.582 55.8304 63.7448C55.4918 63.9557 55.1037 64.0742 54.7047 64.0887L55.1432 63.5806C55.3507 64.4882 55.5665 65.3976 55.7926 66.3004L56.1418 67.6487C56.2007 67.8722 56.263 68.0943 56.3279 68.3112C56.3846 68.5125 56.4529 68.7103 56.5324 68.9038L56.5418 68.9248C56.5651 68.9767 56.5779 69.0328 56.5794 69.0897C56.581 69.1465 56.5713 69.2032 56.5509 69.2563C56.5304 69.3095 56.4997 69.3581 56.4605 69.3994C56.4212 69.4407 56.3742 69.4739 56.322 69.4971C56.2787 69.5161 56.2326 69.5282 56.1855 69.5328C53.2774 69.8049 50.3739 69.9908 47.4585 70.0921C44.5379 70.2108 41.6126 70.1439 38.7005 69.8918C37.9706 69.816 37.2408 69.7243 36.5142 69.5849C35.7757 69.4591 35.0529 69.2543 34.3584 68.9741C33.9941 68.8258 33.6539 68.6244 33.3489 68.3766C33.1875 68.2387 33.0497 68.0756 32.941 67.8936C32.8368 67.7102 32.7794 67.55 32.6966 67.3772C32.4034 66.7003 32.1637 66.0017 31.9795 65.2876C31.6173 63.8752 31.3546 62.4392 31.1935 60.9903C31.0238 59.5445 30.9116 58.1059 30.8621 56.6442ZM30.9448 56.652C31.1606 59.5298 31.6536 62.3802 32.4173 65.1638C32.6169 65.847 32.8697 66.5137 33.1734 67.1577C33.2516 67.309 33.3272 67.4882 33.4071 67.6164C33.4895 67.7429 33.5918 67.8554 33.71 67.9495C33.9771 68.1498 34.272 68.3102 34.5855 68.4255C35.9376 68.8679 37.3426 69.1299 38.7637 69.2048C41.6486 69.3852 44.5416 69.4028 47.4286 69.2572C50.321 69.1446 53.2194 68.9465 56.0965 68.665L55.7496 69.2939C55.6456 69.057 55.5579 68.8132 55.4873 68.5644C55.4171 68.3336 55.3523 68.1054 55.2909 67.877C55.1645 67.4207 55.0559 66.9634 54.9455 66.5065C54.7274 65.5922 54.5214 64.679 54.3221 63.7607C54.3103 63.7068 54.3094 63.6511 54.3193 63.5968C54.3291 63.5425 54.3497 63.4907 54.3796 63.4443C54.4096 63.3979 54.4484 63.3579 54.4939 63.3265C54.5394 63.2951 54.5907 63.2729 54.6448 63.2612C54.6828 63.2533 54.7217 63.2504 54.7605 63.2525C55.0003 63.2229 55.2309 63.1423 55.4368 63.0162C55.7026 62.8721 55.9595 62.7121 56.206 62.5371C56.7125 62.1842 57.2037 61.7916 57.6851 61.3867C58.6457 60.5743 59.5776 59.7074 60.4718 58.8209L60.4748 58.818C60.5206 58.7729 60.5771 58.7399 60.639 58.722C61.7974 58.3396 62.868 57.7313 63.7884 56.9325C64.7447 56.1294 65.6354 55.2517 66.4522 54.3078C67.2821 53.3679 68.0636 52.3809 68.8037 51.3629C69.5432 50.3458 70.2501 49.2967 70.8975 48.2234L70.9239 48.4558C69.2789 46.6079 67.6277 44.7677 65.9955 42.9086C65.1853 41.9708 64.3701 41.0494 63.606 40.0564C62.912 39.0643 61.7689 38.506 60.6712 37.9744C59.5594 37.4559 58.4069 36.9467 57.3083 36.4039C56.169 35.9593 54.9907 35.6214 53.7886 35.3946C51.3798 34.8755 48.9274 34.5263 46.4895 34.1676L46.5575 34.1705C45.3939 34.2563 44.266 34.6092 43.262 35.2017C42.2452 35.8026 41.314 36.5369 40.4934 37.3849C39.6575 38.2395 38.8993 39.1662 38.2277 40.1543C37.5423 41.1419 36.9125 42.1667 36.3411 43.2238C35.1834 45.3435 34.1655 47.5361 33.2936 49.7876C32.4071 52.0348 31.6162 54.336 30.9448 56.652L30.9448 56.652Z" fill="black"/>
<path d="M60.7419 59.0846C60.4454 58.4116 60.1668 57.7332 59.8849 57.0564C59.602 56.3802 59.3357 55.6977 59.0423 55.0269C58.7699 54.3474 58.4775 53.6765 58.1738 53.0122C58.0268 52.6776 57.8667 52.3498 57.6934 52.0288C57.6127 51.8655 57.5218 51.7075 57.4214 51.5555C57.3737 51.478 57.3219 51.403 57.2663 51.331L57.08 51.1293C57.6187 51.6386 58.0516 52.2486 58.3541 52.9244C58.6982 53.5769 58.9904 54.2527 59.2828 54.9271C59.5573 55.6092 59.8281 56.2922 60.0715 56.9854C60.315 57.6784 60.5467 58.3756 60.7419 59.0846Z" fill="black"/>
<path d="M56.6106 72.037C56.5858 72.037 56.5616 72.0299 56.5407 72.0166C56.5198 72.0034 56.5031 71.9845 56.4925 71.9622L55.2019 69.2317C55.1945 69.2162 55.1902 69.1994 55.1894 69.1823C55.1885 69.1652 55.191 69.1481 55.1968 69.132C55.2026 69.1158 55.2115 69.101 55.2231 69.0883C55.2346 69.0756 55.2486 69.0653 55.2641 69.058C55.2797 69.0507 55.2965 69.0466 55.3137 69.0458C55.3309 69.045 55.348 69.0476 55.3642 69.0534C55.3803 69.0593 55.3952 69.0682 55.4078 69.0798C55.4205 69.0914 55.4308 69.1053 55.438 69.1209L56.7286 71.8514C56.738 71.8712 56.7421 71.8931 56.7407 71.915C56.7393 71.9368 56.7324 71.958 56.7206 71.9765C56.7089 71.995 56.6926 72.0102 56.6734 72.0208C56.6541 72.0314 56.6325 72.037 56.6106 72.037Z" fill="black"/>
<path d="M33.186 67.8822L34.7614 73.6615C33.9372 70.7628 33.3529 68.5243 33.186 67.8822Z" fill="black"/>
<path d="M88.8167 104.197C87.9359 105.742 88.343 108.918 88.1602 109.999C87.912 111.527 87.329 112.982 86.4527 114.26C86.2159 112.442 85.9375 110.629 85.6508 108.815C85.3642 107.005 85.0401 105.199 84.741 103.39C84.4045 101.588 84.0887 99.7788 83.7356 97.9816L83.1997 95.2816C83.0044 94.383 82.8257 93.4843 82.618 92.5899C82.7343 93.5009 82.8715 94.4078 83.0002 95.3189L83.4198 98.0355C83.7065 99.8492 84.0264 101.655 84.3297 103.46C84.6662 105.266 84.982 107.071 85.3351 108.873C85.6883 110.67 86.0455 112.471 86.4527 114.26C84.4834 117.138 81.168 118.956 77.4705 120.344C74.6999 121.377 71.8466 122.175 68.9411 122.729C66.814 104.102 70.1335 90.9996 70.1335 90.9996C70.1335 90.9996 69.7554 90.5317 68.4426 90.5317C67.1256 90.5317 63.4654 92.6851 63.4654 92.6851C49.5682 101.108 45.2475 96.4287 41.9612 92.8715C39.8049 90.5359 36.6683 80.3902 34.7738 73.7147C47.545 78.3942 54.6369 71.9051 55.9663 71.9051C56.386 71.9051 58.4425 71.6898 61.3091 71.4164C61.6468 71.7601 61.9096 72.1696 62.0811 72.6192C62.2527 73.0689 62.3294 73.5489 62.3062 74.0294C63.4945 75.7108 64.9361 72.9031 64.3088 71.9051C64.1682 71.6764 64.0592 71.4299 63.9847 71.1721C64.5539 71.1224 65.1438 71.0686 65.7463 71.0189C66.7475 72.3854 67.9067 74.4064 68.9411 75.4002C70.7567 77.1477 71.0724 74.34 71.0724 74.34C73.3242 75.9633 73.3242 73.0936 73.3242 73.0936C75.3267 74.278 74.637 71.4164 74.637 71.4164C74.7744 71.2973 74.8759 71.1424 74.9302 70.9691C74.9845 70.7958 74.9894 70.6109 74.9445 70.435C77.502 70.3083 80.0651 70.3442 82.618 70.5427C90.412 71.3295 97.8322 93.9937 97.8322 93.9937C98.1146 98.0189 92.0074 98.582 88.8167 104.197Z" fill="black"/>
<path d="M44.2336 110.548C44.5242 112.354 44.7033 114.17 44.8923 115.984C45.068 117.799 45.1516 119.622 45.265 121.442L45.6117 126.902L45.9324 132.365C45.9328 132.371 45.9305 132.378 45.926 132.383C45.9215 132.388 45.9152 132.392 45.9084 132.392C45.9016 132.393 45.8948 132.39 45.8896 132.386C45.8843 132.382 45.881 132.375 45.8804 132.369L45.3517 126.923L44.8489 121.474C44.6793 119.658 44.4798 117.845 44.3723 116.024C44.2782 114.202 44.1741 112.381 44.1816 110.552C44.1816 110.545 44.1841 110.539 44.1885 110.534C44.193 110.529 44.1992 110.526 44.2057 110.526C44.2123 110.525 44.2188 110.527 44.224 110.531C44.2292 110.535 44.2326 110.541 44.2336 110.548H44.2336Z" fill="black"/>
<path d="M49.9387 110.403C50.122 112.231 50.1936 114.06 50.2751 115.89C50.3432 117.719 50.3189 119.551 50.3246 121.381L50.3481 126.874L50.3455 132.366C50.3455 132.373 50.3428 132.38 50.338 132.385C50.3333 132.389 50.3267 132.392 50.3199 132.392C50.313 132.392 50.3064 132.39 50.3014 132.385C50.2965 132.38 50.2936 132.374 50.2934 132.367L50.0874 126.878L49.9074 121.389C49.8453 119.559 49.7532 117.73 49.7535 115.899C49.7671 114.068 49.7709 112.237 49.8865 110.404C49.887 110.398 49.8899 110.392 49.8946 110.387C49.8994 110.383 49.9056 110.38 49.9122 110.38C49.9187 110.38 49.9251 110.382 49.93 110.387C49.9349 110.391 49.938 110.397 49.9387 110.403Z" fill="black"/>
<path d="M48.0475 136.748C55.152 136.748 60.9113 134.422 60.9113 131.553C60.9113 128.684 55.152 126.359 48.0475 126.359C40.9431 126.359 35.1838 128.684 35.1838 131.553C35.1838 134.422 40.9431 136.748 48.0475 136.748Z" fill="black"/>
<path d="M54.7326 63.6706C54.4601 63.8636 54.1438 63.9863 53.8121 64.0276C53.6416 64.0513 53.4682 64.0449 53.2999 64.0086C53.2098 63.9961 53.1254 63.9574 53.0573 63.8972C52.9893 63.8371 52.9405 63.7582 52.9173 63.6706C52.9726 63.7204 53.0376 63.7582 53.1083 63.7818C53.1789 63.8054 53.2537 63.8142 53.328 63.8077C53.4789 63.804 53.6296 63.7913 53.779 63.7698C54.0949 63.7201 54.4132 63.687 54.7326 63.6706Z" fill="black"/>
<path d="M60.4597 59.3598C61.8329 60.247 63.202 61.141 64.5869 62.0005C64.9342 62.2129 65.2827 62.4248 65.6361 62.6202C65.8114 62.7227 65.9912 62.8093 66.1663 62.9016C66.2498 62.9361 66.3481 62.9872 66.4187 63.0092C66.4502 63.0165 66.4811 63.0257 66.5114 63.0368C66.5809 63.0497 66.6514 63.0659 66.7203 63.0852C67.1104 63.2489 67.4879 63.4412 67.8496 63.6605C68.2062 63.8682 68.5574 64.0828 68.9034 64.3043C70.2993 65.1773 71.6207 66.1636 72.8541 67.253C73.4871 67.7981 74.0455 68.4238 74.515 69.1139L74.6736 69.3953L74.801 69.6713C74.896 69.8607 74.9774 70.0566 75.0446 70.2575C75.1114 70.4752 75.1208 70.7064 75.072 70.9288C75.0166 71.1526 74.8917 71.3532 74.7151 71.502L74.7494 71.3914C74.802 71.6559 74.8351 71.924 74.8482 72.1933C74.8688 72.4694 74.8357 72.7467 74.7506 73.0102C74.7285 73.0806 74.6938 73.1465 74.6482 73.2047L74.5801 73.2953L74.4847 73.3642C74.422 73.41 74.3487 73.4393 74.2716 73.4493C74.1994 73.4669 74.1242 73.4691 74.0511 73.4559C73.911 73.4398 73.7739 73.4039 73.644 73.3494L73.2823 73.1622L73.4058 73.0922C73.3965 73.397 73.3491 73.6995 73.2647 73.9926C73.189 74.3016 73.01 74.5756 72.7572 74.7696C72.6181 74.853 72.4617 74.9035 72.3 74.9173C72.1383 74.9311 71.9755 74.9078 71.8243 74.8492C71.6794 74.7952 71.5377 74.733 71.4 74.6627L71.0131 74.4193L71.168 74.3508C71.1278 74.8414 70.9638 75.3138 70.6913 75.7242C70.6119 75.8348 70.5084 75.9261 70.3888 75.9914C70.2691 76.0568 70.1362 76.0944 69.9999 76.1016L69.794 76.0857C69.7297 76.07 69.6692 76.045 69.6066 76.0242C69.4863 75.9805 69.3722 75.9217 69.2668 75.8493C68.8712 75.5668 68.5167 75.2312 68.2133 74.8519C67.9074 74.4862 67.6211 74.1084 67.3482 73.7232C66.8012 72.9541 66.2883 72.1663 65.7426 71.4131C65.4802 71.0376 65.1934 70.6796 64.8841 70.3413C64.7433 70.1855 64.5808 70.0506 64.4015 69.941C64.3377 69.8994 64.264 69.8753 64.1879 69.8711C64.1342 69.8719 64.0829 69.8934 64.0447 69.931L64.1241 69.7838C64.0701 70.2826 64.1282 70.7872 64.294 71.261C64.3364 71.377 64.3868 71.49 64.4448 71.5991C64.4737 71.6532 64.5046 71.7063 64.5373 71.7578C64.5753 71.8311 64.6142 71.9158 64.6491 71.9958C64.7414 72.3013 64.7596 72.6242 64.7022 72.9381C64.605 73.5432 64.3106 74.0995 63.8646 74.5212C63.7325 74.6442 63.5723 74.7333 63.398 74.7807C63.2236 74.8282 63.0402 74.8326 62.8638 74.7935C62.5419 74.6846 62.2666 74.4702 62.0826 74.1853C62.0478 74.1438 62.0298 74.0907 62.0322 74.0366L62.0336 74.005C62.0601 73.3851 61.915 72.7698 61.6141 72.2266C61.5371 72.0935 61.4502 71.9664 61.3542 71.8463C61.2545 71.7206 61.1596 71.6315 61.028 71.487C60.782 71.2222 60.5779 70.9216 60.4229 70.5954C60.1371 69.9561 59.9673 69.2713 59.9214 68.5729C59.8683 67.8925 59.8741 67.2088 59.9389 66.5294L59.9506 66.6047C59.7425 66.2094 59.4329 65.8761 59.0535 65.6389C58.6628 65.3821 58.2347 65.1868 57.7843 65.0598C57.3303 64.922 56.8645 64.826 56.3929 64.7731C56.1554 64.755 55.9176 64.7305 55.6789 64.7176L54.9606 64.7001C54.9537 64.7003 54.9469 64.6978 54.9419 64.6931C54.9368 64.6884 54.9338 64.6819 54.9335 64.675C54.9337 64.6683 54.9363 64.6618 54.9408 64.6569C54.9454 64.6519 54.9516 64.6488 54.9584 64.6481L55.6806 64.6138C55.9217 64.6119 56.1632 64.6233 56.4054 64.6275C56.8913 64.6537 57.3737 64.7244 57.8467 64.8386C58.3281 64.9514 58.7888 65.1384 59.2123 65.3929C59.4275 65.5229 59.6276 65.6763 59.8089 65.8503C60.0034 66.0286 60.1635 66.2409 60.2813 66.4766C60.2901 66.4946 60.2943 66.5144 60.2937 66.5344L60.2931 66.5522C60.2602 67.2122 60.2763 67.8737 60.3411 68.5314C60.3993 69.1746 60.571 69.8025 60.8484 70.3861C60.9893 70.6641 61.172 70.9191 61.3902 71.1421C61.4859 71.2447 61.6393 71.3847 61.7508 71.5202C61.869 71.6591 61.975 71.8078 62.0676 71.9647C62.4316 72.5984 62.6092 73.3214 62.5801 74.051L62.5311 73.8708C62.6784 74.0438 62.8383 74.2309 63.0049 74.2553C63.0948 74.2714 63.1873 74.2655 63.2743 74.2379C63.3614 74.2103 63.4403 74.1619 63.5043 74.097C63.8494 73.7592 64.0774 73.3206 64.1554 72.8449C64.1963 72.623 64.1887 72.3949 64.1333 72.1761L64.0754 72.0436C64.0361 71.9796 63.9995 71.9146 63.9655 71.8484C63.8977 71.7165 63.8391 71.58 63.7903 71.44C63.6016 70.8817 63.5432 70.2878 63.6195 69.7036C63.6262 69.6495 63.6519 69.5995 63.6921 69.5625L63.6989 69.5562C63.8344 69.4327 64.012 69.3651 64.1956 69.3671C64.3555 69.3736 64.511 69.4215 64.6467 69.5061C64.8685 69.6427 65.0687 69.8113 65.241 70.0063C65.5609 70.3655 65.8567 70.7453 66.1264 71.1433C66.6627 71.9247 67.1538 72.7238 67.6755 73.4982C67.937 73.8845 68.199 74.2696 68.4831 74.6344C68.7525 75 69.0707 75.3271 69.4289 75.6069C69.5142 75.6716 69.6079 75.7245 69.7073 75.7644C69.7556 75.7818 69.8037 75.805 69.8521 75.8193L69.9975 75.8349C70.0959 75.8319 70.1923 75.8067 70.2796 75.7612C70.3668 75.7157 70.4425 75.6511 70.5011 75.5722C70.7589 75.203 70.921 74.776 70.973 74.3293C70.9772 74.3029 70.9918 74.2792 71.0136 74.2636C71.0353 74.2479 71.0624 74.2415 71.0889 74.2457C71.1028 74.2481 71.1161 74.2532 71.128 74.2608L71.4928 74.4975C71.6191 74.5634 71.7489 74.6225 71.8816 74.6744C72.0066 74.7263 72.1419 74.7489 72.2771 74.7405C72.4122 74.732 72.5436 74.6927 72.6611 74.6257C72.8834 74.4555 73.0414 74.2156 73.1096 73.9447C73.1955 73.6685 73.2402 73.3813 73.2423 73.0922C73.2425 73.0784 73.2462 73.0648 73.253 73.0527C73.2599 73.0407 73.2697 73.0306 73.2815 73.0233C73.2933 73.0161 73.3068 73.012 73.3207 73.0113C73.3345 73.0106 73.3484 73.0135 73.3608 73.0196L73.3658 73.0221L73.7093 73.1929C73.8232 73.2383 73.9429 73.2678 74.0649 73.2804C74.1765 73.2972 74.2903 73.272 74.3842 73.2098C74.4782 73.1475 74.5455 73.0526 74.5731 72.9435C74.6441 72.7037 74.6687 72.4526 74.6456 72.2036C74.6297 71.9475 74.5903 71.6934 74.5278 71.4445C74.523 71.4246 74.5236 71.4039 74.5297 71.3844C74.5357 71.3649 74.5469 71.3474 74.5621 71.3337C74.6944 71.2088 74.7857 71.0469 74.8241 70.8693C74.8626 70.6918 74.8463 70.5067 74.7774 70.3386C74.7068 70.1556 74.6234 69.9779 74.528 69.8065L74.3873 69.5327L74.2342 69.2874C73.7561 68.6469 73.1967 68.0709 72.5698 67.5739C71.3239 66.5338 70.0195 65.5652 68.6631 64.6729C68.0045 64.2191 67.3125 63.8153 66.5929 63.4651C66.5628 63.458 66.5335 63.4478 66.5054 63.4349C66.4476 63.4222 66.3675 63.4063 66.3008 63.3871C66.178 63.3454 66.0956 63.2967 65.9914 63.2514C65.8057 63.1521 65.6231 63.0493 65.4488 62.9398C65.0949 62.7257 64.7534 62.4992 64.4121 62.2718C63.0494 61.3605 61.7285 60.3965 60.4295 59.4022C60.4242 59.3981 60.4206 59.3921 60.4196 59.3854C60.4186 59.3788 60.4202 59.372 60.4241 59.3665C60.428 59.361 60.4339 59.3572 60.4406 59.356C60.4472 59.3547 60.4541 59.3561 60.4598 59.3598L60.4597 59.3598Z" fill="black"/>
<path d="M66.3131 68.6621C67.2222 69.5042 68.0842 70.3954 68.8954 71.3316C69.7133 72.2657 70.476 73.2464 71.1797 74.2688C71.1986 74.2973 71.2056 74.332 71.199 74.3655C71.1925 74.399 71.173 74.4286 71.1448 74.4479C71.1166 74.4672 71.0818 74.4747 71.0481 74.4687C71.0144 74.4628 70.9844 74.4438 70.9646 74.416L70.9614 74.4111C70.2983 73.3715 69.5751 72.3711 68.7954 71.4151C68.0191 70.4529 67.1904 69.5339 66.3131 68.6621Z" fill="black"/>
<path d="M68.9422 68.1006C70.519 69.6617 72.0159 71.3011 73.4271 73.0125C73.4485 73.0393 73.4585 73.0735 73.4548 73.1076C73.4511 73.1416 73.4341 73.1729 73.4074 73.1945C73.3808 73.2162 73.3466 73.2264 73.3124 73.2231C73.2781 73.2197 73.2466 73.203 73.2247 73.1766L73.2209 73.1718C71.881 71.4108 70.453 69.7183 68.9422 68.1006Z" fill="black"/>
<path d="M70.8201 67.695C71.4904 68.2801 72.1551 68.8716 72.8144 69.4696L73.7947 70.3775C74.1171 70.6871 74.4387 70.9915 74.7406 71.337C74.7633 71.363 74.7748 71.3969 74.7724 71.4313C74.77 71.4658 74.754 71.4978 74.7279 71.5205C74.7018 71.5431 74.6678 71.5545 74.6332 71.5522C74.5987 71.5498 74.5666 71.5338 74.5438 71.5078L74.54 71.5033L74.5365 71.4988C74.2694 71.161 73.9602 70.8365 73.6564 70.5154L72.7242 69.5634C72.0961 68.9346 71.4614 68.3117 70.8201 67.695Z" fill="black"/>
<path d="M63.079 57.916C63.4152 58.3325 63.789 58.7172 64.1959 59.0654C64.5959 59.427 65.0013 59.7828 65.4123 60.1328L67.8987 62.21C69.5599 63.5907 71.258 64.9305 72.9365 66.2883L72.9599 66.3093L72.9652 66.3147C73.6971 67.0765 74.5282 67.737 75.4361 68.2788C76.3445 68.8071 77.3307 69.1896 78.3584 69.4123C80.4268 69.862 82.583 69.6811 84.5468 68.893C85.5085 68.5013 86.4802 67.9415 87.4709 67.4944C88.455 67.0201 89.4634 66.5954 90.4758 66.1851C91.4947 65.7886 92.5261 65.425 93.5732 65.1085C94.6216 64.7755 95.6997 64.5438 96.7927 64.4166C96.8058 64.4154 96.8191 64.4168 96.8317 64.4208L96.8364 64.4223C97.7925 64.739 98.7917 64.9074 99.7991 64.9216C100.799 64.9419 101.789 64.7248 102.688 64.2883C103.133 64.0501 103.561 63.7812 103.968 63.4834C104.466 63.2433 105.025 63.1618 105.571 63.2498C106.091 63.3048 106.604 63.4063 107.105 63.5532C107.214 63.5904 107.327 63.6181 107.44 63.6359C107.538 63.6478 107.638 63.6415 107.734 63.6175C107.916 63.5661 108.076 63.4536 108.185 63.2988L108.289 63.2016C108.269 63.2112 108.251 63.2237 108.235 63.2387C108.196 63.2746 108.169 63.3228 108.16 63.3755C108.153 63.4147 108.156 63.455 108.167 63.4931C108.179 63.5312 108.2 63.566 108.227 63.5947L108.19 63.29C108.255 63.162 108.281 63.0178 108.264 62.8754C108.255 62.7957 108.24 62.7169 108.218 62.6399C108.196 62.5642 108.168 62.4906 108.134 62.4198C108.118 62.3875 108.108 62.3523 108.106 62.3162C108.103 62.2802 108.108 62.244 108.12 62.2099L108.126 62.1931C108.197 61.8693 108.176 61.5322 108.064 61.22C107.961 60.8657 107.825 60.5216 107.66 60.1916C107.641 60.1537 107.63 60.1124 107.628 60.0702C107.626 60.028 107.632 59.9858 107.646 59.946L107.653 59.9263C107.703 59.7967 107.725 59.6583 107.72 59.5196C107.705 59.3709 107.666 59.2255 107.605 59.089C107.537 58.9412 107.453 58.8014 107.354 58.6723C107.256 58.5414 107.146 58.4197 107.026 58.3087C106.974 58.2621 106.937 58.2006 106.921 58.1326C106.905 58.0646 106.911 57.9933 106.937 57.9285L106.945 57.9087C107.052 57.6537 107.057 57.3677 106.961 57.1087C106.827 56.8597 106.603 56.6709 106.335 56.5809C105.682 56.3769 104.991 56.3325 104.318 56.4516C102.87 56.6527 101.444 56.9868 100.058 57.4499L100.054 57.4509C100.008 57.4656 99.9593 57.4721 99.9106 57.4702C98.6176 57.4162 97.3098 57.9861 95.9605 58.4061C95.2786 58.6177 94.6346 58.8555 93.8836 59.013C93.1633 59.1629 92.4563 59.2389 91.7459 59.3207C88.9098 59.584 86.0845 59.675 83.2563 59.7083L82.196 59.7184L81.6659 59.7214L81.4009 59.7225C81.3085 59.7229 81.201 59.7196 81.102 59.7106C80.4931 59.6538 79.9212 59.394 79.4788 58.9731C79.3301 58.8265 79.2289 58.7123 79.1016 58.5802L76.2102 55.4974C74.2842 53.4407 72.3723 51.3704 70.4747 49.2863C70.4674 49.2783 70.4635 49.2679 70.4638 49.2571C70.4642 49.2463 70.4687 49.2361 70.4765 49.2286C70.4842 49.2211 70.4946 49.217 70.5054 49.217C70.5162 49.217 70.5266 49.2212 70.5344 49.2287C72.5645 51.185 74.5782 53.1572 76.5753 55.1454L79.5722 58.1264C79.6921 58.2452 79.8302 58.3897 79.9352 58.4874C80.2731 58.7936 80.7046 58.9774 81.1601 59.0093C81.3005 59.0199 81.4734 59.0087 81.654 59.005L82.1821 58.9893L83.2379 58.9537C86.0508 58.8377 88.8712 58.7279 91.6532 58.4381C92.344 58.36 93.0423 58.2848 93.7042 58.1473C94.3362 58.0196 95.0231 57.7752 95.6873 57.5687C96.3575 57.3546 97.0254 57.1314 97.7253 56.9376C98.4442 56.7197 99.1941 56.6203 99.9452 56.6434L99.7984 56.6637C100.528 56.4372 101.25 56.2444 101.988 56.0758C102.729 55.9017 103.48 55.7724 104.236 55.6886C104.625 55.647 105.016 55.6328 105.407 55.646C105.825 55.6598 106.236 55.7487 106.622 55.9084C107.06 56.0783 107.414 56.4101 107.612 56.8344C107.701 57.0559 107.739 57.2947 107.723 57.5328C107.71 57.7638 107.654 57.9904 107.559 58.2014L107.478 57.8016C107.631 57.9473 107.77 58.1075 107.893 58.28C108.018 58.4519 108.123 58.6373 108.206 58.8328C108.293 59.041 108.345 59.2622 108.359 59.4874C108.366 59.724 108.321 59.9592 108.228 60.177L108.221 59.9119C108.397 60.2845 108.535 60.6735 108.634 61.0732C108.687 61.2797 108.72 61.4909 108.732 61.7038C108.751 61.9413 108.717 62.1802 108.631 62.4027L108.623 62.1762C108.717 62.3858 108.773 62.6106 108.788 62.84C108.805 63.0866 108.748 63.3328 108.624 63.5468L108.587 63.2422C108.616 63.2715 108.637 63.3071 108.649 63.346C108.661 63.385 108.663 63.4262 108.656 63.4664C108.647 63.5209 108.619 63.5706 108.578 63.6077C108.559 63.6252 108.538 63.6397 108.515 63.6509L108.619 63.5537C108.534 63.6946 108.414 63.8118 108.271 63.8945C108.139 63.9776 107.995 64.0402 107.843 64.08C107.69 64.1129 107.533 64.1174 107.378 64.0933C107.241 64.0679 107.106 64.0309 106.975 63.9827C106.504 63.8283 106.019 63.7165 105.527 63.6486C105.065 63.5568 104.585 63.605 104.15 63.7871C103.726 64.0757 103.283 64.3357 102.824 64.5653C101.879 65.0115 100.841 65.2274 99.7962 65.1952C98.7641 65.1626 97.7418 64.9844 96.7598 64.6659L96.8033 64.6717C95.7338 64.8016 94.6811 65.0446 93.6631 65.3964C92.6327 65.7272 91.6264 66.1306 90.6339 66.5621C89.6467 67.007 88.6664 67.4665 87.7089 67.9726C86.7341 68.4564 85.838 69.026 84.8023 69.4971C82.7259 70.4095 80.4105 70.6333 78.1969 70.1356C77.0968 69.8862 76.043 69.4659 75.0741 68.89C74.1185 68.306 73.2498 67.5913 72.4935 66.7668L72.5221 66.7931C70.8558 65.4089 69.2301 63.9809 67.6085 62.5461C66.7963 61.8306 65.9993 61.0974 65.2177 60.3465C64.825 59.9735 64.4385 59.5937 64.058 59.2069C63.8718 59.0085 63.6799 58.818 63.5038 58.6093L63.2395 58.2977C63.1569 58.1875 63.083 58.0682 63.0057 57.9551C62.9997 57.9461 62.9975 57.9351 62.9995 57.9245C63.0016 57.9139 63.0077 57.9046 63.0166 57.8984C63.0255 57.8923 63.0365 57.8899 63.0471 57.8917C63.0578 57.8936 63.0673 57.8995 63.0736 57.9083L63.079 57.916Z" fill="black"/>
<path d="M101.931 58.1175C102.802 57.8398 103.698 57.6466 104.607 57.5403C105.065 57.4846 105.528 57.4761 105.988 57.5151C106.467 57.5378 106.932 57.689 107.332 57.9527C107.36 57.9731 107.379 58.0037 107.384 58.0378C107.389 58.0719 107.381 58.1066 107.36 58.1345C107.34 58.1623 107.309 58.1809 107.275 58.1862C107.241 58.1914 107.206 58.1829 107.178 58.1626L107.171 58.1575C106.816 57.9034 106.4 57.7485 105.965 57.7087C105.518 57.6497 105.067 57.6366 104.617 57.6698C103.71 57.7327 102.81 57.8826 101.931 58.1175Z" fill="black"/>
<path d="M103.12 59.6437C103.937 59.4669 104.768 59.3615 105.603 59.3287C106.026 59.3146 106.448 59.3404 106.866 59.4056C107.312 59.4541 107.727 59.6537 108.043 59.9712C108.066 59.997 108.077 60.0309 108.075 60.0653C108.073 60.0998 108.058 60.132 108.032 60.1549C108.019 60.1662 108.004 60.1749 107.988 60.1805C107.971 60.186 107.954 60.1884 107.937 60.1874C107.903 60.1853 107.87 60.1696 107.847 60.1438L107.842 60.138L107.838 60.1323C107.571 59.8454 107.214 59.6567 106.826 59.5966C106.424 59.5124 106.014 59.4663 105.604 59.4587C104.772 59.4483 103.941 59.5102 103.12 59.6437Z" fill="black"/>
<path d="M103.559 61.2996C104.406 61.1467 105.27 61.1047 106.128 61.1748C106.563 61.2064 106.992 61.2999 107.401 61.4526C107.828 61.6032 108.204 61.8704 108.486 62.2239C108.496 62.2375 108.504 62.2531 108.508 62.2697C108.512 62.2863 108.513 62.3036 108.511 62.3206C108.509 62.3375 108.503 62.3539 108.494 62.3686C108.485 62.3834 108.474 62.3963 108.46 62.4066C108.446 62.4168 108.431 62.4243 108.414 62.4285C108.397 62.4328 108.38 62.4337 108.363 62.4312C108.346 62.4287 108.33 62.4229 108.315 62.4141C108.3 62.4053 108.287 62.3937 108.277 62.3799L108.273 62.3749L108.271 62.3719C108.031 62.0425 107.704 61.7865 107.326 61.6327C106.939 61.4659 106.53 61.3552 106.112 61.3039C105.265 61.1918 104.406 61.1903 103.559 61.2996Z" fill="black"/>
<path d="M90.08 19.6685V44.751L125.009 47.8395V19.6685H90.08ZM121.16 44.0959L93.6481 41.8496V23.0378L121.16 22.757V44.0959Z" fill="black"/>
<path d="M95.723 25.0663C95.7595 25.8339 95.7917 26.5707 95.8084 27.2955C95.827 28.0213 95.8386 28.7351 95.8109 29.4558L95.7138 29.359C96.3345 29.3798 96.9553 29.4106 97.576 29.4134C98.1968 29.4196 98.8175 29.4053 99.4383 29.3847L99.3669 29.4558C99.3398 28.7227 99.3202 27.9896 99.3134 27.2565C99.2992 26.5233 99.2983 25.7902 99.3055 25.0571L99.4383 25.1894C98.8342 25.1921 98.2273 25.1621 97.6135 25.1473L95.723 25.0663ZM95.7045 25.0479L97.5385 24.9668C98.1661 24.952 98.8008 24.9221 99.4383 24.9247C99.4734 24.9251 99.507 24.9391 99.5318 24.9639C99.5566 24.9886 99.5707 25.0221 99.571 25.0571C99.5783 25.7902 99.5774 26.5233 99.5632 27.2564C99.5564 27.9895 99.5368 28.7227 99.5097 29.4558L99.5095 29.4608C99.5092 29.4698 99.5071 29.4786 99.5034 29.4869C99.4996 29.4951 99.4943 29.5025 99.4877 29.5086C99.4811 29.5148 99.4733 29.5196 99.4648 29.5227C99.4563 29.5259 99.4473 29.5273 99.4383 29.527C98.8175 29.5064 98.1968 29.4921 97.576 29.4983C96.9553 29.5011 96.3345 29.5319 95.7138 29.5527C95.7015 29.5531 95.6892 29.5511 95.6777 29.5467C95.6661 29.5424 95.6555 29.5359 95.6465 29.5275C95.6375 29.5191 95.6303 29.509 95.6252 29.4978C95.6201 29.4866 95.6173 29.4746 95.6169 29.4623L95.6166 29.4558C95.5889 28.7102 95.6004 27.9577 95.6191 27.2173C95.6358 26.4759 95.668 25.7465 95.7045 25.0479H95.7045Z" fill="black"/>
<path d="M113.587 24.6783C113.651 26.1719 113.695 27.6262 113.733 29.069C113.778 30.5154 113.798 31.9364 113.814 33.3565C113.831 34.7756 113.808 36.1789 113.762 37.5897C113.723 39.0007 113.664 40.4226 113.66 41.8509L113.566 41.7567C114.414 41.7685 115.262 41.7465 116.11 41.743C116.959 41.7368 117.807 41.7045 118.655 41.6864L118.49 41.8509C118.443 40.418 118.409 38.9852 118.387 37.5524L118.338 33.254C118.327 31.8212 118.331 30.3883 118.35 28.9555L118.429 24.6571L118.655 24.8823L116.166 24.7902L113.587 24.6783ZM113.544 24.6358L116.055 24.524L118.655 24.4318C118.684 24.4308 118.712 24.4354 118.739 24.4454C118.766 24.4554 118.79 24.4706 118.811 24.49C118.832 24.5095 118.849 24.5329 118.861 24.5588C118.873 24.5848 118.88 24.6128 118.881 24.6414L118.881 24.6439L118.881 24.6571L118.961 28.9556C118.978 30.3884 118.981 31.8212 118.972 33.254L118.923 37.5525C118.9 38.9853 118.865 40.4181 118.82 41.8509L118.82 41.8598C118.818 41.9021 118.8 41.9422 118.769 41.9713C118.739 42.0004 118.698 42.0163 118.655 42.0154C117.807 41.9974 116.959 41.965 116.11 41.9589C115.262 41.9554 114.414 41.9334 113.566 41.9451C113.554 41.9453 113.541 41.943 113.53 41.9385C113.519 41.934 113.508 41.9273 113.499 41.9188C113.491 41.9103 113.484 41.9002 113.479 41.8889C113.474 41.8777 113.471 41.8657 113.471 41.8535L113.471 41.8509C113.467 40.4135 113.409 38.9698 113.37 37.5152C113.323 36.0603 113.301 34.5979 113.317 33.1514C113.334 31.7059 113.354 30.2613 113.398 28.842C113.437 27.4192 113.48 26.0078 113.544 24.6358Z" fill="black"/>
<path d="M109.886 48.9568V46.5023L106.037 46.1619V48.5717C103.699 48.6346 101.957 49.2738 101.865 50.2168C101.75 51.4001 104.275 52.6126 107.505 52.9251C110.735 53.2375 113.447 52.5314 113.562 51.3481C113.652 50.419 112.115 49.472 109.886 48.9568Z" fill="black"/>
<path d="M73.8693 52.7173C75.7798 51.5036 77.7125 50.3267 79.6516 49.1606C79.6743 49.1473 79.7009 49.1422 79.7269 49.1462C81.5211 49.4211 83.3088 49.7362 85.0957 50.0559C86.8818 50.38 88.6742 50.6664 90.4693 50.9352L95.8544 51.7449C97.6473 52.0274 99.4426 52.2959 101.233 52.5954C101.268 52.6012 101.3 52.6207 101.321 52.6498C101.342 52.6788 101.35 52.715 101.344 52.7503C101.339 52.7845 101.32 52.8153 101.292 52.8363C99.9629 53.8311 98.6243 54.8135 97.2763 55.7833L95.2615 57.2473L93.2337 58.6944C93.2309 58.6964 93.2275 58.6972 93.2241 58.6967C93.2208 58.6961 93.2178 58.6943 93.2157 58.6916C93.2137 58.6889 93.2128 58.6855 93.2132 58.6821C93.2137 58.6787 93.2154 58.6757 93.2181 58.6736L95.183 57.1429L97.1607 55.6292C98.477 54.6172 99.8002 53.6143 101.13 52.6205L101.19 52.8614C99.396 52.5822 97.6075 52.272 95.8168 51.9759L90.4508 51.0495C88.6623 50.7396 86.8709 50.4473 85.0734 50.1928C83.2766 49.9338 81.4806 49.6702 79.6911 49.3664L79.7663 49.3521C77.8167 50.5007 75.8607 51.6386 73.8826 52.7396C73.8797 52.7412 73.8762 52.7416 73.8729 52.7408C73.8696 52.7399 73.8668 52.7378 73.8651 52.7349C73.8634 52.732 73.8628 52.7285 73.8636 52.7252C73.8644 52.7219 73.8664 52.7191 73.8693 52.7173V52.7173Z" fill="black"/>
<path d="M76.1851 55.107C77.2838 55.3872 78.3741 55.6946 79.4632 56.0062L82.7209 56.9717L85.9609 57.9946C87.0376 58.3461 88.1132 58.7015 89.1802 59.0846C88.0813 58.8048 86.991 58.4972 85.902 58.1858L82.6444 57.2199L79.4045 56.1965C78.3278 55.8452 77.2522 55.4897 76.1851 55.107Z" fill="black"/>
<path d="M113.155 50.4418C113.814 50.3526 114.48 50.3333 115.143 50.3842C115.824 50.4168 116.492 50.5878 117.105 50.8867C117.425 51.0526 117.701 51.2922 117.91 51.5856C118.118 51.8919 118.233 52.2514 118.242 52.6212C118.248 52.9762 118.195 53.3298 118.084 53.6671C117.985 54.0143 117.817 54.3377 117.588 54.6174C117.36 54.8972 117.079 55.1306 116.763 55.3051C116.465 55.4764 116.153 55.6211 115.83 55.7377C115.187 55.9764 114.508 56.108 113.823 56.1271C113.146 56.1411 112.471 56.0535 111.82 55.8673C111.196 55.6754 110.531 55.6553 109.897 55.8089C110.193 55.6483 110.524 55.5599 110.862 55.5511C111.198 55.5292 111.536 55.5409 111.871 55.5861C112.506 55.7002 113.154 55.733 113.798 55.6834C114.432 55.632 115.055 55.4901 115.649 55.262C115.944 55.1481 116.23 55.0124 116.505 54.8562C116.771 54.7166 117.006 54.5271 117.199 54.298C117.391 54.069 117.539 53.8057 117.634 53.5219C117.738 53.2364 117.793 52.9355 117.798 52.6318C117.803 52.3402 117.726 52.0529 117.575 51.8033C117.411 51.5513 117.19 51.341 116.929 51.1894C116.369 50.8778 115.754 50.6729 115.118 50.5852C114.469 50.482 113.812 50.434 113.155 50.4418Z" fill="black"/>
<path d="M110.468 57.5715C110.468 57.5715 110.356 61.2242 108.407 63.4184C108.485 63.241 108.523 63.0486 108.518 62.8549C108.513 62.6613 108.466 62.4711 108.379 62.2979C108.692 61.5492 107.94 60.0517 107.94 60.0517C108.379 59.0534 107.252 58.0551 107.252 58.0551C107.252 58.0551 107.94 56.62 106.125 56.1208C106.125 56.1208 111.086 53.8123 110.468 57.5715Z" fill="black"/>
<path d="M121.117 84.8939C121.1 84.894 121.082 84.8913 121.065 84.8858L87.4915 73.8201C87.4707 73.8132 87.4516 73.8024 87.435 73.7882C87.4185 73.774 87.4049 73.7567 87.3951 73.7372C87.3853 73.7178 87.3794 73.6966 87.3778 73.6749C87.3762 73.6532 87.3789 73.6314 87.3858 73.6108C87.3926 73.5901 87.4035 73.571 87.4178 73.5545C87.432 73.5381 87.4494 73.5245 87.4689 73.5148C87.4884 73.505 87.5096 73.4991 87.5314 73.4975C87.5531 73.4959 87.575 73.4986 87.5958 73.5054L121.099 84.5481L164.237 59.9554V57.9828L84.2323 43.4392L71.1303 48.476C71.0893 48.4917 71.0436 48.4904 71.0035 48.4726C70.9633 48.4548 70.9319 48.4219 70.916 48.381C70.9002 48.3401 70.9013 48.2946 70.919 48.2545C70.9367 48.2144 70.9697 48.183 71.0106 48.1671L84.1562 43.1132C84.1849 43.1029 84.2157 43.1 84.2459 43.1047L164.433 57.6815C164.471 57.6885 164.506 57.7086 164.531 57.7384C164.556 57.7682 164.569 57.8057 164.569 57.8445V60.0517C164.569 60.0809 164.562 60.1095 164.547 60.1347C164.532 60.16 164.511 60.1808 164.486 60.1953L121.2 84.872C121.175 84.8864 121.146 84.8939 121.117 84.8939Z" fill="black"/>
<path d="M121.023 82.7995C121.01 82.7995 120.997 82.7974 120.984 82.7934L85.3034 71.5416C85.2871 71.5365 85.272 71.5282 85.2589 71.5172C85.2458 71.5062 85.235 71.4928 85.2271 71.4777C85.2112 71.4471 85.2081 71.4115 85.2186 71.3787C85.229 71.3458 85.2521 71.3185 85.2828 71.3027C85.3134 71.2868 85.3492 71.2837 85.3821 71.2941L121.008 82.5285L164.338 57.7317C164.353 57.7232 164.37 57.7177 164.387 57.7155C164.404 57.7133 164.421 57.7145 164.437 57.7189C164.454 57.7234 164.469 57.7311 164.483 57.7415C164.497 57.752 164.508 57.765 164.516 57.7798C164.525 57.7946 164.531 57.8109 164.533 57.8279C164.535 57.8448 164.534 57.862 164.529 57.8785C164.525 57.895 164.517 57.9104 164.507 57.924C164.496 57.9375 164.483 57.9488 164.468 57.9573L121.088 82.7825C121.068 82.7937 121.046 82.7995 121.023 82.7995Z" fill="black"/>
<path d="M121.117 84.8583C121.084 84.8583 121.051 84.8454 121.027 84.8224C121.003 84.7993 120.989 84.7679 120.987 84.7345L120.893 82.6757C120.892 82.6586 120.895 82.6416 120.901 82.6255C120.906 82.6094 120.915 82.5947 120.927 82.582C120.939 82.5694 120.952 82.5592 120.968 82.5519C120.984 82.5447 121 82.5406 121.017 82.5398C121.052 82.5394 121.085 82.552 121.11 82.575C121.135 82.5979 121.151 82.6296 121.154 82.6636L121.247 84.7224C121.248 84.7394 121.246 84.7565 121.24 84.7726C121.234 84.7886 121.225 84.8034 121.214 84.816C121.202 84.8287 121.188 84.8389 121.173 84.8461C121.157 84.8534 121.14 84.8575 121.123 84.8583H121.117Z" fill="black"/>
<path d="M121.129 84.1235L121.39 100.022L121.586 115.92C121.656 121.219 121.801 126.518 121.716 131.818C121.669 134.467 121.622 137.117 121.519 139.767L121.361 143.741C121.283 145.066 121.229 146.391 121.129 147.716C121.128 147.732 121.121 147.747 121.108 147.759C121.096 147.77 121.08 147.776 121.064 147.776C121.047 147.776 121.032 147.77 121.019 147.759C121.007 147.747 121 147.732 120.999 147.716C120.899 146.391 120.845 145.066 120.766 143.741L120.609 139.767C120.506 137.117 120.459 134.467 120.412 131.818C120.326 126.518 120.472 121.219 120.542 115.92L120.738 100.022L120.999 84.1235C120.999 84.1065 121.006 84.0902 121.018 84.0782C121.03 84.0663 121.047 84.0596 121.064 84.0596C121.081 84.0596 121.098 84.0663 121.11 84.0782C121.122 84.0902 121.129 84.1065 121.129 84.1235Z" fill="black"/>
<path d="M161.088 62.2979L161.349 78.196L161.545 94.094C161.615 99.3934 161.761 104.693 161.675 109.992C161.628 112.642 161.581 115.291 161.478 117.941L161.321 121.916C161.242 123.24 161.188 124.565 161.088 125.89C161.087 125.906 161.08 125.922 161.068 125.933C161.055 125.944 161.04 125.95 161.023 125.95C161.007 125.95 160.991 125.944 160.979 125.933C160.967 125.922 160.959 125.906 160.958 125.89C160.858 124.565 160.804 123.24 160.726 121.916L160.569 117.941C160.465 115.291 160.418 112.642 160.371 109.992C160.286 104.693 160.431 99.3934 160.501 94.094L160.697 78.196L160.958 62.2979C160.958 62.2808 160.965 62.2645 160.977 62.2525C160.989 62.2405 161.006 62.2338 161.023 62.2338C161.04 62.2338 161.057 62.2405 161.069 62.2525C161.081 62.2645 161.088 62.2808 161.088 62.2979H161.088Z" fill="black"/>
<path d="M94.6385 105.974C94.6385 105.974 97.6215 106.222 107.869 113.235C109.545 114.404 111.597 114.913 113.627 114.664C114.169 114.604 114.699 114.468 115.202 114.261C115.202 114.261 122.995 116.269 116.047 117.579C116.047 117.579 106.094 117.86 98.676 112.432L98.7699 115.427H95.014C95.014 115.427 93.3239 107.659 94.6385 105.974Z" fill="black"/>
<path d="M97.8265 94.5652C98.4028 95.5324 98.9494 96.5151 99.5117 97.4896L101.149 100.439C101.701 101.419 102.219 102.418 102.754 103.404C103.284 104.377 103.916 105.29 104.641 106.129C104.998 106.552 105.376 106.956 105.775 107.341C106.172 107.722 106.602 108.084 107.027 108.452C107.876 109.188 108.746 109.898 109.608 110.618C110.474 111.332 111.356 112.028 112.268 112.68C112.72 113.011 113.183 113.328 113.663 113.616L114.027 113.826L114.403 114.011C114.655 114.134 114.924 114.218 115.202 114.261C114.636 114.201 114.088 114.023 113.596 113.737C113.091 113.479 112.602 113.193 112.124 112.89C111.174 112.276 110.26 111.611 109.359 110.932C108.453 110.257 107.587 109.533 106.719 108.813C106.289 108.45 105.852 108.093 105.432 107.701C104.171 106.532 103.123 105.153 102.336 103.626C101.819 102.625 101.292 101.634 100.795 100.625L99.2866 97.6075C98.8005 96.5931 98.2987 95.5868 97.8265 94.5652Z" fill="black"/>
<path d="M90.9333 101.44C91.6868 102.071 92.3751 102.775 92.988 103.543C93.6189 104.296 94.1719 105.11 94.6384 105.974C93.8842 105.344 93.1958 104.639 92.5838 103.871C91.9538 103.117 91.4009 102.303 90.9333 101.44Z" fill="black"/>
<path d="M73.22 128.749C73.22 128.749 76.2095 128.599 87.3023 134.189C89.1201 135.126 91.2212 135.358 93.2007 134.842C93.729 134.711 94.2361 134.506 94.7071 134.234C94.7071 134.234 102.699 135.189 95.9879 137.41C95.9879 137.41 86.161 139.009 78.0842 134.614L78.5773 137.569L74.8548 138.068C74.8548 138.068 72.1422 130.593 73.22 128.749Z" fill="black"/>
<path d="M79.5136 119.509C79.7599 120.424 79.9736 121.346 80.2046 122.264L80.524 123.647C80.6126 124.099 80.7539 124.539 80.945 124.958C81.1375 125.369 81.383 125.753 81.6752 126.101C81.9755 126.449 82.3033 126.789 82.6384 127.111C83.3085 127.759 84.0345 128.348 84.8082 128.87C86.3798 129.908 87.9823 130.924 89.5974 131.902C90.4064 132.39 91.2259 132.861 92.0668 133.287C92.4821 133.51 92.9087 133.712 93.345 133.891C93.7736 134.089 94.2356 134.205 94.7071 134.234C94.2278 134.261 93.748 134.189 93.2987 134.02C92.8432 133.876 92.3955 133.708 91.9574 133.518C91.0845 133.133 90.2369 132.698 89.398 132.249C87.7209 131.344 86.1127 130.341 84.5149 129.299C83.7193 128.755 82.9755 128.14 82.2928 127.46C81.9537 127.117 81.6315 126.767 81.3229 126.39C81.0127 126.004 80.7618 125.575 80.5785 125.117C80.3991 124.664 80.2729 124.193 80.2025 123.712L79.9555 122.314C79.8088 121.379 79.6448 120.447 79.5136 119.509Z" fill="black"/>
<path d="M72.9668 121.794C73.1932 122.937 73.3227 124.098 73.3538 125.262C73.4085 126.426 73.3638 127.593 73.22 128.749C72.9925 127.606 72.863 126.446 72.8329 125.281C72.7794 124.117 72.8242 122.951 72.9668 121.794Z" fill="black"/>
<path d="M64.3286 29.2454C63.7969 29.2973 63.2608 29.2061 62.7764 28.9814C62.5237 28.8701 62.3021 28.6988 62.1311 28.4825C61.9609 28.2652 61.8835 27.9897 61.9156 27.7159C61.9874 27.9508 62.1126 28.1661 62.2814 28.3449C62.4503 28.5238 62.6582 28.6614 62.8891 28.7471C63.3553 28.9502 63.8366 29.1168 64.3286 29.2454Z" fill="black"/>
<path d="M114.766 26.769C114.928 26.7634 115.081 26.6955 115.193 26.5797C115.306 26.4638 115.368 26.309 115.368 26.1478C115.368 25.9867 115.306 25.8319 115.193 25.716C115.081 25.6001 114.928 25.5323 114.766 25.5267C114.605 25.5323 114.452 25.6001 114.339 25.716C114.227 25.8319 114.164 25.9867 114.164 26.1478C114.164 26.309 114.227 26.4638 114.339 26.5797C114.452 26.6955 114.605 26.7634 114.766 26.769Z" fill="black"/>
<path d="M114.866 30.1978C115.028 30.1923 115.181 30.1244 115.293 30.0085C115.405 29.8926 115.468 29.7378 115.468 29.5767C115.468 29.4156 115.405 29.2607 115.293 29.1449C115.181 29.029 115.028 28.9611 114.866 28.9555C114.705 28.9611 114.551 29.029 114.439 29.1449C114.327 29.2607 114.264 29.4156 114.264 29.5767C114.264 29.7378 114.327 29.8926 114.439 30.0085C114.551 30.1244 114.705 30.1923 114.866 30.1978Z" fill="black"/>
<path d="M114.916 33.8751C115.077 33.8696 115.231 33.8017 115.343 33.6858C115.455 33.5699 115.518 33.4151 115.518 33.254C115.518 33.0929 115.455 32.938 115.343 32.8222C115.231 32.7063 115.077 32.6384 114.916 32.6328C114.754 32.6384 114.601 32.7063 114.489 32.8222C114.377 32.938 114.314 33.0929 114.314 33.254C114.314 33.4151 114.377 33.5699 114.489 33.6858C114.601 33.8017 114.754 33.8696 114.916 33.8751Z" fill="black"/>
<path d="M114.916 37.95C115.077 37.9444 115.231 37.8765 115.343 37.7606C115.455 37.6447 115.518 37.4899 115.518 37.3288C115.518 37.1677 115.455 37.0129 115.343 36.897C115.231 36.7811 115.077 36.7132 114.916 36.7076C114.754 36.7132 114.601 36.7811 114.489 36.897C114.377 37.0129 114.314 37.1677 114.314 37.3288C114.314 37.4899 114.377 37.6447 114.489 37.7606C114.601 37.8765 114.754 37.9444 114.916 37.95Z" fill="black"/>
<path d="M115.016 41.2298C115.177 41.2242 115.33 41.1563 115.443 41.0404C115.555 40.9245 115.618 40.7697 115.618 40.6086C115.618 40.4475 115.555 40.2927 115.443 40.1768C115.33 40.0609 115.177 39.993 115.016 39.9874C114.854 39.993 114.701 40.0609 114.589 40.1768C114.476 40.2927 114.414 40.4475 114.414 40.6086C114.414 40.7697 114.476 40.9245 114.589 41.0404C114.701 41.1563 114.854 41.2242 115.016 41.2298Z" fill="black"/>
<path d="M97.5605 27.5101C97.6508 27.5096 97.7391 27.4837 97.8154 27.4355C97.8916 27.3873 97.9527 27.3186 97.9916 27.2374C98.0551 27.0958 98.0984 26.9459 98.1201 26.7922C98.1398 26.7101 98.1422 26.6247 98.1272 26.5416C98.1121 26.4585 98.08 26.3794 98.0327 26.3092C97.9751 26.2438 97.9008 26.1951 97.8176 26.1684C97.7345 26.1416 97.6456 26.1378 97.5605 26.1572C97.4086 26.1878 97.2716 26.2687 97.1717 26.3867C97.0879 26.5056 97.0433 26.6475 97.0441 26.7927C97.0405 26.9445 97.071 27.0953 97.1333 27.2338C97.1712 27.3153 97.2314 27.3844 97.307 27.4333C97.3826 27.4821 97.4704 27.5087 97.5605 27.5101ZM97.5605 27.5469C97.3484 27.5599 97.1374 27.5083 96.9555 27.3989C96.86 27.3292 96.7825 27.2379 96.7294 27.1325C96.6764 27.027 96.6493 26.9105 96.6504 26.7925C96.6486 26.6731 96.6713 26.5545 96.7172 26.4442C96.7632 26.3338 96.8313 26.234 96.9174 26.1509C97.0015 26.0701 97.1037 26.0103 97.2154 25.9763C97.3272 25.9424 97.4455 25.9353 97.5605 25.9557C97.7704 25.9881 97.9655 26.083 98.1204 26.2279C98.2865 26.3739 98.3953 26.5739 98.4274 26.7924C98.4406 26.9073 98.4229 27.0236 98.3762 27.1295C98.3294 27.2353 98.2552 27.3269 98.1613 27.3947C97.9809 27.5046 97.7715 27.5576 97.5605 27.5469Z" fill="black"/>
<path d="M98.7548 29.4687C98.3692 29.5332 97.9804 29.5764 97.5901 29.5981C97.3808 29.6073 97.1695 29.6181 96.9555 29.6126C96.7416 29.6077 96.5276 29.5797 96.3201 29.5604L96.2989 29.5584C96.2867 29.5572 96.2749 29.5537 96.2641 29.548C96.2533 29.5424 96.2438 29.5346 96.236 29.5252C96.2282 29.5159 96.2223 29.5051 96.2187 29.4935C96.2151 29.4818 96.2139 29.4696 96.215 29.4575L96.2152 29.4558C96.2448 29.2316 96.2613 29.0059 96.2644 28.7798C96.2499 28.5437 96.2835 28.3072 96.3633 28.0844C96.4573 27.8445 96.6209 27.6379 96.8333 27.491C97.0456 27.3442 97.2971 27.2637 97.5555 27.26C97.8139 27.2562 98.0676 27.3293 98.2842 27.4699C98.5007 27.6105 98.6703 27.8123 98.7713 28.0494C98.8689 28.2846 98.8975 28.5426 98.854 28.7934C98.8288 29.041 98.7871 29.2715 98.7548 29.4687ZM98.729 29.443L98.6298 28.7662C98.6191 28.5664 98.5642 28.3714 98.469 28.1953C98.3717 28.0303 98.2353 27.8916 98.0718 27.7913C97.9082 27.691 97.7226 27.6321 97.531 27.6197C97.33 27.6147 97.1311 27.6618 96.9538 27.7566C96.7766 27.8513 96.6272 27.9904 96.5202 28.1601C96.4081 28.3465 96.3576 28.5632 96.3756 28.7798C96.3788 29.0059 96.3952 29.2316 96.4248 29.4558L96.3201 29.3514C96.5162 29.332 96.7059 29.304 96.8955 29.2991C97.0852 29.2936 97.2776 29.3044 97.4719 29.3136C97.8622 29.3371 98.2695 29.3841 98.729 29.443Z" fill="black"/>
<path d="M101.062 25.0663C101.099 25.8339 101.131 26.5707 101.148 27.2955C101.166 28.0213 101.178 28.7351 101.15 29.4558L101.053 29.359C101.674 29.3798 102.295 29.4106 102.915 29.4134C103.536 29.4196 104.157 29.4053 104.778 29.3847L104.706 29.4558C104.679 28.7227 104.66 27.9896 104.653 27.2565C104.638 26.5233 104.638 25.7902 104.645 25.0571L104.778 25.1894C104.173 25.1921 103.567 25.1621 102.953 25.1473L101.062 25.0663ZM101.044 25.0479L102.878 24.9668C103.505 24.952 104.14 24.9221 104.778 24.9247C104.813 24.9251 104.846 24.9391 104.871 24.9639C104.896 24.9886 104.91 25.0221 104.91 25.0571C104.918 25.7902 104.917 26.5233 104.903 27.2564C104.896 27.9895 104.876 28.7227 104.849 29.4558L104.849 29.4608C104.849 29.4698 104.846 29.4786 104.843 29.4869C104.839 29.4951 104.834 29.5025 104.827 29.5086C104.82 29.5148 104.813 29.5196 104.804 29.5227C104.796 29.5259 104.787 29.5273 104.778 29.527C104.157 29.5064 103.536 29.4921 102.915 29.4983C102.295 29.5011 101.674 29.5319 101.053 29.5527C101.041 29.5531 101.029 29.5511 101.017 29.5467C101.005 29.5424 100.995 29.5359 100.986 29.5275C100.977 29.5191 100.97 29.509 100.965 29.4978C100.959 29.4866 100.957 29.4746 100.956 29.4623L100.956 29.4558C100.928 28.7102 100.94 27.9577 100.958 27.2173C100.975 26.4759 101.007 25.7465 101.044 25.0479Z" fill="black"/>
<path d="M102.9 27.5101C102.99 27.5096 103.078 27.4837 103.155 27.4355C103.231 27.3873 103.292 27.3186 103.331 27.2374C103.394 27.0958 103.438 26.9459 103.459 26.7922C103.479 26.7101 103.481 26.6247 103.466 26.5416C103.451 26.4585 103.419 26.3794 103.372 26.3092C103.314 26.2438 103.24 26.1951 103.157 26.1684C103.074 26.1416 102.985 26.1377 102.9 26.1572C102.748 26.1878 102.611 26.2687 102.511 26.3867C102.427 26.5056 102.383 26.6475 102.383 26.7927C102.38 26.9445 102.41 27.0953 102.473 27.2338C102.511 27.3153 102.571 27.3844 102.646 27.4333C102.722 27.4821 102.81 27.5087 102.9 27.5101ZM102.9 27.5469C102.688 27.5599 102.477 27.5083 102.295 27.3989C102.199 27.3292 102.122 27.2379 102.069 27.1325C102.016 27.027 101.989 26.9105 101.99 26.7925C101.988 26.6731 102.011 26.5545 102.057 26.4442C102.102 26.3338 102.171 26.234 102.257 26.1509C102.341 26.0701 102.443 26.0103 102.555 25.9763C102.667 25.9424 102.785 25.9353 102.9 25.9557C103.11 25.9881 103.305 26.083 103.46 26.2279C103.626 26.3739 103.735 26.5739 103.767 26.7924C103.78 26.9073 103.762 27.0236 103.715 27.1295C103.669 27.2353 103.595 27.3269 103.501 27.3947C103.32 27.5046 103.111 27.5576 102.9 27.5469Z" fill="black"/>
<path d="M104.094 29.4687C103.709 29.5332 103.32 29.5764 102.929 29.5981C102.72 29.6073 102.509 29.6181 102.295 29.6126C102.081 29.6077 101.867 29.5797 101.659 29.5604L101.638 29.5584C101.626 29.5572 101.614 29.5537 101.603 29.548C101.593 29.5424 101.583 29.5346 101.575 29.5252C101.567 29.5159 101.562 29.5051 101.558 29.4935C101.554 29.4818 101.553 29.4696 101.554 29.4575L101.554 29.4558C101.584 29.2316 101.601 29.0059 101.604 28.7798C101.589 28.5437 101.623 28.3072 101.703 28.0844C101.797 27.8445 101.96 27.6379 102.173 27.491C102.385 27.3442 102.636 27.2637 102.895 27.26C103.153 27.2562 103.407 27.3293 103.623 27.4699C103.84 27.6105 104.01 27.8123 104.111 28.0494C104.208 28.2846 104.237 28.5426 104.193 28.7934C104.168 29.041 104.126 29.2715 104.094 29.4687ZM104.068 29.443L103.969 28.7662C103.958 28.5664 103.903 28.3714 103.808 28.1953C103.711 28.0303 103.575 27.8916 103.411 27.7913C103.248 27.691 103.062 27.6321 102.87 27.6197C102.669 27.6147 102.47 27.6618 102.293 27.7566C102.116 27.8513 101.966 27.9904 101.859 28.1601C101.747 28.3465 101.697 28.5632 101.715 28.7798C101.718 29.0059 101.734 29.2316 101.764 29.4558L101.659 29.3514C101.855 29.332 102.045 29.304 102.235 29.2991C102.424 29.2936 102.617 29.3044 102.811 29.3136C103.201 29.3371 103.609 29.3841 104.068 29.443Z" fill="black"/>
<path d="M106.501 25.0663C106.537 25.8339 106.57 26.5707 106.586 27.2955C106.605 28.0213 106.616 28.7351 106.589 29.4558L106.492 29.359C107.112 29.3798 107.733 29.4106 108.354 29.4134C108.975 29.4196 109.595 29.4053 110.216 29.3847L110.145 29.4558C110.118 28.7227 110.098 27.9896 110.091 27.2565C110.077 26.5233 110.076 25.7902 110.083 25.0571L110.216 25.1894C109.612 25.1921 109.005 25.1621 108.391 25.1473L106.501 25.0663ZM106.482 25.0479L108.316 24.9668C108.944 24.952 109.579 24.9221 110.216 24.9247C110.251 24.9251 110.285 24.9391 110.31 24.9639C110.335 24.9886 110.349 25.0221 110.349 25.0571C110.356 25.7902 110.355 26.5233 110.341 27.2564C110.334 27.9895 110.315 28.7227 110.288 29.4558L110.287 29.4608C110.287 29.4698 110.285 29.4786 110.281 29.4869C110.278 29.4951 110.272 29.5025 110.266 29.5086C110.259 29.5148 110.251 29.5196 110.243 29.5227C110.234 29.5259 110.225 29.5273 110.216 29.527C109.595 29.5064 108.975 29.4921 108.354 29.4983C107.733 29.5011 107.112 29.5319 106.492 29.5527C106.479 29.5531 106.467 29.5511 106.456 29.5467C106.444 29.5424 106.433 29.5359 106.424 29.5275C106.415 29.5191 106.408 29.509 106.403 29.4978C106.398 29.4866 106.395 29.4746 106.395 29.4623L106.395 29.4558C106.367 28.7102 106.378 27.9577 106.397 27.2173C106.414 26.4759 106.446 25.7465 106.482 25.0479Z" fill="black"/>
<path d="M108.338 27.51C108.429 27.5096 108.517 27.4837 108.593 27.4355C108.67 27.3873 108.731 27.3186 108.77 27.2374C108.833 27.0958 108.876 26.9459 108.898 26.7922C108.918 26.7101 108.92 26.6247 108.905 26.5416C108.89 26.4585 108.858 26.3794 108.811 26.3092C108.753 26.2438 108.679 26.1951 108.596 26.1684C108.512 26.1416 108.424 26.1378 108.338 26.1572C108.187 26.1878 108.05 26.2687 107.95 26.3867C107.866 26.5056 107.821 26.6475 107.822 26.7927C107.818 26.9445 107.849 27.0952 107.911 27.2338C107.949 27.3153 108.009 27.3844 108.085 27.4333C108.16 27.4821 108.248 27.5087 108.338 27.51ZM108.338 27.5469C108.126 27.5599 107.915 27.5083 107.733 27.3989C107.638 27.3292 107.56 27.2379 107.507 27.1325C107.454 27.027 107.427 26.9105 107.428 26.7925C107.426 26.6731 107.449 26.5545 107.495 26.4442C107.541 26.3338 107.609 26.234 107.695 26.1509C107.779 26.0701 107.882 26.0103 107.993 25.9763C108.105 25.9424 108.223 25.9353 108.338 25.9557C108.548 25.9881 108.743 26.083 108.898 26.2279C109.064 26.3739 109.173 26.5739 109.205 26.7924C109.219 26.9073 109.201 27.0236 109.154 27.1295C109.107 27.2354 109.033 27.3269 108.939 27.3947C108.759 27.5046 108.549 27.5576 108.338 27.5469Z" fill="black"/>
<path d="M109.533 29.4687C109.147 29.5332 108.758 29.5764 108.368 29.5982C108.159 29.6073 107.947 29.6181 107.733 29.6126C107.519 29.6077 107.305 29.5798 107.098 29.5604L107.077 29.5584C107.065 29.5572 107.053 29.5537 107.042 29.548C107.031 29.5424 107.022 29.5346 107.014 29.5253C107.006 29.5159 107 29.5051 106.997 29.4935C106.993 29.4818 106.992 29.4696 106.993 29.4575L106.993 29.4559C107.023 29.2317 107.039 29.0059 107.042 28.7798C107.028 28.5437 107.061 28.3072 107.141 28.0844C107.235 27.8445 107.399 27.6379 107.611 27.491C107.824 27.3442 108.075 27.2637 108.333 27.26C108.592 27.2562 108.846 27.3293 109.062 27.4699C109.279 27.6105 109.448 27.8123 109.549 28.0494C109.647 28.2846 109.675 28.5426 109.632 28.7934C109.607 29.041 109.565 29.2716 109.533 29.4687ZM109.507 29.443L109.408 28.7662C109.397 28.5664 109.342 28.3715 109.247 28.1953C109.15 28.0303 109.013 27.8916 108.85 27.7913C108.686 27.691 108.5 27.6321 108.309 27.6198C108.108 27.6147 107.909 27.6618 107.732 27.7566C107.555 27.8513 107.405 27.9904 107.298 28.1601C107.186 28.3465 107.135 28.5632 107.153 28.7798C107.157 29.0059 107.173 29.2316 107.203 29.4559L107.098 29.3514C107.294 29.332 107.484 29.3041 107.673 29.2992C107.863 29.2936 108.055 29.3045 108.25 29.3136C108.64 29.3371 109.047 29.3841 109.507 29.443Z" fill="black"/>
<path d="M104.09 30.5287C104.127 31.2963 104.159 32.0332 104.176 32.758C104.194 33.4838 104.206 34.1975 104.178 34.9182L104.081 34.8214C104.702 34.8422 105.323 34.873 105.943 34.8758C106.564 34.882 107.185 34.8677 107.806 34.8471L107.734 34.9182C107.707 34.1851 107.688 33.452 107.681 32.7189C107.667 31.9858 107.666 31.2526 107.673 30.5195L107.806 30.6518C107.202 30.6545 106.595 30.6245 105.981 30.6097L104.09 30.5287ZM104.072 30.5103L105.906 30.4292C106.534 30.4144 107.168 30.3845 107.806 30.3871C107.841 30.3875 107.874 30.4015 107.899 30.4263C107.924 30.451 107.938 30.4845 107.938 30.5195C107.946 31.2526 107.945 31.9857 107.931 32.7189C107.924 33.452 107.904 34.1851 107.877 34.9182L107.877 34.9232C107.877 34.9322 107.875 34.9411 107.871 34.9493C107.867 34.9575 107.862 34.9649 107.855 34.971C107.848 34.9772 107.841 34.982 107.832 34.9851C107.824 34.9883 107.815 34.9897 107.806 34.9894C107.185 34.9688 106.564 34.9545 105.943 34.9607C105.323 34.9635 104.702 34.9943 104.081 35.0151C104.056 35.0159 104.032 35.0068 104.014 34.9899C103.996 34.973 103.985 34.9495 103.984 34.9247L103.984 34.9182C103.956 34.1727 103.968 33.4201 103.986 32.6797C104.003 31.9383 104.035 31.2089 104.072 30.5103Z" fill="black"/>
<path d="M105.928 32.9725C106.018 32.972 106.107 32.9461 106.183 32.8979C106.259 32.8497 106.32 32.7811 106.359 32.6998C106.423 32.5582 106.466 32.4083 106.488 32.2546C106.507 32.1725 106.51 32.0871 106.495 32.004C106.48 31.9209 106.447 31.8418 106.4 31.7716C106.343 31.7062 106.268 31.6575 106.185 31.6308C106.102 31.604 106.013 31.6002 105.928 31.6196C105.776 31.6502 105.639 31.7311 105.539 31.8491C105.455 31.968 105.411 32.1098 105.412 32.2551C105.408 32.4069 105.438 32.5577 105.501 32.6962C105.539 32.7777 105.599 32.8468 105.674 32.8957C105.75 32.9445 105.838 32.9711 105.928 32.9725ZM105.928 33.0092C105.716 33.0223 105.505 32.9707 105.323 32.8613C105.227 32.7916 105.15 32.7003 105.097 32.5949C105.044 32.4894 105.017 32.3729 105.018 32.2549C105.016 32.1355 105.039 32.0169 105.085 31.9066C105.131 31.7962 105.199 31.6964 105.285 31.6133C105.369 31.5325 105.471 31.4727 105.583 31.4387C105.695 31.4048 105.813 31.3977 105.928 31.4181C106.138 31.4505 106.333 31.5454 106.488 31.6903C106.654 31.8363 106.763 32.0363 106.795 32.2548C106.808 32.3697 106.79 32.486 106.744 32.5919C106.697 32.6978 106.623 32.7893 106.529 32.8571C106.348 32.967 106.139 33.02 105.928 33.0093V33.0092Z" fill="black"/>
<path d="M107.122 34.9311C106.737 34.9956 106.348 35.0388 105.958 35.0605C105.748 35.0697 105.537 35.0805 105.323 35.075C105.109 35.0701 104.895 35.0421 104.687 35.0228L104.666 35.0208C104.654 35.0196 104.642 35.0161 104.632 35.0105C104.621 35.0048 104.611 34.997 104.603 34.9877C104.596 34.9783 104.59 34.9675 104.586 34.9559C104.583 34.9442 104.581 34.932 104.582 34.9199L104.583 34.9183C104.612 34.6941 104.629 34.4683 104.632 34.2422C104.617 34.0061 104.651 33.7696 104.731 33.5469C104.825 33.3069 104.988 33.1003 105.201 32.9534C105.413 32.8066 105.664 32.7261 105.923 32.7224C106.181 32.7186 106.435 32.7917 106.652 32.9323C106.868 33.0729 107.038 33.2747 107.139 33.5118C107.236 33.747 107.265 34.005 107.221 34.2558C107.196 34.5034 107.155 34.7339 107.122 34.9311ZM107.096 34.9054L106.997 34.2286C106.987 34.0288 106.932 33.8338 106.836 33.6577C106.739 33.4927 106.603 33.354 106.439 33.2537C106.276 33.1534 106.09 33.0945 105.898 33.0821C105.697 33.0771 105.498 33.1242 105.321 33.219C105.144 33.3137 104.995 33.4528 104.888 33.6225C104.776 33.8089 104.725 34.0256 104.743 34.2422C104.746 34.4683 104.763 34.694 104.792 34.9182L104.687 34.8138C104.884 34.7944 105.073 34.7664 105.263 34.7615C105.453 34.756 105.645 34.7668 105.839 34.776C106.23 34.7995 106.637 34.8465 107.096 34.9054Z" fill="black"/>
<path d="M98.283 30.5287C98.3195 31.2963 98.3517 32.0332 98.3684 32.758C98.387 33.4838 98.3986 34.1975 98.3709 34.9182L98.2738 34.8214C98.8945 34.8422 99.5152 34.873 100.136 34.8758C100.757 34.882 101.378 34.8677 101.998 34.8471L101.927 34.9182C101.9 34.1851 101.88 33.452 101.873 32.7189C101.859 31.9858 101.858 31.2526 101.866 30.5195L101.998 30.6518C101.394 30.6545 100.787 30.6245 100.173 30.6097L98.283 30.5287ZM98.2645 30.5103L100.099 30.4292C100.726 30.4144 101.361 30.3845 101.998 30.3871C102.033 30.3875 102.067 30.4015 102.092 30.4263C102.117 30.451 102.131 30.4845 102.131 30.5195C102.138 31.2526 102.137 31.9857 102.123 32.7189C102.116 33.452 102.097 34.1851 102.07 34.9182L102.07 34.9232C102.069 34.9322 102.067 34.9411 102.063 34.9493C102.06 34.9575 102.054 34.9649 102.048 34.971C102.041 34.9772 102.033 34.982 102.025 34.9851C102.016 34.9883 102.007 34.9897 101.998 34.9894C101.378 34.9688 100.757 34.9545 100.136 34.9607C99.5152 34.9635 98.8945 34.9943 98.2738 35.0151C98.2615 35.0155 98.2492 35.0135 98.2377 35.0091C98.2261 35.0048 98.2156 34.9983 98.2066 34.9899C98.1976 34.9815 98.1903 34.9714 98.1852 34.9603C98.1801 34.9491 98.1773 34.937 98.1769 34.9247L98.1766 34.9182C98.1489 34.1727 98.1604 33.4201 98.1791 32.6797C98.1958 31.9383 98.228 31.2089 98.2645 30.5103Z" fill="black"/>
<path d="M95.723 36.219C95.7595 36.9867 95.7917 37.7235 95.8084 38.4483C95.827 39.1741 95.8386 39.8878 95.8109 40.6086L95.7138 40.5118C96.3345 40.5326 96.9553 40.5634 97.576 40.5661C98.1968 40.5723 98.8175 40.558 99.4383 40.5375L99.3669 40.6086C99.3398 39.8755 99.3202 39.1423 99.3134 38.4093C99.2992 37.6761 99.2983 36.943 99.3055 36.2099L99.4383 36.3422C98.8342 36.3448 98.2273 36.3149 97.6135 36.3L95.723 36.219ZM95.7045 36.2006L97.5385 36.1196C98.1661 36.1047 98.8008 36.0749 99.4383 36.0775C99.4734 36.0778 99.507 36.0919 99.5318 36.1167C99.5566 36.1414 99.5707 36.1749 99.571 36.2099C99.5783 36.943 99.5774 37.6761 99.5632 38.4092C99.5564 39.1423 99.5368 39.8754 99.5097 40.6086L99.5095 40.6135C99.5092 40.6226 99.5071 40.6314 99.5034 40.6396C99.4996 40.6478 99.4943 40.6552 99.4877 40.6614C99.4811 40.6675 99.4733 40.6723 99.4648 40.6755C99.4563 40.6786 99.4473 40.6801 99.4383 40.6798C98.8175 40.6592 98.1968 40.6449 97.576 40.651C96.9553 40.6539 96.3345 40.6847 95.7138 40.7054C95.7015 40.7059 95.6892 40.7038 95.6777 40.6995C95.6661 40.6952 95.6555 40.6886 95.6465 40.6803C95.6375 40.6719 95.6303 40.6618 95.6252 40.6506C95.6201 40.6394 95.6173 40.6273 95.6169 40.6151L95.6166 40.6086C95.5889 39.863 95.6004 39.1105 95.6191 38.3701C95.6358 37.6286 95.668 36.8992 95.7045 36.2006L95.7045 36.2006Z" fill="black"/>
<path d="M97.5605 38.6628C97.6508 38.6623 97.7391 38.6364 97.8154 38.5882C97.8916 38.54 97.9527 38.4713 97.9916 38.3901C98.0551 38.2484 98.0984 38.0986 98.1201 37.9449C98.1398 37.8628 98.1422 37.7774 98.1272 37.6943C98.1121 37.6112 98.08 37.532 98.0328 37.4619C97.9751 37.3965 97.9008 37.3478 97.8176 37.3211C97.7345 37.2943 97.6456 37.2904 97.5605 37.3099C97.4086 37.3405 97.2716 37.4214 97.1717 37.5394C97.0879 37.6583 97.0433 37.8001 97.0441 37.9454C97.0405 38.0972 97.071 38.2479 97.1333 38.3865C97.1712 38.468 97.2314 38.5371 97.307 38.586C97.3826 38.6348 97.4704 38.6615 97.5605 38.6628ZM97.5605 38.6996C97.3484 38.7126 97.1374 38.661 96.9555 38.5516C96.86 38.482 96.7825 38.3906 96.7294 38.2852C96.6764 38.1797 96.6493 38.0632 96.6504 37.9452C96.6486 37.8258 96.6713 37.7072 96.7172 37.5969C96.7632 37.4865 96.8313 37.3867 96.9174 37.3037C97.0015 37.2228 97.1037 37.163 97.2154 37.129C97.3272 37.0951 97.4455 37.088 97.5605 37.1084C97.7704 37.1408 97.9655 37.2357 98.1204 37.3806C98.2865 37.5266 98.3953 37.7266 98.4274 37.945C98.4406 38.0599 98.4229 38.1763 98.3762 38.2822C98.3294 38.388 98.2552 38.4796 98.1613 38.5474C97.981 38.6573 97.7716 38.7103 97.5605 38.6996Z" fill="black"/>
<path d="M98.7548 40.6214C98.3692 40.6859 97.9804 40.7291 97.5901 40.7509C97.3808 40.76 97.1695 40.7708 96.9555 40.7653C96.7416 40.7604 96.5276 40.7325 96.3201 40.713L96.2989 40.7111C96.2867 40.7099 96.2749 40.7064 96.2641 40.7008C96.2533 40.6951 96.2438 40.6873 96.236 40.678C96.2282 40.6686 96.2223 40.6578 96.2187 40.6462C96.2151 40.6345 96.2139 40.6223 96.215 40.6102L96.2152 40.6086C96.2448 40.3844 96.2613 40.1586 96.2644 39.9325C96.2499 39.6964 96.2835 39.4599 96.3633 39.2371C96.4573 38.9972 96.6209 38.7906 96.8333 38.6437C97.0456 38.4969 97.2971 38.4164 97.5555 38.4127C97.8139 38.4089 98.0676 38.482 98.2842 38.6226C98.5007 38.7632 98.6703 38.965 98.7713 39.2021C98.8689 39.4373 98.8975 39.6953 98.854 39.9461C98.8288 40.1937 98.7871 40.4242 98.7548 40.6214ZM98.729 40.5957L98.6298 39.9189C98.6191 39.7191 98.5642 39.5241 98.469 39.348C98.3717 39.183 98.2353 39.0443 98.0718 38.944C97.9082 38.8437 97.7226 38.7848 97.531 38.7725C97.33 38.7674 97.1311 38.8145 96.9538 38.9093C96.7766 39.004 96.6272 39.1431 96.5202 39.3128C96.4081 39.4992 96.3576 39.7159 96.3756 39.9325C96.3788 40.1586 96.3952 40.3844 96.4248 40.6086L96.3201 40.5041C96.5162 40.4847 96.7059 40.4568 96.8955 40.4519C97.0852 40.4463 97.2776 40.4572 97.4719 40.4663C97.8622 40.4898 98.2695 40.5368 98.729 40.5957Z" fill="black"/>
<path d="M101.062 36.219C101.099 36.9867 101.131 37.7235 101.148 38.4483C101.166 39.1741 101.178 39.8878 101.15 40.6086L101.053 40.5118C101.674 40.5326 102.295 40.5633 102.915 40.5661C103.536 40.5723 104.157 40.558 104.778 40.5375L104.706 40.6086C104.679 39.8755 104.66 39.1423 104.653 38.4093C104.638 37.6761 104.638 36.943 104.645 36.2099L104.778 36.3422C104.173 36.3448 103.567 36.3149 102.953 36.3L101.062 36.219ZM101.044 36.2006L102.878 36.1196C103.505 36.1047 104.14 36.0749 104.778 36.0775C104.813 36.0778 104.846 36.0919 104.871 36.1167C104.896 36.1414 104.91 36.1749 104.91 36.2099C104.918 36.943 104.917 37.6761 104.903 38.4092C104.896 39.1423 104.876 39.8754 104.849 40.6086L104.849 40.6135C104.849 40.6226 104.846 40.6314 104.843 40.6396C104.839 40.6478 104.834 40.6552 104.827 40.6614C104.82 40.6675 104.813 40.6723 104.804 40.6755C104.796 40.6786 104.787 40.6801 104.778 40.6798C104.157 40.6592 103.536 40.6449 102.915 40.651C102.295 40.6539 101.674 40.6847 101.053 40.7054C101.041 40.7058 101.029 40.7038 101.017 40.6995C101.005 40.6952 100.995 40.6886 100.986 40.6802C100.977 40.6719 100.97 40.6618 100.965 40.6506C100.959 40.6394 100.957 40.6273 100.956 40.6151L100.956 40.6086C100.928 39.863 100.94 39.1105 100.958 38.3701C100.975 37.6286 101.007 36.8992 101.044 36.2006V36.2006Z" fill="black"/>
<path d="M106.456 36.219C106.492 36.9867 106.525 37.7235 106.541 38.4483C106.56 39.1741 106.571 39.8878 106.544 40.6086L106.447 40.5118C107.067 40.5326 107.688 40.5634 108.309 40.5661C108.93 40.5723 109.55 40.558 110.171 40.5375L110.1 40.6086C110.073 39.8755 110.053 39.1423 110.046 38.4093C110.032 37.6761 110.031 36.943 110.038 36.2099L110.171 36.3422C109.567 36.3448 108.96 36.3149 108.346 36.3L106.456 36.219ZM106.437 36.2006L108.271 36.1196C108.899 36.1047 109.534 36.0749 110.171 36.0775C110.206 36.0778 110.24 36.0919 110.265 36.1166C110.289 36.1414 110.304 36.1749 110.304 36.2099C110.311 36.943 110.31 37.6761 110.296 38.4092C110.289 39.1423 110.27 39.8754 110.243 40.6086L110.242 40.6135C110.242 40.6226 110.24 40.6314 110.236 40.6396C110.232 40.6478 110.227 40.6552 110.22 40.6614C110.214 40.6675 110.206 40.6723 110.198 40.6755C110.189 40.6786 110.18 40.6801 110.171 40.6798C109.55 40.6592 108.93 40.6449 108.309 40.651C107.688 40.6539 107.067 40.6847 106.447 40.7054C106.434 40.7059 106.422 40.7038 106.41 40.6995C106.399 40.6952 106.388 40.6886 106.379 40.6803C106.37 40.6719 106.363 40.6618 106.358 40.6506C106.353 40.6394 106.35 40.6273 106.35 40.6151L106.349 40.6086C106.322 39.863 106.333 39.1105 106.352 38.3701C106.369 37.6286 106.401 36.8992 106.437 36.2006V36.2006Z" fill="black"/>
<path d="M108.293 38.6628C108.384 38.6623 108.472 38.6364 108.548 38.5882C108.624 38.54 108.686 38.4713 108.724 38.3901C108.788 38.2484 108.831 38.0986 108.853 37.9449C108.873 37.8628 108.875 37.7774 108.86 37.6943C108.845 37.6112 108.813 37.532 108.766 37.4619C108.708 37.3965 108.634 37.3478 108.55 37.321C108.467 37.2943 108.378 37.2904 108.293 37.3099C108.141 37.3405 108.004 37.4214 107.905 37.5394C107.821 37.6582 107.776 37.8001 107.777 37.9454C107.773 38.0972 107.804 38.2479 107.866 38.3865C107.904 38.468 107.964 38.5371 108.04 38.586C108.115 38.6348 108.203 38.6614 108.293 38.6628ZM108.293 38.6996C108.081 38.7126 107.87 38.661 107.688 38.5516C107.593 38.4819 107.515 38.3906 107.462 38.2852C107.409 38.1797 107.382 38.0632 107.383 37.9452C107.381 37.8258 107.404 37.7072 107.45 37.5969C107.496 37.4865 107.564 37.3867 107.65 37.3036C107.734 37.2228 107.836 37.163 107.948 37.129C108.06 37.0951 108.178 37.088 108.293 37.1084C108.503 37.1408 108.698 37.2357 108.853 37.3806C109.019 37.5266 109.128 37.7266 109.16 37.945C109.173 38.0599 109.156 38.1763 109.109 38.2821C109.062 38.388 108.988 38.4796 108.894 38.5474C108.714 38.6573 108.504 38.7103 108.293 38.6996Z" fill="black"/>
<path d="M109.488 40.6214C109.102 40.6859 108.713 40.7291 108.323 40.7509C108.114 40.76 107.902 40.7708 107.688 40.7653C107.474 40.7604 107.26 40.7325 107.053 40.713L107.032 40.7111C107.02 40.7099 107.008 40.7064 106.997 40.7008C106.986 40.6951 106.977 40.6873 106.969 40.678C106.961 40.6686 106.955 40.6578 106.952 40.6462C106.948 40.6346 106.947 40.6223 106.948 40.6102L106.948 40.6086C106.978 40.3844 106.994 40.1586 106.997 39.9325C106.983 39.6964 107.016 39.4599 107.096 39.2371C107.19 38.9972 107.354 38.7906 107.566 38.6437C107.778 38.4969 108.03 38.4164 108.288 38.4127C108.547 38.4089 108.8 38.482 109.017 38.6226C109.234 38.7632 109.403 38.965 109.504 39.2021C109.602 39.4373 109.63 39.6953 109.587 39.9461C109.562 40.1937 109.52 40.4242 109.488 40.6214ZM109.462 40.5957L109.363 39.9189C109.352 39.7191 109.297 39.5241 109.202 39.348C109.104 39.183 108.968 39.0443 108.805 38.944C108.641 38.8437 108.455 38.7848 108.264 38.7725C108.063 38.7674 107.864 38.8145 107.687 38.9093C107.509 39.004 107.36 39.1431 107.253 39.3128C107.141 39.4992 107.09 39.716 107.108 39.9325C107.112 40.1586 107.128 40.3844 107.158 40.6086L107.053 40.5041C107.249 40.4847 107.439 40.4568 107.628 40.4519C107.818 40.4463 108.01 40.4572 108.205 40.4663C108.595 40.4898 109.002 40.5368 109.462 40.5957Z" fill="black"/>
<path d="M79.8798 50.9252L79.808 51.3328L80.2172 51.4044L80.289 50.9968L79.8798 50.9252Z" fill="black"/>
<path d="M94.8813 53.9606L94.0666 53.8186L94.138 53.411L94.9527 53.5529L94.8813 53.9606ZM93.2517 53.6767L92.437 53.5347L92.5084 53.1271L93.3231 53.269L93.2517 53.6767ZM91.6223 53.3928L90.8076 53.2509L90.879 52.8432L91.6937 52.9852L91.6223 53.3928ZM89.9927 53.1089L89.1781 52.9666L89.2499 52.5589L90.0646 52.7013L89.9927 53.1089ZM88.3636 52.8246L87.5489 52.6827L87.6203 52.275L88.435 52.417L88.3636 52.8246ZM86.7342 52.5407L85.9195 52.3988L85.9909 51.9911L86.8056 52.1331L86.7342 52.5407ZM85.1046 52.2568L84.2899 52.1149L84.3613 51.7072L85.176 51.8492L85.1046 52.2568ZM83.4752 51.9725L82.6605 51.8306L82.7319 51.4229L83.5466 51.5649L83.4752 51.9725ZM81.8458 51.6886L81.0312 51.5467L81.1026 51.139L81.9173 51.281L81.8458 51.6886Z" fill="black"/>
<path d="M95.7686 53.6945L95.6968 54.1021L96.106 54.1737L96.1777 53.766L95.7686 53.6945Z" fill="black"/>
<path d="M78.5402 52.3469L78.4533 52.7521L78.8597 52.8387L78.9465 52.4335L78.5402 52.3469Z" fill="black"/>
<path d="M93.1093 55.8645L92.3177 55.6962L92.4045 55.291L93.1961 55.4593L93.1093 55.8645ZM91.5263 55.5284L90.7346 55.3602L90.821 54.955L91.6128 55.1232L91.5263 55.5284ZM89.943 55.1919L89.1515 55.0241L89.2379 54.6189L90.0294 54.7867L89.943 55.1919ZM88.3595 54.8559L87.5679 54.6876L87.6548 54.2824L88.4463 54.4507L88.3595 54.8559ZM86.7764 54.5194L85.9848 54.3516L86.0712 53.9464L86.8628 54.1142L86.7764 54.5194ZM85.1932 54.1834L84.4015 54.0151L84.4879 53.6099L85.2797 53.7781L85.1932 54.1834ZM83.6097 53.8473L82.8182 53.6791L82.905 53.2739L83.6966 53.4421L83.6097 53.8473ZM82.0264 53.5108L81.2348 53.3426L81.3217 52.9374L82.1132 53.1056L82.0264 53.5108ZM80.4431 53.1748L79.6515 53.0065L79.7384 52.6013L80.5299 52.7696L80.4431 53.1748Z" fill="black"/>
<path d="M93.9879 55.6271L93.901 56.0323L94.3073 56.1188L94.3942 55.7136L93.9879 55.6271Z" fill="black"/>
<path d="M79.8199 54.7338C80.5295 54.7741 81.2326 54.8922 81.9164 55.086C82.6049 55.2622 83.2717 55.5143 83.9042 55.8377C83.1944 55.7982 82.4912 55.6801 81.8077 55.4854C81.1194 55.3084 80.4528 55.0563 79.8199 54.7338Z" fill="black"/>
</svg>
