<svg width="162" height="152" viewBox="0 0 162 152" fill="none" xmlns="http://www.w3.org/2000/svg">
<path d="M95.6124 46.8601C95.5562 46.9621 95.5 47.0677 95.4368 47.1698C95.4087 47.2225 95.3736 47.2753 95.349 47.3246C95.3315 47.3703 95.3139 47.4231 95.2999 47.4724C95.2366 47.68 95.1805 47.9053 95.1278 48.1235L94.8047 49.4502C94.7029 49.8936 94.6045 50.337 94.5132 50.7804C94.4571 51.0761 94.4009 51.3681 94.3658 51.6778L105.224 41.0922C104.253 39.0053 103.614 36.7788 103.331 34.4937C101.645 35.2961 99.4892 36.292 96.5781 37.5026C91.7426 39.5121 90.4433 49.9147 90.4433 49.9147C90.4433 49.9147 92.6732 50.4074 93.9303 50.0414C93.9508 49.786 93.9872 49.5321 94.0392 49.2813C94.1343 48.8039 94.2828 48.3388 94.4817 47.8947C94.5823 47.6672 94.7034 47.4493 94.8433 47.2437C94.8785 47.1909 94.9206 47.1381 94.9663 47.0818L95.0611 46.9375C95.1278 46.8425 95.1875 46.744 95.2472 46.6454C95.7388 45.8536 96.2059 45.0336 96.6659 44.2172L98.053 41.7573C97.6737 42.6195 97.2839 43.477 96.8836 44.3298C96.4762 45.1779 96.0689 46.026 95.6124 46.8601ZM91.1421 49.8162C91.0056 49.8113 90.8764 49.7536 90.7816 49.6551C90.6867 49.5566 90.6338 49.4251 90.6338 49.2883C90.6338 49.1515 90.6867 49.02 90.7816 48.9215C90.8764 48.823 91.0056 48.7653 91.1421 48.7604C91.2785 48.7653 91.4078 48.823 91.5026 48.9215C91.5974 49.02 91.6504 49.1515 91.6504 49.2883C91.6504 49.4251 91.5974 49.5566 91.5026 49.6551C91.4078 49.7536 91.2785 49.8113 91.1421 49.8162ZM92.8698 49.8162C92.7333 49.8113 92.6041 49.7536 92.5093 49.6551C92.4145 49.5566 92.3615 49.4251 92.3615 49.2883C92.3615 49.1515 92.4145 49.02 92.5093 48.9215C92.6041 48.823 92.7333 48.7653 92.8698 48.7604C93.0063 48.7653 93.1355 48.823 93.2303 48.9215C93.3251 49.02 93.3781 49.1515 93.3781 49.2883C93.3781 49.4251 93.3251 49.5566 93.2303 49.6551C93.1355 49.7536 93.0063 49.8113 92.8698 49.8162Z" fill="#020202"/>
<path d="M94.3365 52.1591C94.9214 52.4149 95.5426 52.5779 96.1775 52.642C96.4819 52.6681 96.7883 52.6566 97.0899 52.6077C97.4024 52.5697 97.7064 52.4721 98.0516 52.3954C97.8232 52.6667 97.5304 52.8762 97.2002 53.0046C96.8641 53.1438 96.4994 53.1999 96.1371 53.1682C95.7772 53.1408 95.4275 53.0358 95.112 52.8604C94.7993 52.695 94.5327 52.4539 94.3365 52.1591Z" fill="black"/>
<path d="M63.2948 68.9851C63.2388 68.5027 63.2107 68.0174 63.2106 67.5317L63.2948 68.9851Z" fill="black"/>
<path d="M63.3194 69.4144L63.2949 68.9851C63.3835 69.9475 63.6704 70.881 64.1376 71.7265C63.2492 70.4209 63.3194 69.4144 63.3194 69.4144Z" fill="black"/>
<path d="M64.1693 71.7758C64.2816 71.9412 64.4116 72.1101 64.5555 72.2825C64.4103 72.1268 64.2809 71.9571 64.1693 71.7758Z" fill="black"/>
<path d="M138.222 78.2194L8.29224 77.336V75.207C19.1045 75.3794 29.9168 75.5096 40.7291 75.5976C51.5414 75.7173 62.3538 75.756 73.1661 75.8193C83.9783 75.8967 94.7942 75.9002 105.606 75.9214L121.827 75.939L137.92 75.9038L138.222 78.2194Z" fill="black"/>
<path d="M158.92 63.1502V65.3357L138.222 78.2193L138.184 75.8582L143.36 72.7048L148.55 69.5269L158.92 63.1502Z" fill="black"/>
<path d="M89.5412 69.0507L90.2435 69.0634" stroke="#020202" stroke-width="1.93554" stroke-miterlimit="10"/>
<path d="M91.688 69.0895L108.301 69.3896" stroke="#020202" stroke-width="1.93554" stroke-miterlimit="10" stroke-dasharray="3.98 3.98"/>
<path d="M109.024 69.4026L109.726 69.4153" stroke="#020202" stroke-width="1.93554" stroke-miterlimit="10"/>
<path d="M90.3094 67.7914L91.0117 67.8041" stroke="#020202" stroke-width="1.93554" stroke-miterlimit="10"/>
<path d="M92.4564 67.8302L109.07 68.1303" stroke="#020202" stroke-width="1.93554" stroke-miterlimit="10" stroke-dasharray="3.98 3.98"/>
<path d="M109.792 68.1434L110.494 68.1561" stroke="#020202" stroke-width="1.93554" stroke-miterlimit="10"/>
<path d="M91.2366 66.5479L91.9389 66.5606" stroke="#020202" stroke-width="1.93554" stroke-miterlimit="10"/>
<path d="M93.3835 66.5866L109.997 66.8867" stroke="#020202" stroke-width="1.93554" stroke-miterlimit="10" stroke-dasharray="3.98 3.98"/>
<path d="M110.719 66.8998L111.421 66.9125" stroke="#020202" stroke-width="1.93554" stroke-miterlimit="10"/>
<path d="M31.4136 65.1719C31.5941 70.2767 31.7135 75.3814 31.8657 80.4861L32.2049 95.8003C32.2669 98.3527 32.3385 100.905 32.4196 103.457C32.4917 106.01 32.4954 108.562 32.431 111.115L32.2982 114.943C32.231 116.219 32.1861 117.495 32.0957 118.772C31.9384 121.324 31.7375 123.876 31.4135 126.429C31.4101 126.456 31.3966 126.482 31.3758 126.5C31.355 126.518 31.3283 126.529 31.3005 126.529C31.2728 126.529 31.246 126.518 31.2252 126.5C31.2044 126.482 31.191 126.456 31.1875 126.429C30.8635 123.876 30.6626 121.324 30.5055 118.772C30.4149 117.495 30.37 116.219 30.3029 114.943L30.17 111.115C30.1046 108.562 30.1084 106.01 30.1814 103.457C30.2652 100.905 30.3368 98.3527 30.3961 95.8003L30.7353 80.4861C30.8875 75.3814 31.0069 70.2767 31.1875 65.1719C31.1885 65.1426 31.2009 65.1148 31.222 65.0945C31.2431 65.0741 31.2712 65.0627 31.3005 65.0627C31.3298 65.0627 31.3579 65.0741 31.379 65.0945C31.4001 65.1148 31.4125 65.1426 31.4135 65.1719H31.4136Z" fill="#020202"/>
<path d="M11.1866 78.18C11.3671 83.2847 11.4865 88.3895 11.6387 93.4942L11.9779 108.808C12.0399 111.361 12.1115 113.913 12.1926 116.466C12.2648 119.018 12.2685 121.57 12.204 124.123L12.0712 127.951C12.004 129.227 11.9591 130.504 11.8687 131.78C11.7114 134.332 11.5106 136.884 11.1865 139.437C11.1831 139.464 11.1697 139.49 11.1489 139.508C11.128 139.527 11.1012 139.537 11.0735 139.537C11.0458 139.537 11.019 139.527 10.9982 139.508C10.9773 139.49 10.9639 139.464 10.9605 139.437C10.6365 136.884 10.4356 134.332 10.2784 131.78C10.1879 130.504 10.143 129.227 10.0758 127.951L9.94303 124.123C9.87756 121.57 9.88134 119.018 9.95437 116.466C10.0382 113.913 10.1097 111.361 10.1691 108.808L10.5083 93.4942C10.6605 88.3895 10.7799 83.2847 10.9605 78.18C10.9615 78.1507 10.9739 78.1229 10.9949 78.1025C11.016 78.0821 11.0442 78.0707 11.0735 78.0707C11.1028 78.0707 11.131 78.0821 11.152 78.1025C11.1731 78.1229 11.1855 78.1507 11.1865 78.18H11.1866Z" fill="#020202"/>
<path d="M156.287 65.1719C156.468 70.2767 156.587 75.3814 156.739 80.4861L157.078 95.8003C157.14 98.3527 157.212 100.905 157.293 103.457C157.365 106.01 157.369 108.562 157.305 111.115L157.172 114.943C157.105 116.219 157.06 117.495 156.969 118.772C156.812 121.324 156.611 123.876 156.287 126.429C156.284 126.456 156.27 126.482 156.249 126.5C156.229 126.518 156.202 126.529 156.174 126.529C156.146 126.529 156.12 126.518 156.099 126.5C156.078 126.482 156.065 126.456 156.061 126.429C155.737 123.876 155.536 121.324 155.379 118.772C155.288 117.495 155.244 116.219 155.176 114.943L155.044 111.115C154.978 108.562 154.982 106.01 155.055 103.457C155.139 100.905 155.21 98.3527 155.27 95.8003L155.609 80.4861C155.761 75.3814 155.88 70.2767 156.061 65.1719C156.062 65.1426 156.074 65.1148 156.096 65.0945C156.117 65.0741 156.145 65.0627 156.174 65.0627C156.203 65.0627 156.231 65.0741 156.253 65.0945C156.274 65.1148 156.286 65.1426 156.287 65.1719H156.287Z" fill="#020202"/>
<path d="M136.06 78.18C136.241 83.2847 136.36 88.3895 136.512 93.4942L136.851 108.808C136.913 111.361 136.985 113.913 137.066 116.466C137.138 119.018 137.142 121.57 137.078 124.123L136.945 127.951C136.878 129.227 136.833 130.504 136.742 131.78C136.585 134.332 136.384 136.884 136.06 139.437C136.057 139.464 136.043 139.49 136.022 139.508C136.002 139.526 135.975 139.537 135.947 139.537C135.919 139.537 135.893 139.526 135.872 139.508C135.851 139.49 135.838 139.464 135.834 139.437C135.51 136.884 135.309 134.332 135.152 131.78C135.061 130.504 135.017 129.227 134.949 127.951L134.817 124.123C134.751 121.57 134.755 119.018 134.828 116.466C134.912 113.913 134.983 111.361 135.043 108.808L135.382 93.4942C135.534 88.3895 135.653 83.2847 135.834 78.18C135.835 78.1507 135.847 78.123 135.869 78.1026C135.89 78.0823 135.918 78.0709 135.947 78.0709C135.976 78.0709 136.004 78.0823 136.026 78.1026C136.047 78.123 136.059 78.1507 136.06 78.18H136.06Z" fill="#020202"/>
<path d="M107.662 31.7513C107.069 31.7322 106.504 31.498 106.071 31.0923C105.631 30.7131 105.242 30.2776 104.915 29.797C104.585 29.3264 104.289 28.8332 104.028 28.3209C103.763 27.8107 103.527 27.2854 103.322 26.7479L103.883 26.897C103.787 26.9793 103.675 27.0407 103.554 27.0771C103.432 27.1136 103.305 27.1244 103.18 27.1088C102.97 27.0763 102.771 26.9921 102.601 26.8636C102.306 26.6447 102.074 26.3525 101.926 26.0159C101.771 25.69 101.701 25.3305 101.721 24.9702C101.741 24.6063 101.867 24.2563 102.082 23.9626C102.291 23.6875 102.559 23.4627 102.865 23.3046C103.025 23.219 103.199 23.1641 103.378 23.1429C103.574 23.1205 103.771 23.1683 103.935 23.2779C104.199 23.5025 104.381 23.8081 104.453 24.1471C104.535 24.4545 104.585 24.7695 104.602 25.0873L104.506 24.9722C104.906 25.055 105.322 24.9973 105.684 24.8088C106.054 24.6174 106.388 24.3625 106.67 24.0558C107.235 23.4251 107.717 22.7237 108.102 21.969C108.502 21.2189 108.864 20.4468 109.199 19.663C109.535 18.8819 109.846 18.077 110.108 17.2792C110.135 17.198 110.186 17.1272 110.255 17.0769C110.324 17.0267 110.408 16.9995 110.493 16.9992C110.578 16.9989 110.662 17.0256 110.731 17.0753C110.8 17.1251 110.852 17.1955 110.88 17.2766L110.885 17.2934C111.254 18.4106 111.661 19.5324 112.108 20.6202C112.341 21.1598 112.585 21.6927 112.859 22.201C113.1 22.6892 113.438 23.1234 113.851 23.4778L113.889 23.5051C113.921 23.5286 113.948 23.5587 113.968 23.5934C113.987 23.6282 113.999 23.6667 114.003 23.7065C114.071 24.4666 114.089 25.2199 114.084 25.9788C114.08 26.359 114.055 26.7386 114.01 27.1161C113.979 27.4996 113.884 27.8753 113.73 28.2277C113.726 28.2366 113.718 28.2436 113.709 28.2472C113.7 28.2509 113.69 28.251 113.68 28.2475C113.671 28.244 113.663 28.2372 113.659 28.2283C113.654 28.2195 113.653 28.2093 113.656 28.1997L113.657 28.1966C113.74 27.8383 113.773 27.4701 113.754 27.1027C113.745 26.7328 113.713 26.3634 113.683 25.9939C113.616 25.2561 113.504 24.5158 113.384 23.7899L113.536 24.0185C112.992 23.6479 112.541 23.1562 112.218 22.5821C111.896 22.0574 111.608 21.5125 111.356 20.9509C110.855 19.8421 110.436 18.6975 110.104 17.5267L110.881 17.541C110.573 18.3735 110.232 19.1699 109.858 19.9625C109.486 20.7563 109.057 21.5221 108.574 22.2538C108.097 22.9965 107.533 23.6793 106.894 24.2875C106.566 24.5928 106.194 24.8462 105.79 25.0393C105.375 25.2394 104.906 25.3003 104.453 25.2131C104.427 25.2078 104.404 25.1944 104.387 25.1748C104.369 25.1552 104.359 25.1306 104.357 25.1045L104.356 25.098C104.337 24.8022 104.281 24.51 104.189 24.2285C104.122 23.9645 103.967 23.7313 103.75 23.5675C103.357 23.3667 102.778 23.8443 102.523 24.2585C102.402 24.4826 102.34 24.7344 102.343 24.9895C102.347 25.2447 102.416 25.4946 102.544 25.7153C102.656 25.9377 102.817 26.1318 103.014 26.2831C103.09 26.341 103.178 26.3801 103.272 26.3974C103.298 26.4027 103.326 26.4023 103.352 26.396C103.378 26.3898 103.403 26.378 103.425 26.3613L103.456 26.3397C103.532 26.2866 103.626 26.2659 103.717 26.2822C103.808 26.2985 103.889 26.3505 103.942 26.4267C103.96 26.4527 103.975 26.4809 103.985 26.5105C104.164 27.0196 104.387 27.5346 104.609 28.0372C104.839 28.5392 105.088 29.0317 105.363 29.5066C105.633 29.9811 105.952 30.4261 106.314 30.8341C106.658 31.2576 107.134 31.5527 107.666 31.6717C107.671 31.6725 107.676 31.6743 107.68 31.6771C107.685 31.6798 107.689 31.6834 107.692 31.6877C107.695 31.692 107.697 31.6968 107.699 31.7019C107.7 31.707 107.7 31.7123 107.699 31.7175C107.698 31.7266 107.693 31.7349 107.686 31.741C107.679 31.7471 107.671 31.7508 107.662 31.7513Z" fill="#020202"/>
<path d="M105.699 30.3778C105.733 30.6582 105.762 30.9386 105.787 31.219C105.822 31.5106 105.82 31.8054 105.781 32.0965C105.691 32.6995 105.434 33.2649 105.038 33.7282C104.838 33.9623 104.606 34.1671 104.349 34.3366C104.222 34.4206 104.09 34.4972 103.954 34.5661L103.578 34.7543C103.074 35.0011 102.572 35.2521 102.059 35.4793C101.037 35.9429 99.976 36.319 98.9246 36.7118C98.3963 36.9028 97.8722 37.1021 97.3535 37.3143C96.8315 37.4962 96.3324 37.7387 95.8667 38.0369C94.9915 38.6987 94.2783 39.5516 93.781 40.5308C93.2524 41.4941 92.8037 42.4993 92.4393 43.5362C91.7337 45.6342 91.1714 47.7779 90.7565 49.9524L90.5123 49.6056C91.123 49.7632 91.7432 49.8815 92.3689 49.9599C92.6816 50 92.9965 50.02 93.3117 50.0197C93.6262 50.0243 93.9393 49.9764 94.2381 49.8779C94.243 49.876 94.2482 49.875 94.2535 49.8751C94.2587 49.8752 94.2639 49.8763 94.2687 49.8784C94.2736 49.8804 94.2779 49.8834 94.2816 49.8872C94.2852 49.891 94.2881 49.8955 94.2901 49.9004C94.2933 49.909 94.2935 49.9185 94.2907 49.9272C94.2879 49.936 94.2823 49.9436 94.2746 49.9488C93.9865 50.1185 93.668 50.2299 93.3371 50.2769C93.0111 50.3362 92.6806 50.367 92.3493 50.3691C92.02 50.376 91.6904 50.3657 91.3621 50.3381C91.0328 50.3116 90.7105 50.2787 90.3767 50.2211C90.3029 50.2084 90.2366 50.1683 90.1909 50.1089C90.1452 50.0495 90.1234 49.975 90.1299 49.9003L90.1323 49.8742C90.239 48.7422 90.4227 47.6188 90.6824 46.5119C90.9357 45.4018 91.2765 44.3136 91.7017 43.2575C92.1113 42.1869 92.6398 41.1658 93.2772 40.2137C93.9221 39.2563 94.7528 38.4389 95.7198 37.8104C96.2128 37.5293 96.7261 37.2856 97.2554 37.0814C97.7685 36.8586 98.2722 36.6138 98.7701 36.357C99.7703 35.8528 100.751 35.3101 101.762 34.8342C102.266 34.5917 102.778 34.3682 103.286 34.1354L103.668 33.963C103.785 33.9129 103.9 33.8559 104.011 33.7924C104.23 33.6653 104.431 33.5109 104.611 33.3329C104.981 32.9677 105.252 32.5139 105.398 32.0145C105.472 31.7552 105.516 31.4884 105.53 31.2191C105.556 30.9386 105.585 30.6582 105.619 30.3778C105.62 30.3681 105.625 30.3591 105.632 30.3526C105.64 30.3461 105.649 30.3425 105.659 30.3425C105.669 30.3425 105.678 30.3461 105.685 30.3526C105.693 30.3591 105.697 30.3681 105.699 30.3778L105.699 30.3778Z" fill="#020202"/>
<path d="M94.3365 52.1591C94.5609 52.9436 94.6804 53.7546 94.6921 54.5706C94.7349 55.3844 94.7412 56.199 94.711 57.0143C94.6866 57.8293 94.6336 58.6437 94.5389 59.4573C94.46 60.2845 94.3075 61.1031 94.0832 61.9031L93.7319 61.4371L98.7078 61.1592L103.686 60.923L108.664 60.7083C110.323 60.6291 111.983 60.5835 113.642 60.4372C112.829 60.6221 112.004 60.7548 111.18 60.8719C110.355 60.9971 109.529 61.0982 108.701 61.1897C107.046 61.3729 105.388 61.5196 103.728 61.6422C102.07 61.7736 100.409 61.86 98.748 61.9539C97.0864 62.0293 95.4257 62.1069 93.7618 62.1466L93.7564 62.1467C93.7097 62.1478 93.6634 62.1397 93.6199 62.1229C93.5764 62.106 93.5366 62.0808 93.5029 62.0485C93.4691 62.0163 93.4421 61.9777 93.4232 61.9349C93.4043 61.8922 93.3941 61.8462 93.393 61.7995C93.3921 61.7591 93.398 61.7189 93.4104 61.6805C93.6394 60.925 93.814 60.154 93.9329 59.3735C94.0624 58.583 94.1567 57.7835 94.2421 56.9829C94.3189 56.1815 94.3894 55.3777 94.4274 54.5718C94.4844 53.7666 94.454 52.9576 94.3365 52.1591Z" fill="#020202"/>
<path d="M114.498 61.9548C113.08 62.196 106.787 62.0663 103.531 61.981C103.531 61.981 110.494 56.1388 110.516 53.9471C110.516 53.9471 112.943 60.2063 113.642 60.4372L114.498 61.9548Z" fill="#020202"/>
<path d="M90.8067 49.9836C90.734 50.6078 90.6253 51.2214 90.5044 51.8314C90.3862 52.4423 90.2477 53.0472 90.1021 53.6501C89.9558 54.2527 89.798 54.852 89.6287 55.448C89.4704 56.0471 89.276 56.6357 89.1002 57.2298L89.0967 57.2417C89.0884 57.2692 89.0764 57.2954 89.061 57.3197C88.6416 57.974 88.2138 58.6233 87.7654 59.2602C87.3121 59.8942 86.8498 60.5227 86.3398 61.1226C86.628 60.3893 86.9638 59.6847 87.3088 58.9856C87.6584 58.2893 88.0288 57.6055 88.4075 56.9267L88.3684 57.0165C88.538 56.4206 88.6889 55.8193 88.8761 55.2286C89.051 54.6343 89.2386 54.0436 89.4388 53.4567C89.6386 52.8697 89.8456 52.2847 90.0727 51.7056C90.2972 51.1257 90.5338 50.5494 90.8067 49.9836Z" fill="#020202"/>
<path d="M94.0445 59.9946C94.153 60.2144 94.2137 60.4547 94.2224 60.6998C94.2311 60.9448 94.1877 61.1889 94.095 61.4158C94.0666 61.4995 94.0209 61.5763 93.9609 61.6411C93.9009 61.7059 93.8279 61.7572 93.7468 61.7919C93.7798 61.6445 93.7953 61.4938 93.7931 61.3428C93.795 61.196 93.8062 61.0499 93.8183 60.9019C93.8412 60.5887 93.9177 60.2818 94.0445 59.9946Z" fill="#020202"/>
<path d="M102.005 61.9549C102.912 61.5933 103.775 61.1294 104.577 60.5721C105.368 60.0253 106.111 59.4135 106.8 58.7431C107.14 58.4037 107.484 58.067 107.794 57.6958C108.134 57.3507 108.415 56.956 108.732 56.586C108.895 56.404 109.027 56.1993 109.176 56.0052L109.621 55.4187C109.909 55.0195 110.18 54.6073 110.494 54.2117C110.338 54.6862 110.156 55.1543 109.958 55.6169C109.726 56.0593 109.517 56.5221 109.241 56.9435C108.708 57.8069 108.075 58.6033 107.353 59.3157C106.621 60.0241 105.793 60.6263 104.894 61.1051C104.005 61.5973 103.019 61.8874 102.005 61.9549Z" fill="#020202"/>
<path d="M98.0131 36.6803C98.3944 34.443 98.8611 32.23 99.336 30.0226L100.051 26.7187C100.173 26.1701 100.298 25.623 100.388 25.0774C100.429 24.8082 100.447 24.5545 100.48 24.2415C100.519 23.9532 100.574 23.6673 100.644 23.3851C100.924 22.2759 101.303 21.1945 101.778 20.1542C102.016 19.6335 102.291 19.13 102.599 18.6475C102.904 18.1548 103.261 17.6964 103.663 17.2803C104.483 16.3909 105.602 15.8356 106.804 15.7206C107.106 15.6976 107.409 15.6991 107.711 15.7251C108.009 15.7593 108.305 15.8148 108.595 15.8911C109.168 16.0433 109.724 16.2562 110.253 16.526L109.979 16.4897C110.602 16.3622 111.244 16.3522 111.871 16.4601C112.511 16.5658 113.115 16.8277 113.63 17.2227C113.886 17.4232 114.119 17.6526 114.323 17.9063C114.415 18.038 114.497 18.1761 114.583 18.3113C114.674 18.4416 114.75 18.5823 114.809 18.7305C114.944 19.0128 115.048 19.3089 115.12 19.6136C115.203 19.9092 115.26 20.2113 115.292 20.5166C115.314 20.8187 115.364 21.1204 115.361 21.4209L115.336 22.3196C115.307 22.9081 115.244 23.4672 115.231 24.0458C115.211 24.6185 115.22 25.1919 115.26 25.7636C115.256 26.3301 115.413 26.886 115.71 27.3676L115.714 27.3726C115.72 27.3804 115.723 27.39 115.722 27.3998C115.721 27.4095 115.717 27.4186 115.71 27.4254C115.703 27.4322 115.694 27.4361 115.684 27.4364C115.674 27.4368 115.665 27.4335 115.657 27.4272C115.438 27.2171 115.274 26.9561 115.179 26.6673C115.083 26.3862 115.006 26.0988 114.948 25.8073C114.84 25.2277 114.772 24.6413 114.745 24.0522C114.706 23.4696 114.707 22.8681 114.703 22.2966L114.671 21.4537C114.654 21.1745 114.597 20.902 114.564 20.6269C114.524 20.3561 114.46 20.0894 114.373 19.8298C114.299 19.5729 114.201 19.3234 114.081 19.0845C114.032 18.9632 113.966 18.849 113.887 18.7449C113.814 18.6379 113.746 18.5268 113.671 18.4224C113.505 18.2294 113.318 18.0553 113.114 17.9031C112.707 17.587 112.227 17.3776 111.718 17.294C111.203 17.1936 110.673 17.1843 110.155 17.2666L110.13 17.2708C110.045 17.2855 109.957 17.2712 109.881 17.2303C108.96 16.6879 107.912 16.4003 106.844 16.3968C105.77 16.439 104.746 16.8613 103.953 17.5886C103.128 18.337 102.464 19.2458 102.001 20.2596C101.515 21.2705 101.183 22.3483 101.014 23.4575C100.971 23.7296 100.944 24.0039 100.932 24.279C100.927 24.53 100.933 24.8429 100.913 25.1358C100.865 25.713 100.8 26.2818 100.706 26.8435C100.529 27.9695 100.27 29.0748 100.003 30.1763C99.4613 32.3778 98.8409 34.5573 98.0901 36.7005C98.0868 36.71 98.08 36.7178 98.0712 36.7225C98.0623 36.7273 98.052 36.7285 98.0424 36.7259C98.0327 36.7234 98.0243 36.7173 98.0188 36.7088C98.0134 36.7004 98.0114 36.6902 98.0131 36.6803L98.0131 36.6803Z" fill="#020202"/>
<path d="M83.8695 62.5238C83.9841 62.2629 84.1404 62.0225 84.3323 61.812C84.5282 61.5945 84.7549 61.407 85.0053 61.2557C85.5172 60.9567 86.0927 60.7841 86.6842 60.7521L86.655 60.7544C87.0597 60.7102 87.4682 60.716 87.8715 60.7717C88.2703 60.8261 88.6608 60.9298 89.034 61.0807C89.4075 61.2332 89.7543 61.4443 90.0615 61.7062C90.3644 61.9619 90.6115 62.2774 90.7874 62.6329C90.4833 62.4179 90.1611 62.2298 89.8244 62.0708C89.5024 61.9219 89.166 61.8064 88.8205 61.7261C88.1411 61.5636 87.4425 61.4966 86.7447 61.5273L86.7154 61.5296C86.2161 61.5296 85.7199 61.6078 85.2448 61.7616C85.002 61.8432 84.7674 61.9474 84.544 62.073C84.3094 62.2081 84.0841 62.3587 83.8695 62.5238Z" fill="#020202"/>
<path d="M90.8066 65.3354C88.4267 71.0655 84.7393 68.8049 84.7393 68.8049C84.7393 68.8049 86.3945 67.8054 86.679 63.0109C86.679 63.0109 87.3978 61.9567 88.3256 63.0109C89.1009 63.8394 89.9297 64.6159 90.8066 65.3354Z" fill="white"/>
<path d="M90.8407 65.3268C90.7588 65.6212 90.6568 65.9619 90.5332 66.312C90.3961 66.6397 90.2398 66.9332 90.0819 67.2433C89.9933 67.3912 89.8909 67.5318 89.7918 67.6743C89.6976 67.8215 89.5918 67.9608 89.4754 68.091L89.11 68.4736C88.9784 68.5938 88.8398 68.7063 88.6951 68.8104C88.1104 69.2383 87.4003 69.4591 86.6766 69.4378C85.9793 69.4147 85.2969 69.2294 84.6833 68.8967C84.668 68.8886 84.655 68.8768 84.6454 68.8623C84.6359 68.8478 84.6302 68.8312 84.6288 68.8139C84.6275 68.7966 84.6305 68.7793 84.6376 68.7635C84.6447 68.7477 84.6556 68.7339 84.6695 68.7235L84.6839 68.7128C85.0624 68.3842 85.3483 67.9618 85.513 67.4879C85.6983 67.0144 85.8389 66.5246 85.9327 66.0248C85.9926 65.7787 86.0255 65.5241 86.0775 65.2762C86.1134 65.0234 86.1531 64.7719 86.1833 64.5186C86.2059 64.2636 86.2348 64.0101 86.2525 63.755C86.2624 63.4987 86.2859 63.2439 86.3047 62.9886L86.3063 62.9668C86.3107 62.9058 86.3326 62.8475 86.3695 62.7988C86.5407 62.5511 86.7829 62.3612 87.0642 62.2545C87.2148 62.1983 87.3754 62.1741 87.5358 62.1833C87.6962 62.1925 87.853 62.235 87.9961 62.3081C88.2331 62.4385 88.4402 62.6172 88.6041 62.8326C88.7419 62.9991 88.8823 63.1665 89.0269 63.3323C89.3174 63.6625 89.6174 63.9901 89.9199 64.3176L90.3735 64.8117C90.5301 64.9852 90.6672 65.121 90.8407 65.3268ZM90.7726 65.3439C90.5799 65.2395 90.3942 65.1225 90.2168 64.9937C90.0295 64.8678 89.8451 64.7377 89.6656 64.6013C89.3041 64.3312 88.9521 64.0473 88.6143 63.7421C88.4434 63.5918 88.2779 63.4335 88.1176 63.2671C87.9985 63.135 87.8552 63.0271 87.6954 62.9493C87.6385 62.9215 87.5761 62.9068 87.5129 62.9062C87.4496 62.9055 87.387 62.919 87.3295 62.9456C87.1962 63.0107 87.0795 63.1056 86.9885 63.2229L87.0533 63.0332C87.0304 63.298 87.0121 63.5633 86.9802 63.8271C86.9464 64.0911 86.901 64.3543 86.8619 64.6174C86.8151 64.88 86.7583 65.1415 86.7052 65.4027C86.6345 65.6617 86.5775 65.9224 86.4877 66.1763C86.3201 66.6878 86.099 67.1802 85.828 67.6451C85.5687 68.1262 85.2176 68.5516 84.7948 68.8971L84.7953 68.7132C85.0776 68.8676 85.3834 68.974 85.7003 69.0284C85.8587 69.0543 86.0191 69.0657 86.1796 69.0625C86.3379 69.0657 86.4962 69.0531 86.6521 69.0251C87.2595 68.9129 87.8334 68.6632 88.3299 68.2951C88.8387 67.9194 89.2907 67.4723 89.6723 66.9675C89.8495 66.701 90.0565 66.433 90.2312 66.1717L90.7726 65.3439Z" fill="#020202"/>
<path d="M88.7344 57.1232C88.9314 57.0038 89.148 56.9204 89.3741 56.8769C89.5952 56.8295 89.8208 56.8058 90.047 56.8062C90.5038 56.8 90.9548 56.909 91.3585 57.1232C91.1379 57.1627 90.9147 57.1858 90.6907 57.1922C90.4736 57.2026 90.2593 57.2039 90.0451 57.2048C89.6069 57.2067 89.169 57.1794 88.7344 57.1232Z" fill="#020202"/>
<path d="M71.1648 77.7769C70.8141 77.865 70.4838 78.0207 70.1924 78.2352C69.8954 78.4435 69.6169 78.6773 69.36 78.9337C68.8436 79.4487 68.3679 80.0031 67.9371 80.5919C67.0793 81.7778 66.2859 83.0092 65.5603 84.2806C64.0886 86.816 62.8049 89.4585 61.5387 92.1057C60.282 94.7587 59.0952 97.446 57.9522 100.152C56.806 102.855 55.6665 105.566 54.5989 108.299L54.5382 107.967C55.5274 109.088 56.5792 110.175 57.6613 111.219C58.7409 112.266 59.8772 113.252 61.0652 114.174C62.2283 115.116 63.5262 115.878 64.9154 116.434C65.5951 116.706 66.3355 116.791 67.059 116.678C67.4103 116.602 67.7396 116.446 68.022 116.223C68.3043 116 68.5322 115.716 68.6883 115.391L68.6896 115.389C68.6983 115.372 68.711 115.357 68.7265 115.346C68.742 115.335 68.76 115.327 68.7789 115.325C69.469 115.232 70.169 115.241 70.8566 115.351C71.5458 115.454 72.2121 115.674 72.8267 116.003C73.1344 116.168 73.4263 116.361 73.6988 116.579C73.9663 116.804 74.2122 117.054 74.4331 117.324C74.6578 117.592 74.8576 117.879 75.0298 118.183C75.2086 118.482 75.3305 118.81 75.483 119.123L75.3736 119.032C76.8655 119.17 78.3701 119.025 79.8085 118.605C81.253 118.2 82.6383 117.608 83.9293 116.843L84.8786 116.24C85.1983 116.045 85.4832 115.797 85.7871 115.578C86.3868 115.128 86.9617 114.646 87.5092 114.133C87.7988 113.895 88.0475 113.611 88.312 113.346L89.0966 112.539C89.5877 111.97 90.0617 111.387 90.5451 110.813L90.4762 111.062L88.8931 99.1919L88.114 93.2554L87.3662 87.3148C87.3585 87.2528 87.3649 87.1899 87.385 87.1307C87.4051 87.0716 87.4384 87.0178 87.4823 86.9735C87.5262 86.9292 87.5796 86.8954 87.6384 86.8748C87.6972 86.8542 87.76 86.8472 87.8219 86.8545L87.8273 86.8552C90.652 87.186 93.4926 87.3624 96.3365 87.3839C99.1806 87.4314 102.024 87.26 104.842 86.8714C107.641 86.4514 110.447 85.8055 112.962 84.497C114.225 83.8601 115.363 82.9985 116.319 81.9542C117.267 80.8891 117.933 79.6025 118.256 78.2125C118.259 78.2023 118.265 78.1935 118.274 78.1879C118.282 78.1823 118.293 78.1804 118.303 78.1826C118.313 78.1847 118.322 78.1908 118.328 78.1995C118.334 78.2082 118.336 78.2188 118.334 78.229C118.06 79.6574 117.432 80.9941 116.509 82.1165C115.573 83.2328 114.434 84.1607 113.153 84.8508C111.882 85.5461 110.541 86.1043 109.153 86.5162C107.771 86.9357 106.363 87.2598 104.937 87.4864C102.091 87.928 99.2153 88.15 96.3352 88.1505C94.8971 88.1636 93.4592 88.1226 92.0239 88.0405C90.5865 87.9578 89.1595 87.846 87.7188 87.67L88.1797 87.2105L88.9488 93.1483L89.6865 99.0902L91.1372 110.977L91.1393 110.994C91.1442 111.036 91.1405 111.078 91.1283 111.118C91.116 111.158 91.0956 111.195 91.0682 111.226C90.5644 111.807 90.0702 112.395 89.5586 112.967L88.7418 113.78C88.4768 114.058 88.1976 114.323 87.9053 114.572C87.331 115.083 86.7295 115.563 86.1034 116.009C85.7862 116.226 85.4886 116.471 85.1555 116.664L84.1669 117.257C82.8243 118.008 81.391 118.583 79.902 118.967C78.4095 119.362 76.8577 119.481 75.3227 119.318C75.3013 119.315 75.2809 119.307 75.2634 119.295C75.2459 119.282 75.2318 119.265 75.2223 119.246L75.2131 119.227C75.0683 118.927 74.9542 118.609 74.7854 118.322C74.6234 118.031 74.4351 117.755 74.2227 117.499C74.0147 117.239 73.7829 117 73.5303 116.784C73.2725 116.574 72.996 116.388 72.7043 116.229C72.1173 115.909 71.4796 115.693 70.8193 115.589C70.159 115.486 69.4872 115.483 68.8259 115.579L68.9164 115.513L68.6008 116.011C68.4633 116.153 68.3381 116.31 68.1875 116.439C67.8781 116.695 67.5116 116.872 67.1193 116.955C66.3449 117.087 65.5493 117.007 64.8164 116.724C63.3863 116.178 62.0408 115.431 60.8203 114.505C59.5935 113.606 58.4177 112.639 57.2984 111.608C56.1763 110.581 55.0945 109.52 54.0532 108.399C54.0133 108.356 53.9862 108.303 53.975 108.246C53.9638 108.188 53.9689 108.128 53.9897 108.074L53.9924 108.067C55.0447 105.311 56.1392 102.579 57.3049 99.8734C58.4788 97.1719 59.6965 94.489 60.9852 91.8387C62.2722 89.1879 63.6639 86.5846 65.1982 84.0635C65.9605 82.7971 66.8031 81.5812 67.7209 80.4231C68.1818 79.8423 68.687 79.2983 69.232 78.7959C69.5054 78.5431 69.8022 78.3169 70.1184 78.1205C70.4318 77.9142 70.7822 77.7708 71.1502 77.6985C71.1604 77.6968 71.1709 77.6993 71.1794 77.7052C71.1879 77.7112 71.1938 77.7203 71.1957 77.7305C71.1976 77.7408 71.1955 77.7513 71.1897 77.76C71.1839 77.7687 71.175 77.7747 71.1649 77.7769L71.1648 77.7769Z" fill="#020202"/>
<path d="M126.91 38.685C127.494 38.4898 128.106 38.3937 128.721 38.4007C129.35 38.3982 129.974 38.5152 130.559 38.7456C131.152 38.9968 131.68 39.3795 132.105 39.865C132.522 40.3534 132.849 40.9124 133.07 41.5157C133.488 42.7049 133.687 43.9598 133.659 45.2199C133.634 46.4522 133.533 47.6818 133.356 48.9015C133.039 51.3213 132.657 53.7348 132.141 56.1227C131.66 58.5191 130.977 60.8703 130.1 63.1511C130.407 61.9716 130.671 60.7847 130.889 59.5904C131.123 58.3989 131.33 57.2028 131.531 56.0064C131.919 53.6109 132.265 51.2089 132.567 48.8003C132.749 47.6122 132.863 46.4146 132.908 45.2134C132.963 44.0352 132.821 42.8561 132.488 41.7249C132.331 41.1697 132.065 40.6515 131.706 40.2006C131.347 39.7496 130.902 39.375 130.396 39.0986C129.31 38.5857 128.086 38.4405 126.91 38.685Z" fill="#020202"/>
<path d="M88.1013 89.706C90.6289 90.2236 93.1526 90.7021 95.6838 91.1222L99.4848 91.7178C100.752 91.9217 102.025 92.0903 103.304 92.2236C104.584 92.3393 105.87 92.3758 107.154 92.3327C108.436 92.2803 109.712 92.1413 110.975 91.9165C112.228 91.6985 113.464 91.3864 114.67 90.9829C115.867 90.5964 117.011 90.0625 118.076 89.3935L118.09 89.3851L118.142 89.3597C118.631 89.1069 119.089 88.7987 119.508 88.4413C119.946 88.0728 120.361 87.6785 120.752 87.2606C121.532 86.4014 122.226 85.4685 122.826 84.4749C123.438 83.4745 123.989 82.4376 124.475 81.3698L125.163 79.7378C125.369 79.1837 125.57 78.6266 125.788 78.072L125.789 78.0701C125.792 78.0608 125.8 78.0531 125.809 78.0488C125.818 78.0444 125.828 78.0436 125.838 78.0466C125.847 78.0495 125.855 78.056 125.86 78.0647C125.865 78.0734 125.867 78.0837 125.865 78.0935C125.734 78.674 125.588 79.252 125.446 79.833C125.279 80.4059 125.094 80.975 124.905 81.5433C124.507 82.6787 124.017 83.7798 123.441 84.8357C122.865 85.9063 122.171 86.9082 121.37 87.8224C121.162 88.0459 120.955 88.2715 120.738 88.4883C120.508 88.6923 120.293 88.9116 120.046 89.0999C119.564 89.5159 119.027 89.8621 118.449 90.1285L118.515 90.0948C116.224 91.4067 113.672 92.1927 111.042 92.3959C108.461 92.6006 105.871 92.6538 103.285 92.5555C101.992 92.5305 100.699 92.4647 99.4066 92.3583C98.1166 92.241 96.8353 92.0449 95.5641 91.803C93.0171 91.3392 90.5133 90.6633 88.0785 89.7823C88.0685 89.7786 88.0605 89.7712 88.0561 89.7615C88.0517 89.7519 88.0512 89.7409 88.0549 89.731C88.0585 89.722 88.0651 89.7146 88.0736 89.71C88.0821 89.7054 88.0919 89.704 88.1013 89.706Z" fill="#020202"/>
<path d="M90.0464 61.9548C92.0996 61.7898 94.1528 61.7035 96.2059 61.6448C98.2591 61.5812 100.312 61.5642 102.365 61.5563C104.419 61.5632 106.472 61.5802 108.525 61.6436C110.578 61.7021 112.631 61.7888 114.684 61.9548C112.631 62.1209 110.578 62.2076 108.525 62.266C106.472 62.3294 104.419 62.3464 102.365 62.3534C100.312 62.3454 98.2591 62.3285 96.2059 62.2648C94.1528 62.2062 92.0996 62.1199 90.0464 61.9548Z" fill="#020202"/>
<path d="M123.326 63.1503L122.294 63.1327C121.485 63.8333 120.484 64.2714 119.421 64.389C118.725 64.4489 118.025 64.3582 117.367 64.1233C116.709 63.8883 116.109 63.5145 115.608 63.0271L90.7874 62.633C91.3593 63.3527 91.7019 64.2282 91.7707 65.1457C91.7707 65.1457 91.3598 66.7574 88.1748 62.8265C88.1748 62.8265 86.907 62.3233 86.6402 63.0905C86.3768 63.8612 86.612 69.9458 82.7177 69.1505C82.7177 69.1505 82.0646 64.8149 83.8695 62.5239L80.6554 62.4726V62.9558C80.6554 63.2469 80.5982 63.535 80.4871 63.8039C80.3759 64.0728 80.213 64.3171 80.0077 64.5229C79.8023 64.7287 79.5585 64.8919 79.2903 65.0033C79.0219 65.1147 78.7344 65.172 78.444 65.172H63.0756L63.2106 67.5317C63.2106 67.3768 63.2176 67.2888 63.2176 67.2888H69.5105L64.5555 72.2825H56.844C56.1651 72.282 55.5137 72.0137 55.0307 71.5356C54.5476 71.0574 54.2718 70.408 54.263 69.7276L54.2067 65.172H38.9929C38.7025 65.172 38.415 65.1147 38.1467 65.0033C37.8784 64.8919 37.6346 64.7287 37.4292 64.5229C37.2239 64.3171 37.061 64.0728 36.9499 63.8039C36.8387 63.5351 36.7815 63.2469 36.7815 62.9558V61.7919H30.7597L8.29227 75.207C19.1046 75.112 29.9169 75.0604 40.7291 75.0522C51.545 75.0135 62.3573 75.0522 73.1696 75.0662C83.9819 75.0697 94.7942 75.1437 105.61 75.2L121.827 75.302L137.987 75.4533L143.17 72.3881L148.417 69.3053L158.92 63.1503L123.326 63.1503ZM111.32 70.7165L86.296 70.537L87.7744 68.9816L90.7031 65.575H115.27L111.32 70.7165Z" fill="black"/>
<path d="M63.0772 65.1175C64.6272 65.0637 66.1773 65.0269 67.7274 64.9908C69.2776 64.9541 70.8277 64.9116 72.3778 64.8934L77.0281 64.8218L78.1907 64.8039C78.2848 64.8016 78.3906 64.8028 78.4751 64.7976C78.5559 64.7948 78.6363 64.7863 78.7158 64.7723C78.8744 64.7466 79.0288 64.6998 79.175 64.6333C79.4651 64.4998 79.7156 64.2929 79.9019 64.033C80.0881 63.7732 80.2037 63.4692 80.2373 63.151L80.1899 53.8742C80.1752 50.7673 80.1845 47.6605 80.2179 44.5536L80.3631 35.233L80.4399 30.5727C80.459 30.3061 80.4253 30.0384 80.3404 29.785C80.2556 29.5317 80.1215 29.2977 79.9458 29.0966C79.7701 28.8956 79.5563 28.7315 79.3169 28.6138C79.0774 28.4962 78.8171 28.4273 78.5509 28.4112C78.1823 28.3958 77.7811 28.4 77.3977 28.3972C71.1973 28.3662 64.9969 28.4244 58.7965 28.515C52.596 28.6165 46.3956 28.6856 40.1952 28.7225L39.0327 28.7293C38.7293 28.727 38.4306 28.8038 38.1658 28.9521C37.9063 29.1002 37.6903 29.314 37.5392 29.5722C37.3882 29.8303 37.3076 30.1237 37.3054 30.423L37.3311 35.0781L37.3439 44.3987L37.2897 53.7193L37.1978 63.0245C37.2068 63.3441 37.2993 63.6558 37.4662 63.9284C37.633 64.2009 37.8682 64.4249 38.1485 64.5778C38.4384 64.7344 38.764 64.8128 39.0932 64.8054L40.2558 64.825L44.9061 64.9032C48.0064 64.9585 51.1066 65.03 54.2067 65.1175C54.2205 65.1178 54.2335 65.1236 54.2431 65.1334C54.2526 65.1433 54.258 65.1565 54.258 65.1702C54.258 65.184 54.2526 65.1972 54.2431 65.2071C54.2335 65.2169 54.2205 65.2227 54.2067 65.223C51.1065 65.3108 48.0063 65.3822 44.9061 65.4373L40.2558 65.5155L39.0932 65.5351C38.6438 65.5546 38.1968 65.4598 37.7938 65.2594C37.3833 65.0513 37.0355 64.7374 36.7861 64.3501C36.5367 63.9627 36.3947 63.5157 36.3747 63.0551L36.2745 53.7193L36.2202 44.3987L36.2331 35.0781L36.261 30.4128C36.2693 29.9314 36.4039 29.4607 36.6512 29.048C36.8986 28.6352 37.2499 28.295 37.67 28.0614C38.0877 27.8332 38.557 27.7166 39.0327 27.7228L40.1952 27.7295C46.3956 27.7603 52.596 27.8295 58.7965 27.937C64.9969 28.0276 71.1973 28.0858 77.3977 28.0548C77.7894 28.0572 78.1637 28.0445 78.5695 28.0525C78.9915 28.0694 79.4014 28.1986 79.757 28.427C80.1141 28.6564 80.4045 28.9761 80.5991 29.3538C80.6964 29.5428 80.769 29.7435 80.8152 29.951C80.854 30.1559 80.8733 30.3641 80.8729 30.5727L80.9496 35.233L81.0948 44.5536C81.1262 47.6604 81.1356 50.7673 81.1229 53.8742L81.1038 58.5345L81.0849 60.8647L81.0748 62.0297L81.0697 62.6123L81.0671 62.9036C81.0664 62.9989 81.0579 63.1278 81.0493 63.2378C80.9961 63.6954 80.8231 64.1309 80.5476 64.4998C80.2722 64.8687 79.9041 65.1579 79.481 65.338C79.2712 65.4258 79.0507 65.4852 78.8252 65.5149C78.7133 65.5307 78.6005 65.5388 78.4875 65.5392C78.3784 65.5415 78.2903 65.5373 78.1907 65.5366L77.0281 65.5187L72.3778 65.4471C70.8277 65.429 69.2776 65.3865 67.7274 65.3497C66.1773 65.3137 64.6272 65.2768 63.0772 65.2231C63.0635 65.2226 63.0506 65.2169 63.0411 65.207C63.0316 65.1972 63.0263 65.184 63.0263 65.1703C63.0263 65.1566 63.0316 65.1434 63.0411 65.1336C63.0506 65.1237 63.0635 65.118 63.0772 65.1175V65.1175Z" fill="#020202"/>
<path d="M62.5192 45.967C62.5299 47.1136 62.1445 48.2285 61.4285 49.1229C61.0435 49.5788 60.5597 49.9406 60.0139 50.1806C59.4681 50.4207 58.8749 50.5326 58.2794 50.508C57.1075 50.4312 56.0107 49.9033 55.2183 49.0347C54.4202 48.2038 53.9398 47.1177 53.8616 45.967C53.8211 45.3738 53.9054 44.7786 54.1093 44.2202C54.3132 43.6618 54.6319 43.1525 55.0449 42.7256C55.4623 42.2889 55.9613 41.9387 56.5134 41.6947C57.0691 41.451 57.67 41.3276 58.2766 41.3327C58.8831 41.3377 59.4818 41.471 60.0335 41.7239C60.5763 41.9732 61.0554 42.3429 61.4345 42.8052C62.1523 43.7005 62.536 44.8187 62.5192 45.967ZM62.4396 45.967C62.4353 45.4216 62.3051 44.8846 62.0592 44.398C61.8155 43.9261 61.4766 43.5101 61.0641 43.1764C60.2778 42.5336 59.2941 42.1828 58.2794 42.1833C57.2752 42.1873 56.3093 42.5703 55.5743 43.256C54.8309 43.9719 54.3764 44.9369 54.2973 45.967C54.2624 46.4968 54.3397 47.028 54.5242 47.5258C54.7144 48.0276 55.0139 48.4806 55.4008 48.8518C55.7887 49.2038 56.2438 49.4732 56.7386 49.6438C57.2334 49.8144 57.7576 49.8825 58.2794 49.8441C59.301 49.7926 60.2792 49.4138 61.07 48.7636C61.4829 48.4288 61.8218 48.0116 62.0652 47.5385C62.3107 47.0511 62.439 46.5129 62.4396 45.967Z" fill="#020202"/>
<path d="M77.4713 61.9538C76.2554 62.0942 75.0397 62.1651 73.8242 62.2115C72.6087 62.2624 71.3932 62.2721 70.1779 62.2738C68.9626 62.2624 67.7474 62.2421 66.5323 62.1809C65.3172 62.1241 64.1022 62.0422 62.8875 61.8905C64.1035 61.7492 65.3191 61.678 66.5347 61.6317C67.7502 61.581 68.9656 61.5713 70.181 61.5704C71.3962 61.5827 72.6115 61.603 73.8266 61.6644C75.0416 61.7214 76.2566 61.8029 77.4713 61.9538Z" fill="#020202"/>
<path d="M54.1646 61.8517C52.9809 61.9923 51.7974 62.0635 50.6141 62.1103C49.4307 62.1615 48.2475 62.1715 47.0644 62.1735C45.8813 62.1624 44.6982 62.1424 43.5153 62.0814C42.3324 62.0249 41.1497 61.9434 39.9671 61.7919C41.1509 61.6504 42.3344 61.5788 43.5176 61.5322C44.701 61.4813 45.8842 61.4713 47.0674 61.4701C48.2505 61.4821 49.4335 61.5021 50.6164 61.5632C51.7993 61.6199 52.9821 61.7011 54.1646 61.8517Z" fill="#020202"/>
<path d="M68.8024 115.452C69.2519 113.431 69.7951 111.437 70.376 109.454C70.9535 107.471 71.5888 105.505 72.2551 103.549C72.9371 101.598 73.6447 99.6547 74.4521 97.7476C74.8518 96.7927 75.2769 95.8472 75.7409 94.9187C75.9815 94.4582 76.2205 93.997 76.4948 93.5537C76.7432 93.0938 77.0741 92.6837 77.471 92.3442C77.2944 92.5301 77.1457 92.7408 77.0296 92.9695C76.9057 93.1935 76.7929 93.4228 76.6894 93.658C76.4773 94.1243 76.2834 94.6002 76.0976 95.0788C75.7218 96.0349 75.3785 97.0049 75.031 97.973L74.0143 100.888L73.0069 103.809C72.3276 105.754 71.6617 107.705 70.9644 109.646C70.273 111.589 69.5665 113.528 68.8024 115.452Z" fill="#020202"/>
<path d="M75.348 119.175C75.1127 117.458 74.9557 115.738 74.8264 114.017C74.6921 112.296 74.6043 110.574 74.5254 108.851C74.4616 107.127 74.4076 105.403 74.3999 103.677C74.3873 101.951 74.4029 100.224 74.4976 98.4934C74.734 100.21 74.8914 101.93 75.0205 103.651C75.1546 105.372 75.2424 107.095 75.3201 108.818C75.3831 110.542 75.4371 112.266 75.4445 113.992C75.4569 115.718 75.4417 117.445 75.348 119.175Z" fill="#020202"/>
<path d="M108.847 25.5079C109.002 25.5026 109.148 25.4373 109.256 25.3257C109.364 25.2141 109.424 25.0649 109.424 24.9097C109.424 24.7545 109.364 24.6054 109.256 24.4938C109.148 24.3822 109.002 24.3168 108.847 24.3115C108.692 24.3168 108.545 24.3822 108.438 24.4938C108.33 24.6054 108.27 24.7545 108.27 24.9097C108.27 25.0649 108.33 25.2141 108.438 25.3257C108.545 25.4373 108.692 25.5026 108.847 25.5079Z" fill="#020202"/>
<path d="M112.393 25.5079C112.547 25.5026 112.694 25.4373 112.802 25.3257C112.909 25.2141 112.969 25.0649 112.969 24.9097C112.969 24.7545 112.909 24.6054 112.802 24.4938C112.694 24.3822 112.547 24.3168 112.393 24.3115C112.238 24.3168 112.091 24.3822 111.983 24.4938C111.876 24.6054 111.816 24.7545 111.816 24.9097C111.816 25.0649 111.876 25.2141 111.983 25.3257C112.091 25.4373 112.238 25.5026 112.393 25.5079Z" fill="#020202"/>
<path d="M113.431 23.5458C113.248 23.5753 113.063 23.5951 112.877 23.6049C112.709 23.6189 112.552 23.6192 112.394 23.6227C112.237 23.6248 112.08 23.6194 111.912 23.6105C111.724 23.6042 111.538 23.5826 111.354 23.5458C111.465 23.3727 111.625 23.2364 111.813 23.1542C111.995 23.0696 112.192 23.0254 112.392 23.0247C112.592 23.0239 112.79 23.0666 112.972 23.1497C113.164 23.2291 113.324 23.368 113.431 23.5458Z" fill="#020202"/>
<path d="M109.312 23.5458C109.157 23.5922 108.999 23.6249 108.838 23.6434C108.704 23.6614 108.569 23.6704 108.434 23.6704C108.3 23.6702 108.166 23.6613 108.033 23.6438C107.872 23.6265 107.712 23.5937 107.557 23.5458C107.643 23.3873 107.778 23.261 107.942 23.1859C108.095 23.1084 108.265 23.0694 108.436 23.0724C108.606 23.0712 108.775 23.1105 108.927 23.187C109.091 23.2609 109.227 23.387 109.312 23.5458Z" fill="#020202"/>
<path d="M111.819 26.2018C111.819 26.297 111.8 26.3912 111.762 26.4785C111.724 26.5658 111.668 26.6443 111.599 26.709C111.46 26.8445 111.286 26.9382 111.097 26.9795C110.916 27.018 110.728 27.0166 110.547 26.9755C110.37 26.9351 110.205 26.8546 110.065 26.7402C110.23 26.7042 110.398 26.679 110.567 26.6649C110.722 26.6369 110.872 26.6298 111.01 26.5906C111.308 26.5321 111.587 26.3982 111.819 26.2018Z" fill="#020202"/>
<path d="M109.547 28.6254C109.584 28.5377 109.639 28.4587 109.708 28.3933C109.777 28.3278 109.858 28.2774 109.948 28.2451C110.128 28.1747 110.325 28.1565 110.515 28.1927C110.697 28.2284 110.869 28.3032 111.02 28.412C111.166 28.5184 111.287 28.6572 111.372 28.8177C111.205 28.7859 111.041 28.7432 110.88 28.69C110.726 28.655 110.586 28.6028 110.444 28.5848C110.146 28.5217 109.837 28.5357 109.547 28.6254Z" fill="#020202"/>
<path d="M110.459 23.2792C110.614 23.2738 110.761 23.2085 110.868 23.0969C110.976 22.9853 111.036 22.8362 111.036 22.681C111.036 22.5258 110.976 22.3766 110.868 22.265C110.761 22.1534 110.614 22.0881 110.459 22.0828C110.305 22.0881 110.158 22.1534 110.05 22.265C109.943 22.3766 109.882 22.5258 109.882 22.681C109.882 22.8362 109.943 22.9853 110.05 23.0969C110.158 23.2085 110.305 23.2738 110.459 23.2792Z" fill="#B21919"/>
<path d="M100.783 92.1883V121.159C100.783 121.159 106.8 123.546 110.494 121.159V92.1883" fill="#020202"/>
<path d="M119.39 121.305C119.376 121.454 119.332 121.598 119.26 121.728C119.189 121.859 119.091 121.973 118.974 122.065C118.747 122.257 118.497 122.42 118.23 122.55C117.696 122.812 117.14 123.024 116.569 123.184C115.427 123.512 114.265 123.762 113.09 123.933C110.739 124.288 108.367 124.485 105.99 124.521C103.607 124.575 101.222 124.462 98.8546 124.184C97.6618 124.039 96.4808 123.809 95.3206 123.496C94.7276 123.335 94.1508 123.119 93.5973 122.852C93.3034 122.71 93.0282 122.533 92.778 122.323C92.612 122.21 92.476 122.059 92.382 121.881C92.2879 121.704 92.2388 121.506 92.2387 121.305C92.2387 121.104 92.2878 120.906 92.3817 120.729C92.4757 120.552 92.6116 120.4 92.7776 120.287C93.0278 120.078 93.303 119.9 93.5969 119.758C94.1505 119.491 94.7274 119.275 95.3204 119.114C96.4804 118.8 97.6614 118.57 98.8543 118.425C101.222 118.146 103.606 118.033 105.99 118.088C108.367 118.124 110.739 118.321 113.09 118.677C114.265 118.849 115.427 119.099 116.569 119.426C117.14 119.586 117.696 119.798 118.23 120.06C118.497 120.191 118.747 120.354 118.974 120.546C119.091 120.638 119.189 120.752 119.26 120.883C119.332 121.013 119.376 121.157 119.39 121.305ZM119.39 121.305C119.375 121.158 119.33 121.014 119.258 120.885C119.185 120.755 119.087 120.641 118.969 120.551C118.741 120.361 118.491 120.201 118.224 120.072C117.69 119.815 117.133 119.607 116.561 119.452C115.417 119.143 114.252 118.917 113.076 118.775C110.725 118.499 108.357 118.387 105.99 118.442C103.629 118.478 101.274 118.674 98.9394 119.027C97.781 119.196 96.6351 119.442 95.5094 119.764C94.9586 119.918 94.423 120.123 93.9093 120.374C93.669 120.492 93.4438 120.638 93.2389 120.81C93.1488 120.858 93.0734 120.929 93.0208 121.016C92.9682 121.103 92.9404 121.203 92.9403 121.305C92.9403 121.407 92.968 121.508 93.0206 121.595C93.0731 121.682 93.1484 121.754 93.2384 121.801C93.4434 121.973 93.6686 122.12 93.9091 122.237C94.4227 122.489 94.9584 122.693 95.5092 122.847C96.6347 123.17 97.7805 123.417 98.9391 123.586C101.274 123.94 103.629 124.135 105.99 124.171C108.357 124.225 110.725 124.113 113.076 123.836C114.252 123.694 115.417 123.468 116.561 123.159C117.133 123.003 117.69 122.796 118.224 122.538C118.491 122.41 118.741 122.249 118.969 122.06C119.087 121.969 119.185 121.856 119.258 121.726C119.33 121.596 119.375 121.453 119.39 121.305Z" fill="#020202"/>
<path d="M123.115 34.0749L118.294 33.072V35.2855C118.295 38.1424 117.819 40.9793 116.886 43.6787L115.77 46.9034L119.507 53.7457C119.507 53.7457 127.301 54.3453 128.007 54.2855C128.007 54.2855 129.422 34.9618 123.115 34.0749ZM118.677 49.5065C118.628 48.9505 118.589 48.3944 118.585 47.8349C118.57 47.2752 118.609 46.7154 118.701 46.1633C118.736 46.7193 118.807 47.2683 118.859 47.8208L119.028 49.4713C119.126 50.5763 119.225 51.6813 119.239 52.8004C118.964 51.7192 118.776 50.6177 118.677 49.5065ZM120.415 52.7476C120.278 52.7431 120.149 52.6855 120.054 52.587C119.959 52.4885 119.905 52.3568 119.905 52.2198C119.905 52.0827 119.959 51.951 120.054 51.8525C120.149 51.754 120.278 51.6964 120.415 51.6919C120.552 51.6964 120.681 51.7539 120.776 51.8524C120.872 51.951 120.925 52.0827 120.925 52.2198C120.925 52.3569 120.872 52.4886 120.776 52.5871C120.681 52.6856 120.552 52.7432 120.415 52.7477V52.7476ZM122.603 53.0397C122.466 53.0349 122.337 52.9771 122.242 52.8787C122.147 52.7802 122.094 52.6487 122.094 52.5119C122.094 52.375 122.147 52.2435 122.242 52.1451C122.337 52.0466 122.466 51.9888 122.603 51.984C122.739 51.9888 122.869 52.0466 122.963 52.145C123.058 52.2435 123.111 52.375 123.111 52.5119C123.111 52.6487 123.058 52.7802 122.963 52.8787C122.869 52.9772 122.739 53.0349 122.603 53.0397V53.0397ZM124.654 53.1523C124.517 53.1478 124.387 53.0902 124.292 52.9917C124.197 52.8932 124.144 52.7615 124.144 52.6245C124.144 52.4874 124.197 52.3557 124.292 52.2572C124.387 52.1587 124.517 52.1011 124.654 52.0966C124.79 52.1011 124.92 52.1587 125.015 52.2572C125.11 52.3557 125.163 52.4874 125.163 52.6245C125.163 52.7615 125.11 52.8932 125.015 52.9917C124.92 53.0902 124.79 53.1478 124.654 53.1524V53.1523ZM126.711 53.3283C126.575 53.3238 126.445 53.2662 126.35 53.1677C126.255 53.0692 126.202 52.9375 126.202 52.8004C126.202 52.6634 126.255 52.5317 126.35 52.4332C126.445 52.3347 126.575 52.2771 126.711 52.2726C126.848 52.2771 126.978 52.3347 127.073 52.4332C127.168 52.5317 127.221 52.6634 127.221 52.8004C127.221 52.9375 127.168 53.0692 127.073 53.1677C126.978 53.2662 126.848 53.3238 126.711 53.3283Z" fill="#020202"/>
<path d="M115.142 31.856C115.69 31.9943 116.228 32.1735 116.75 32.392C117.269 32.6041 117.775 32.8176 118.295 33.0735C117.718 33.0682 117.149 32.9475 116.619 32.7185C116.084 32.5107 115.586 32.2196 115.142 31.856Z" fill="#020202"/>
<path d="M105.224 41.0909C105.627 40.3701 106.087 39.683 106.599 39.036C107.099 38.3792 107.652 37.7643 108.251 37.1972C107.849 37.9184 107.389 38.6056 106.876 39.2521C106.375 39.9084 105.823 40.5233 105.224 41.0909Z" fill="#020202"/>
<path d="M55.9349 108.325C56.0715 108.32 56.2009 108.262 56.2958 108.164C56.3907 108.065 56.4438 107.934 56.4438 107.797C56.4438 107.66 56.3907 107.528 56.2958 107.43C56.2009 107.331 56.0715 107.274 55.9349 107.269C55.7984 107.274 55.669 107.331 55.5741 107.43C55.4791 107.528 55.4261 107.66 55.4261 107.797C55.4261 107.934 55.4791 108.065 55.5741 108.164C55.669 108.262 55.7984 108.32 55.9349 108.325Z" fill="#020202"/>
<path d="M57.6416 110.162C57.7781 110.157 57.9075 110.099 58.0024 110.001C58.0974 109.902 58.1504 109.771 58.1504 109.634C58.1504 109.497 58.0974 109.365 58.0024 109.267C57.9075 109.168 57.7781 109.111 57.6416 109.106C57.505 109.111 57.3756 109.168 57.2807 109.267C57.1858 109.365 57.1327 109.497 57.1327 109.634C57.1327 109.771 57.1858 109.902 57.2807 110.001C57.3756 110.099 57.505 110.157 57.6416 110.162Z" fill="#020202"/>
<path d="M59.6011 111.999C59.7376 111.994 59.867 111.936 59.9619 111.838C60.0569 111.739 60.1099 111.608 60.1099 111.471C60.1099 111.334 60.0569 111.202 59.9619 111.104C59.867 111.005 59.7376 110.948 59.6011 110.943C59.4645 110.948 59.3351 111.005 59.2402 111.104C59.1453 111.202 59.0922 111.334 59.0922 111.471C59.0922 111.608 59.1453 111.739 59.2402 111.838C59.3351 111.936 59.4645 111.994 59.6011 111.999Z" fill="#020202"/>
<path d="M61.7502 113.772C61.8867 113.768 62.0161 113.71 62.111 113.611C62.2059 113.513 62.259 113.381 62.259 113.244C62.259 113.108 62.2059 112.976 62.111 112.877C62.0161 112.779 61.8867 112.721 61.7502 112.717C61.6136 112.721 61.4843 112.779 61.3893 112.877C61.2944 112.976 61.2414 113.108 61.2414 113.244C61.2414 113.381 61.2944 113.513 61.3893 113.611C61.4843 113.71 61.6136 113.768 61.7502 113.772Z" fill="#020202"/>
<path d="M64.2154 115.356C64.3519 115.351 64.4813 115.294 64.5762 115.195C64.6712 115.097 64.7242 114.965 64.7242 114.828C64.7242 114.691 64.6712 114.56 64.5762 114.461C64.4813 114.363 64.3519 114.305 64.2154 114.3C64.0788 114.305 63.9494 114.363 63.8545 114.461C63.7595 114.56 63.7065 114.691 63.7065 114.828C63.7065 114.965 63.7595 115.097 63.8545 115.195C63.9494 115.294 64.0788 115.351 64.2154 115.356Z" fill="#020202"/>
<path d="M66.9333 115.799C67.0699 115.795 67.1993 115.737 67.2942 115.638C67.3892 115.54 67.4422 115.408 67.4422 115.271C67.4422 115.135 67.3892 115.003 67.2942 114.904C67.1993 114.806 67.0699 114.748 66.9333 114.744C66.7968 114.748 66.6674 114.806 66.5725 114.904C66.4775 115.003 66.4245 115.135 66.4245 115.271C66.4245 115.408 66.4775 115.54 66.5725 115.638C66.6674 115.737 66.7968 115.795 66.9333 115.799Z" fill="#020202"/>
<path d="M69.7146 114.596C69.8511 114.591 69.9805 114.533 70.0754 114.435C70.1704 114.336 70.2234 114.205 70.2234 114.068C70.2234 113.931 70.1704 113.799 70.0754 113.701C69.9805 113.602 69.8511 113.545 69.7146 113.54C69.578 113.545 69.4486 113.602 69.3537 113.701C69.2588 113.799 69.2057 113.931 69.2057 114.068C69.2057 114.205 69.2588 114.336 69.3537 114.435C69.4486 114.533 69.578 114.591 69.7146 114.596Z" fill="#020202"/>
<path d="M72.1165 115.166C72.2531 115.161 72.3824 115.103 72.4774 115.005C72.5723 114.906 72.6254 114.775 72.6254 114.638C72.6254 114.501 72.5723 114.369 72.4774 114.271C72.3824 114.173 72.2531 114.115 72.1165 114.11C71.98 114.115 71.8506 114.173 71.7556 114.271C71.6607 114.369 71.6076 114.501 71.6076 114.638C71.6076 114.775 71.6607 114.906 71.7556 115.005C71.8506 115.103 71.98 115.161 72.1165 115.166Z" fill="#020202"/>
<path d="M74.2656 116.369C74.4022 116.365 74.5316 116.307 74.6265 116.209C74.7214 116.11 74.7745 115.978 74.7745 115.842C74.7745 115.705 74.7214 115.573 74.6265 115.475C74.5316 115.376 74.4022 115.318 74.2656 115.314C74.1291 115.318 73.9997 115.376 73.9047 115.475C73.8098 115.573 73.7567 115.705 73.7567 115.842C73.7567 115.978 73.8098 116.11 73.9047 116.209C73.9997 116.307 74.1291 116.365 74.2656 116.369Z" fill="#020202"/>
<path d="M76.2883 118.587C76.4249 118.582 76.5542 118.524 76.6492 118.426C76.7441 118.327 76.7972 118.196 76.7972 118.059C76.7972 117.922 76.7441 117.79 76.6492 117.692C76.5542 117.593 76.4249 117.535 76.2883 117.531C76.1518 117.535 76.0224 117.593 75.9274 117.692C75.8325 117.79 75.7794 117.922 75.7794 118.059C75.7794 118.196 75.8325 118.327 75.9274 118.426C76.0224 118.524 76.1518 118.582 76.2883 118.587Z" fill="#020202"/>
<path d="M78.8799 118.206C79.0165 118.202 79.1459 118.144 79.2408 118.046C79.3357 117.947 79.3888 117.815 79.3888 117.679C79.3888 117.542 79.3357 117.41 79.2408 117.312C79.1459 117.213 79.0165 117.155 78.8799 117.151C78.7434 117.155 78.614 117.213 78.519 117.312C78.4241 117.41 78.371 117.542 78.371 117.679C78.371 117.815 78.4241 117.947 78.519 118.046C78.614 118.144 78.7434 118.202 78.8799 118.206Z" fill="#020202"/>
<path d="M81.4715 117.51C81.608 117.505 81.7374 117.447 81.8324 117.349C81.9273 117.25 81.9803 117.119 81.9803 116.982C81.9803 116.845 81.9273 116.713 81.8324 116.615C81.7374 116.516 81.608 116.459 81.4715 116.454C81.3349 116.459 81.2056 116.516 81.1106 116.615C81.0157 116.713 80.9626 116.845 80.9626 116.982C80.9626 117.119 81.0157 117.25 81.1106 117.349C81.2056 117.447 81.3349 117.505 81.4715 117.51Z" fill="#020202"/>
<path d="M83.5574 116.559C83.6939 116.555 83.8233 116.497 83.9183 116.399C84.0132 116.3 84.0663 116.169 84.0663 116.032C84.0663 115.895 84.0132 115.763 83.9183 115.665C83.8233 115.566 83.6939 115.508 83.5574 115.504C83.4208 115.508 83.2915 115.566 83.1965 115.665C83.1016 115.763 83.0485 115.895 83.0485 116.032C83.0485 116.169 83.1016 116.3 83.1965 116.399C83.2915 116.497 83.4208 116.555 83.5574 116.559Z" fill="#020202"/>
<path d="M85.8329 114.976C85.9695 114.971 86.0988 114.913 86.1938 114.815C86.2887 114.716 86.3417 114.585 86.3417 114.448C86.3417 114.311 86.2887 114.179 86.1938 114.081C86.0988 113.983 85.9695 113.925 85.8329 113.92C85.6964 113.925 85.567 113.983 85.4721 114.081C85.3771 114.179 85.3241 114.311 85.3241 114.448C85.3241 114.585 85.3771 114.716 85.4721 114.815C85.567 114.913 85.6964 114.971 85.8329 114.976Z" fill="#020202"/>
<path d="M87.7924 113.076C87.929 113.071 88.0583 113.013 88.1533 112.915C88.2482 112.816 88.3013 112.685 88.3013 112.548C88.3013 112.411 88.2482 112.279 88.1533 112.181C88.0583 112.082 87.929 112.025 87.7924 112.02C87.6559 112.025 87.5265 112.082 87.4315 112.181C87.3366 112.279 87.2835 112.411 87.2835 112.548C87.2835 112.685 87.3366 112.816 87.4315 112.915C87.5265 113.013 87.6559 113.071 87.7924 113.076Z" fill="#020202"/>
<path d="M89.3726 111.175C89.5092 111.17 89.6386 111.113 89.7335 111.014C89.8284 110.916 89.8815 110.784 89.8815 110.647C89.8815 110.51 89.8284 110.379 89.7335 110.28C89.6386 110.182 89.5092 110.124 89.3726 110.119C89.2361 110.124 89.1067 110.182 89.0118 110.28C88.9168 110.379 88.8638 110.51 88.8638 110.647C88.8638 110.784 88.9168 110.916 89.0118 111.014C89.1067 111.113 89.2361 111.17 89.3726 111.175Z" fill="#020202"/>
<path d="M126.869 54.2214C126.666 55.1962 126.413 56.1602 126.113 57.1097C125.819 58.0672 125.451 59.0001 125.011 59.8998C124.574 60.8142 124.026 61.6713 123.38 62.4521C122.723 63.2599 121.886 63.9026 120.937 64.329C119.958 64.7563 118.867 64.8576 117.826 64.618C116.79 64.3709 115.85 63.8214 115.126 63.0391L114.854 62.7497L114.621 62.4501C114.468 62.2493 114.306 62.0536 114.166 61.8444L113.732 61.2246L113.328 60.588C112.803 59.7333 112.326 58.8496 111.9 57.9413C111.046 56.1347 110.336 54.2637 109.775 52.3454C109.209 50.4352 108.765 48.4908 108.445 46.524C108.132 44.5566 107.949 42.5704 107.898 40.5787C107.867 39.5786 107.897 38.5775 107.988 37.581C108.045 37.0819 108.103 36.5817 108.208 36.0853C108.301 35.5704 108.456 35.0688 108.669 34.5913L108.647 34.6388C108.769 34.2974 108.919 33.9669 109.096 33.6509C109.27 33.3351 109.472 33.0351 109.699 32.7545C109.929 32.469 110.189 32.2093 110.475 31.98C110.768 31.7478 111.089 31.5542 111.431 31.404L111.346 31.4546C111.633 31.2006 111.898 30.9233 112.14 30.6257C112.377 30.3382 112.577 30.0214 112.734 29.6829C112.804 29.5271 112.854 29.3627 112.883 29.1939C112.898 28.9812 112.925 28.7694 112.963 28.5595L113.026 28.3649C113.057 28.2928 113.095 28.2235 113.139 28.158C113.196 28.0743 113.269 28.0033 113.355 27.9494C113.441 27.8955 113.537 27.8598 113.637 27.8446C113.826 27.8219 114.017 27.867 114.176 27.9718C114.251 28.0193 114.318 28.078 114.376 28.146C114.468 28.2497 114.522 28.3825 114.527 28.5215L113.774 28.5005C113.784 28.3501 113.814 28.2016 113.862 28.0587C113.913 27.8945 114 27.7436 114.116 27.6165C114.263 27.4621 114.463 27.3696 114.675 27.3576C114.851 27.3508 115.027 27.3839 115.188 27.4546L114.655 27.7399C114.676 27.6293 114.707 27.5208 114.747 27.4155C114.793 27.2881 114.861 27.1699 114.949 27.0664C115.018 26.9858 115.105 26.9234 115.204 26.8845C115.323 26.8376 115.455 26.8317 115.578 26.8678C115.735 26.9178 115.874 27.011 115.98 27.1365L115.465 27.0709C115.595 26.9841 115.74 26.9213 115.892 26.8857C115.994 26.8631 116.098 26.8601 116.201 26.8769C116.332 26.8986 116.454 26.9603 116.55 27.0536C116.686 27.199 116.769 27.3871 116.783 27.5861C116.79 27.6575 116.792 27.7293 116.792 27.801L116.785 27.9679C116.763 28.4057 116.717 28.842 116.648 29.275C116.544 30.188 116.224 31.0631 115.717 31.8285C115.555 32.0421 115.428 32.1675 115.285 32.3351L114.866 32.8102L114.027 33.7603L112.34 35.6513L112.437 35.3043C113.002 38.6988 113.961 42.0153 115.296 45.186C115.965 46.769 116.735 48.3194 117.53 49.8555L118.732 52.1569L119.97 54.465C119.974 54.4725 119.975 54.4813 119.973 54.4895C119.971 54.4977 119.966 54.5048 119.958 54.5092C119.951 54.5136 119.942 54.515 119.934 54.5132C119.926 54.5114 119.918 54.5064 119.914 54.4993L119.891 54.465C119.432 53.7773 118.967 53.0107 118.52 52.2784C118.071 51.5364 117.621 50.7945 117.192 50.0403C116.332 48.5334 115.491 47.0123 114.747 45.4306C114.018 43.8423 113.393 42.2085 112.874 40.5394C112.614 39.705 112.378 38.8635 112.166 38.0148C111.962 37.1646 111.781 36.3096 111.621 35.4498C111.61 35.3895 111.612 35.3273 111.628 35.2681C111.644 35.2088 111.674 35.1539 111.714 35.1076L111.718 35.1027L113.391 33.1926L114.233 32.2421L114.654 31.7668C114.786 31.6138 114.955 31.4363 115.046 31.3097C115.464 30.6526 115.734 29.9113 115.834 29.1382C115.904 28.7361 115.953 28.3306 115.979 27.9233L115.987 27.7732C115.991 27.732 115.984 27.7058 115.985 27.6711C115.981 27.6154 115.955 27.5774 115.991 27.6246C116.011 27.6433 116.036 27.6563 116.063 27.6623C116.082 27.6623 116.071 27.6625 116.057 27.6637C116.003 27.6775 115.952 27.6989 115.905 27.7272L115.893 27.735C115.814 27.7848 115.72 27.8048 115.628 27.7914C115.536 27.7779 115.451 27.7319 115.39 27.6616C115.362 27.6294 115.314 27.6002 115.368 27.6257C115.407 27.6331 115.447 27.6302 115.485 27.617C115.502 27.6107 115.517 27.6014 115.53 27.5896C115.505 27.6228 115.486 27.6594 115.472 27.6982C115.448 27.7578 115.43 27.8191 115.416 27.8817C115.403 27.9368 115.38 27.9887 115.346 28.034C115.312 28.0793 115.269 28.1168 115.22 28.1442C115.171 28.1716 115.116 28.1882 115.06 28.1929C115.004 28.1975 114.947 28.1902 114.894 28.1713L114.883 28.167C114.832 28.1434 114.777 28.1297 114.721 28.1266C114.691 28.1293 114.693 28.125 114.666 28.1473C114.626 28.1935 114.597 28.2472 114.579 28.3052C114.553 28.3822 114.535 28.4619 114.527 28.5428L113.774 28.5217C113.777 28.6322 113.808 28.6296 113.798 28.6276C113.79 28.6182 113.781 28.6102 113.77 28.6036C113.743 28.5845 113.721 28.5852 113.735 28.5846C113.751 28.5854 113.763 28.5627 113.741 28.5901C113.732 28.6025 113.721 28.628 113.708 28.6485L113.676 28.7423C113.638 28.8955 113.64 29.0397 113.601 29.3112C113.56 29.5415 113.489 29.7655 113.39 29.9774C113.2 30.3713 112.958 30.738 112.671 31.0677C112.394 31.3919 112.091 31.6922 111.765 31.9655C111.742 31.984 111.718 31.9994 111.691 32.0111L111.68 32.0161C111.389 32.1362 111.115 32.2926 110.863 32.4818C110.608 32.6769 110.374 32.8992 110.166 33.1447C109.955 33.3949 109.764 33.6609 109.593 33.9403C109.423 34.2187 109.276 34.5106 109.154 34.8131C109.148 34.829 109.14 34.8459 109.132 34.8607C108.93 35.2852 108.777 35.7313 108.676 36.1904C108.562 36.6654 108.473 37.1459 108.409 37.63C108.287 38.6073 108.225 39.5911 108.224 40.5761C108.228 42.5548 108.382 44.5303 108.684 46.4858C109.004 48.4382 109.489 50.36 110.132 52.2308C110.764 54.0997 111.54 55.9166 112.452 57.6654C112.904 58.5383 113.393 59.3881 113.919 60.2149L114.319 60.8292L114.741 61.4266C114.878 61.6289 115.033 61.8151 115.182 62.0074L115.406 62.2942L115.644 62.5458C116.268 63.2363 117.082 63.7253 117.984 63.9507C118.887 64.1674 119.836 64.0954 120.696 63.7446C121.567 63.3675 122.344 62.8028 122.973 62.0906C123.62 61.365 124.177 60.5626 124.629 59.7015C125.09 58.8323 125.497 57.9357 125.849 57.0166C126.202 56.0945 126.505 55.1515 126.792 54.2019C126.794 54.1968 126.796 54.1921 126.799 54.1881C126.803 54.184 126.807 54.1806 126.811 54.1781C126.816 54.1756 126.821 54.174 126.826 54.1735C126.831 54.1729 126.837 54.1734 126.842 54.1749C126.851 54.1778 126.859 54.1842 126.864 54.1928C126.87 54.2014 126.871 54.2116 126.869 54.2214Z" fill="#020202"/>
<path d="M57.3532 111.265C56.9014 113.096 56.0618 114.808 54.8912 116.285C54.2886 117.034 53.5559 117.668 52.7284 118.157C52.3087 118.412 51.9158 118.592 51.5145 118.832L50.3213 119.526C48.7379 120.469 47.1425 121.407 45.5643 122.374C43.9789 123.331 42.4306 124.348 40.9165 125.412L40.9626 125.342C40.8859 125.862 40.9585 126.393 41.1719 126.873C41.3924 127.34 41.7691 127.714 42.2363 127.931C42.3503 127.99 42.4692 128.039 42.5915 128.078L42.9668 128.179C43.2242 128.225 43.4839 128.256 43.7448 128.273C44.0099 128.266 44.2727 128.28 44.5371 128.258L45.3303 128.174L45.2434 128.2C46.8187 127.368 48.4072 126.564 50.0091 125.788C51.6113 125.008 53.2169 124.239 54.8847 123.575C55.3002 123.408 55.7263 123.255 56.1587 123.109L56.4963 123.012C56.6147 122.973 56.7365 122.945 56.8601 122.929L57.0635 122.902L57.1643 122.89L57.2367 122.887C57.3353 122.888 57.4338 122.881 57.5315 122.868C58.3683 122.747 59.1714 122.455 59.8907 122.009C60.6281 121.568 61.2848 121.003 61.8326 120.34C62.3754 119.66 62.793 118.889 63.0659 118.062L63.0702 118.05L63.0736 118.042C63.2343 117.733 63.389 117.419 63.5342 117.101C63.6866 116.789 63.8107 116.464 63.9048 116.13L63.9054 116.127C63.9074 116.118 63.9127 116.11 63.9202 116.106C63.9277 116.101 63.9368 116.099 63.9456 116.1C63.9545 116.102 63.9624 116.107 63.9677 116.114C63.973 116.121 63.9754 116.13 63.9743 116.139C63.9184 116.491 63.8256 116.835 63.6974 117.167C63.5787 117.501 63.4516 117.829 63.3157 118.157L63.3235 118.136C62.8826 119.942 61.7638 121.507 60.1999 122.507C59.8129 122.762 59.4029 122.979 58.9752 123.157C58.5417 123.345 58.0866 123.478 57.6204 123.553C57.4985 123.574 57.3753 123.586 57.2517 123.59L57.1577 123.595L57.0938 123.608L56.9677 123.63C56.8712 123.645 56.7764 123.669 56.6848 123.702L56.3833 123.794C55.9764 123.941 55.5683 124.095 55.1623 124.267C54.3497 124.603 53.5363 124.955 52.7295 125.32C51.9206 125.681 51.1104 126.042 50.3053 126.416L45.4834 128.679L45.4624 128.689C45.4416 128.698 45.4192 128.704 45.3963 128.705L44.5567 128.751C44.2764 128.757 43.9924 128.728 43.712 128.717C43.4297 128.683 43.1496 128.632 42.873 128.565L42.4638 128.431C42.3285 128.38 42.1976 128.317 42.0726 128.245C41.5546 127.971 41.1482 127.524 40.9234 126.982C40.7086 126.448 40.6462 125.865 40.7434 125.298C40.7455 125.285 40.7505 125.271 40.7579 125.26C40.7654 125.248 40.7752 125.238 40.7868 125.23L40.7895 125.228C42.3265 124.192 43.8506 123.138 45.362 122.065C46.8836 121.005 48.4019 119.936 50.001 118.985C50.784 118.497 51.6415 118.066 52.436 117.633C53.2169 117.195 53.9178 116.628 54.5085 115.955C55.1131 115.273 55.6447 114.529 56.0947 113.736C56.5594 112.94 56.9578 112.107 57.2856 111.245L57.2864 111.243C57.2896 111.235 57.2959 111.228 57.304 111.224C57.3121 111.22 57.3214 111.22 57.3299 111.222C57.3385 111.225 57.3456 111.231 57.3499 111.239C57.3543 111.247 57.3554 111.256 57.3531 111.265L57.3532 111.265Z" fill="#020202"/>
<path d="M40.8529 125.32C40.8529 125.32 38.1686 129.521 43.8342 131.301C43.8342 131.301 47.1695 132.187 52.5364 126.797C52.5364 126.797 54.9876 124.451 55.6466 124.537L54.8459 126.715L57.7267 127.71L61.2223 126.093L62.9651 118.779C62.4404 119.946 61.6355 120.964 60.6223 121.743C59.6091 122.522 58.4192 123.037 57.1589 123.243C52.7143 124.059 49.2472 126.771 45.3634 128.44C45.3634 128.44 40.3485 129.322 40.8529 125.32Z" fill="#020202"/>
<path d="M44.4216 122.907C44.4216 122.907 47.8023 123.154 48.3694 126.958L51.5944 125.427C51.5944 125.427 50.9997 120.763 46.8779 121.299C46.8779 121.299 45.5015 121.063 44.4216 122.907Z" fill="#020202"/>
<path d="M79.3826 115.663C79.886 117.481 79.9949 119.385 79.7022 121.248C79.544 122.197 79.2167 123.11 78.736 123.942C78.4837 124.364 78.2413 124.722 78.008 125.128L77.3115 126.321C76.3949 127.922 75.4658 129.525 74.5658 131.145C73.6565 132.76 72.7999 134.406 72.0144 136.084L72.0202 135.995C72.2073 136.486 72.5279 136.914 72.9456 137.231C73.3655 137.533 73.8786 137.674 74.3932 137.631C74.9126 137.583 75.4168 137.43 75.8752 137.18C76.3441 136.931 76.7898 136.64 77.2068 136.311L77.1439 136.377C78.4312 134.37 79.7687 132.401 81.1399 130.449C81.8306 129.476 82.5348 128.513 83.2876 127.578C83.6656 127.097 84.0715 126.64 84.5034 126.208C84.6311 126.083 84.7723 125.972 84.9243 125.878C85.0384 125.815 85.1481 125.745 85.2526 125.667C85.4717 125.498 85.6755 125.309 85.8615 125.104C86.6229 124.245 87.1755 123.221 87.4763 122.112C87.7918 120.988 87.8589 119.808 87.6731 118.655C87.306 116.296 87.0156 113.936 86.7267 111.571C86.7255 111.562 86.7281 111.553 86.7337 111.546C86.7394 111.538 86.7476 111.533 86.7568 111.532C86.766 111.531 86.7752 111.533 86.7826 111.539C86.79 111.544 86.7949 111.553 86.7963 111.562C87.1649 113.913 87.5078 116.272 87.934 118.608C88.2135 119.8 88.2235 121.038 87.9633 122.234C87.6947 123.447 87.1417 124.579 86.35 125.535C86.1456 125.779 85.9199 126.004 85.6756 126.208C85.5461 126.313 85.409 126.409 85.2655 126.494C85.1682 126.562 85.0774 126.639 84.9942 126.723C84.5937 127.141 84.2177 127.581 83.8679 128.042C83.1404 128.969 82.4378 129.925 81.734 130.879C80.326 132.789 78.9607 134.737 77.5886 136.676L77.581 136.687C77.5658 136.708 77.547 136.727 77.5256 136.742C77.0676 137.07 76.5786 137.352 76.0655 137.584C75.5444 137.827 74.9803 137.964 74.406 137.987C73.8182 138.005 73.2429 137.815 72.7816 137.449C72.3331 137.089 71.9922 136.611 71.7963 136.069C71.7913 136.055 71.7892 136.039 71.7902 136.024C71.7913 136.009 71.7953 135.994 71.8022 135.98C72.6436 134.326 73.4485 132.656 74.2388 130.976C75.044 129.303 75.8416 127.624 76.7674 126.008C77.2111 125.198 77.7439 124.399 78.2387 123.639C78.6995 122.87 79.0276 122.028 79.2093 121.15C79.4066 120.259 79.5044 119.348 79.501 118.435C79.5148 117.513 79.4524 116.592 79.3144 115.68L79.314 115.678C79.3127 115.669 79.3148 115.66 79.3199 115.652C79.325 115.645 79.3328 115.64 79.3415 115.638C79.3503 115.636 79.3595 115.638 79.3671 115.643C79.3747 115.647 79.3803 115.655 79.3826 115.663L79.3826 115.663Z" fill="#020202"/>
<path d="M71.9083 136.032C71.9083 136.032 71.6312 141.012 77.4385 139.772C77.4385 139.772 80.7775 138.9 82.8069 131.562C82.8069 131.562 83.791 128.312 84.4072 128.062L84.778 130.353L87.7746 129.8L90.0258 126.67L87.9559 119.443C88.0712 120.717 87.8698 122 87.3695 123.178C86.8692 124.355 86.0857 125.39 85.089 126.19C81.6188 129.09 79.9302 133.16 77.3663 136.526C77.3663 136.526 73.432 139.765 71.9083 136.032Z" fill="#020202"/>
<path d="M73.8322 132.172C73.8322 132.172 76.8974 130.722 79.2575 133.756L81.3149 130.834C81.3149 130.834 78.5093 127.065 75.1827 129.562C75.1827 129.562 73.8681 130.034 73.8322 132.172Z" fill="#020202"/>
<path d="M64.1746 71.7117C64.184 71.722 64.1926 71.733 64.2003 71.7447L64.2023 71.7474L64.2055 71.7511L64.623 72.226C64.6337 72.2382 64.6408 72.2532 64.6434 72.2693C64.6461 72.2854 64.6441 72.3018 64.6379 72.3169C64.6316 72.3319 64.6213 72.3449 64.6081 72.3543C64.5948 72.3637 64.5792 72.3692 64.563 72.3702L64.5555 72.3706C62.5751 72.4881 60.5946 72.5597 58.6142 72.5974L57.1288 72.6231C56.8611 72.6352 56.5928 72.6214 56.3277 72.5819C55.91 72.5109 55.5129 72.3487 55.1648 72.1067C54.8166 71.8647 54.5259 71.5489 54.3132 71.1816C54.0347 70.6961 53.901 70.1408 53.928 69.5814C53.957 67.5962 54.0313 65.6104 54.05 63.6253C54.0588 61.6404 54.0168 59.6561 53.9239 57.6723C53.9033 57.4129 53.908 57.1521 53.9378 56.8935C53.972 56.6256 54.0453 56.3642 54.1554 56.1177C54.3755 55.6141 54.736 55.185 55.1937 54.8819C55.6578 54.5743 56.2002 54.4066 56.7565 54.3984L58.2419 54.3705L59.7272 54.3514C60.5819 54.3414 61.4071 54.6642 62.0289 55.2518C62.6508 55.8394 63.0208 56.646 63.0611 57.5016C63.293 61.4642 63.4371 65.4318 63.4934 69.4044L63.4935 69.4177L63.4932 69.4266C63.4817 69.6191 63.4923 69.8122 63.5248 70.0021C63.5571 70.2008 63.6038 70.3968 63.6645 70.5887C63.7932 70.9774 63.9629 71.3513 64.1705 71.7041C64.1733 71.7085 64.1751 71.7135 64.1759 71.7187C64.1767 71.7239 64.1765 71.7292 64.1753 71.7343C64.1741 71.7394 64.1719 71.7442 64.1688 71.7484C64.1657 71.7527 64.1618 71.7562 64.1573 71.759C64.1489 71.764 64.1388 71.7658 64.1292 71.7639C64.1195 71.7621 64.1108 71.7568 64.1048 71.749C63.9769 71.5826 63.8577 71.4097 63.7477 71.2309C63.6389 71.0494 63.5417 70.861 63.4568 70.6671C63.3719 70.4705 63.3014 70.268 63.2458 70.0612C63.186 69.8464 63.1524 69.6252 63.1457 69.4023L63.1456 69.4244C62.7453 65.4717 62.4349 61.5136 62.2142 57.5502C62.1948 57.122 62.0719 56.705 61.8561 56.3349C61.637 55.966 61.327 55.6596 60.9558 55.4453C60.5818 55.2293 60.1588 55.1127 59.7272 55.1066L58.2418 55.0874L56.7565 55.0596C56.3124 55.0439 55.8729 55.1542 55.4887 55.3779C55.1044 55.6015 54.791 55.9293 54.5845 56.3236C54.4774 56.5237 54.4013 56.739 54.359 56.9621C54.3187 57.195 54.3013 57.4314 54.3069 57.6677C54.2606 59.6531 54.2667 61.6378 54.3252 63.622C54.3928 65.606 54.5162 67.5893 54.5942 69.5731C54.5888 70.0117 54.703 70.4435 54.9243 70.8219C55.1454 71.1909 55.4645 71.4912 55.8459 71.6892C56.0357 71.7884 56.2392 71.8588 56.4497 71.8981C56.6741 71.9348 56.9015 71.9495 57.1288 71.942L58.6142 71.9677C60.5945 72.0054 62.575 72.077 64.5555 72.1945L64.4881 72.3391L64.1329 71.8006L64.1382 71.8069C64.1245 71.7854 64.1118 71.7631 64.1007 71.7414C64.0965 71.7331 64.0954 71.7237 64.0976 71.7147C64.0999 71.7057 64.1053 71.6979 64.1129 71.6926C64.1205 71.6874 64.1297 71.6851 64.1389 71.6861C64.1481 71.6872 64.1565 71.6916 64.1627 71.6985L64.1746 71.7117Z" fill="#020202"/>
<path d="M73.8187 81.2936C73.9788 81.5494 74.1015 81.8269 74.183 82.1176C74.2632 82.3938 74.3188 82.6767 74.3491 82.9628C74.3803 83.2487 74.3857 83.537 74.3651 83.8239C74.3468 84.1255 74.2848 84.4227 74.1812 84.7064C74.0203 84.4509 73.8973 84.1734 73.816 83.8825C73.7357 83.6063 73.6804 83.3234 73.6509 83.0372C73.6204 82.7512 73.6153 82.4629 73.6357 82.176C73.6543 81.8746 73.716 81.5774 73.8187 81.2936Z" fill="white"/>
</svg>
