<svg width="571" height="480" viewBox="0 0 571 480" fill="none" xmlns="http://www.w3.org/2000/svg">
<path d="M127.069 205.708C127.496 209.156 128.409 212.526 129.783 215.716C128.488 212.499 127.577 209.139 127.069 205.708ZM233.792 253.668C235.968 251.861 237.589 249.475 238.469 246.785C239.219 244.385 239.378 241.76 237.296 240.415C232.856 237.541 221.092 245.914 218.47 250.622C215.862 255.33 205.665 267.897 209.578 286.728C213.504 305.571 228.14 321.013 228.14 321.013C228.14 321.013 229.432 322.345 231.381 324.521L237.125 308.591C233.225 304.2 230.05 300.587 229.194 299.558C226.665 296.512 211.594 272.314 233.792 253.668ZM193.901 304.53C193.901 304.53 179.251 292.49 163.838 285.158C152.903 279.963 147.489 271.747 148.516 265.259C148.82 263.563 149.587 261.985 150.734 260.7C151.881 259.414 153.361 258.473 155.011 257.98C159.424 256.569 169.884 251.677 168.804 237.013L168.606 232.371C166.314 232.308 164.065 231.727 162.028 230.672C159.991 229.617 158.219 228.115 156.842 226.279C152.139 220.002 143.905 216.864 131.153 218.631L124.487 214.899C124.487 214.899 123.999 202.899 126.687 201.739C126.647 200.842 126.634 199.932 126.647 199.009C126.647 199.009 120.758 200.314 121.746 212.42C121.746 212.42 119.388 211.101 117.294 197.505C117.294 197.505 107.097 200.38 109.982 220.266C110.875 224.254 110.698 228.408 109.468 232.306C109.468 232.306 105.279 250.358 101.88 260.828C98.4808 271.299 91.5516 296.75 108.019 345.026L116.517 372.31C116.517 372.31 120.693 401.875 114.159 407.637C114.159 407.637 104.225 408.798 107.887 416.591C108.066 416.979 108.307 417.335 108.599 417.646C108.323 417.162 108.16 416.62 108.125 416.064C108.079 415.513 108.132 414.959 108.283 414.428C108.435 413.853 108.745 413.332 109.178 412.925C109.387 412.707 109.647 412.545 109.935 412.456C110.223 412.366 110.53 412.35 110.825 412.411C110.468 412.731 110.181 413.122 109.982 413.558C109.803 413.959 109.658 414.373 109.548 414.798C109.297 415.768 108.98 416.72 108.599 417.646C109.521 418.675 111.497 419.993 115.212 419.149L115.607 419.11C115.015 418.081 114.783 416.883 114.948 415.708C115.031 415.101 115.237 414.517 115.554 413.993C115.703 413.707 115.923 413.464 116.193 413.288C116.463 413.113 116.775 413.01 117.096 412.991C116.787 413.413 116.58 413.9 116.49 414.415C116.398 414.89 116.319 415.378 116.253 415.892C116.146 416.984 115.93 418.062 115.607 419.11L117.821 418.912C117.698 418.106 117.72 417.284 117.886 416.485C118.078 415.676 118.463 414.926 119.006 414.297C119.549 413.655 120.217 413.13 120.969 412.754C121.702 412.464 122.393 412.078 123.025 411.606C124.29 410.691 125.327 409.495 126.054 408.112C126.666 406.652 127.104 405.125 127.358 403.563C128.744 397.281 129.638 390.902 130.033 384.481C130.56 378.059 130.652 371.611 130.586 365.163C130.573 361.932 130.468 358.714 130.322 355.484C130.218 352.253 130.007 349.035 129.783 345.804C130.744 352.21 131.351 358.664 131.6 365.136C131.866 371.615 131.783 378.104 131.35 384.574C130.904 391.057 129.899 397.49 128.346 403.8C128.014 405.421 127.493 406.996 126.792 408.494C125.961 409.955 124.802 411.201 123.406 412.134C122.712 412.586 121.964 412.95 121.18 413.215C120.461 413.516 119.811 413.961 119.27 414.521C118.728 415.106 118.317 415.801 118.067 416.559C117.817 417.316 117.733 418.119 117.82 418.912C117.82 418.912 118.268 420.429 120.85 421.286C120.415 420.128 120.364 418.861 120.706 417.673C120.883 417.044 121.198 416.463 121.628 415.972C121.842 415.691 122.144 415.491 122.486 415.402C122.827 415.314 123.188 415.343 123.511 415.484C123.27 415.577 123.051 415.722 122.872 415.909C122.692 416.096 122.555 416.32 122.471 416.565C122.271 417.04 122.108 417.529 121.984 418.029C121.704 419.146 121.325 420.236 120.85 421.286C122.874 421.865 124.995 422.022 127.082 421.747C126.648 421.283 126.375 420.691 126.305 420.059C126.229 419.426 126.288 418.783 126.476 418.174C126.667 417.579 126.982 417.032 127.4 416.569C127.818 416.105 128.329 415.735 128.9 415.484C128.715 416.09 128.478 416.604 128.281 417.106C128.083 417.62 127.886 418.095 127.727 418.582C127.398 419.61 127.186 420.672 127.095 421.747C128.858 421.589 130.606 421.298 132.325 420.877C132.325 420.877 138.214 420.191 138.807 407.44C139.876 401.556 141.65 395.822 144.09 390.363L148.213 376.332C148.78 372.205 149.662 368.183 150.545 364.16L151.915 358.147C152.337 356.13 152.864 354.152 153.114 352.095C153.316 354.173 153.254 356.269 152.929 358.332C152.666 360.389 152.258 362.42 151.823 364.451C150.941 368.502 149.734 372.475 148.213 376.332C148.213 376.332 148.806 387.422 159.872 399.29C158.377 392.855 157.529 386.286 157.343 379.681C157.124 373.014 158.11 366.362 160.254 360.046C162.526 353.684 166.779 348.22 172.387 344.459C178.034 340.866 184.666 339.141 191.345 339.528C188.068 339.597 184.817 340.129 181.688 341.11C178.577 342.045 175.63 343.46 172.954 345.303C170.303 347.148 167.964 349.405 166.024 351.989C164.118 354.599 162.592 357.468 161.492 360.508C159.349 366.67 158.288 373.157 158.357 379.681C158.324 382.956 158.456 386.231 158.752 389.492C158.924 391.127 159.016 392.776 159.24 394.398L159.872 399.29C159.872 399.29 157.237 404.301 148.609 404.684C148.609 404.684 143.313 405.185 142.719 411.858C142.719 411.858 142.43 415.642 151.059 416.591C151.059 416.591 160.175 418.359 165.669 415.22L170.885 415.484H172.822C171.377 412.014 170.539 408.32 170.346 404.565C169.942 397.788 171.069 391.007 173.644 384.727C176.219 378.446 180.176 372.827 185.219 368.288C199.473 355.299 214.544 355.536 218.826 355.906C216.573 338.064 210.078 318.139 193.901 304.53ZM117.53 211.958C117.53 211.958 116.846 213.132 117.821 215.888C117.821 215.888 109.389 213.725 116.648 200.183C116.648 200.183 117.821 210.191 121.351 214.899C119.914 214.153 118.62 213.158 117.53 211.958V211.958ZM151.744 233.15C143.905 235.114 142.522 228.244 142.522 228.244C150.756 227.664 151.744 233.15 151.744 233.15V233.15ZM122.326 242.182C127.012 241.05 131.785 240.309 136.594 239.967C138.999 239.776 141.413 239.71 143.826 239.769C146.257 239.742 148.673 240.162 150.953 241.009C149.782 240.777 148.59 240.675 147.397 240.706C146.21 240.692 145.025 240.758 143.826 240.798C141.455 240.917 139.07 241.101 136.686 241.273C131.917 241.629 127.148 242.037 122.326 242.182ZM126.647 251.018C128.264 249.55 130.056 248.287 131.983 247.26C133.908 246.214 135.929 245.353 138.016 244.688C140.104 244.019 142.253 243.564 144.432 243.33C146.599 243.081 148.788 243.09 150.953 243.356C148.793 243.646 146.672 243.897 144.59 244.345C142.5 244.755 140.436 245.293 138.411 245.954C136.379 246.587 134.382 247.331 132.43 248.183C130.481 249.04 128.544 249.949 126.647 251.018V251.018ZM142.43 250.912C139.4 252.956 136.435 255.092 133.314 257.097C135.796 254.334 138.61 251.889 141.692 249.818C144.725 247.646 148.133 246.055 151.744 245.123C148.489 246.903 145.447 248.855 142.43 250.912L142.43 250.912Z" fill="black"/>
<path d="M126.693 201.73C126.693 201.73 126.693 201.774 126.699 201.85C126.693 201.812 126.693 201.774 126.688 201.736L126.693 201.73Z" fill="white"/>
<path d="M147.134 228.67C147.506 228.975 147.797 229.369 147.981 229.815C148.141 230.176 148.224 230.566 148.223 230.961C148.226 231.356 148.145 231.746 147.984 232.106C147.8 232.553 147.508 232.947 147.134 233.252C146.759 232.947 146.467 232.553 146.284 232.106C146.123 231.746 146.041 231.355 146.045 230.961C146.044 230.566 146.126 230.176 146.287 229.815C146.47 229.369 146.761 228.976 147.134 228.67Z" fill="black"/>
<path d="M126.688 201.736C126.827 203.175 127.022 204.601 127.273 206.015C127.522 207.428 127.802 208.837 128.182 210.219C128.52 211.613 128.932 212.987 129.416 214.337C129.866 215.702 130.445 217.016 131.002 218.353C129.483 215.874 128.354 213.176 127.655 210.354C126.917 207.543 126.591 204.64 126.688 201.736Z" fill="black"/>
<path d="M280.75 226.643C281.785 224.158 283.232 221.866 285.032 219.865C286.825 217.797 289.019 216.115 291.483 214.923C292.73 214.333 294.044 213.897 295.397 213.626C296.751 213.382 298.131 213.311 299.503 213.414C302.198 213.66 304.828 214.383 307.271 215.548C309.728 216.609 312.039 217.979 314.151 219.624C316.302 221.271 318.153 223.276 319.624 225.551C321.154 227.865 322.101 230.516 322.383 233.276C322.65 236.152 321.782 239.019 319.965 241.263L319.949 241.283C319.904 241.341 319.849 241.391 319.788 241.432C318.064 242.622 316.015 243.253 313.921 243.237C312.832 243.165 311.784 242.798 310.887 242.176C310.034 241.559 309.327 240.761 308.818 239.839C308.385 239.037 307.882 238.276 307.314 237.564C306.711 236.875 306.055 236.165 305.411 235.483C304.758 234.802 304.107 234.117 303.434 233.459C303.095 233.133 302.75 232.811 302.389 232.518C302.211 232.37 302.025 232.233 301.832 232.105C301.654 231.99 301.406 231.861 301.286 231.933L301.258 231.95C301.24 231.96 301.22 231.963 301.2 231.959C301.18 231.954 301.163 231.942 301.152 231.925C301.141 231.907 301.137 231.887 301.141 231.867C301.145 231.847 301.157 231.829 301.174 231.818C301.478 231.612 301.737 231.799 301.957 231.869C302.18 231.97 302.395 232.088 302.6 232.221C303.01 232.479 303.398 232.763 303.781 233.052C304.547 233.63 305.282 234.243 305.993 234.88C306.711 235.519 307.404 236.145 308.113 236.825C308.803 237.535 309.409 238.323 309.917 239.172C310.329 239.897 310.919 240.505 311.631 240.938C312.343 241.37 313.155 241.613 313.987 241.643C315.711 241.578 317.379 241.019 318.795 240.032L318.618 240.201C320.172 238.277 320.96 235.845 320.828 233.374C320.62 230.836 319.848 228.376 318.57 226.175C316.045 221.547 311.969 217.96 307.06 216.047C304.648 215.068 302.069 214.568 299.466 214.573C296.918 214.612 294.404 215.168 292.076 216.207C287.415 218.556 283.532 222.204 280.895 226.711C280.89 226.721 280.884 226.729 280.875 226.736C280.867 226.742 280.858 226.747 280.848 226.75C280.838 226.753 280.827 226.755 280.817 226.753C280.806 226.752 280.796 226.749 280.787 226.744C280.77 226.734 280.757 226.719 280.751 226.7C280.744 226.682 280.744 226.662 280.75 226.643Z" fill="black"/>
<path d="M359.592 224.062C356.689 224.568 353.889 225.554 351.307 226.977C348.674 228.307 346.131 229.811 343.621 231.363C338.587 234.449 333.716 237.804 328.916 241.251C324.116 244.7 319.367 248.221 314.67 251.815C309.974 255.405 305.349 259.098 300.747 262.797L300.74 262.803C300.635 262.886 300.51 262.939 300.377 262.954C300.244 262.97 300.109 262.947 299.988 262.889C299.868 262.83 299.766 262.739 299.695 262.626C299.624 262.512 299.587 262.381 299.587 262.247L299.652 246.002L299.826 229.758L300.17 230.212L295.942 229.084C294.534 228.701 293.095 228.461 291.672 228.142C290.25 227.809 288.797 227.68 287.359 227.438C285.916 227.238 284.458 227.182 283.008 227.071C280.105 226.946 277.199 227.207 274.365 227.847C273.661 228.009 272.97 228.224 272.298 228.49C271.621 228.736 270.964 229.034 270.332 229.381C269.071 230.037 267.994 230.999 267.199 232.179L267.223 232.097C266.627 237.745 266.147 243.407 265.785 249.084C265.41 254.759 265.205 260.425 265.217 266.109C265.189 277.473 265.476 288.845 265.786 300.205L265.781 300.132C266.007 301.226 266.402 302.279 266.952 303.251C267.238 303.741 267.561 304.209 267.918 304.65L268.457 305.307C268.654 305.511 268.871 305.696 269.076 305.892C270.799 307.413 272.872 308.482 275.111 309.002C279.768 309.841 284.554 309.643 289.127 308.422C291.437 307.897 293.794 307.273 296.145 306.649L303.216 304.915L317.39 301.671C326.837 299.53 336.308 297.524 345.644 295.006C347.989 294.413 350.291 293.686 352.617 293.029C354.905 292.267 357.231 291.598 359.477 290.722C364.046 289.208 368.385 287.07 372.369 284.367L372.381 284.359C372.451 284.308 372.538 284.287 372.624 284.3C372.709 284.314 372.786 284.361 372.837 284.431C372.879 284.488 372.901 284.557 372.9 284.628L372.65 299.935C372.65 299.956 372.641 299.976 372.626 299.99C372.611 300.005 372.591 300.013 372.57 300.013C372.549 300.013 372.529 300.005 372.514 299.99C372.499 299.976 372.491 299.956 372.49 299.935L372.241 284.628L372.771 284.89C368.793 287.737 364.428 289.999 359.809 291.606C357.555 292.53 355.231 293.243 352.938 294.05C350.613 294.751 348.307 295.524 345.965 296.16C336.626 298.815 327.196 301.109 317.749 303.252L303.602 306.535L296.564 308.282C294.233 308.903 291.914 309.542 289.497 310.079C284.669 311.322 279.626 311.48 274.731 310.541C272.239 309.94 269.936 308.725 268.031 307.008C266.106 305.236 264.804 302.888 264.32 300.315L264.315 300.267L264.315 300.241C264.196 294.55 264.175 288.861 264.154 283.171C264.144 277.481 264.169 271.79 264.281 266.098C264.361 260.408 264.674 254.706 265.149 249.039C265.595 243.365 266.079 237.697 266.724 232.039L266.727 232.016C266.729 231.995 266.737 231.974 266.749 231.956C268.49 229.333 271.412 228.11 274.232 227.334C277.112 226.656 280.07 226.363 283.027 226.465C285.97 226.592 288.902 226.906 291.805 227.405C293.247 227.695 294.709 227.906 296.136 228.261L300.425 229.303C300.522 229.327 300.608 229.382 300.671 229.461C300.733 229.539 300.767 229.636 300.768 229.736V229.758L300.942 246.002L301.007 262.247L299.848 261.696C304.441 257.938 309.146 254.34 313.871 250.761C318.608 247.202 323.377 243.679 328.262 240.32C333.148 236.963 338.103 233.698 343.225 230.701C345.796 229.219 348.408 227.804 351.104 226.555C353.764 225.206 356.629 224.31 359.582 223.901C359.603 223.9 359.624 223.906 359.64 223.919C359.656 223.933 359.666 223.952 359.669 223.973C359.671 223.993 359.665 224.014 359.652 224.031C359.639 224.047 359.62 224.058 359.599 224.061L359.592 224.062Z" fill="black"/>
<path d="M314.077 204.314L318.176 214.024L322.16 223.777L321.702 223.423C325.328 223.675 328.972 223.369 332.505 222.515C336.018 221.705 339.292 220.081 342.064 217.775C344.762 215.398 346.72 212.296 347.708 208.837C348.696 205.323 349.06 201.663 348.786 198.023L348.784 197.991L348.787 197.955C348.967 197.176 349.355 196.46 349.911 195.885C350.466 195.31 351.168 194.898 351.94 194.692C353.368 194.284 354.855 194.127 356.337 194.228C359.24 194.254 362.138 194.505 365.003 194.977C373.663 196.374 381.835 199.92 388.773 205.292L392.102 208.141C392.662 208.61 393.185 209.121 393.668 209.669L395.172 211.263C397.171 213.396 399.013 215.673 400.681 218.075C401.549 219.251 402.218 220.556 402.997 221.791C403.724 223.056 404.56 224.266 405.197 225.578L407.079 229.531C407.747 230.829 408.338 232.164 408.848 233.532C409.816 236.278 410.86 239.016 411.763 241.767L417.049 258.275C418.829 263.772 420.719 269.229 422.664 274.665C423.65 277.378 424.679 280.076 425.778 282.742C426.327 284.075 426.892 285.403 427.521 286.698C428.075 288.011 428.819 289.234 429.728 290.331L429.767 290.371C429.781 290.385 429.788 290.403 429.788 290.423C429.788 290.442 429.781 290.46 429.768 290.474C429.754 290.488 429.736 290.496 429.717 290.497C429.698 290.498 429.679 290.491 429.665 290.478C428.649 289.418 427.808 288.203 427.171 286.88C426.466 285.609 425.827 284.306 425.204 282.997C423.944 280.383 422.852 277.698 421.748 275.019C419.561 269.653 417.58 264.208 415.664 258.745C413.721 253.29 411.949 247.779 410.183 242.267C409.268 239.529 408.235 236.867 407.269 234.163C406.776 232.819 406.21 231.502 405.573 230.219L403.777 226.316C403.169 225.02 402.366 223.831 401.67 222.581C400.923 221.364 400.284 220.072 399.449 218.913L396.925 215.448C396.104 214.277 395.196 213.171 394.207 212.139L392.778 210.539C392.322 209.989 391.824 209.475 391.288 209.001L388.107 206.122C385.889 204.311 383.527 202.683 381.046 201.255C376.061 198.376 370.6 196.415 364.924 195.464C362.084 195.006 359.21 194.79 356.334 194.819C354.925 194.731 353.513 194.903 352.166 195.326C351.541 195.511 350.976 195.858 350.528 196.332C350.08 196.806 349.765 197.39 349.615 198.025V197.958C350.034 201.711 349.789 205.508 348.89 209.176C347.934 212.916 345.88 216.284 342.994 218.844C340.061 221.312 336.565 223.015 332.816 223.802C329.133 224.66 325.335 224.909 321.572 224.54C321.47 224.53 321.373 224.491 321.292 224.428C321.211 224.365 321.149 224.281 321.113 224.185L317.463 214.301L313.927 204.373C313.92 204.353 313.921 204.331 313.93 204.312C313.938 204.293 313.954 204.278 313.974 204.271C313.993 204.263 314.015 204.263 314.034 204.271C314.053 204.28 314.069 204.295 314.077 204.314V204.314Z" fill="black"/>
<path d="M297.557 200.878C291.832 202.736 286.343 205.253 281.198 208.379C276.044 211.437 271.275 215.103 266.995 219.299C262.711 223.462 259.045 228.219 256.109 233.423C253.183 238.672 250.217 243.969 247.146 249.152C244.077 254.341 240.904 259.473 238.26 264.834C236.906 267.473 235.842 270.251 235.086 273.12C234.308 275.919 234.37 278.886 235.265 281.65C236.381 284.364 238.17 286.748 240.463 288.578C242.717 290.524 245.208 292.177 247.875 293.499C253.279 296.145 259.063 297.928 265.018 298.784C262.008 298.516 259.027 297.99 256.106 297.214C253.167 296.462 250.299 295.456 247.534 294.207C244.76 292.923 242.162 291.29 239.802 289.347C238.625 288.355 237.526 287.274 236.515 286.114C235.501 284.909 234.689 283.548 234.11 282.083C233.04 279.101 232.909 275.862 233.737 272.803C234.493 269.827 235.569 266.942 236.947 264.198C239.599 258.715 242.736 253.546 245.768 248.336C248.887 243.167 251.856 237.961 254.844 232.701C257.859 227.389 261.67 222.571 266.143 218.414C275.028 210.091 285.813 204.071 297.557 200.878Z" fill="black"/>
<path d="M243.316 268.456C244.714 267.109 246.276 265.943 247.965 264.986C249.649 264.003 251.428 263.193 253.274 262.568C255.144 261.959 257.083 261.59 259.045 261.469C261.008 261.379 262.969 261.691 264.807 262.388C262.923 262.323 261.036 262.432 259.172 262.714C257.345 263.053 255.542 263.513 253.775 264.091C252 264.664 250.265 265.37 248.526 266.1C246.793 266.848 245.069 267.636 243.316 268.456Z" fill="black"/>
<path d="M372.57 284.629C374.683 282.961 376.659 281.183 378.611 279.381C380.546 277.563 382.436 275.7 384.279 273.794C386.128 271.891 387.921 269.932 389.708 267.957C391.497 265.982 393.233 263.958 395.075 261.984C393.774 264.345 392.302 266.607 390.673 268.754C389.05 270.909 387.299 272.964 385.43 274.909C383.549 276.849 381.54 278.66 379.418 280.331C377.313 282.029 375.014 283.471 372.57 284.629Z" fill="black"/>
<path d="M365.646 221.383C368.542 220.753 371.527 220.648 374.46 221.071C377.438 221.472 380.314 222.426 382.942 223.883C384.252 224.63 385.491 225.494 386.645 226.465C387.755 227.48 388.759 228.606 389.641 229.825C390.107 230.409 390.524 231.031 390.885 231.685L391.903 233.67C392.22 234.339 392.481 235.033 392.684 235.745C392.922 236.443 393.141 237.144 393.344 237.844C392.09 235.245 390.517 232.814 388.662 230.605C387.744 229.532 386.741 228.535 385.663 227.623C384.562 226.747 383.389 225.964 382.159 225.282C379.681 223.902 377.013 222.897 374.241 222.299C371.418 221.682 368.536 221.374 365.646 221.383Z" fill="black"/>
<path d="M275.536 361.131L267.339 373.636C264.608 377.805 261.851 381.956 259.067 386.089C259.002 386.185 258.914 386.262 258.811 386.314C258.708 386.366 258.594 386.39 258.478 386.385C258.363 386.379 258.251 386.344 258.154 386.282C258.056 386.221 257.976 386.135 257.922 386.033L257.898 385.989C255.916 382.439 253.47 379.17 250.626 376.266C247.786 373.333 244.708 370.64 241.425 368.214C239.734 367.07 238.093 365.851 236.315 364.84C235.435 364.322 234.583 363.757 233.68 363.279L230.968 361.853C230.074 361.357 229.147 360.928 228.21 360.519L225.415 359.26C223.527 358.478 221.598 357.795 219.692 357.056L219.67 357.048C219.411 356.947 219.202 356.75 219.086 356.499C218.97 356.247 218.956 355.96 219.047 355.698C220.936 350.29 222.942 344.925 224.891 339.539C226.849 334.156 228.805 328.772 230.832 323.415L242.876 291.224C242.92 291.106 243.009 291.011 243.123 290.959C243.238 290.907 243.368 290.903 243.485 290.947C243.512 290.957 243.537 290.969 243.562 290.983C246.856 292.933 250.316 294.586 253.902 295.924C257.463 297.316 261.215 298.154 265.029 298.409C265.124 298.413 265.213 298.453 265.279 298.521C265.346 298.589 265.383 298.68 265.385 298.774L265.385 298.802C265.453 300.107 265.818 301.379 266.452 302.52C267.09 303.689 267.903 304.752 268.864 305.672C269.829 306.602 270.888 307.428 272.025 308.137L273.78 309.134L275.609 309.998L275.617 310.002C275.692 310.038 275.756 310.094 275.801 310.164C275.846 310.234 275.87 310.315 275.871 310.398L276.494 372.699L276.648 403.85C276.721 414.233 276.713 424.617 276.682 435V435.007C276.68 435.214 276.628 435.418 276.529 435.6C275.884 436.72 274.966 437.659 273.862 438.329C272.85 438.959 271.755 439.444 270.609 439.769C268.439 440.383 266.204 440.737 263.951 440.825C259.574 441.001 255.19 440.814 250.844 440.263C242.252 439.138 233.73 437.533 225.317 435.455C216.904 433.467 208.588 431.129 200.323 428.645C192.053 426.172 183.854 423.485 175.725 420.584L175.718 420.581C175.68 420.567 175.646 420.543 175.621 420.512C174.422 418.997 173.443 417.321 172.712 415.532C172.7 415.503 172.7 415.47 172.712 415.441C172.723 415.412 172.746 415.388 172.775 415.375C172.804 415.363 172.837 415.362 172.866 415.373C172.895 415.385 172.919 415.407 172.932 415.436C173.718 417.164 174.744 418.773 175.979 420.214L175.874 420.142C184.1 422.705 192.394 425.054 200.696 427.338C209.007 429.594 217.36 431.663 225.755 433.544C234.118 435.462 242.581 436.912 251.106 437.887C255.32 438.392 259.567 438.557 263.807 438.38C265.865 438.295 267.906 437.967 269.887 437.404C271.697 437.003 273.289 435.93 274.341 434.401L274.188 435C274.157 424.617 274.149 414.233 274.222 403.85L274.377 372.699L274.999 310.398L275.261 310.798L273.385 309.894L271.578 308.848C270.396 308.098 269.296 307.226 268.297 306.246C267.285 305.262 266.432 304.127 265.766 302.881C265.074 301.615 264.69 300.202 264.644 298.759L264.999 299.152C263.053 299.026 261.119 298.752 259.214 298.334C257.321 297.892 255.455 297.343 253.624 296.69C249.968 295.371 246.437 293.728 243.072 291.782L243.757 291.542L232.528 324.026C230.676 329.447 228.753 334.842 226.832 340.238C224.901 345.631 223.028 351.045 221.037 356.416L220.392 355.058C222.335 355.831 224.299 356.551 226.222 357.37L229.069 358.688C230.023 359.116 230.968 359.565 231.879 360.082L234.642 361.571C235.561 362.07 236.431 362.658 237.327 363.198C239.137 364.253 240.811 365.519 242.531 366.712C245.892 369.221 249.009 372.042 251.839 375.138C254.717 378.224 257.168 381.684 259.123 385.424L257.955 385.324C260.822 381.248 263.706 377.184 266.609 373.133L275.338 360.995C275.356 360.969 275.384 360.952 275.415 360.946C275.446 360.941 275.478 360.948 275.504 360.966C275.529 360.984 275.547 361.011 275.553 361.042C275.559 361.073 275.553 361.105 275.536 361.131L275.536 361.131Z" fill="black"/>
<path d="M245.816 391.868C248.217 390.86 250.723 390.123 253.287 389.671C255.859 389.174 258.477 388.952 261.096 389.007C263.741 389.04 266.366 389.48 268.878 390.313C271.39 391.148 273.647 392.611 275.437 394.563C273.323 393.158 270.983 392.126 268.521 391.512C267.904 391.388 267.293 391.258 266.685 391.114L264.819 390.865C264.202 390.759 263.57 390.739 262.943 390.692C262.316 390.645 261.689 390.596 261.056 390.61C258.52 390.55 255.983 390.649 253.46 390.906C250.921 391.15 248.379 391.47 245.816 391.868Z" fill="black"/>
<path d="M222.845 357.091C218.962 365.937 214.648 374.56 210.229 383.127C205.767 391.673 201.197 400.162 196.192 408.425C200.071 399.576 204.385 390.954 208.808 382.388C213.273 373.844 217.844 365.355 222.845 357.091Z" fill="black"/>
<path d="M228.698 416.896C232.477 410.306 236.649 403.986 240.928 397.74C245.247 391.522 249.66 385.37 254.48 379.498C250.704 386.091 246.528 392.407 242.246 398.651C237.925 404.867 233.515 411.022 228.698 416.896Z" fill="black"/>
<path d="M216.969 450.112C222.396 449.796 227.811 449.4 233.226 448.978C232.754 451.233 231.685 453.32 230.13 455.018C230.13 455.018 141.469 463.681 128.202 456.745C128.202 456.745 123.578 445.484 131.944 441.449C134.723 440.104 140.928 437.637 148.569 434.407C150.872 434.786 153.114 435.474 155.235 436.451C157.342 437.416 159.295 438.687 161.032 440.222C161.889 440.99 162.686 441.824 163.416 442.714C164.111 443.626 164.732 444.592 165.274 445.602C166.342 447.63 167.11 449.802 167.553 452.051L167.566 452.064C167.594 452.191 167.666 452.305 167.77 452.385C167.873 452.465 168.002 452.505 168.132 452.499L184.415 451.84L200.699 451.048C206.126 450.798 211.541 450.442 216.969 450.112Z" fill="black"/>
<path d="M228.694 416.895C202.056 430.081 196.193 408.429 196.193 408.429C192.094 411.955 187.665 415.077 182.967 417.752C184.048 417.8 185.107 418.074 186.076 418.556C187.105 419.051 188.045 419.715 188.855 420.521C189.659 421.321 190.327 422.248 190.831 423.264C191.337 424.27 191.654 425.361 191.767 426.481C191.122 425.558 190.594 424.635 189.949 423.804C189.34 422.966 188.662 422.181 187.92 421.457C187.196 420.72 186.406 420.049 185.562 419.453C184.713 418.84 183.824 418.285 182.901 417.792C180.766 419.057 178.558 420.297 176.275 421.51C177.297 421.574 178.296 421.843 179.212 422.301C181.277 423.292 182.948 424.95 183.955 427.009C184.466 428.013 184.784 429.105 184.89 430.227C184.258 429.29 183.718 428.38 183.085 427.55C182.473 426.71 181.795 425.921 181.057 425.189C180.324 424.455 179.531 423.785 178.686 423.185C177.865 422.586 177.002 422.049 176.103 421.576C173.772 422.816 171.387 424.029 168.989 425.203C170.115 425.231 171.221 425.506 172.23 426.007C174.3 427.002 175.975 428.664 176.986 430.728C177.491 431.73 177.808 432.816 177.922 433.932C177.289 433.009 176.749 432.086 176.103 431.255C175.499 430.417 174.825 429.632 174.088 428.908C173.359 428.17 172.565 427.5 171.717 426.904C170.85 426.272 169.938 425.703 168.989 425.203C161.941 428.644 154.774 431.783 148.569 434.407C150.917 434.625 153.22 435.185 155.407 436.069C157.615 436.94 159.67 438.16 161.493 439.682C162.412 440.445 163.267 441.283 164.049 442.187C164.807 443.116 165.49 444.104 166.091 445.141C167.209 447.077 168.031 449.171 168.528 451.352L184.364 450.548L200.647 449.875C206.074 449.625 211.502 449.48 216.93 449.321C222.358 449.15 227.798 449.058 233.226 448.979C236.203 436.846 228.694 416.895 228.694 416.895ZM216.389 440.881C211.291 440.881 211.304 432.969 216.389 432.969C221.487 432.969 221.475 440.881 216.389 440.881Z" fill="black"/>
<path d="M176.248 421.51C176.195 421.537 176.155 421.55 176.102 421.576C176.05 421.55 176.01 421.523 175.958 421.497C176.054 421.495 176.151 421.499 176.248 421.51Z" fill="white"/>
<path d="M182.967 417.751C182.94 417.765 182.927 417.778 182.901 417.791C182.874 417.778 182.861 417.765 182.835 417.751H182.967Z" fill="white"/>
<path d="M275.437 310.4C275.437 310.4 265.05 315.241 308.905 319.861L455.855 296.373L432.774 287.516L275.437 310.4Z" fill="black"/>
<path d="M275.557 310.4C275.795 321.713 276.004 333.027 276.107 344.34C276.23 355.653 276.372 366.967 276.392 378.28C276.424 389.594 276.532 400.907 276.5 412.22C276.462 423.534 276.443 434.847 276.28 446.16L275.725 445.367L299.476 454.304C307.383 457.312 315.341 460.176 323.272 463.119L323.057 463.104C329.608 461.771 336.137 460.337 342.673 458.933L362.269 454.665L401.432 445.996C414.486 443.101 427.541 440.213 440.614 437.412C453.686 434.608 466.74 431.715 479.828 428.984L478.833 430.348C477.687 419.053 476.407 407.765 474.993 396.483C473.591 385.208 472.184 373.931 470.533 362.691C468.87 351.455 467.141 340.224 464.978 329.078C463.885 323.508 462.715 317.952 461.336 312.449C460.082 306.917 458.208 301.545 455.751 296.433L455.747 296.427C455.733 296.399 455.73 296.366 455.739 296.336C455.748 296.306 455.769 296.28 455.797 296.265C455.824 296.25 455.857 296.247 455.887 296.255C455.918 296.264 455.943 296.284 455.959 296.312C458.608 301.369 460.678 306.709 462.131 312.232C463.726 317.704 465.044 323.249 466.259 328.813C468.695 339.94 470.716 351.149 472.503 362.39C474.291 373.631 475.955 384.891 477.396 396.18C478.832 407.471 480.149 418.776 481.348 430.095C481.38 430.403 481.298 430.712 481.117 430.963C480.936 431.214 480.669 431.389 480.367 431.456L480.352 431.459C467.281 434.273 454.176 436.924 441.09 439.664C428.005 442.408 414.901 445.065 401.796 447.714L362.483 455.678L342.841 459.727C336.298 461.095 329.748 462.433 323.219 463.873C323.148 463.887 323.073 463.882 323.004 463.857C315.034 461.025 307.092 458.114 299.099 455.345L275.149 446.954C274.989 446.898 274.85 446.794 274.75 446.657C274.651 446.519 274.596 446.354 274.593 446.184L274.593 446.16C274.431 434.847 274.411 423.534 274.373 412.221C274.342 400.907 274.45 389.594 274.482 378.28C274.501 366.967 274.644 355.653 274.766 344.34C274.87 333.027 275.078 321.713 275.316 310.4C275.317 310.368 275.33 310.338 275.353 310.317C275.375 310.295 275.405 310.282 275.437 310.282C275.468 310.282 275.498 310.295 275.521 310.317C275.543 310.338 275.556 310.368 275.557 310.4L275.557 310.4Z" fill="black"/>
<path d="M308.905 319.861C309.578 325.657 310.148 331.46 310.773 337.259L312.474 354.666C313.584 366.278 314.58 377.877 315.609 389.517C316.439 401.16 317.109 412.807 317.619 424.46L318.266 441.944C318.406 447.775 318.586 453.604 318.639 459.437L316.388 424.525C315.634 412.891 314.967 401.252 314.013 389.64L311.251 354.773L309.994 337.323C309.633 331.502 309.218 325.685 308.905 319.861Z" fill="black"/>
<path d="M280.064 443.091C281.665 443.139 283.246 442.738 284.63 441.932C285.978 441.119 287.087 439.964 287.843 438.582C289.27 435.736 289.958 432.575 289.842 429.392C290.101 422.887 290.275 416.378 290.651 409.875L291.933 390.377C292.315 383.877 292.594 377.372 292.769 370.863C292.772 370.77 292.81 370.681 292.876 370.615C292.942 370.549 293.031 370.511 293.124 370.509C293.217 370.507 293.307 370.54 293.376 370.603C293.445 370.665 293.488 370.752 293.495 370.845L293.496 370.863L295.026 392.383L296.472 413.902L297.194 424.653C297.314 426.444 297.444 428.233 297.603 430.015C297.683 430.904 297.768 431.796 297.883 432.667C297.934 433.098 298.009 433.554 298.087 433.901L298.138 434.102L298.293 434.429C298.401 434.65 298.485 434.86 298.574 435.073C299.208 436.735 299.929 438.363 300.735 439.949C301.562 441.515 302.529 443.003 303.624 444.394C305.85 447.194 308.415 449.706 311.26 451.871C311.268 451.878 311.275 451.886 311.281 451.895C311.286 451.904 311.289 451.914 311.291 451.924C311.292 451.935 311.292 451.945 311.289 451.956C311.286 451.966 311.282 451.975 311.276 451.984C311.263 452 311.245 452.011 311.224 452.014C311.204 452.017 311.184 452.013 311.166 452.002C308.131 450.022 305.376 447.641 302.978 444.923C300.612 442.142 298.726 438.986 297.398 435.584C297.308 435.385 297.219 435.18 297.123 435L296.982 434.721L296.823 434.282C296.702 433.816 296.607 433.343 296.539 432.866C296.393 431.958 296.282 431.063 296.176 430.164C295.964 428.369 295.782 426.576 295.611 424.783C295.293 421.194 295.01 417.606 294.761 414.017C294.264 406.838 293.934 399.651 293.569 392.467C293.224 385.281 292.999 378.091 292.769 370.9L293.496 370.901C293.075 377.396 292.757 383.897 292.543 390.404L292.034 409.923C291.813 416.426 291.39 422.923 291.053 429.423C291.052 432.781 290.188 436.082 288.543 439.008C287.68 440.455 286.421 441.624 284.914 442.376C283.407 443.128 281.717 443.432 280.043 443.25C280.023 443.248 280.004 443.237 279.991 443.221C279.979 443.205 279.972 443.185 279.974 443.165C279.976 443.144 279.985 443.125 280 443.112C280.016 443.098 280.036 443.091 280.056 443.091L280.064 443.091Z" fill="black"/>
<path d="M351.157 313.108C351.157 313.108 375.592 307.512 376.09 361.901C376.145 367.915 376.364 376.103 377.764 381.952C380.639 393.966 386.698 407.754 394.397 396.071C396.981 392.06 398.305 387.365 398.199 382.593C398.121 376.181 396.581 366.61 389.304 359.138C377.252 346.761 380.36 342.965 381.515 336.034C382.669 329.103 385.5 324.433 377.764 317.262L370.028 310.092L383.823 307.887C391.42 310.159 397.768 319.477 397.383 327.948C397.321 329.319 397.218 330.72 397.09 332.107C396.286 340.712 398.474 349.332 403.285 356.51C408.365 364.073 413.924 374.833 413.924 385.707C413.924 405.73 391.997 433.069 372.571 411.409C353.144 389.75 360.453 385.707 361.222 354.132C361.992 322.557 330.076 316.478 330.076 316.478L351.157 313.108Z" fill="black"/>
<path d="M298.636 139.838C295.711 145.889 293.551 152.281 292.205 158.866C291.953 160.518 291.829 162.187 291.833 163.858C291.762 165.565 291.635 167.272 291.412 168.971C291.256 170.704 290.759 172.388 289.949 173.928C289.452 174.634 288.881 175.285 288.246 175.869C287.732 176.43 287.429 177.154 287.391 177.914C287.394 178.251 287.498 178.579 287.689 178.856C287.88 179.133 288.151 179.346 288.464 179.467C288.757 179.614 289.229 179.769 289.617 179.948C290.11 180.139 290.546 180.451 290.886 180.855C291.179 181.299 291.36 181.807 291.414 182.335C291.486 182.784 291.531 183.203 291.584 183.626C291.689 184.466 291.772 185.302 291.896 186.128C292.306 189.415 293.158 192.631 294.428 195.689C295.658 198.671 297.878 201.31 301.152 201.436C304.514 201.745 307.879 202.083 311.261 202.531L311.269 202.532C311.289 202.535 311.308 202.545 311.321 202.56C311.333 202.576 311.34 202.595 311.339 202.616C311.338 202.636 311.329 202.655 311.315 202.669C311.3 202.683 311.281 202.691 311.261 202.691C307.875 202.773 304.473 202.745 301.067 202.688C300.618 202.684 300.171 202.639 299.73 202.552L299.038 202.44C298.813 202.375 298.593 202.296 298.378 202.203C297.5 201.882 296.688 201.401 295.984 200.784C294.642 199.564 293.58 198.068 292.872 196.399C291.521 193.189 290.686 189.786 290.399 186.315C290.305 185.459 290.231 184.607 290.176 183.757C290.194 183.024 290.085 182.293 289.853 181.598C289.648 181.349 289.385 181.153 289.088 181.027C288.722 180.821 288.391 180.691 287.94 180.428C287.492 180.176 287.116 179.814 286.847 179.375C286.588 178.923 286.472 178.404 286.514 177.884C286.617 176.939 287.05 176.06 287.738 175.403C288.059 175.063 288.425 174.822 288.704 174.552C288.993 174.271 289.251 173.96 289.474 173.624C290.304 172.183 290.79 170.569 290.895 168.909C291.041 167.231 291.057 165.544 290.941 163.863C290.777 162.146 290.757 160.418 290.881 158.697C291.324 155.271 292.258 151.927 293.653 148.768C294.981 145.619 296.603 142.602 298.497 139.758C298.503 139.749 298.51 139.742 298.519 139.736C298.528 139.73 298.538 139.726 298.548 139.724C298.558 139.722 298.569 139.722 298.579 139.725C298.59 139.727 298.6 139.731 298.608 139.737C298.624 139.748 298.635 139.764 298.64 139.783C298.645 139.801 298.644 139.821 298.636 139.838Z" fill="black"/>
<path d="M287.097 162.703C288.081 165.064 288.903 167.482 289.812 169.87C290.614 172.295 291.501 174.69 292.226 177.143C292.233 177.17 292.233 177.198 292.225 177.224C292.217 177.251 292.201 177.274 292.18 177.292C292.158 177.309 292.132 177.32 292.104 177.322C292.077 177.325 292.049 177.319 292.025 177.306L291.924 177.25C290.631 176.532 289.506 175.546 288.623 174.359C287.84 173.322 287.223 172.17 286.792 170.944C286.359 169.719 286.114 168.435 286.065 167.137C286.003 165.66 286.252 164.186 286.795 162.811L286.838 162.705C286.848 162.679 286.866 162.657 286.889 162.641C286.912 162.626 286.939 162.617 286.967 162.617C286.995 162.617 287.022 162.625 287.045 162.641C287.068 162.656 287.086 162.678 287.097 162.703L287.097 162.703Z" fill="black"/>
<path d="M325.11 171.607C325.094 171.607 325.077 171.605 325.061 171.603C325.009 171.596 324.958 171.58 324.912 171.554C324.866 171.528 324.826 171.493 324.794 171.452C324.761 171.41 324.738 171.363 324.724 171.312C324.71 171.261 324.706 171.208 324.712 171.156C324.734 170.915 324.703 170.673 324.622 170.445C324.542 170.218 324.412 170.01 324.244 169.837C319.642 164.429 287.257 163.17 286.931 163.158C286.824 163.154 286.724 163.108 286.652 163.03C286.579 162.952 286.541 162.848 286.545 162.742C286.541 162.687 286.55 162.633 286.57 162.583C286.59 162.533 286.621 162.487 286.661 162.45C286.701 162.414 286.748 162.386 286.8 162.37C286.852 162.354 286.907 162.349 286.96 162.357C288.308 162.406 320.026 163.643 324.854 169.317C325.096 169.574 325.279 169.88 325.391 170.214C325.504 170.548 325.543 170.903 325.507 171.254C325.495 171.351 325.449 171.44 325.375 171.505C325.302 171.57 325.208 171.606 325.11 171.607Z" fill="black"/>
<path d="M322.621 183.998C330.988 193.673 349.201 197.99 349.201 197.99C357.423 194.236 357.568 161.169 354.827 142.253C352.086 123.337 329.005 127.957 323.022 130.123C317.039 132.289 299.104 134.311 299.104 134.311C299.104 134.311 303.327 170.41 312.271 172.287C312.271 172.287 320.089 164.158 322.726 170.533C323.146 171.601 323.319 172.75 323.231 173.895L322.621 183.998Z" fill="black"/>
<path d="M318.687 188.671C317.323 188.597 316.001 188.171 314.848 187.436C314.756 187.383 314.689 187.296 314.661 187.193C314.633 187.09 314.648 186.981 314.7 186.889C314.753 186.797 314.841 186.729 314.943 186.701C315.046 186.674 315.155 186.688 315.247 186.741C317.262 187.894 318.895 188.162 320.104 187.542C321.979 186.571 322.272 183.732 322.274 183.704C322.278 183.651 322.293 183.6 322.317 183.553C322.341 183.506 322.375 183.464 322.416 183.431C322.457 183.397 322.504 183.372 322.554 183.357C322.605 183.342 322.658 183.337 322.711 183.343C322.763 183.348 322.814 183.364 322.861 183.388C322.907 183.413 322.948 183.447 322.982 183.488C323.016 183.528 323.041 183.575 323.056 183.625C323.072 183.676 323.077 183.729 323.072 183.781C323.059 183.915 322.731 187.084 320.472 188.254C319.919 188.535 319.307 188.678 318.687 188.671Z" fill="black"/>
<path d="M291.441 188.269C291.732 189.062 292.264 189.743 292.963 190.216C293.304 190.407 293.68 190.526 294.069 190.567C294.457 190.608 294.85 190.57 295.223 190.456C296.853 189.916 298.411 189.182 299.865 188.269C298.704 189.682 297.149 190.716 295.398 191.238C294.924 191.374 294.425 191.399 293.941 191.31C293.456 191.221 292.998 191.021 292.604 190.726C292.246 190.424 291.956 190.048 291.756 189.624C291.555 189.2 291.448 188.738 291.441 188.269Z" fill="black"/>
<path d="M293.902 171.903C294.525 171.881 295.115 171.618 295.549 171.169C295.982 170.72 296.224 170.12 296.224 169.496C296.224 168.872 295.982 168.272 295.549 167.823C295.115 167.374 294.525 167.111 293.902 167.089C293.279 167.111 292.688 167.374 292.255 167.823C291.822 168.272 291.58 168.872 291.58 169.496C291.58 170.12 291.822 170.72 292.255 171.169C292.688 171.618 293.279 171.881 293.902 171.903Z" fill="black"/>
<path d="M204.654 410.639C205.278 410.617 205.868 410.354 206.301 409.905C206.734 409.456 206.976 408.857 206.976 408.233C206.976 407.608 206.734 407.009 206.301 406.56C205.868 406.111 205.278 405.848 204.654 405.826C204.031 405.848 203.441 406.111 203.008 406.56C202.575 407.009 202.333 407.608 202.333 408.233C202.333 408.857 202.575 409.456 203.008 409.905C203.441 410.354 204.031 410.617 204.654 410.639Z" fill="black"/>
<path d="M227.447 400.82C228.07 400.798 228.661 400.535 229.094 400.086C229.527 399.637 229.769 399.038 229.769 398.413C229.769 397.789 229.527 397.19 229.094 396.741C228.661 396.292 228.07 396.029 227.447 396.007C226.824 396.029 226.234 396.292 225.801 396.741C225.368 397.19 225.125 397.789 225.125 398.413C225.125 399.038 225.368 399.637 225.801 400.086C226.234 400.535 226.824 400.798 227.447 400.82Z" fill="black"/>
<path d="M218.504 418.725C219.127 418.704 219.717 418.44 220.15 417.991C220.583 417.543 220.825 416.943 220.825 416.319C220.825 415.695 220.583 415.095 220.15 414.646C219.717 414.197 219.127 413.934 218.504 413.912C217.88 413.934 217.29 414.197 216.857 414.646C216.424 415.095 216.182 415.695 216.182 416.319C216.182 416.943 216.424 417.543 216.857 417.991C217.29 418.44 217.88 418.704 218.504 418.725Z" fill="black"/>
<path d="M214.176 387.824C214.799 387.803 215.389 387.54 215.822 387.091C216.255 386.642 216.497 386.042 216.497 385.418C216.497 384.794 216.255 384.194 215.822 383.745C215.389 383.296 214.799 383.033 214.176 383.011C213.552 383.033 212.962 383.296 212.529 383.745C212.096 384.194 211.854 384.794 211.854 385.418C211.854 386.042 212.096 386.642 212.529 387.091C212.962 387.54 213.552 387.803 214.176 387.824Z" fill="black"/>
<path d="M239.854 382.337C240.477 382.315 241.067 382.052 241.5 381.603C241.933 381.154 242.175 380.555 242.175 379.931C242.175 379.306 241.933 378.707 241.5 378.258C241.067 377.809 240.477 377.546 239.854 377.524C239.23 377.546 238.64 377.809 238.207 378.258C237.774 378.707 237.532 379.306 237.532 379.931C237.532 380.555 237.774 381.154 238.207 381.603C238.64 382.052 239.23 382.315 239.854 382.337Z" fill="black"/>
<path d="M224.851 369.342C225.474 369.32 226.064 369.057 226.497 368.608C226.93 368.159 227.173 367.559 227.173 366.935C227.173 366.311 226.93 365.711 226.497 365.262C226.064 364.813 225.474 364.55 224.851 364.528C224.228 364.55 223.637 364.813 223.204 365.262C222.771 365.711 222.529 366.311 222.529 366.935C222.529 367.559 222.771 368.159 223.204 368.608C223.637 369.057 224.228 369.32 224.851 369.342Z" fill="black"/>
<path d="M226.005 385.803C226.628 385.781 227.218 385.518 227.652 385.069C228.085 384.62 228.327 384.02 228.327 383.396C228.327 382.772 228.085 382.172 227.652 381.723C227.218 381.274 226.628 381.011 226.005 380.99C225.382 381.011 224.791 381.274 224.358 381.723C223.925 382.172 223.683 382.772 223.683 383.396C223.683 384.02 223.925 384.62 224.358 385.069C224.791 385.518 225.382 385.781 226.005 385.803Z" fill="black"/>
<path d="M214.753 402.264C215.376 402.242 215.966 401.979 216.399 401.53C216.833 401.081 217.075 400.481 217.075 399.857C217.075 399.233 216.833 398.633 216.399 398.184C215.966 397.736 215.376 397.472 214.753 397.451C214.13 397.472 213.539 397.736 213.106 398.184C212.673 398.633 212.431 399.233 212.431 399.857C212.431 400.481 212.673 401.081 213.106 401.53C213.539 401.979 214.13 402.242 214.753 402.264Z" fill="black"/>
<path d="M236.159 406.066L233.514 409.909C233.008 409.692 232.59 409.31 232.33 408.824C232.069 408.338 231.982 407.778 232.082 407.236C232.181 406.693 232.462 406.201 232.879 405.84C233.295 405.479 233.821 405.27 234.372 405.248C234.713 405.234 235.053 405.301 235.363 405.443C235.674 405.585 235.946 405.799 236.159 406.066Z" fill="black"/>
<path d="M244.935 393.344L242.234 397.258C241.905 396.92 241.681 396.493 241.59 396.03C241.498 395.567 241.543 395.087 241.719 394.649C241.894 394.21 242.193 393.833 242.579 393.561C242.965 393.29 243.421 393.136 243.893 393.119C244.253 393.113 244.609 393.19 244.935 393.344Z" fill="black"/>
<path d="M281.207 328.814C281.83 328.792 282.421 328.529 282.854 328.08C283.287 327.631 283.529 327.032 283.529 326.408C283.529 325.783 283.287 325.184 282.854 324.735C282.421 324.286 281.83 324.023 281.207 324.001C280.584 324.023 279.994 324.286 279.56 324.735C279.127 325.184 278.885 325.783 278.885 326.408C278.885 327.032 279.127 327.631 279.56 328.08C279.994 328.529 280.584 328.792 281.207 328.814Z" fill="black"/>
<path d="M292.363 336.515C292.987 336.493 293.577 336.23 294.01 335.781C294.443 335.332 294.685 334.733 294.685 334.109C294.685 333.484 294.443 332.885 294.01 332.436C293.577 331.987 292.987 331.724 292.363 331.702C291.74 331.724 291.15 331.987 290.717 332.436C290.284 332.885 290.042 333.484 290.042 334.109C290.042 334.733 290.284 335.332 290.717 335.781C291.15 336.23 291.74 336.493 292.363 336.515Z" fill="black"/>
<path d="M303.904 328.044C304.527 328.022 305.117 327.759 305.55 327.31C305.983 326.861 306.226 326.262 306.226 325.638C306.226 325.013 305.983 324.414 305.55 323.965C305.117 323.516 304.527 323.253 303.904 323.231C303.281 323.253 302.69 323.516 302.257 323.965C301.824 324.414 301.582 325.013 301.582 325.638C301.582 326.262 301.824 326.861 302.257 327.31C302.69 327.759 303.281 328.022 303.904 328.044Z" fill="black"/>
<path d="M282.361 350.762C282.984 350.741 283.575 350.478 284.008 350.029C284.441 349.58 284.683 348.98 284.683 348.356C284.683 347.732 284.441 347.132 284.008 346.683C283.575 346.234 282.984 345.971 282.361 345.949C281.738 345.971 281.148 346.234 280.715 346.683C280.281 347.132 280.039 347.732 280.039 348.356C280.039 348.98 280.281 349.58 280.715 350.029C281.148 350.478 281.738 350.741 282.361 350.762Z" fill="black"/>
<path d="M303.904 349.222C304.527 349.2 305.117 348.937 305.55 348.488C305.983 348.039 306.226 347.44 306.226 346.816C306.226 346.191 305.983 345.592 305.55 345.143C305.117 344.694 304.527 344.431 303.904 344.409C303.281 344.431 302.69 344.694 302.257 345.143C301.824 345.592 301.582 346.191 301.582 346.816C301.582 347.44 301.824 348.039 302.257 348.488C302.69 348.937 303.281 349.2 303.904 349.222Z" fill="black"/>
<path d="M293.133 360.389C293.756 360.367 294.346 360.104 294.779 359.655C295.212 359.206 295.455 358.607 295.455 357.983C295.455 357.358 295.212 356.759 294.779 356.31C294.346 355.861 293.756 355.598 293.133 355.576C292.51 355.598 291.919 355.861 291.486 356.31C291.053 356.759 290.811 357.358 290.811 357.983C290.811 358.607 291.053 359.206 291.486 359.655C291.919 360.104 292.51 360.367 293.133 360.389Z" fill="black"/>
<path d="M283.131 371.941C283.754 371.919 284.344 371.656 284.778 371.207C285.211 370.758 285.453 370.158 285.453 369.534C285.453 368.91 285.211 368.31 284.778 367.861C284.344 367.412 283.754 367.149 283.131 367.127C282.508 367.149 281.917 367.412 281.484 367.861C281.051 368.31 280.809 368.91 280.809 369.534C280.809 370.158 281.051 370.758 281.484 371.207C281.917 371.656 282.508 371.919 283.131 371.941Z" fill="black"/>
<path d="M305.058 372.711C305.681 372.689 306.271 372.426 306.704 371.977C307.138 371.528 307.38 370.928 307.38 370.304C307.38 369.68 307.138 369.08 306.704 368.631C306.271 368.182 305.681 367.919 305.058 367.897C304.435 367.919 303.844 368.182 303.411 368.631C302.978 369.08 302.736 369.68 302.736 370.304C302.736 370.928 302.978 371.528 303.411 371.977C303.844 372.426 304.435 372.689 305.058 372.711Z" fill="black"/>
<path d="M284.285 391.964C284.908 391.942 285.498 391.679 285.931 391.23C286.365 390.781 286.607 390.181 286.607 389.557C286.607 388.933 286.365 388.333 285.931 387.884C285.498 387.435 284.908 387.172 284.285 387.151C283.662 387.172 283.071 387.435 282.638 387.884C282.205 388.333 281.963 388.933 281.963 389.557C281.963 390.181 282.205 390.781 282.638 391.23C283.071 391.679 283.662 391.942 284.285 391.964Z" fill="black"/>
<path d="M305.058 392.734C305.681 392.712 306.271 392.449 306.704 392C307.138 391.551 307.38 390.951 307.38 390.327C307.38 389.703 307.138 389.103 306.704 388.654C306.271 388.205 305.681 387.942 305.058 387.921C304.435 387.942 303.844 388.205 303.411 388.654C302.978 389.103 302.736 389.703 302.736 390.327C302.736 390.951 302.978 391.551 303.411 392C303.844 392.449 304.435 392.712 305.058 392.734Z" fill="black"/>
<path d="M283.515 409.676C284.139 409.654 284.729 409.391 285.162 408.942C285.595 408.494 285.837 407.894 285.837 407.27C285.837 406.646 285.595 406.046 285.162 405.597C284.729 405.148 284.139 404.885 283.515 404.863C282.892 404.885 282.302 405.148 281.869 405.597C281.436 406.046 281.194 406.646 281.194 407.27C281.194 407.894 281.436 408.494 281.869 408.942C282.302 409.391 282.892 409.654 283.515 409.676Z" fill="black"/>
<path d="M305.058 411.602C305.681 411.58 306.271 411.317 306.704 410.868C307.138 410.419 307.38 409.819 307.38 409.195C307.38 408.571 307.138 407.971 306.704 407.522C306.271 407.073 305.681 406.81 305.058 406.789C304.435 406.81 303.844 407.073 303.411 407.522C302.978 407.971 302.736 408.571 302.736 409.195C302.736 409.819 302.978 410.419 303.411 410.868C303.844 411.317 304.435 411.58 305.058 411.602Z" fill="black"/>
<path d="M283.9 429.315C284.523 429.293 285.113 429.03 285.547 428.581C285.98 428.132 286.222 427.532 286.222 426.908C286.222 426.284 285.98 425.684 285.547 425.235C285.113 424.786 284.523 424.523 283.9 424.501C283.277 424.523 282.686 424.786 282.253 425.235C281.82 425.684 281.578 426.284 281.578 426.908C281.578 427.532 281.82 428.132 282.253 428.581C282.686 429.03 283.277 429.293 283.9 429.315Z" fill="black"/>
<path d="M305.442 430.085C306.066 430.063 306.656 429.8 307.089 429.351C307.522 428.902 307.764 428.302 307.764 427.678C307.764 427.054 307.522 426.454 307.089 426.005C306.656 425.556 306.066 425.293 305.442 425.271C304.819 425.293 304.229 425.556 303.796 426.005C303.363 426.454 303.121 427.054 303.121 427.678C303.121 428.302 303.363 428.902 303.796 429.351C304.229 429.8 304.819 430.063 305.442 430.085Z" fill="black"/>
<path d="M294.287 443.946C294.91 443.925 295.5 443.662 295.933 443.213C296.366 442.764 296.609 442.164 296.609 441.54C296.609 440.916 296.366 440.316 295.933 439.867C295.5 439.418 294.91 439.155 294.287 439.133C293.664 439.155 293.073 439.418 292.64 439.867C292.207 440.316 291.965 440.916 291.965 441.54C291.965 442.164 292.207 442.764 292.64 443.213C293.073 443.662 293.664 443.925 294.287 443.946Z" fill="black"/>
<path d="M310.444 447.027C311.067 447.006 311.657 446.742 312.09 446.294C312.523 445.845 312.766 445.245 312.766 444.621C312.766 443.997 312.523 443.397 312.09 442.948C311.657 442.499 311.067 442.236 310.444 442.214C309.821 442.236 309.23 442.499 308.797 442.948C308.364 443.397 308.122 443.997 308.122 444.621C308.122 445.245 308.364 445.845 308.797 446.294C309.23 446.742 309.821 447.006 310.444 447.027Z" fill="black"/>
<path d="M316.598 335.36C317.221 335.338 317.812 335.075 318.245 334.626C318.678 334.177 318.92 333.578 318.92 332.953C318.92 332.329 318.678 331.73 318.245 331.281C317.812 330.832 317.221 330.569 316.598 330.547C315.975 330.569 315.385 330.832 314.952 331.281C314.518 331.73 314.276 332.329 314.276 332.953C314.276 333.578 314.518 334.177 314.952 334.626C315.385 335.075 315.975 335.338 316.598 335.36Z" fill="black"/>
<path d="M326.6 326.504C327.224 326.482 327.814 326.219 328.247 325.77C328.68 325.321 328.922 324.721 328.922 324.097C328.922 323.473 328.68 322.873 328.247 322.424C327.814 321.976 327.224 321.712 326.6 321.691C325.977 321.712 325.387 321.976 324.954 322.424C324.521 322.873 324.279 323.473 324.279 324.097C324.279 324.721 324.521 325.321 324.954 325.77C325.387 326.219 325.977 326.482 326.6 326.504Z" fill="black"/>
<path d="M338.91 332.665C339.533 332.643 340.124 332.38 340.557 331.931C340.99 331.482 341.232 330.882 341.232 330.258C341.232 329.634 340.99 329.034 340.557 328.585C340.124 328.136 339.533 327.873 338.91 327.851C338.287 327.873 337.697 328.136 337.264 328.585C336.83 329.034 336.588 329.634 336.588 330.258C336.588 330.882 336.83 331.482 337.264 331.931C337.697 332.38 338.287 332.643 338.91 332.665Z" fill="black"/>
<path d="M330.447 342.676C331.07 342.655 331.661 342.392 332.094 341.943C332.527 341.494 332.769 340.894 332.769 340.27C332.769 339.646 332.527 339.046 332.094 338.597C331.661 338.148 331.07 337.885 330.447 337.863C329.824 337.885 329.234 338.148 328.8 338.597C328.367 339.046 328.125 339.646 328.125 340.27C328.125 340.894 328.367 341.494 328.8 341.943C329.234 342.392 329.824 342.655 330.447 342.676Z" fill="black"/>
<path d="M323.138 358.079C323.761 358.057 324.352 357.794 324.785 357.345C325.218 356.896 325.46 356.296 325.46 355.672C325.46 355.048 325.218 354.448 324.785 353.999C324.352 353.55 323.761 353.287 323.138 353.265C322.515 353.287 321.925 353.55 321.491 353.999C321.058 354.448 320.816 355.048 320.816 355.672C320.816 356.296 321.058 356.896 321.491 357.345C321.925 357.794 322.515 358.057 323.138 358.079Z" fill="black"/>
<path d="M345.066 353.458C345.689 353.436 346.279 353.173 346.712 352.724C347.145 352.275 347.387 351.675 347.387 351.051C347.387 350.427 347.145 349.828 346.712 349.379C346.279 348.93 345.689 348.667 345.066 348.645C344.442 348.667 343.852 348.93 343.419 349.379C342.986 349.828 342.744 350.427 342.744 351.051C342.744 351.675 342.986 352.275 343.419 352.724C343.852 353.173 344.442 353.436 345.066 353.458Z" fill="black"/>
<path d="M336.602 365.395C337.225 365.373 337.816 365.11 338.249 364.661C338.682 364.212 338.924 363.612 338.924 362.988C338.924 362.364 338.682 361.764 338.249 361.315C337.816 360.866 337.225 360.603 336.602 360.582C335.979 360.603 335.389 360.866 334.956 361.315C334.522 361.764 334.28 362.364 334.28 362.988C334.28 363.612 334.522 364.212 334.956 364.661C335.389 365.11 335.979 365.373 336.602 365.395Z" fill="black"/>
<path d="M325.831 377.332C326.454 377.31 327.045 377.047 327.478 376.598C327.911 376.149 328.153 375.549 328.153 374.925C328.153 374.301 327.911 373.701 327.478 373.252C327.045 372.803 326.454 372.54 325.831 372.519C325.208 372.54 324.618 372.803 324.185 373.252C323.751 373.701 323.509 374.301 323.509 374.925C323.509 375.549 323.751 376.149 324.185 376.598C324.618 377.047 325.208 377.31 325.831 377.332Z" fill="black"/>
<path d="M348.527 372.326C349.151 372.304 349.741 372.041 350.174 371.592C350.607 371.143 350.849 370.543 350.849 369.919C350.849 369.295 350.607 368.695 350.174 368.246C349.741 367.797 349.151 367.534 348.527 367.512C347.904 367.534 347.314 367.797 346.881 368.246C346.448 368.695 346.206 369.295 346.206 369.919C346.206 370.543 346.448 371.143 346.881 371.592C347.314 372.041 347.904 372.304 348.527 372.326Z" fill="black"/>
<path d="M339.68 386.188C340.303 386.166 340.893 385.903 341.326 385.454C341.759 385.005 342.001 384.405 342.001 383.781C342.001 383.157 341.759 382.557 341.326 382.108C340.893 381.659 340.303 381.396 339.68 381.375C339.056 381.396 338.466 381.659 338.033 382.108C337.6 382.557 337.358 383.157 337.358 383.781C337.358 384.405 337.6 385.005 338.033 385.454C338.466 385.903 339.056 386.166 339.68 386.188Z" fill="black"/>
<path d="M327.37 397.355C327.993 397.333 328.583 397.07 329.016 396.621C329.45 396.172 329.692 395.572 329.692 394.948C329.692 394.324 329.45 393.724 329.016 393.275C328.583 392.826 327.993 392.563 327.37 392.542C326.747 392.563 326.156 392.826 325.723 393.275C325.29 393.724 325.048 394.324 325.048 394.948C325.048 395.572 325.29 396.172 325.723 396.621C326.156 397.07 326.747 397.333 327.37 397.355Z" fill="black"/>
<path d="M344.296 407.751C344.919 407.729 345.509 407.466 345.943 407.017C346.376 406.568 346.618 405.968 346.618 405.344C346.618 404.72 346.376 404.12 345.943 403.672C345.509 403.223 344.919 402.96 344.296 402.938C343.673 402.96 343.082 403.223 342.649 403.672C342.216 404.12 341.974 404.72 341.974 405.344C341.974 405.968 342.216 406.568 342.649 407.017C343.082 407.466 343.673 407.729 344.296 407.751Z" fill="black"/>
<path d="M352.374 392.734C352.997 392.712 353.588 392.449 354.021 392C354.454 391.551 354.696 390.951 354.696 390.327C354.696 389.703 354.454 389.103 354.021 388.654C353.588 388.205 352.997 387.942 352.374 387.921C351.751 387.942 351.161 388.205 350.728 388.654C350.295 389.103 350.052 389.703 350.052 390.327C350.052 390.951 350.295 391.551 350.728 392C351.161 392.449 351.751 392.712 352.374 392.734Z" fill="black"/>
<path d="M330.447 416.608C331.07 416.586 331.661 416.323 332.094 415.874C332.527 415.425 332.769 414.825 332.769 414.201C332.769 413.577 332.527 412.977 332.094 412.528C331.661 412.079 331.07 411.816 330.447 411.794C329.824 411.816 329.234 412.079 328.8 412.528C328.367 412.977 328.125 413.577 328.125 414.201C328.125 414.825 328.367 415.425 328.8 415.874C329.234 416.323 329.824 416.586 330.447 416.608Z" fill="black"/>
<path d="M348.143 428.93C348.766 428.908 349.356 428.645 349.79 428.196C350.223 427.747 350.465 427.147 350.465 426.523C350.465 425.899 350.223 425.299 349.79 424.85C349.356 424.401 348.766 424.138 348.143 424.116C347.52 424.138 346.929 424.401 346.496 424.85C346.063 425.299 345.821 425.899 345.821 426.523C345.821 427.147 346.063 427.747 346.496 428.196C346.929 428.645 347.52 428.908 348.143 428.93Z" fill="black"/>
<path d="M359.684 411.217C360.307 411.195 360.897 410.932 361.33 410.483C361.763 410.034 362.006 409.435 362.006 408.81C362.006 408.186 361.763 407.587 361.33 407.138C360.897 406.689 360.307 406.426 359.684 406.404C359.061 406.426 358.47 406.689 358.037 407.138C357.604 407.587 357.362 408.186 357.362 408.81C357.362 409.435 357.604 410.034 358.037 410.483C358.47 410.932 359.061 411.195 359.684 411.217Z" fill="black"/>
<path d="M332.37 440.866C332.994 440.844 333.584 440.581 334.017 440.132C334.45 439.683 334.692 439.084 334.692 438.46C334.692 437.835 334.45 437.236 334.017 436.787C333.584 436.338 332.994 436.075 332.37 436.053C331.747 436.075 331.157 436.338 330.724 436.787C330.291 437.236 330.049 437.835 330.049 438.46C330.049 439.084 330.291 439.683 330.724 440.132C331.157 440.581 331.747 440.844 332.37 440.866Z" fill="black"/>
<path d="M351.22 452.418C351.843 452.396 352.434 452.133 352.867 451.684C353.3 451.235 353.542 450.635 353.542 450.011C353.542 449.387 353.3 448.787 352.867 448.339C352.434 447.89 351.843 447.626 351.22 447.605C350.597 447.626 350.007 447.89 349.574 448.339C349.141 448.787 348.898 449.387 348.898 450.011C348.898 450.635 349.141 451.235 349.574 451.684C350.007 452.133 350.597 452.396 351.22 452.418Z" fill="black"/>
<path d="M335.064 460.119C335.687 460.098 336.277 459.834 336.71 459.386C337.143 458.937 337.385 458.337 337.385 457.713C337.385 457.089 337.143 456.489 336.71 456.04C336.277 455.591 335.687 455.328 335.064 455.306C334.44 455.328 333.85 455.591 333.417 456.04C332.984 456.489 332.742 457.089 332.742 457.713C332.742 458.337 332.984 458.937 333.417 459.386C333.85 459.834 334.44 460.098 335.064 460.119Z" fill="black"/>
<path d="M365.838 439.711C366.462 439.689 367.052 439.426 367.485 438.977C367.918 438.528 368.16 437.929 368.16 437.305C368.16 436.68 367.918 436.081 367.485 435.632C367.052 435.183 366.462 434.92 365.838 434.898C365.215 434.92 364.625 435.183 364.192 435.632C363.759 436.081 363.517 436.68 363.517 437.305C363.517 437.929 363.759 438.528 364.192 438.977C364.625 439.426 365.215 439.689 365.838 439.711Z" fill="black"/>
<path d="M377.764 428.159C378.387 428.138 378.978 427.875 379.411 427.426C379.844 426.977 380.086 426.377 380.086 425.753C380.086 425.129 379.844 424.529 379.411 424.08C378.978 423.631 378.387 423.368 377.764 423.346C377.141 423.368 376.551 423.631 376.117 424.08C375.684 424.529 375.442 425.129 375.442 425.753C375.442 426.377 375.684 426.977 376.117 427.426C376.551 427.875 377.141 428.138 377.764 428.159Z" fill="black"/>
<path d="M384.303 448.182C384.926 448.161 385.517 447.898 385.95 447.449C386.383 447 386.625 446.4 386.625 445.776C386.625 445.152 386.383 444.552 385.95 444.103C385.517 443.654 384.926 443.391 384.303 443.369C383.68 443.391 383.09 443.654 382.657 444.103C382.224 444.552 381.981 445.152 381.981 445.776C381.981 446.4 382.224 447 382.657 447.449C383.09 447.898 383.68 448.161 384.303 448.182Z" fill="black"/>
<path d="M394.305 434.32C394.928 434.298 395.519 434.035 395.952 433.586C396.385 433.137 396.627 432.538 396.627 431.914C396.627 431.29 396.385 430.69 395.952 430.241C395.519 429.792 394.928 429.529 394.305 429.507C393.682 429.529 393.092 429.792 392.659 430.241C392.225 430.69 391.983 431.29 391.983 431.914C391.983 432.538 392.225 433.137 392.659 433.586C393.092 434.035 393.682 434.298 394.305 434.32Z" fill="black"/>
<path d="M407.385 420.073C408.008 420.051 408.598 419.788 409.031 419.339C409.465 418.89 409.707 418.29 409.707 417.666C409.707 417.042 409.465 416.443 409.031 415.994C408.598 415.545 408.008 415.282 407.385 415.26C406.762 415.282 406.171 415.545 405.738 415.994C405.305 416.443 405.063 417.042 405.063 417.666C405.063 418.29 405.305 418.89 405.738 419.339C406.171 419.788 406.762 420.051 407.385 420.073Z" fill="black"/>
<path d="M412.77 440.096C413.393 440.074 413.984 439.811 414.417 439.362C414.85 438.913 415.092 438.314 415.092 437.69C415.092 437.065 414.85 436.466 414.417 436.017C413.984 435.568 413.393 435.305 412.77 435.283C412.147 435.305 411.557 435.568 411.123 436.017C410.69 436.466 410.448 437.065 410.448 437.69C410.448 438.314 410.69 438.913 411.123 439.362C411.557 439.811 412.147 440.074 412.77 440.096Z" fill="black"/>
<path d="M422.772 425.849C423.395 425.827 423.985 425.564 424.418 425.115C424.851 424.666 425.093 424.067 425.093 423.442C425.093 422.818 424.851 422.219 424.418 421.77C423.985 421.321 423.395 421.058 422.772 421.036C422.148 421.058 421.558 421.321 421.125 421.77C420.692 422.219 420.45 422.818 420.45 423.442C420.45 424.067 420.692 424.666 421.125 425.115C421.558 425.564 422.148 425.827 422.772 425.849Z" fill="black"/>
<path d="M433.158 411.987C433.781 411.965 434.372 411.702 434.805 411.253C435.238 410.804 435.48 410.205 435.48 409.58C435.48 408.956 435.238 408.357 434.805 407.908C434.372 407.459 433.781 407.196 433.158 407.174C432.535 407.196 431.945 407.459 431.512 407.908C431.079 408.357 430.836 408.956 430.836 409.58C430.836 410.205 431.079 410.804 431.512 411.253C431.945 411.702 432.535 411.965 433.158 411.987Z" fill="black"/>
<path d="M439.698 432.01C440.321 431.988 440.911 431.725 441.344 431.276C441.778 430.827 442.02 430.228 442.02 429.603C442.02 428.979 441.778 428.38 441.344 427.931C440.911 427.482 440.321 427.219 439.698 427.197C439.075 427.219 438.484 427.482 438.051 427.931C437.618 428.38 437.376 428.979 437.376 429.603C437.376 430.228 437.618 430.827 438.051 431.276C438.484 431.725 439.075 431.988 439.698 432.01Z" fill="black"/>
<path d="M446.238 418.918C446.861 418.896 447.451 418.633 447.885 418.184C448.318 417.735 448.56 417.135 448.56 416.511C448.56 415.887 448.318 415.287 447.885 414.838C447.451 414.389 446.861 414.126 446.238 414.104C445.615 414.126 445.024 414.389 444.591 414.838C444.158 415.287 443.916 415.887 443.916 416.511C443.916 417.135 444.158 417.735 444.591 418.184C445.024 418.633 445.615 418.896 446.238 418.918Z" fill="black"/>
<path d="M458.548 406.596C459.171 406.574 459.761 406.311 460.195 405.862C460.628 405.413 460.87 404.813 460.87 404.189C460.87 403.565 460.628 402.965 460.195 402.516C459.761 402.068 459.171 401.804 458.548 401.783C457.925 401.804 457.334 402.068 456.901 402.516C456.468 402.965 456.226 403.565 456.226 404.189C456.226 404.813 456.468 405.413 456.901 405.862C457.334 406.311 457.925 406.574 458.548 406.596Z" fill="black"/>
<path d="M465.472 428.93C466.095 428.908 466.686 428.645 467.119 428.196C467.552 427.747 467.794 427.147 467.794 426.523C467.794 425.899 467.552 425.299 467.119 424.85C466.686 424.401 466.095 424.138 465.472 424.116C464.849 424.138 464.259 424.401 463.826 424.85C463.392 425.299 463.15 425.899 463.15 426.523C463.15 427.147 463.392 427.747 463.826 428.196C464.259 428.645 464.849 428.908 465.472 428.93Z" fill="black"/>
<path d="M472.011 414.682C472.634 414.661 473.225 414.398 473.658 413.949C474.091 413.5 474.333 412.9 474.333 412.276C474.333 411.652 474.091 411.052 473.658 410.603C473.225 410.154 472.634 409.891 472.011 409.869C471.388 409.891 470.798 410.154 470.365 410.603C469.932 411.052 469.689 411.652 469.689 412.276C469.689 412.9 469.932 413.5 470.365 413.949C470.798 414.398 471.388 414.661 472.011 414.682Z" fill="black"/>
<path d="M441.237 399.28C441.861 399.258 442.451 398.995 442.884 398.546C443.317 398.097 443.559 397.497 443.559 396.873C443.559 396.249 443.317 395.649 442.884 395.2C442.451 394.751 441.861 394.488 441.237 394.467C440.614 394.488 440.024 394.751 439.591 395.2C439.158 395.649 438.916 396.249 438.916 396.873C438.916 397.497 439.158 398.097 439.591 398.546C440.024 398.995 440.614 399.258 441.237 399.28Z" fill="black"/>
<path d="M416.617 401.975C417.24 401.953 417.83 401.69 418.263 401.241C418.697 400.792 418.939 400.193 418.939 399.568C418.939 398.944 418.697 398.345 418.263 397.896C417.83 397.447 417.24 397.184 416.617 397.162C415.994 397.184 415.403 397.447 414.97 397.896C414.537 398.345 414.295 398.944 414.295 399.568C414.295 400.193 414.537 400.792 414.97 401.241C415.403 401.69 415.994 401.953 416.617 401.975Z" fill="black"/>
<path d="M426.234 387.343C426.858 387.321 427.448 387.058 427.881 386.609C428.314 386.16 428.556 385.561 428.556 384.937C428.556 384.312 428.314 383.713 427.881 383.264C427.448 382.815 426.858 382.552 426.234 382.53C425.611 382.552 425.021 382.815 424.588 383.264C424.155 383.713 423.913 384.312 423.913 384.937C423.913 385.561 424.155 386.16 424.588 386.609C425.021 387.058 425.611 387.321 426.234 387.343Z" fill="black"/>
<path d="M452.777 384.647C453.401 384.626 453.991 384.363 454.424 383.914C454.857 383.465 455.099 382.865 455.099 382.241C455.099 381.617 454.857 381.017 454.424 380.568C453.991 380.119 453.401 379.856 452.777 379.834C452.154 379.856 451.564 380.119 451.131 380.568C450.698 381.017 450.456 381.617 450.456 382.241C450.456 382.865 450.698 383.465 451.131 383.914C451.564 384.363 452.154 384.626 452.777 384.647Z" fill="black"/>
<path d="M468.549 391.964C469.173 391.942 469.763 391.679 470.196 391.23C470.629 390.781 470.871 390.181 470.871 389.557C470.871 388.933 470.629 388.333 470.196 387.884C469.763 387.435 469.173 387.172 468.549 387.151C467.926 387.172 467.336 387.435 466.903 387.884C466.47 388.333 466.228 388.933 466.228 389.557C466.228 390.181 466.47 390.781 466.903 391.23C467.336 391.679 467.926 391.942 468.549 391.964Z" fill="black"/>
<path d="M460.087 367.705C460.71 367.683 461.301 367.42 461.734 366.971C462.167 366.522 462.409 365.922 462.409 365.298C462.409 364.674 462.167 364.074 461.734 363.625C461.301 363.176 460.71 362.913 460.087 362.892C459.464 362.913 458.874 363.176 458.44 363.625C458.007 364.074 457.765 364.674 457.765 365.298C457.765 365.922 458.007 366.522 458.44 366.971C458.874 367.42 459.464 367.683 460.087 367.705Z" fill="black"/>
<path d="M437.005 370.4C437.629 370.379 438.219 370.115 438.652 369.667C439.085 369.218 439.327 368.618 439.327 367.994C439.327 367.37 439.085 366.77 438.652 366.321C438.219 365.872 437.629 365.609 437.005 365.587C436.382 365.609 435.792 365.872 435.359 366.321C434.926 366.77 434.684 367.37 434.684 367.994C434.684 368.618 434.926 369.218 435.359 369.667C435.792 370.115 436.382 370.379 437.005 370.4Z" fill="black"/>
<path d="M417.386 370.785C418.009 370.764 418.6 370.501 419.033 370.052C419.466 369.603 419.708 369.003 419.708 368.379C419.708 367.755 419.466 367.155 419.033 366.706C418.6 366.257 418.009 365.994 417.386 365.972C416.763 365.994 416.173 366.257 415.74 366.706C415.307 367.155 415.064 367.755 415.064 368.379C415.064 369.003 415.307 369.603 415.74 370.052C416.173 370.501 416.763 370.764 417.386 370.785Z" fill="black"/>
<path d="M423.157 355.383C423.78 355.361 424.37 355.098 424.803 354.649C425.237 354.201 425.479 353.601 425.479 352.977C425.479 352.353 425.237 351.753 424.803 351.304C424.37 350.855 423.78 350.592 423.157 350.57C422.534 350.592 421.943 350.855 421.51 351.304C421.077 351.753 420.835 352.353 420.835 352.977C420.835 353.601 421.077 354.201 421.51 354.649C421.943 355.098 422.534 355.361 423.157 355.383Z" fill="black"/>
<path d="M445.084 352.688C445.707 352.666 446.298 352.403 446.731 351.954C447.164 351.505 447.406 350.905 447.406 350.281C447.406 349.657 447.164 349.057 446.731 348.609C446.298 348.16 445.707 347.897 445.084 347.875C444.461 347.897 443.871 348.16 443.437 348.609C443.004 349.057 442.762 349.657 442.762 350.281C442.762 350.905 443.004 351.505 443.437 351.954C443.871 352.403 444.461 352.666 445.084 352.688Z" fill="black"/>
<path d="M401.999 355.768C402.622 355.746 403.213 355.483 403.646 355.034C404.079 354.586 404.321 353.986 404.321 353.362C404.321 352.738 404.079 352.138 403.646 351.689C403.213 351.24 402.622 350.977 401.999 350.955C401.376 350.977 400.786 351.24 400.352 351.689C399.919 352.138 399.677 352.738 399.677 353.362C399.677 353.986 399.919 354.586 400.352 355.034C400.786 355.483 401.376 355.746 401.999 355.768Z" fill="black"/>
<path d="M412.77 341.906C413.393 341.884 413.984 341.621 414.417 341.172C414.85 340.723 415.092 340.123 415.092 339.499C415.092 338.875 414.85 338.275 414.417 337.826C413.984 337.377 413.393 337.114 412.77 337.093C412.147 337.114 411.557 337.377 411.123 337.826C410.69 338.275 410.448 338.875 410.448 339.499C410.448 340.123 410.69 340.723 411.123 341.172C411.557 341.621 412.147 341.884 412.77 341.906Z" fill="black"/>
<path d="M432.774 342.291C433.397 342.269 433.987 342.006 434.42 341.557C434.853 341.108 435.095 340.509 435.095 339.884C435.095 339.26 434.853 338.661 434.42 338.212C433.987 337.763 433.397 337.5 432.774 337.478C432.15 337.5 431.56 337.763 431.127 338.212C430.694 338.661 430.452 339.26 430.452 339.884C430.452 340.509 430.694 341.108 431.127 341.557C431.56 342.006 432.15 342.269 432.774 342.291Z" fill="black"/>
<path d="M453.546 338.44C454.17 338.419 454.76 338.156 455.193 337.707C455.626 337.258 455.868 336.658 455.868 336.034C455.868 335.41 455.626 334.81 455.193 334.361C454.76 333.912 454.17 333.649 453.546 333.627C452.923 333.649 452.333 333.912 451.9 334.361C451.467 334.81 451.225 335.41 451.225 336.034C451.225 336.658 451.467 337.258 451.9 337.707C452.333 338.156 452.923 338.419 453.546 338.44Z" fill="black"/>
<path d="M466.627 348.837C467.25 348.815 467.84 348.552 468.273 348.103C468.706 347.654 468.948 347.055 468.948 346.431C468.948 345.806 468.706 345.207 468.273 344.758C467.84 344.309 467.25 344.046 466.627 344.024C466.003 344.046 465.413 344.309 464.98 344.758C464.547 345.207 464.305 345.806 464.305 346.431C464.305 347.055 464.547 347.654 464.98 348.103C465.413 348.552 466.003 348.815 466.627 348.837Z" fill="black"/>
<path d="M471.627 376.946C472.25 376.924 472.84 376.661 473.274 376.212C473.707 375.764 473.949 375.164 473.949 374.54C473.949 373.916 473.707 373.316 473.274 372.867C472.84 372.418 472.25 372.155 471.627 372.133C471.004 372.155 470.414 372.418 469.98 372.867C469.547 373.316 469.305 373.916 469.305 374.54C469.305 375.164 469.547 375.764 469.98 376.212C470.414 376.661 471.004 376.924 471.627 376.946Z" fill="black"/>
<path d="M440.852 327.274C441.475 327.252 442.066 326.989 442.499 326.54C442.932 326.091 443.174 325.491 443.174 324.867C443.174 324.243 442.932 323.643 442.499 323.194C442.066 322.746 441.475 322.482 440.852 322.461C440.229 322.482 439.639 322.746 439.205 323.194C438.772 323.643 438.53 324.243 438.53 324.867C438.53 325.491 438.772 326.091 439.205 326.54C439.639 326.989 440.229 327.252 440.852 327.274Z" fill="black"/>
<path d="M420.849 326.889C421.472 326.867 422.062 326.604 422.495 326.155C422.929 325.706 423.171 325.106 423.171 324.482C423.171 323.858 422.929 323.258 422.495 322.809C422.062 322.361 421.472 322.097 420.849 322.076C420.226 322.097 419.635 322.361 419.202 322.809C418.769 323.258 418.527 323.858 418.527 324.482C418.527 325.106 418.769 325.706 419.202 326.155C419.635 326.604 420.226 326.867 420.849 326.889Z" fill="black"/>
<path d="M398.152 331.124C398.775 331.102 399.365 330.839 399.799 330.39C400.232 329.941 400.474 329.342 400.474 328.718C400.474 328.094 400.232 327.494 399.799 327.045C399.365 326.596 398.775 326.333 398.152 326.311C397.529 326.333 396.938 326.596 396.505 327.045C396.072 327.494 395.83 328.094 395.83 328.718C395.83 329.342 396.072 329.941 396.505 330.39C396.938 330.839 397.529 331.102 398.152 331.124Z" fill="black"/>
<path d="M407.385 319.188C408.008 319.166 408.598 318.903 409.031 318.454C409.465 318.005 409.707 317.405 409.707 316.781C409.707 316.157 409.465 315.557 409.031 315.108C408.598 314.659 408.008 314.396 407.385 314.375C406.762 314.396 406.171 314.659 405.738 315.108C405.305 315.557 405.063 316.157 405.063 316.781C405.063 317.405 405.305 318.005 405.738 318.454C406.171 318.903 406.762 319.166 407.385 319.188Z" fill="black"/>
<path d="M428.927 314.182C429.55 314.16 430.14 313.897 430.573 313.448C431.007 312.999 431.249 312.399 431.249 311.775C431.249 311.151 431.007 310.551 430.573 310.102C430.14 309.653 429.55 309.39 428.927 309.369C428.304 309.39 427.713 309.653 427.28 310.102C426.847 310.551 426.605 311.151 426.605 311.775C426.605 312.399 426.847 312.999 427.28 313.448C427.713 313.897 428.304 314.16 428.927 314.182Z" fill="black"/>
<path d="M450.085 310.331C450.708 310.31 451.299 310.046 451.732 309.597C452.165 309.149 452.407 308.549 452.407 307.925C452.407 307.301 452.165 306.701 451.732 306.252C451.299 305.803 450.708 305.54 450.085 305.518C449.462 305.54 448.872 305.803 448.438 306.252C448.005 306.701 447.763 307.301 447.763 307.925C447.763 308.549 448.005 309.149 448.438 309.597C448.872 310.046 449.462 310.31 450.085 310.331Z" fill="black"/>
<path d="M456.24 318.803C456.863 318.781 457.453 318.518 457.886 318.069C458.32 317.62 458.562 317.02 458.562 316.396C458.562 315.772 458.32 315.172 457.886 314.723C457.453 314.274 456.863 314.011 456.24 313.99C455.617 314.011 455.026 314.274 454.593 314.723C454.16 315.172 453.918 315.772 453.918 316.396C453.918 317.02 454.16 317.62 454.593 318.069C455.026 318.518 455.617 318.781 456.24 318.803Z" fill="black"/>
<path d="M462.779 326.889C463.402 326.867 463.993 326.604 464.426 326.155C464.859 325.706 465.101 325.106 465.101 324.482C465.101 323.858 464.859 323.258 464.426 322.809C463.993 322.361 463.402 322.097 462.779 322.076C462.156 322.097 461.566 322.361 461.133 322.809C460.7 323.258 460.458 323.858 460.458 324.482C460.458 325.106 460.7 325.706 461.133 326.155C461.566 326.604 462.156 326.867 462.779 326.889Z" fill="black"/>
<path d="M415.463 306.48C416.086 306.459 416.676 306.196 417.11 305.747C417.543 305.298 417.785 304.698 417.785 304.074C417.785 303.45 417.543 302.85 417.11 302.401C416.676 301.952 416.086 301.689 415.463 301.667C414.84 301.689 414.249 301.952 413.816 302.401C413.383 302.85 413.141 303.45 413.141 304.074C413.141 304.698 413.383 305.298 413.816 305.747C414.249 306.196 414.84 306.459 415.463 306.48Z" fill="black"/>
<path d="M391.612 309.561C392.236 309.539 392.826 309.276 393.259 308.827C393.692 308.378 393.934 307.779 393.934 307.155C393.934 306.53 393.692 305.931 393.259 305.482C392.826 305.033 392.236 304.77 391.612 304.748C390.989 304.77 390.399 305.033 389.966 305.482C389.533 305.931 389.291 306.53 389.291 307.155C389.291 307.779 389.533 308.378 389.966 308.827C390.399 309.276 390.989 309.539 391.612 309.561Z" fill="black"/>
<path d="M437.39 301.86C438.013 301.838 438.603 301.575 439.036 301.126C439.47 300.677 439.712 300.077 439.712 299.453C439.712 298.829 439.47 298.229 439.036 297.78C438.603 297.331 438.013 297.068 437.39 297.047C436.767 297.068 436.176 297.331 435.743 297.78C435.31 298.229 435.068 298.829 435.068 299.453C435.068 300.077 435.31 300.677 435.743 301.126C436.176 301.575 436.767 301.838 437.39 301.86Z" fill="black"/>
<path d="M454.316 299.164C454.939 299.143 455.53 298.879 455.963 298.43C456.396 297.982 456.638 297.382 456.638 296.758C456.638 296.134 456.396 295.534 455.963 295.085C455.53 294.636 454.939 294.373 454.316 294.351C453.693 294.373 453.103 294.636 452.669 295.085C452.236 295.534 451.994 296.134 451.994 296.758C451.994 297.382 452.236 297.982 452.669 298.43C453.103 298.879 453.693 299.143 454.316 299.164Z" fill="black"/>
<path d="M368.146 318.418C368.769 318.396 369.36 318.133 369.793 317.684C370.226 317.235 370.468 316.635 370.468 316.011C370.468 315.387 370.226 314.787 369.793 314.338C369.36 313.889 368.769 313.626 368.146 313.604C367.523 313.626 366.933 313.889 366.5 314.338C366.067 314.787 365.824 315.387 365.824 316.011C365.824 316.635 366.067 317.235 366.5 317.684C366.933 318.133 367.523 318.396 368.146 318.418Z" fill="black"/>
<path d="M380.072 326.889C380.695 326.867 381.285 326.604 381.718 326.155C382.152 325.706 382.394 325.106 382.394 324.482C382.394 323.858 382.152 323.258 381.718 322.809C381.285 322.361 380.695 322.097 380.072 322.076C379.449 322.097 378.858 322.361 378.425 322.809C377.992 323.258 377.75 323.858 377.75 324.482C377.75 325.106 377.992 325.706 378.425 326.155C378.858 326.604 379.449 326.867 380.072 326.889Z" fill="black"/>
<path d="M374.301 339.596C374.925 339.574 375.515 339.311 375.948 338.862C376.381 338.413 376.623 337.813 376.623 337.189C376.623 336.565 376.381 335.965 375.948 335.516C375.515 335.067 374.925 334.804 374.301 334.782C373.678 334.804 373.088 335.067 372.655 335.516C372.222 335.965 371.979 336.565 371.979 337.189C371.979 337.813 372.222 338.413 372.655 338.862C373.088 339.311 373.678 339.574 374.301 339.596Z" fill="black"/>
<path d="M381.611 353.458C382.234 353.436 382.824 353.173 383.257 352.724C383.69 352.275 383.933 351.675 383.933 351.051C383.933 350.427 383.69 349.828 383.257 349.379C382.824 348.93 382.234 348.667 381.611 348.645C380.988 348.667 380.397 348.93 379.964 349.379C379.531 349.828 379.289 350.427 379.289 351.051C379.289 351.675 379.531 352.275 379.964 352.724C380.397 353.173 380.988 353.436 381.611 353.458Z" fill="black"/>
<path d="M376.61 364.624C377.233 364.603 377.823 364.34 378.256 363.891C378.689 363.442 378.932 362.842 378.932 362.218C378.932 361.594 378.689 360.994 378.256 360.545C377.823 360.096 377.233 359.833 376.61 359.811C375.987 359.833 375.396 360.096 374.963 360.545C374.53 360.994 374.288 361.594 374.288 362.218C374.288 362.842 374.53 363.442 374.963 363.891C375.396 364.34 375.987 364.603 376.61 364.624Z" fill="black"/>
<path d="M355.452 339.981C356.075 339.959 356.665 339.696 357.099 339.247C357.532 338.798 357.774 338.198 357.774 337.574C357.774 336.95 357.532 336.35 357.099 335.901C356.665 335.452 356.075 335.189 355.452 335.167C354.829 335.189 354.238 335.452 353.805 335.901C353.372 336.35 353.13 336.95 353.13 337.574C353.13 338.198 353.372 338.798 353.805 339.247C354.238 339.696 354.829 339.959 355.452 339.981Z" fill="black"/>
<path d="M359.299 359.234C359.922 359.212 360.512 358.949 360.946 358.5C361.379 358.051 361.621 357.451 361.621 356.827C361.621 356.203 361.379 355.603 360.946 355.154C360.512 354.705 359.922 354.442 359.299 354.42C358.676 354.442 358.085 354.705 357.652 355.154C357.219 355.603 356.977 356.203 356.977 356.827C356.977 357.451 357.219 358.051 357.652 358.5C358.085 358.949 358.676 359.212 359.299 359.234Z" fill="black"/>
<path d="M391.228 368.86C391.851 368.839 392.441 368.575 392.874 368.127C393.307 367.678 393.549 367.078 393.549 366.454C393.549 365.83 393.307 365.23 392.874 364.781C392.441 364.332 391.851 364.069 391.228 364.047C390.604 364.069 390.014 364.332 389.581 364.781C389.148 365.23 388.906 365.83 388.906 366.454C388.906 367.078 389.148 367.678 389.581 368.127C390.014 368.575 390.604 368.839 391.228 368.86Z" fill="black"/>
<path d="M379.687 379.642C380.31 379.62 380.901 379.357 381.334 378.908C381.767 378.459 382.009 377.859 382.009 377.235C382.009 376.611 381.767 376.011 381.334 375.562C380.901 375.113 380.31 374.85 379.687 374.829C379.064 374.85 378.474 375.113 378.04 375.562C377.607 376.011 377.365 376.611 377.365 377.235C377.365 377.859 377.607 378.459 378.04 378.908C378.474 379.357 379.064 379.62 379.687 379.642Z" fill="black"/>
<path d="M395.844 383.492C396.467 383.471 397.058 383.208 397.491 382.759C397.924 382.31 398.166 381.71 398.166 381.086C398.166 380.462 397.924 379.862 397.491 379.413C397.058 378.964 396.467 378.701 395.844 378.679C395.221 378.701 394.631 378.964 394.198 379.413C393.765 379.862 393.522 380.462 393.522 381.086C393.522 381.71 393.765 382.31 394.198 382.759C394.631 383.208 395.221 383.471 395.844 383.492Z" fill="black"/>
<path d="M386.227 390.809C386.85 390.787 387.441 390.524 387.874 390.075C388.307 389.626 388.549 389.026 388.549 388.402C388.549 387.778 388.307 387.178 387.874 386.729C387.441 386.28 386.85 386.017 386.227 385.995C385.604 386.017 385.014 386.28 384.58 386.729C384.147 387.178 383.905 387.778 383.905 388.402C383.905 389.026 384.147 389.626 384.58 390.075C385.014 390.524 385.604 390.787 386.227 390.809Z" fill="black"/>
<path d="M301.555 114.296C301.534 115.188 301.163 116.035 300.523 116.657C299.895 117.286 299.169 117.809 298.374 118.207C296.815 119.006 295.133 119.539 293.398 119.784C292.504 119.916 291.592 119.869 290.716 119.647C289.84 119.425 289.016 119.032 288.292 118.49C287.563 117.951 286.975 117.245 286.576 116.431C286.178 115.617 285.981 114.719 286.003 113.812C286.084 113.299 286.328 112.826 286.7 112.464C287.046 112.138 287.441 111.869 287.87 111.666C288.68 111.258 289.484 110.963 290.261 110.65C291.023 110.35 291.761 109.991 292.467 109.575C292.811 109.368 293.135 109.141 293.458 108.914C293.839 108.64 294.238 108.393 294.653 108.175C295.542 107.706 296.564 107.555 297.551 107.747C298.507 107.976 299.349 108.543 299.921 109.345C300.938 110.8 301.506 112.521 301.555 114.296ZM301.423 114.296C301.312 112.616 300.543 111.049 299.284 109.934C298.764 109.422 298.09 109.096 297.367 109.005C296.643 108.915 295.91 109.065 295.28 109.433C294.943 109.591 294.636 109.837 294.301 110.039C293.934 110.309 293.548 110.554 293.146 110.769C292.359 111.181 291.54 111.529 290.697 111.811C289.88 112.104 289.053 112.324 288.306 112.617C287.559 112.917 286.897 113.271 286.711 113.951C286.591 114.752 286.7 115.57 287.024 116.312C287.348 117.054 287.875 117.689 288.544 118.145C289.238 118.563 290.013 118.829 290.818 118.925C291.622 119.022 292.438 118.946 293.211 118.703C294.797 118.3 296.467 117.886 298.056 117.443C298.854 117.222 299.61 116.87 300.293 116.401C300.634 116.165 300.915 115.851 301.112 115.485C301.309 115.119 301.415 114.711 301.423 114.296Z" fill="black"/>
<path d="M289.576 87.3355C289.559 88.0749 289.392 88.8032 289.085 89.4762C288.778 90.1491 288.338 90.7528 287.792 91.2506C286.708 92.2616 285.466 93.0896 284.117 93.7022C281.448 94.9343 278.625 95.7973 275.724 96.2675C274.249 96.529 272.736 96.4921 271.275 96.1591C269.814 95.8261 268.434 95.2036 267.217 94.3284C266.001 93.4462 265.023 92.2741 264.373 90.9184C263.724 89.5626 263.422 88.066 263.495 86.5641C263.639 85.7589 264.04 85.0221 264.637 84.4641C265.213 83.9499 265.864 83.5261 266.567 83.2072C267.918 82.5549 269.289 82.081 270.621 81.5566C271.942 81.0544 273.221 80.4487 274.446 79.745C275.051 79.3957 275.618 78.9988 276.185 78.5999C276.808 78.1552 277.459 77.7522 278.135 77.3935C279.548 76.6361 281.175 76.3791 282.752 76.6643C284.293 77.016 285.664 77.8932 286.629 79.1455C287.563 80.3087 288.28 81.6312 288.744 83.0494C289.241 84.4266 289.522 85.8724 289.576 87.3355ZM289.444 87.3355C289.38 85.8967 289.026 84.4858 288.405 83.1869C287.825 81.8945 287.006 80.7232 285.992 79.7344C285.049 78.7873 283.839 78.152 282.525 77.9138C281.224 77.7445 279.904 78.0037 278.763 78.652C278.165 78.9778 277.586 79.3359 277.027 79.7247C276.42 80.1708 275.785 80.5765 275.125 80.9391C273.818 81.6386 272.458 82.2334 271.057 82.7178C269.685 83.2223 268.29 83.6209 267.002 84.1585C266.373 84.409 265.778 84.7385 265.231 85.1392C264.729 85.5353 264.368 86.0838 264.203 86.7025C264.038 88.0984 264.255 89.513 264.83 90.7953C265.405 92.0776 266.317 93.1794 267.469 93.9833C268.656 94.735 269.987 95.2302 271.376 95.4373C272.766 95.6443 274.183 95.5587 275.537 95.1857C278.285 94.5473 281.108 93.8248 283.798 92.9382C285.151 92.5032 286.423 91.8465 287.561 90.9947C288.133 90.5686 288.6 90.0175 288.926 89.3833C289.252 88.7491 289.43 88.0487 289.444 87.3355Z" fill="black"/>
<path d="M283.703 50.9837C284.127 52.0126 284.338 53.1166 284.324 54.2292C284.282 55.3515 283.934 56.4409 283.317 57.3794C282.026 59.1921 280.339 60.6874 278.386 61.7527C274.53 63.898 270.489 65.6925 266.312 67.1147C262.188 68.6529 258.01 70.0099 253.896 71.5192C251.842 72.2806 249.785 73.0294 247.756 73.841C245.707 74.6449 243.634 75.4466 241.511 76.0773C237.274 77.4343 232.849 78.1091 228.4 78.0765C223.896 78.1284 219.526 76.5417 216.102 73.6112C212.942 70.431 210.95 66.2739 210.451 61.8164C209.828 57.4206 209.883 52.9549 210.615 48.5759C211.643 44.2429 213.368 40.1061 215.723 36.3275C218.018 32.513 220.814 29.0232 224.035 25.9513C227.263 22.847 230.998 20.3183 235.078 18.4744C239.196 16.6382 243.674 15.7542 248.18 15.888C252.689 15.9623 257.118 17.084 261.119 19.1647C265.054 21.303 268.516 24.2166 271.297 27.73C274.047 31.1941 276.414 34.9454 278.359 38.9185C280.345 42.8511 282.1 46.8889 283.703 50.9837ZM283.581 51.0329C280.262 42.9319 276.413 34.8575 270.637 28.2924C267.814 25.0024 264.389 22.2833 260.546 20.2818C256.687 18.3582 252.448 17.3214 248.138 17.2472C239.503 16.9642 231.184 20.958 224.881 26.8582C221.709 29.8332 218.921 33.1936 216.583 36.8613C214.198 40.506 212.421 44.5141 211.32 48.7291C210.482 53.018 210.344 57.4143 210.909 61.7475C211.195 63.9106 211.78 66.0232 212.649 68.0245C213.526 70.0158 214.807 71.8033 216.409 73.2741C219.755 76.0956 224.042 77.5486 228.412 77.3425C232.764 77.241 237.074 76.4622 241.187 75.0342C245.336 73.7619 249.311 71.8074 253.514 70.443C257.676 69.0039 261.865 67.6723 266.041 66.3327C270.237 65.079 274.311 63.4464 278.212 61.4549C280.165 60.4742 281.854 59.0366 283.134 57.2639C283.744 56.3615 284.095 55.309 284.149 54.2208C284.177 53.1308 283.983 52.0464 283.581 51.033V51.0329Z" fill="black"/>
</svg>
