<svg width="24" height="24" viewBox="0 0 24 24" fill="none" xmlns="http://www.w3.org/2000/svg">
<path d="M21.2 2H2.8C2.3575 2 2 2.3575 2 2.8V21.2C2 21.6425 2.3575 22 2.8 22H21.2C21.6425 22 22 21.6425 22 21.2V2.8C22 2.3575 21.6425 2 21.2 2ZM7.9325 19.0425H4.965V9.4975H7.9325V19.0425ZM6.45 8.1925C6.10982 8.1925 5.77727 8.09162 5.49442 7.90263C5.21157 7.71363 4.99111 7.445 4.86093 7.13072C4.73074 6.81643 4.69668 6.47059 4.76305 6.13694C4.82942 5.8033 4.99323 5.49682 5.23378 5.25628C5.47432 5.01573 5.7808 4.85192 6.11444 4.78555C6.44809 4.71918 6.79393 4.75324 7.10822 4.88343C7.4225 5.01361 7.69113 5.23407 7.88013 5.51692C8.06912 5.79977 8.17 6.13232 8.17 6.4725C8.1675 7.4225 7.3975 8.1925 6.45 8.1925ZM19.0425 19.0425H16.0775V14.4C16.0775 13.2925 16.0575 11.87 14.535 11.87C12.9925 11.87 12.755 13.075 12.755 14.32V19.0425H9.7925V9.4975H12.6375V10.8025H12.6775C13.0725 10.0525 14.04 9.26 15.485 9.26C18.49 9.26 19.0425 11.2375 19.0425 13.8075V19.0425V19.0425Z" fill="#777A85"/>
</svg>
