<svg width="106" height="24" viewBox="0 0 106 24" fill="none" xmlns="http://www.w3.org/2000/svg">
<path d="M36.706 19.18C35.734 19.18 34.87 18.976 34.114 18.568C33.37 18.148 32.782 17.578 32.35 16.858C31.93 16.138 31.72 15.31 31.72 14.374C31.72 13.63 31.84 12.952 32.08 12.34C32.32 11.728 32.65 11.2 33.07 10.756C33.502 10.3 34.012 9.952 34.6 9.712C35.2 9.46 35.848 9.334 36.544 9.334C37.156 9.334 37.726 9.454 38.254 9.694C38.782 9.922 39.238 10.24 39.622 10.648C40.018 11.056 40.318 11.542 40.522 12.106C40.738 12.658 40.84 13.264 40.828 13.924L40.81 14.716H33.088L32.674 13.24H39.208L38.938 13.546V13.114C38.902 12.718 38.77 12.364 38.542 12.052C38.314 11.74 38.026 11.494 37.678 11.314C37.33 11.134 36.952 11.044 36.544 11.044C35.896 11.044 35.35 11.17 34.906 11.422C34.462 11.662 34.126 12.022 33.898 12.502C33.67 12.97 33.556 13.552 33.556 14.248C33.556 14.908 33.694 15.484 33.97 15.976C34.246 16.456 34.636 16.828 35.14 17.092C35.644 17.356 36.226 17.488 36.886 17.488C37.354 17.488 37.786 17.41 38.182 17.254C38.59 17.098 39.028 16.816 39.496 16.408L40.432 17.722C40.144 18.01 39.79 18.262 39.37 18.478C38.962 18.694 38.524 18.868 38.056 19C37.6 19.12 37.15 19.18 36.706 19.18ZM48.7121 19L45.6521 15.022L45.3821 14.68L41.4041 9.55H43.7441L46.7501 13.474L47.0561 13.87L50.9801 19H48.7121ZM41.4221 19L45.1481 14.14L46.2461 15.454L43.6181 19H41.4221ZM47.1641 14.428L46.1381 13.132L48.4601 9.55H50.6561L47.1641 14.428ZM52.1776 22.96V9.55H54.0496V11.71L53.7616 11.548C53.8336 11.188 54.0376 10.846 54.3736 10.522C54.7096 10.186 55.1176 9.916 55.5976 9.712C56.0896 9.496 56.5936 9.388 57.1096 9.388C57.9616 9.388 58.7176 9.598 59.3776 10.018C60.0376 10.438 60.5596 11.014 60.9436 11.746C61.3276 12.478 61.5196 13.318 61.5196 14.266C61.5196 15.202 61.3276 16.042 60.9436 16.786C60.5716 17.518 60.0556 18.1 59.3956 18.532C58.7356 18.952 57.9916 19.162 57.1636 19.162C56.6116 19.162 56.0776 19.054 55.5616 18.838C55.0456 18.61 54.6076 18.322 54.2476 17.974C53.8876 17.626 53.6656 17.266 53.5816 16.894L54.0496 16.642V22.96H52.1776ZM56.8576 17.452C57.4096 17.452 57.9016 17.314 58.3336 17.038C58.7656 16.762 59.1076 16.384 59.3596 15.904C59.6116 15.424 59.7376 14.878 59.7376 14.266C59.7376 13.654 59.6116 13.114 59.3596 12.646C59.1196 12.166 58.7836 11.788 58.3516 11.512C57.9196 11.236 57.4216 11.098 56.8576 11.098C56.2936 11.098 55.7956 11.236 55.3636 11.512C54.9316 11.776 54.5896 12.148 54.3376 12.628C54.0856 13.108 53.9596 13.654 53.9596 14.266C53.9596 14.878 54.0856 15.424 54.3376 15.904C54.5896 16.384 54.9316 16.762 55.3636 17.038C55.7956 17.314 56.2936 17.452 56.8576 17.452ZM67.583 19.18C66.611 19.18 65.747 18.976 64.991 18.568C64.247 18.148 63.659 17.578 63.227 16.858C62.807 16.138 62.597 15.31 62.597 14.374C62.597 13.63 62.717 12.952 62.957 12.34C63.197 11.728 63.527 11.2 63.947 10.756C64.379 10.3 64.889 9.952 65.477 9.712C66.077 9.46 66.725 9.334 67.421 9.334C68.033 9.334 68.603 9.454 69.131 9.694C69.659 9.922 70.115 10.24 70.499 10.648C70.895 11.056 71.195 11.542 71.399 12.106C71.615 12.658 71.717 13.264 71.705 13.924L71.687 14.716H63.965L63.551 13.24H70.085L69.815 13.546V13.114C69.779 12.718 69.647 12.364 69.419 12.052C69.191 11.74 68.903 11.494 68.555 11.314C68.207 11.134 67.829 11.044 67.421 11.044C66.773 11.044 66.227 11.17 65.783 11.422C65.339 11.662 65.003 12.022 64.775 12.502C64.547 12.97 64.433 13.552 64.433 14.248C64.433 14.908 64.571 15.484 64.847 15.976C65.123 16.456 65.513 16.828 66.017 17.092C66.521 17.356 67.103 17.488 67.763 17.488C68.231 17.488 68.663 17.41 69.059 17.254C69.467 17.098 69.905 16.816 70.373 16.408L71.309 17.722C71.021 18.01 70.667 18.262 70.247 18.478C69.839 18.694 69.401 18.868 68.933 19C68.477 19.12 68.027 19.18 67.583 19.18ZM73.3599 19V9.55H75.2319V12.52L75.0519 11.8C75.1839 11.344 75.4059 10.93 75.7179 10.558C76.0419 10.186 76.4079 9.892 76.8159 9.676C77.2359 9.46 77.6679 9.352 78.1119 9.352C78.3159 9.352 78.5079 9.37 78.6879 9.406C78.8799 9.442 79.0299 9.484 79.1379 9.532L78.6519 11.548C78.5079 11.488 78.3459 11.44 78.1659 11.404C77.9979 11.356 77.8299 11.332 77.6619 11.332C77.3379 11.332 77.0259 11.398 76.7259 11.53C76.4379 11.65 76.1799 11.824 75.9519 12.052C75.7359 12.268 75.5619 12.526 75.4299 12.826C75.2979 13.114 75.2319 13.432 75.2319 13.78V19H73.3599ZM81.7812 19V7.138H83.6352V19H81.7812ZM79.8192 11.35V9.55H85.8312V11.35H79.8192ZM92.1504 19V9.55H94.0044V19H92.1504ZM93.0504 7.462C92.6544 7.462 92.3484 7.36 92.1324 7.156C91.9164 6.952 91.8084 6.664 91.8084 6.292C91.8084 5.944 91.9164 5.662 92.1324 5.446C92.3604 5.23 92.6664 5.122 93.0504 5.122C93.4464 5.122 93.7524 5.224 93.9684 5.428C94.1844 5.632 94.2924 5.92 94.2924 6.292C94.2924 6.64 94.1784 6.922 93.9504 7.138C93.7344 7.354 93.4344 7.462 93.0504 7.462ZM97.6641 19V7.138H99.5181V19H97.6641ZM95.7021 11.35V9.55H101.714V11.35H95.7021ZM103.798 19.198C103.402 19.198 103.096 19.084 102.88 18.856C102.664 18.616 102.556 18.28 102.556 17.848C102.556 17.452 102.67 17.128 102.898 16.876C103.126 16.624 103.426 16.498 103.798 16.498C104.194 16.498 104.5 16.618 104.716 16.858C104.932 17.086 105.04 17.416 105.04 17.848C105.04 18.244 104.926 18.568 104.698 18.82C104.47 19.072 104.17 19.198 103.798 19.198Z" fill="#1B1B1B"/>
<circle cx="14.5384" cy="9.46154" r="8.46154" fill="#4D4E52"/>
<circle cx="6.92304" cy="16.2307" r="5.76923" stroke="#4D4E52" stroke-width="2"/>
</svg>
