<svg width="470" height="370" viewBox="0 0 470 370" fill="none" xmlns="http://www.w3.org/2000/svg">
<path d="M190 63.2495C190 63.2495 193.751 61.0001 197.251 64.999C197.251 64.999 203.503 56.1207 230.008 63.8091C230.008 63.8091 226.507 70.4976 224.006 70.4976C221.506 70.4976 228.757 81.9946 235.509 81.4947C235.509 81.4947 247.011 98.2403 238.259 114.486C229.633 130.498 223.437 135.584 214.881 125.198C214.618 124.876 214.326 124.58 214.006 124.313C211.546 122.285 200.653 113.852 196.792 120.14C195.97 121.537 195.735 123.203 196.138 124.773C197.9 132.15 206.14 159.321 230.008 148.477C230.008 148.477 257.822 138.051 251.261 113.353C250.56 110.841 249.543 108.428 248.234 106.172C246.972 103.867 246.194 101.329 245.948 98.7129C245.702 96.097 245.994 93.4585 246.804 90.9591C247.81 87.3959 250.078 84.3201 253.185 82.3057C256.198 80.4272 260.17 79.5874 263.179 84.8401C264.424 87.0253 265.08 89.4961 265.084 92.0109C265.089 94.3126 264.661 97.1356 262.764 98.4902L265.084 102.989C266.345 100.423 267.959 98.0452 269.878 95.9245C273.09 92.6719 275.154 88.4606 275.756 83.9295C276.606 76.7415 275.583 66.0092 267.015 53.5021C267.015 53.5021 255.512 30.5082 234.008 31.008C212.504 31.5079 194.001 37.2563 190 63.2495Z" fill="#1B1B1B"/>
<path d="M226 93.1529C222.308 92.1802 218.513 91.8201 214.732 92.0836C212.828 92.1926 210.938 92.5228 209.091 93.0691C207.206 93.535 205.455 94.5434 204 96C205.679 95.1017 207.473 94.5199 209.313 94.2767C211.13 93.9759 212.963 93.7569 214.813 93.6617C218.509 93.3976 222.225 93.3772 226 93.1529Z" fill="#1B1B1B"/>
<path d="M190 93C191.41 93.4112 192.714 94.1008 193.829 95.0247C194.358 95.4433 194.789 95.9642 195.093 96.5533C195.398 97.1424 195.57 97.7866 195.598 98.4438C195.494 99.792 195.125 101.109 194.512 102.326L192.827 106.302C191.57 108.992 190.839 111.881 190.672 114.825C190.674 115.601 190.823 116.37 191.11 117.095C191.418 117.829 191.922 118.472 192.572 118.959C193.891 119.757 195.448 120.112 197 119.969C195.545 119.85 194.16 119.319 193.021 118.442C192.553 117.963 192.201 117.392 191.988 116.769C191.775 116.146 191.707 115.485 191.789 114.834C191.9 113.457 192.191 112.099 192.656 110.792C193.089 109.453 193.607 108.126 194.159 106.804C194.688 105.473 195.261 104.149 195.777 102.785C196.023 102.097 196.274 101.41 196.467 100.684C196.708 99.9339 196.79 99.1447 196.707 98.3635C196.621 97.5866 196.357 96.8375 195.935 96.1697C195.512 95.5018 194.941 94.9317 194.263 94.5C192.987 93.6812 191.525 93.1669 190 93V93Z" fill="#1B1B1B"/>
<path d="M189.744 63C189.215 65.8362 188.821 68.6876 188.563 71.5543C188.269 74.4165 188.087 77.2871 188.018 80.1663C187.968 83.0451 188.016 85.9293 188.267 88.8155C188.414 91.7574 189.148 94.6521 190.434 97.3626C190.452 97.3964 190.476 97.4275 190.505 97.4551C191.497 98.4112 192.428 99.4166 193.293 100.466C193.723 100.992 194.105 101.548 194.437 102.128C194.805 102.693 194.952 103.352 194.855 104C195.082 103.348 195.041 102.644 194.74 102.017C194.48 101.384 194.164 100.77 193.794 100.183C193.056 99.0108 192.203 97.9003 191.245 96.8641L191.316 96.9561C190.768 95.6615 190.403 94.3107 190.23 92.9352C189.985 91.5474 189.886 90.1305 189.769 88.7183C189.582 85.8838 189.55 83.0321 189.532 80.1789C189.532 74.4681 189.672 68.7468 189.744 63Z" fill="#1B1B1B"/>
<path d="M204.924 112C205.119 112.537 205.276 113.097 205.395 113.673C205.515 114.206 205.541 114.768 205.472 115.316C205.414 115.859 205.237 116.367 204.963 116.774C204.672 117.224 204.35 117.635 204 118C204.224 117.911 204.444 117.806 204.659 117.684C204.868 117.53 205.065 117.347 205.248 117.141C205.629 116.698 205.886 116.095 205.977 115.43C206.042 114.772 205.968 114.103 205.765 113.497C205.575 112.918 205.287 112.405 204.924 112V112Z" fill="#1B1B1B"/>
<path d="M263 99C262.089 100.052 261.363 101.229 260.846 102.488C260.569 103.13 260.369 103.799 260.249 104.481C260.185 104.839 260.159 105.201 260.172 105.564L260.18 105.843L260.162 105.994C260.169 106.092 260.145 106.191 260.095 106.278C259.869 106.721 259.47 107.069 258.978 107.254C258.393 107.529 257.778 107.744 257.142 107.894C255.79 108.23 254.4 108.415 253 108.447C254.383 108.946 255.881 109.111 257.352 108.927C258.12 108.855 258.872 108.677 259.582 108.4C260.001 108.251 260.383 108.027 260.706 107.741C261.03 107.455 261.289 107.114 261.469 106.735C261.563 106.522 261.609 106.293 261.604 106.063L261.61 105.723L261.598 105.511C261.582 105.218 261.589 104.924 261.62 104.632C261.678 104.011 261.783 103.395 261.935 102.788C262.233 101.543 262.626 100.292 263 99Z" fill="#1B1B1B"/>
<path d="M265 103C265.568 105.012 266.37 106.955 267.389 108.79C268.386 110.652 269.59 112.401 270.979 114.006C272.368 115.641 274.016 117.049 275.86 118.176C277.709 119.296 279.826 119.925 282 120C280.01 119.416 278.141 118.496 276.476 117.28C274.848 116.057 273.365 114.658 272.055 113.111C270.711 111.565 269.468 109.938 268.333 108.24C267.192 106.533 266.058 104.802 265 103Z" fill="#1B1B1B"/>
<path d="M247 161C245.348 160.339 243.786 159.504 242.346 158.513C240.917 157.538 239.561 156.477 238.288 155.336C236.975 154.229 235.798 152.992 234.575 151.78L232.795 149.904C232.216 149.263 231.638 148.618 231 148C231.364 148.774 231.787 149.522 232.209 150.275C232.687 150.993 233.157 151.723 233.683 152.418C234.743 153.812 235.948 155.109 237.281 156.291C238.621 157.483 240.116 158.52 241.733 159.379C243.336 160.267 245.135 160.821 247 161V161Z" fill="#1B1B1B"/>
<path d="M271.901 113.416C273.147 111.577 274.688 109.955 276.463 108.614C276.832 108.289 277.28 108.064 277.762 107.963C278.244 107.861 278.744 107.885 279.214 108.033C280.045 108.595 280.641 109.439 280.891 110.408C281.233 111.44 281.479 112.502 281.627 113.58C281.702 114.116 281.768 114.674 281.816 115.189C281.813 115.68 281.77 116.257 281.721 116.793C281.505 118.992 281.096 121.169 280.497 123.297C279.395 127.626 277.684 131.779 275.413 135.63C273.112 139.48 270.36 143.044 267.214 146.247C265.637 147.836 263.997 149.366 262.333 150.857C260.605 152.277 258.954 153.803 257.155 155.106C256.287 155.805 255.331 156.371 254.425 157.01C253.465 157.56 252.544 158.184 251.545 158.65C249.614 159.696 247.56 160.498 245.43 161.037C241.177 162.162 236.658 161.689 232.732 159.71C228.786 157.612 225.472 154.506 223.13 150.711C223.121 150.695 223.106 150.682 223.089 150.677C223.071 150.671 223.052 150.673 223.036 150.681C223.021 150.691 223.009 150.705 223.004 150.722C222.998 150.739 222.999 150.758 223.006 150.774C225.043 154.895 228.245 158.333 232.218 160.665C234.253 161.814 236.492 162.562 238.811 162.867C241.137 163.141 243.495 162.991 245.768 162.426C248.024 161.892 250.197 161.051 252.223 159.927C253.258 159.415 254.197 158.752 255.179 158.16C256.1 157.484 257.075 156.875 257.949 156.143C259.781 154.771 261.385 153.17 263.08 151.666C263.945 150.933 264.678 150.059 265.472 149.252C266.237 148.417 267.065 147.643 267.775 146.76C270.739 143.346 273.431 139.708 275.826 135.877C278.265 132.046 280.207 127.924 281.607 123.608C282.29 121.424 282.736 119.174 282.937 116.895C282.976 116.312 283.01 115.767 282.997 115.134C282.931 114.534 282.85 113.975 282.757 113.401C282.573 112.256 282.283 111.129 281.891 110.037C281.714 109.434 281.419 108.872 281.022 108.384C280.626 107.896 280.135 107.491 279.58 107.194C278.956 106.95 278.264 106.936 277.631 107.154C277.054 107.351 276.516 107.644 276.04 108.022C274.29 109.507 272.845 111.314 271.782 113.345C271.778 113.353 271.775 113.361 271.774 113.37C271.772 113.379 271.773 113.388 271.776 113.397C271.778 113.406 271.782 113.414 271.788 113.421C271.793 113.429 271.8 113.435 271.808 113.439C271.824 113.447 271.842 113.449 271.859 113.445C271.876 113.441 271.891 113.431 271.901 113.416V113.416Z" fill="#1B1B1B"/>
<path d="M336 132C334.228 132.53 332.621 133.543 331.34 134.937C330.019 136.309 328.963 137.938 328.23 139.733C327.495 141.518 327.082 143.432 327.011 145.376C326.976 146.333 327.023 147.291 327.15 148.24C327.305 149.18 327.541 150.104 327.855 151C328.171 150.073 328.313 149.179 328.544 148.305C328.793 147.437 328.942 146.572 329.218 145.745C329.659 144.104 330.2 142.494 330.836 140.926C331.475 139.366 332.222 137.859 333.07 136.415C333.959 134.881 334.938 133.406 336 132V132Z" fill="#1B1B1B"/>
<path d="M329.243 167C328.666 173.504 328.385 180.006 328.207 186.507C328.011 193.009 327.99 199.509 328.003 206.009C328.072 212.509 328.178 219.009 328.459 225.507C328.721 232.006 329.09 238.504 329.756 245C330.336 238.496 330.619 231.994 330.796 225.493C330.991 218.991 331.012 212.491 330.995 205.991C330.923 199.491 330.816 192.991 330.535 186.493C330.272 179.994 329.905 173.496 329.243 167Z" fill="#1B1B1B"/>
<path d="M195.779 125.022C190.505 128.339 185.328 131.793 180.247 135.385C177.705 137.179 175.183 139.005 172.681 140.863L168.959 143.721C168.306 144.213 167.692 144.753 167.12 145.339L166.235 146.267L165.491 147.216C163.561 149.716 161.802 152.344 160.223 155.082C158.632 157.779 157.084 160.494 155.579 163.228C152.604 168.718 149.54 174.148 146.388 179.516C144.811 182.202 143.204 184.871 141.567 187.521L139.118 191.495C138.392 192.795 137.529 194.012 136.545 195.127C135.502 196.155 134.259 197.174 133.178 198.455C131.898 199.795 131.127 201.545 131 203.399C131.097 205.3 131.921 207.09 133.299 208.394C133.889 208.993 134.508 209.56 135.156 210.095C135.735 210.564 136.298 211.057 136.849 211.565C137.958 212.589 138.977 213.663 140.014 214.819C141.07 215.991 142.163 217.129 143.272 218.253C145.511 220.501 147.889 222.604 150.391 224.551C152.942 226.537 155.719 228.21 158.663 229.535C160.207 230.192 161.83 230.643 163.49 230.878C165.234 231.138 167.014 230.982 168.687 230.424C168.954 230.343 169.181 230.165 169.325 229.926L169.335 229.91C170.416 228.11 171.599 226.316 172.796 224.559C173.992 222.795 175.244 221.073 176.553 219.393C177.867 217.727 179.272 216.134 180.76 214.622C182.193 213.067 183.948 211.847 185.901 211.048L185.912 211.044C185.946 211.032 185.975 211.007 185.991 210.975C186.008 210.943 186.012 210.905 186.003 210.87C185.993 210.834 185.971 210.804 185.94 210.785C185.909 210.766 185.872 210.759 185.836 210.766C183.702 211.32 181.728 212.374 180.078 213.842C178.385 215.218 176.799 216.721 175.333 218.339C172.387 221.545 169.68 224.966 167.234 228.572L167.881 228.059C165.138 228.621 162.287 228.205 159.818 226.881C157.122 225.589 154.588 223.981 152.269 222.09C149.865 220.215 147.567 218.207 145.386 216.076C144.282 215.016 143.189 213.939 142.133 212.827C141.063 211.695 139.909 210.539 138.702 209.486C138.095 208.956 137.474 208.441 136.833 207.949C136.251 207.461 135.699 207.045 135.212 206.548C134.269 205.731 133.653 204.598 133.479 203.359C133.554 202.074 134.063 200.853 134.924 199.899C135.806 198.758 136.92 197.725 138.001 196.484C138.287 196.16 138.553 195.82 138.801 195.465L139.425 194.404L140.548 192.332L142.744 188.2C144.193 185.439 145.672 182.698 147.183 179.976C150.213 174.536 153.407 169.187 156.866 164.013C160.296 158.846 163.775 153.616 167.491 148.842L168.193 147.96L168.926 147.207C169.428 146.667 169.973 146.169 170.555 145.716L174.175 142.826L181.485 137.057C186.369 133.216 191.19 129.282 195.948 125.256C195.976 125.233 195.994 125.199 195.999 125.163C196.003 125.126 195.994 125.09 195.972 125.06C195.951 125.03 195.919 125.01 195.883 125.003C195.847 124.996 195.81 125.003 195.779 125.022V125.022Z" fill="#1B1B1B"/>
<path d="M177 172C179.512 181.521 181.885 191.065 183.867 200.647C184.886 205.397 185.598 210.208 185.997 215.05C186.133 217.379 186.147 219.95 186.35 222.442C186.547 224.983 186.969 227.501 187.61 229.967C189.118 234.84 191.535 239.379 194.73 243.34C196.207 245.325 197.772 247.246 199.236 249.175C199.941 250.133 200.656 251.083 201.289 252.109C201.967 253.097 202.581 254.137 203.191 255.181C205.595 259.417 207.744 263.794 209.627 268.29C211.613 272.768 213.326 277.37 215 282C212.869 272.321 209.56 262.945 205.149 254.084C204.011 251.844 202.706 249.694 201.247 247.651C199.8 245.633 198.317 243.708 196.92 241.716C193.981 237.99 191.76 233.742 190.373 229.191C189.758 226.9 189.345 224.558 189.141 222.193C188.913 219.781 188.92 217.426 188.7 214.847C188.187 209.887 187.299 204.975 186.043 200.152C183.634 190.581 180.613 181.178 177 172V172Z" fill="#1B1B1B"/>
<path d="M66.8229 300C67.3999 300 67.9534 299.845 68.3617 299.568C68.77 299.291 68.9996 298.915 69 298.524C69.0004 298.132 68.7715 297.756 68.3638 297.479C67.9561 297.201 67.4028 297.045 66.8258 297.045L16.1799 297H16.1771C15.8914 297 15.6084 297.038 15.3444 297.112C15.0804 297.186 14.8404 297.295 14.6382 297.432C14.4361 297.569 14.2757 297.732 14.1662 297.911C14.0567 298.09 14.0002 298.282 14 298.476C13.9998 298.67 14.0559 298.863 14.1651 299.042C14.2742 299.221 14.4343 299.384 14.6362 299.521C14.8381 299.659 15.0778 299.768 15.3417 299.842C15.6056 299.916 15.8885 299.955 16.1742 299.955L66.8201 300H66.8229Z" fill="#1B1B1B"/>
<path d="M390.188 299.914L454.303 300.519L454.274 303.519L390.159 302.914L390.188 299.914Z" fill="#1B1B1B"/>
<path d="M212 103C211.463 102.978 210.955 102.704 210.582 102.238C210.209 101.772 210 101.148 210 100.5C210 99.8515 210.209 99.2284 210.582 98.762C210.955 98.2956 211.463 98.0224 212 98C212.537 98.0224 213.045 98.2956 213.418 98.762C213.791 99.2284 214 99.8515 214 100.5C214 101.148 213.791 101.772 213.418 102.238C213.045 102.704 212.537 102.978 212 103V103Z" fill="#1B1B1B"/>
<path d="M157.714 318.111C150.355 323.104 142.074 326.595 133.35 328.381C129.019 329.212 124.603 329.527 120.197 329.318C115.801 329.082 111.447 328.346 107.218 327.126C98.7731 324.567 90.8057 320.649 83.6324 315.527C81.8314 314.317 80.1293 312.968 78.5421 311.491C76.9578 309.996 75.4654 308.407 74.0732 306.732C71.2886 303.383 68.8795 299.742 66.8884 295.873L67.0281 296.461L67.0278 296.446L67.0274 296.415C67.0241 296.223 66.977 296.033 66.8897 295.861C65.1688 292.499 63.7629 288.985 62.6899 285.365C61.6237 281.729 60.9349 277.994 60.6342 274.218L60.6281 274.138L60.619 274.087C60.598 274.013 60.6231 274.048 60.5989 274.184L60.6112 273.955C60.0114 266.311 61.0911 258.629 63.7752 251.443C66.516 244.269 70.7606 237.757 76.2265 232.343C81.6282 227.021 88.0468 222.83 95.1031 220.019C102.159 217.208 109.71 215.833 117.309 215.975C124.908 216.117 132.401 217.775 139.346 220.848C146.291 223.922 152.547 228.35 157.743 233.871C162.955 239.412 167.011 245.927 169.677 253.038C172.334 260.242 173.568 267.889 173.313 275.558C173.312 275.578 173.315 275.598 173.322 275.616C173.329 275.634 173.34 275.651 173.353 275.665C173.367 275.68 173.383 275.691 173.401 275.699C173.419 275.707 173.439 275.712 173.458 275.712C173.496 275.712 173.533 275.698 173.561 275.673C173.59 275.648 173.608 275.614 173.612 275.576C174.542 267.797 173.795 259.911 171.421 252.442C169.03 244.895 165.06 237.937 159.772 232.028C154.47 226.072 147.969 221.291 140.693 217.995C133.401 214.706 125.489 213.004 117.484 213.003C109.531 212.924 101.651 214.513 94.3556 217.666C87.0602 220.818 80.5131 225.464 75.14 231.301C69.8189 237.061 65.6695 243.794 62.9211 251.125C60.1769 258.47 58.8511 266.265 59.0133 274.099L59.0255 273.871C58.993 274.047 58.9961 274.228 59.0346 274.403L59.0194 274.273C59.1261 278.2 59.6437 282.105 60.5638 285.924C61.4708 289.761 62.8006 293.485 64.5289 297.031L64.3908 296.446L64.3907 296.461C64.3877 296.656 64.4312 296.848 64.5175 297.024L64.5304 297.049C66.552 301.138 69.0788 304.959 72.0524 308.425C73.5322 310.158 75.1154 311.802 76.7936 313.347C78.5022 314.873 80.3221 316.271 82.2383 317.53C89.6707 322.726 97.942 326.617 106.694 329.034C115.486 331.411 124.725 331.636 133.624 329.69C142.405 327.605 150.662 323.748 157.884 318.357C157.916 318.334 157.937 318.3 157.944 318.261C157.951 318.223 157.942 318.183 157.92 318.151C157.898 318.119 157.864 318.097 157.825 318.089C157.787 318.082 157.747 318.09 157.714 318.111L157.714 318.111Z" fill="#1B1B1B"/>
<path d="M145 222C145.372 223.069 145.685 224.151 146 225.229C146.309 226.309 146.611 227.388 146.883 228.476C147.184 229.552 147.428 230.646 147.668 231.743L148.453 235.001L148.414 234.729C148.417 234.852 148.439 234.974 148.48 235.089C148.529 235.231 148.604 235.36 148.701 235.469C148.798 235.578 148.915 235.666 149.044 235.726C149.174 235.786 149.313 235.818 149.454 235.82L148.466 235.014C149.037 238.169 149.742 241.273 150.343 244.408C150.894 247.555 151.448 250.703 151.912 253.872C152.396 257.039 152.875 260.208 153.28 263.402C153.742 266.59 154.178 269.791 154.697 273C154.968 269.758 155.057 266.501 154.965 263.247C154.913 259.99 154.705 256.739 154.341 253.505C153.962 250.273 153.505 247.045 152.841 243.859C152.539 242.26 152.133 240.683 151.716 239.112C151.298 237.541 150.911 235.962 150.458 234.406L149.469 233.601C149.607 233.603 149.743 233.634 149.869 233.693C149.995 233.751 150.108 233.836 150.203 233.943C150.298 234.049 150.371 234.175 150.419 234.313C150.458 234.425 150.48 234.543 150.483 234.663L150.443 234.39C149.694 232.24 149.002 230.083 148.113 227.995C147.249 225.899 146.207 223.892 145 222V222Z" fill="#1B1B1B"/>
<path d="M88 222C85.9966 225.39 84.3419 228.969 83.0604 232.682C82.3489 234.52 81.844 236.415 81.2297 238.286C80.6846 240.173 80.2313 242.084 79.7314 243.986C77.9883 251.647 76.8681 259.431 76.3815 267.267C75.8791 275.085 75.8729 282.928 76.3628 290.747C76.6065 294.651 77.0522 298.54 77.432 302.425C78.0417 306.292 78.5702 310.16 79.2706 314C79.2064 310.088 78.9529 306.206 78.812 302.32L78.5648 290.671C78.5851 288.731 78.5953 286.792 78.5808 284.855L78.5708 281.949L78.676 279.045L78.8322 273.24L79.1973 267.449C79.6644 259.729 80.5607 252.04 81.8821 244.417L83.0165 238.725C83.4713 236.847 83.8373 234.938 84.376 233.078C85.2881 229.298 86.4998 225.594 88 222V222Z" fill="#1B1B1B"/>
<path d="M118 299.028C116.811 298.132 115.8 297.112 115 296C115.019 297.298 115.058 298.581 115.096 299.879C115.346 309.253 115.827 318.626 116.538 328C117.25 318.626 117.731 309.253 117.981 299.879C117.981 299.591 118 299.317 118 299.028Z" fill="#1B1B1B"/>
<path d="M117 289.408C117 289.408 116.043 288.368 115 287C115.014 288.329 115.029 289.671 115.058 291C115.56 290.339 116.225 289.794 117 289.408V289.408Z" fill="#1B1B1B"/>
<path d="M115 269.747V272.559L115.047 279.458C116.035 279.534 117.01 279.715 117.953 280C117.969 277.51 117.984 275.035 118 272.559V269.747C117.937 251.16 117.656 232.587 116.5 214C115.359 232.587 115.063 251.16 115 269.747Z" fill="#1B1B1B"/>
<path d="M168 247C159.932 243.677 151.487 241.201 142.824 239.621C134.149 237.977 125.324 237.108 116.471 237.026C112.04 236.904 107.618 237.233 103.198 237.462C100.997 237.69 98.8028 237.986 96.6076 238.245C95.5118 238.388 94.4103 238.493 93.3204 238.667L90.0722 239.313C81.4099 240.926 72.9909 243.507 65 247C67.1209 246.44 69.2251 245.858 71.3128 245.254L74.4466 244.362C75.495 244.08 76.58 243.909 77.6428 243.677L84.0141 242.303C86.1533 241.924 88.313 241.637 90.4571 241.299L93.6758 240.811C94.7532 240.679 95.8393 240.6 96.92 240.492C99.0847 240.298 101.244 240.066 103.408 239.902C107.753 239.754 112.09 239.447 116.44 239.61C125.147 239.68 133.837 240.345 142.439 241.599L148.886 242.634C151.02 243.052 153.17 243.424 155.298 243.881C159.579 244.723 163.799 245.8 168 247Z" fill="#1B1B1B"/>
<path d="M118 303.483L104.59 301.752C100.153 301.125 95.727 300.461 91.3288 299.663C86.9241 298.906 82.5379 298.012 78.1592 297.072C75.9908 296.526 73.8025 296.033 71.6023 295.549L69.9434 295.208L68.3125 294.783C67.2213 294.505 66.117 294.246 65 294C66.0039 294.52 67.0206 295.025 68.0502 295.514C69.0698 296.019 70.1161 296.468 71.1844 296.86C73.3075 297.659 75.4425 298.449 77.5975 299.186C81.9383 300.548 86.3625 301.629 90.8425 302.421C99.7975 304.074 108.943 304.431 118 303.483Z" fill="#1B1B1B"/>
<path d="M60 271.5C69.4488 272.078 78.8976 272.469 88.3465 272.672C97.3447 272.891 106.328 272.969 115.312 273H118.103C119.237 273 120.356 272.984 121.49 272.984C121.374 271.688 121.97 270.828 123.656 270.734C125.141 270.691 126.592 271.211 127.755 272.203C128.017 272.422 128.308 272.656 128.642 272.922C137.466 272.859 146.285 272.677 155.099 272.375C155.134 272.038 155.233 271.713 155.387 271.418C155.542 271.122 155.751 270.863 156 270.656C143.368 270.187 130.735 270.047 118.103 270H115.312C106.328 270.031 97.3447 270.109 88.3465 270.328C78.8976 270.516 69.4488 270.906 60 271.5Z" fill="#1B1B1B"/>
<path d="M149.346 234.113C149.346 234.115 149.347 234.117 149.347 234.119C149.348 234.121 149.349 234.122 149.35 234.124C149.352 234.125 149.353 234.126 149.355 234.127C149.357 234.128 149.359 234.128 149.361 234.128C150.692 236.724 151.73 239.47 152.454 242.311C152.468 242.341 152.468 242.386 152.483 242.415C153.562 246.707 153.03 247.495 154.454 251.727C155.26 254.118 155.979 255.5 155.576 257.475C155.193 258.719 154.707 259.926 154.123 261.084C153.95 261.455 153.778 261.856 153.576 262.302C152.583 264.559 152.339 265.094 152.555 265.777C152.828 266.609 153.461 266.713 154.627 267.44C155.037 267.688 155.427 267.971 155.792 268.287C156.483 268.823 157.119 269.43 157.691 270.099C162.004 270.052 166.251 271.196 169.993 273.411C170.885 273.931 171.849 274.45 172.885 275H172.899C172.942 274.361 172.957 273.723 172.986 273.084C173 272.549 173 272.03 173 271.495C173.01 263.16 171.273 254.922 167.907 247.346L167.892 247.331H167.878C166.525 244.262 164.907 241.324 163.043 238.554C156.785 232.257 150.037 228.989 147.792 229.004C147.549 228.981 147.307 229.056 147.116 229.212C146.612 229.732 147.821 231.158 149.346 234.113Z" fill="#C9FF56"/>
<path d="M60 271.166C60 271.648 60 272.13 60.029 272.612C60.029 273.021 60.0579 273.416 60.0724 273.825C60.0724 273.898 60.0869 273.971 60.0869 274.044C60.0894 274.469 60.1136 274.893 60.1594 275.315C60.6701 282.616 62.5847 289.746 65.7965 296.309C65.837 296.335 65.8809 296.354 65.9269 296.368V296.382C66.3064 296.564 66.7125 296.682 67.1296 296.733C67.6169 296.783 68.1092 296.728 68.5739 296.572C69.0385 296.416 69.465 296.162 69.825 295.827C69.8395 295.812 69.854 295.783 69.883 295.769C71.0568 294.468 70.1149 292.657 70.4917 289.939C70.8105 287.69 71.9842 286.097 74.3173 282.927C75.3331 281.471 76.4674 280.103 77.7082 278.836C78.5632 278.003 79.3602 277.492 79.9254 277.726C80.6354 278.047 80.8528 279.567 80.592 280.677C80.2007 282.342 78.8675 282.489 78.5777 283.833C78.1865 285.6 79.9689 287.646 81.4904 288.581C82.34 289.157 83.3231 289.502 84.344 289.581C85.3649 289.66 86.3888 289.472 87.3159 289.034C89.4026 287.806 89.3446 285.191 90.4605 285.191C91.3445 285.206 92.127 286.842 92.2575 288.128C92.36 288.932 92.2232 289.749 91.8646 290.474C91.506 291.2 90.9416 291.802 90.2432 292.204C88.8085 292.818 87.8811 291.546 86.2001 292.204C85.6971 292.371 85.2464 292.667 84.8929 293.065C84.5394 293.462 84.2956 293.946 84.1859 294.468C84.1134 295.856 85.9973 296.937 88.4463 298.311C91.2431 299.874 92.1125 299.801 95.402 301.481C95.7208 301.642 96.0107 301.788 96.286 301.934C97.5717 302.531 98.7788 303.287 99.8798 304.184C102.14 306.054 101.923 306.887 104.14 308.713C105.588 310.067 107.369 311.006 109.299 311.43C111.052 311.722 111.415 311.182 114.458 310.977C115.147 310.927 115.839 310.912 116.53 310.933C117.862 310.951 119.192 311.039 120.515 311.196C122.064 311.351 123.599 311.619 125.109 312C117.342 308.012 116.313 301.978 119.544 300.546C119.544 300.546 110.357 293.519 117.24 289.414C117.24 289.414 106.111 276.06 118.675 280.239C119.719 280.6 120.713 281.096 121.631 281.714C122.022 281.963 122.471 282.269 122.979 282.591L124.471 278.763V278.749C121.53 274.716 119.559 270.64 123.457 270.45C124.937 270.409 126.384 270.896 127.543 271.824C128.442 272.51 129.732 273.474 131.355 274.585L134.644 271.166C135.395 269.934 135.856 268.545 135.992 267.105C136.052 265.516 135.784 263.932 135.205 262.454C134.627 260.975 133.75 259.633 132.63 258.514C130.564 256.309 127.922 254.739 125.007 253.985C122.721 253.094 120.253 252.783 117.82 253.079C117.414 253.153 116.979 253.24 116.53 253.357C115.11 253.693 113.646 254.19 112.893 254.438C111.611 255.024 110.247 255.409 108.85 255.578C107.024 255.665 106.517 255.11 105.72 255.578C104.72 256.133 104.879 257.302 104.14 260.092C103.401 262.853 102.793 265.191 101.227 265.746C100.054 266.155 99.4161 265.191 98.0829 265.746C97.2134 266.111 97.2134 266.637 95.8512 268.01C94.6485 269.208 94.0399 269.807 93.1559 270.041C92.3132 270.235 91.4319 270.166 90.6294 269.842C89.8269 269.518 89.1412 268.956 88.6636 268.23C88.4897 267.923 88.1709 267.28 88.4463 264.621C88.7796 261.261 88.939 259.581 90.0113 258.514C91.3155 257.214 92.3299 258.164 95.402 257.156C98.9234 256.001 98.6625 254.394 102.575 252.86C105.198 251.838 105.894 252.32 107.951 251.049C109.618 250.026 111.734 248.127 111.328 246.973C110.879 245.745 107.98 246.695 106.836 244.942C105.937 243.583 107.183 242.254 106.169 240.413C105.575 239.361 104.343 238.353 103.474 238.616C102.517 238.894 102.879 240.457 101.677 242.458C100.563 244.169 98.9005 245.443 96.9671 246.067C95.5035 246.607 93.6921 247.28 92.2575 246.301C90.9822 245.439 90.2721 243.466 90.9097 242.458C91.7357 241.158 94.2427 242.268 94.9528 241.1C95.0697 240.82 95.1288 240.518 95.1263 240.214C95.1238 239.91 95.0598 239.61 94.9383 239.332C94.7511 238.685 94.4086 238.094 93.941 237.613C93.4733 237.131 92.8951 236.773 92.2575 236.571C91.5184 236.454 90.7649 236.731 86.4175 240.413C86.1857 240.618 85.9538 240.807 85.7509 240.983L85.7364 240.997C83.4323 242.97 83.0121 243.408 82.1571 243.364C81.8734 243.346 81.5945 243.282 81.3311 243.174C80.8729 242.981 80.4513 242.709 80.0848 242.371C79.0598 241.363 78.2423 240.162 77.6793 238.835C76.9402 237.111 77.2301 236.41 76.7808 236.118C75.7375 235.446 72.0132 237.696 68.1006 241.742C67.0041 243.571 66.017 245.464 65.1444 247.411C62.3009 253.635 60.602 260.327 60.1305 267.163C60.087 267.821 60.058 268.493 60.0291 269.165C60.0145 269.822 60 270.494 60 271.166Z" fill="#C9FF56"/>
<path d="M393.611 215.79C394.917 215.457 396.246 215.225 397.588 215.094C398.222 215.014 398.867 215.078 399.474 215.283C400.048 215.491 399.867 216.121 399.549 216.67C398.808 217.766 397.92 218.755 396.911 219.611C395.927 220.517 394.883 221.379 393.823 222.188C393.728 222.261 393.666 222.369 393.65 222.488C393.634 222.607 393.665 222.727 393.738 222.823C393.787 222.885 393.852 222.934 393.925 222.964C393.998 222.995 394.078 223.006 394.157 222.997C396.919 222.69 399.522 221.546 401.615 219.718C402.677 218.801 403.557 217.694 404.213 216.454C404.559 215.81 404.805 215.118 404.945 214.401C405.026 213.984 405.017 213.554 404.92 213.141C404.848 212.876 404.717 212.63 404.537 212.423C404.482 212.322 404.429 212.288 404.346 212.13C403.128 209.912 402.088 207.404 401.03 204.998L397.924 197.678C396.882 195.232 395.827 192.816 394.934 190.34C394.015 187.864 393.269 185.357 392.405 182.826L389.871 175.258C389.01 172.743 387.954 170.295 387.006 167.812C383.212 157.864 378.353 148.355 372.515 139.452C369.567 134.985 366.087 130.892 362.152 127.265C361.655 126.815 361.171 126.349 360.662 125.91L359.07 124.67C358.014 123.831 356.908 123.056 355.757 122.351C353.448 120.841 350.895 119.742 348.211 119.101L348.361 119.137C343.798 117.777 339.092 116.959 334.338 116.698C329.637 116.316 324.928 116.194 320.227 116.189C315.526 116.191 310.828 116.283 306.135 116.464C301.441 116.686 296.759 116.968 292.071 117.351L292.563 117.518C290.749 115.659 289.076 113.667 287.559 111.559L285.215 108.379C284.466 107.216 283.482 106.222 282.327 105.46C279.928 104.093 277.106 103.666 274.409 104.263C271.775 104.736 269.266 105.743 267.037 107.224C267.028 107.23 267.02 107.237 267.014 107.246C267.008 107.255 267.004 107.265 267.002 107.275C267 107.286 266.999 107.296 267.001 107.307C267.003 107.317 267.007 107.327 267.013 107.336C267.026 107.353 267.045 107.365 267.066 107.369C267.087 107.373 267.109 107.369 267.128 107.358C269.381 106.013 271.886 105.143 274.488 104.802C277.027 104.371 279.636 104.86 281.847 106.183C282.881 106.915 283.75 107.858 284.395 108.949L286.646 112.226C288.141 114.458 289.825 116.559 291.678 118.506C291.737 118.564 291.807 118.609 291.885 118.639C291.962 118.668 292.044 118.68 292.127 118.676L292.171 118.673C296.834 118.388 301.517 118.201 306.192 118.076C310.869 117.928 315.546 117.85 320.22 117.873C324.894 117.886 329.561 118.078 334.209 118.369C338.83 118.568 343.411 119.306 347.861 120.567L347.96 120.593L348.011 120.603C350.495 121.207 352.868 122.196 355.046 123.534C356.174 124.188 357.262 124.911 358.303 125.698L359.881 126.864C360.387 127.279 360.87 127.723 361.367 128.152C362.378 128.99 363.34 129.886 364.248 130.836C365.151 131.791 366.113 132.694 366.97 133.694C368.647 135.727 370.401 137.704 371.874 139.903C377.942 148.598 382.825 158.063 386.394 168.049C387.258 170.554 388.228 173.02 389.004 175.553L391.284 183.165C392.062 185.681 392.722 188.298 393.651 190.802C394.534 193.33 395.58 195.792 396.594 198.239C397.603 200.696 398.688 203.122 399.762 205.554C400.874 207.989 401.886 210.391 403.254 212.809C403.366 212.993 403.493 213.167 403.634 213.33C403.624 213.412 403.693 213.357 403.695 213.49C403.743 213.724 403.744 213.966 403.699 214.202C403.588 214.789 403.39 215.357 403.113 215.888C402.532 217.005 401.763 218.013 400.84 218.87C398.956 220.613 396.585 221.739 394.044 222.097L394.377 222.906C395.446 222.037 396.468 221.138 397.45 220.178C398.469 219.23 399.348 218.141 400.06 216.944C400.244 216.607 400.353 216.235 400.379 215.852C400.378 215.633 400.311 215.42 400.185 215.241C400.059 215.062 399.881 214.926 399.675 214.852C398.988 214.641 398.261 214.598 397.553 214.724C396.204 214.925 394.871 215.229 393.568 215.633C393.558 215.636 393.548 215.641 393.54 215.648C393.532 215.654 393.525 215.662 393.52 215.672C393.514 215.681 393.511 215.691 393.51 215.702C393.509 215.713 393.51 215.723 393.513 215.734C393.519 215.754 393.532 215.771 393.55 215.781C393.569 215.792 393.59 215.795 393.611 215.79Z" fill="#1B1B1B"/>
<path d="M114.924 286.575C114.283 285.626 113.71 284.633 113.21 283.603C112.965 283.096 112.769 282.566 112.625 282.022C112.457 281.52 112.448 280.979 112.599 280.472C112.702 280.252 112.865 280.065 113.07 279.933C113.275 279.802 113.513 279.73 113.756 279.727C114.299 279.666 114.848 279.683 115.386 279.779C116.498 279.981 117.588 280.29 118.64 280.701C119.682 281.142 120.671 281.698 121.588 282.359C122.548 283.004 123.53 283.623 124.523 284.226C125.52 284.824 126.527 285.407 127.573 285.937C128.631 286.516 129.761 286.954 130.935 287.238C131.043 287.26 131.156 287.247 131.257 287.2C131.358 287.154 131.441 287.077 131.495 286.981C131.549 286.884 131.571 286.772 131.558 286.663C131.545 286.553 131.496 286.45 131.421 286.369L131.396 286.343C128.967 283.816 126.702 281.136 124.617 278.32L124.746 278.712L124.746 278.698C124.748 278.563 124.707 278.432 124.629 278.322L124.618 278.308C123.972 277.399 123.355 276.472 122.812 275.523C122.261 274.636 121.865 273.662 121.643 272.643C121.505 271.65 121.825 271.349 122.834 271.207C123.821 271.122 124.812 271.324 125.688 271.788C126.146 272.028 126.578 272.316 126.977 272.645C127.432 273.001 127.894 273.337 128.358 273.667C129.291 274.325 130.197 275.016 131.152 275.647C133.048 276.924 134.986 278.137 136.983 279.26C140.977 281.562 145.233 283.377 149.66 284.668C151.915 285.288 154.227 285.68 156.561 285.836C158.942 285.96 161.327 285.723 163.636 285.134C163.81 285.087 163.969 284.999 164.1 284.876C164.23 284.753 164.328 284.6 164.385 284.43C164.442 284.259 164.455 284.078 164.424 283.901C164.393 283.725 164.319 283.559 164.207 283.418L164.19 283.397L158.658 276.477L155.941 273.071C155.823 272.904 155.746 272.713 155.713 272.511C155.68 272.31 155.694 272.104 155.753 271.909C155.805 271.725 155.899 271.556 156.027 271.414C156.105 271.333 156.19 271.259 156.281 271.194C156.356 271.138 156.438 271.091 156.524 271.054C156.738 270.968 156.968 270.929 157.198 270.94C157.485 270.928 157.894 270.933 158.229 270.939C158.933 270.956 159.635 271.007 160.333 271.088C161.734 271.246 163.114 271.55 164.452 271.994C165.12 272.228 165.777 272.43 166.456 272.685C167.104 272.942 167.741 273.234 168.366 273.555L172.269 275.654C172.429 275.741 172.608 275.787 172.79 275.788L172.822 275.788H172.836L172.289 275.657C179.636 279.323 187.049 282.558 194.04 286.594L196.671 288.125C199.434 289.737 202.449 290.872 205.589 291.484C207.672 291.903 209.791 292.108 211.916 292.097C214.071 292.081 216.081 291.826 218.105 291.678L242.437 289.645L266.762 287.512C282.979 286.111 299.196 284.684 315.421 283.443L321.504 283.045C322.522 282.976 323.524 282.942 324.523 282.914C325.126 282.925 325.722 282.786 326.259 282.51C326.767 282.218 327.206 281.818 327.542 281.338C328.658 279.535 329.386 277.519 329.68 275.419C330.04 273.399 330.285 271.359 330.413 269.311C330.827 261.164 330.684 252.998 329.983 244.871L329.664 245.338C335.265 243.618 340.862 241.851 346.303 239.655C351.767 237.517 357.118 235.102 362.335 232.42C367.55 229.736 372.632 226.796 377.673 223.847C382.717 220.927 387.806 218.001 393.332 216.497L392.374 215.771C392.363 231.87 392.022 247.969 391.352 264.067C391.002 272.108 390.555 280.144 389.895 288.155C389.753 290.16 389.552 292.158 389.364 294.157C389.188 296.159 388.98 298.154 388.738 300.145C388.508 302.141 388.329 304.147 387.96 306.03C387.602 307.936 387.072 309.805 386.377 311.615C383.493 318.891 378.265 325.001 371.517 328.978C368.172 330.99 364.558 332.517 360.782 333.512C358.894 334.014 356.975 334.392 355.038 334.643C353.087 334.883 351.053 335.043 349.064 335.246L343.067 335.821L337.054 336.209C333.049 336.521 329.033 336.607 325.02 336.77C321.007 336.953 316.989 336.88 312.973 336.948C308.959 336.849 304.94 336.863 300.929 336.648C284.867 335.994 268.874 334.194 253.069 331.262C245.181 329.8 237.246 328.132 229.263 326.806C221.282 325.456 213.283 324.324 205.279 323.24C189.276 321.051 173.243 319.193 157.236 317.198C149.24 316.175 141.227 315.173 133.321 313.756L130.38 313.163C129.397 312.969 128.484 312.649 127.529 312.401C126.617 312.043 125.713 311.648 124.818 311.238C123.941 310.795 123.094 310.291 122.286 309.732C120.666 308.653 119.336 307.195 118.41 305.485C117.967 304.662 117.768 303.73 117.838 302.799C117.878 302.36 118.032 301.94 118.284 301.579C118.536 301.217 118.878 300.928 119.277 300.739C119.331 300.714 119.378 300.677 119.414 300.629C119.45 300.582 119.474 300.526 119.484 300.468C119.494 300.409 119.489 300.349 119.47 300.292C119.451 300.236 119.418 300.185 119.375 300.144L119.352 300.123C118.479 299.403 117.646 298.636 116.857 297.825C116.09 297.001 115.453 296.065 114.969 295.05C114.719 294.565 114.567 294.035 114.522 293.492C114.477 292.948 114.541 292.401 114.708 291.882C115.152 290.858 115.927 290.013 116.91 289.482C116.931 289.469 116.949 289.453 116.964 289.433C116.979 289.413 116.99 289.39 116.996 289.366C117.002 289.342 117.003 289.317 116.999 289.292C116.996 289.268 116.987 289.244 116.974 289.223L116.959 289.2L114.924 286.575L114.916 286.565C114.893 286.535 114.859 286.515 114.821 286.51C114.783 286.505 114.744 286.515 114.714 286.538C114.683 286.561 114.663 286.595 114.658 286.633C114.652 286.671 114.662 286.71 114.684 286.74L116.671 289.441L116.719 289.159C115.64 289.712 114.78 290.613 114.277 291.715C114.073 292.291 113.984 292.901 114.017 293.51C114.049 294.12 114.201 294.717 114.465 295.268C114.947 296.351 115.592 297.354 116.377 298.243C117.175 299.107 118.021 299.925 118.91 300.695L118.986 300.078C118.464 300.31 118.011 300.673 117.671 301.132C117.331 301.59 117.116 302.129 117.046 302.695C116.93 303.781 117.128 304.878 117.618 305.855C118.566 307.733 119.961 309.349 121.682 310.562C122.517 311.171 123.392 311.722 124.303 312.212C125.227 312.666 126.165 313.105 127.117 313.504C128.105 313.793 129.097 314.161 130.089 314.382L133.065 315.057C141.02 316.624 149.012 317.763 157.002 318.926L204.94 325.643C212.916 326.809 220.886 328.023 228.802 329.45C232.768 330.116 236.706 330.97 240.652 331.735C244.594 332.548 248.556 333.391 252.536 334.13C268.472 337.123 284.601 338.976 300.801 339.673C317.002 340.402 333.235 339.912 349.363 338.206C351.386 337.986 353.375 337.821 355.427 337.556C357.49 337.276 359.532 336.862 361.541 336.315C365.573 335.225 369.43 333.568 372.996 331.394C380.244 327.057 385.838 320.431 388.895 312.563C389.634 310.605 390.194 308.584 390.569 306.524C390.958 304.447 391.125 302.433 391.339 300.426C391.559 298.412 391.743 296.398 391.892 294.383C392.056 292.368 392.231 290.354 392.349 288.338C392.908 280.277 393.252 272.212 393.499 264.147C393.986 248.015 394.118 231.885 393.895 215.755L393.895 215.74C393.894 215.642 393.873 215.544 393.834 215.454C393.795 215.364 393.739 215.282 393.669 215.213C393.598 215.144 393.515 215.09 393.423 215.053C393.331 215.017 393.234 214.999 393.135 215C393.068 215.001 393.001 215.011 392.937 215.029C387.149 216.696 382.035 219.756 377.023 222.744C372.004 225.757 367.019 228.784 361.841 231.47C356.668 234.162 351.361 236.589 345.94 238.742C340.541 240.953 334.979 242.74 329.41 244.481C329.312 244.511 329.227 244.574 329.169 244.659C329.111 244.744 329.083 244.846 329.09 244.948C329.787 253.026 329.892 261.143 329.405 269.236C329.266 271.244 329.012 273.243 328.646 275.222C328.365 277.156 327.693 279.013 326.67 280.679C326.424 281.033 326.102 281.329 325.729 281.544C325.357 281.732 324.942 281.821 324.526 281.802C323.491 281.824 322.459 281.852 321.446 281.913L315.342 282.255C299.083 283.223 282.844 284.365 266.603 285.505L242.244 287.251L217.899 289.158C215.865 289.298 213.826 289.538 211.909 289.537C209.96 289.537 208.016 289.338 206.108 288.944C204.204 288.551 202.346 287.961 200.565 287.184C199.676 286.796 198.808 286.359 197.966 285.877L195.313 284.356C188.17 280.295 180.618 277.056 173.383 273.502L173.366 273.494C173.201 273.414 173.02 273.372 172.836 273.372H172.822L173.374 273.505L169.454 271.43C168.762 271.079 168.052 270.759 167.324 270.476C166.619 270.216 165.861 269.982 165.132 269.736C163.658 269.26 162.138 268.938 160.598 268.773C159.826 268.689 159.052 268.638 158.278 268.624C157.874 268.62 157.543 268.614 157.092 268.634C156.581 268.638 156.076 268.743 155.605 268.943C155.352 269.054 155.113 269.194 154.893 269.361C154.687 269.515 154.495 269.688 154.321 269.877C153.953 270.287 153.687 270.777 153.543 271.308C153.4 271.826 153.373 272.369 153.465 272.898C153.557 273.428 153.764 273.93 154.073 274.37L156.902 277.877L162.483 284.767L163.036 283.03C160.955 283.573 158.806 283.813 156.656 283.742C154.466 283.628 152.294 283.295 150.172 282.746C145.875 281.564 141.736 279.873 137.842 277.708C135.875 276.643 133.954 275.482 132.077 274.261C131.133 273.659 130.227 272.99 129.3 272.358C128.837 272.039 128.378 271.717 127.937 271.382C127.454 271.002 126.934 270.67 126.384 270.393C125.234 269.812 123.94 269.575 122.659 269.712C121.896 269.765 121.183 270.107 120.665 270.669C120.435 270.98 120.275 271.337 120.196 271.715C120.117 272.094 120.12 272.485 120.206 272.862C120.47 274.056 120.942 275.194 121.601 276.224C122.199 277.213 122.85 278.169 123.551 279.088L123.424 278.698L123.424 278.712L123.424 278.732C123.426 278.867 123.471 278.998 123.554 279.105C125.743 281.915 128.112 284.582 130.644 287.088L131.106 286.194C128.943 285.576 126.878 284.656 124.973 283.462C123.978 282.891 122.991 282.303 122.019 281.684C121.044 281.02 119.997 280.467 118.9 280.034C117.79 279.631 116.643 279.337 115.476 279.157C114.873 279.069 114.26 279.071 113.658 279.163C113.322 279.191 113 279.31 112.728 279.509C112.456 279.707 112.244 279.977 112.115 280.288C111.942 280.897 111.964 281.545 112.18 282.14C112.349 282.707 112.572 283.255 112.846 283.779C113.388 284.808 114.002 285.798 114.684 286.74C114.706 286.771 114.74 286.792 114.778 286.799C114.815 286.805 114.854 286.797 114.885 286.775C114.917 286.754 114.939 286.721 114.946 286.683C114.953 286.646 114.945 286.607 114.924 286.575V286.575Z" fill="#1B1B1B"/>
<path d="M131.396 287.556C133.57 288.882 135.764 290.105 138.021 291.229C140.253 292.391 142.591 293.32 145 294C142.695 293.063 140.485 291.889 138.404 290.496C136.307 289.147 134.257 287.688 132.291 286.172L132.28 286.163C132.109 286.032 131.895 285.976 131.684 286.009C131.474 286.042 131.285 286.16 131.158 286.338C131.031 286.516 130.978 286.739 131.009 286.958C131.04 287.177 131.153 287.374 131.324 287.506C131.347 287.524 131.371 287.541 131.396 287.556V287.556Z" fill="#1B1B1B"/>
<path d="M116.366 289.553C120.254 292.239 124.191 294.816 128.227 297.247C130.248 298.454 132.284 299.639 134.389 300.695C135.434 301.239 136.505 301.728 137.599 302.161C138.141 302.393 138.699 302.583 139.268 302.728C139.831 302.895 140.414 302.986 141 303C140.419 302.952 139.846 302.826 139.298 302.626C138.743 302.448 138.202 302.227 137.68 301.965C136.622 301.471 135.589 300.922 134.586 300.32C132.562 299.148 130.609 297.848 128.674 296.529C124.812 293.875 121.039 291.068 117.356 288.183L117.348 288.177C117.172 288.039 116.95 287.978 116.73 288.007C116.51 288.036 116.31 288.152 116.174 288.331C116.039 288.51 115.978 288.736 116.007 288.959C116.035 289.183 116.15 289.386 116.326 289.523L116.366 289.553Z" fill="#1B1B1B"/>
<path d="M119.328 301.386C120.787 302.402 122.319 303.32 123.912 304.133C125.48 304.95 127.096 305.678 128.753 306.315C132.042 307.603 135.483 308.504 139 309C135.563 308.26 132.234 307.124 129.085 305.617C127.517 304.878 125.995 304.053 124.528 303.145C123.07 302.259 121.678 301.279 120.361 300.21L120.335 300.19C120.256 300.123 120.163 300.072 120.062 300.04C119.962 300.008 119.856 299.995 119.75 300.002C119.644 300.009 119.541 300.036 119.446 300.081C119.351 300.126 119.266 300.188 119.197 300.265C119.127 300.341 119.074 300.43 119.041 300.526C119.008 300.622 118.994 300.723 119.002 300.824C119.01 300.924 119.039 301.023 119.086 301.113C119.134 301.203 119.2 301.283 119.28 301.349C119.296 301.362 119.313 301.375 119.328 301.386Z" fill="#1B1B1B"/>
<path d="M158.658 240C158.767 240 158.874 239.97 158.97 239.913C159.065 239.856 159.147 239.773 159.207 239.673L164.89 230.136C164.938 230.056 164.971 229.966 164.988 229.872C165.004 229.777 165.004 229.68 164.987 229.586C164.97 229.492 164.936 229.403 164.888 229.323C164.839 229.243 164.777 229.175 164.705 229.122C164.633 229.069 164.552 229.032 164.468 229.014C164.383 228.995 164.295 228.996 164.211 229.015C164.126 229.034 164.045 229.071 163.973 229.125C163.902 229.179 163.84 229.247 163.793 229.327L158.109 238.865C158.013 239.026 157.978 239.224 158.013 239.414C158.048 239.604 158.149 239.771 158.294 239.879C158.402 239.958 158.529 240.001 158.658 240V240Z" fill="#1B1B1B"/>
<path d="M125.753 216C125.877 216 125.999 215.97 126.108 215.913C126.218 215.856 126.311 215.773 126.38 215.673L132.875 206.136C132.929 206.056 132.967 205.966 132.986 205.872C133.005 205.777 133.005 205.68 132.985 205.586C132.965 205.492 132.927 205.403 132.872 205.323C132.816 205.243 132.746 205.175 132.663 205.122C132.581 205.069 132.489 205.032 132.392 205.014C132.295 204.995 132.195 204.996 132.098 205.015C132.001 205.034 131.909 205.071 131.827 205.125C131.745 205.179 131.675 205.247 131.62 205.327L125.125 214.865C125.05 214.975 125.007 215.103 125.001 215.235C124.994 215.367 125.025 215.498 125.089 215.615C125.154 215.731 125.25 215.829 125.366 215.897C125.483 215.964 125.617 216 125.753 216V216Z" fill="#1B1B1B"/>
</svg>
