<svg width="16" height="16" viewBox="0 0 16 16" fill="none" xmlns="http://www.w3.org/2000/svg">
<path d="M11.8312 7.14349C12.5504 7.59335 12.9101 7.81828 13.0334 8.10622C13.1411 8.35769 13.1411 8.64231 13.0334 8.89379C12.9101 9.18172 12.5504 9.40665 11.8312 9.85652L7.44845 12.5978C6.64937 13.0975 6.24983 13.3474 5.9201 13.321C5.63269 13.298 5.3692 13.152 5.19726 12.9205C5 12.655 5 12.1837 5 11.2412L5 5.75876C5 4.81626 5 4.345 5.19726 4.07946C5.3692 3.848 5.63269 3.70203 5.9201 3.67899C6.24983 3.65256 6.64937 3.90245 7.44845 4.40225L11.8312 7.14349Z" fill="#C9FF56"/>
</svg>
