<svg xmlns="http://www.w3.org/2000/svg" xmlns:xlink="http://www.w3.org/1999/xlink" width="212" zoomAndPan="magnify" viewBox="0 0 159 32.999998" height="44" preserveAspectRatio="xMidYMid meet" version="1.0"><defs><g/><clipPath id="id1"><path d="M 6 0 L 37.246094 0 L 37.246094 8 L 6 8 Z M 6 0 " clip-rule="nonzero"/></clipPath><clipPath id="id2"><path d="M 14 9 L 37.246094 9 L 37.246094 17 L 14 17 Z M 14 9 " clip-rule="nonzero"/></clipPath><clipPath id="id3"><path d="M 0 14 L 37.246094 14 L 37.246094 23 L 0 23 Z M 0 14 " clip-rule="nonzero"/></clipPath><clipPath id="id4"><path d="M 8 23 L 37.246094 23 L 37.246094 31.839844 L 8 31.839844 Z M 8 23 " clip-rule="nonzero"/></clipPath></defs><g clip-path="url(#id1)"><path fill="#ffffff" d="M 10.164062 6.980469 C 11.914062 6.980469 13.355469 5.675781 13.589844 3.980469 L 19.507812 3.980469 L 22.039062 7.644531 C 22.136719 7.78125 22.273438 7.839844 22.429688 7.839844 L 36.78125 7.839844 C 37.03125 7.839844 37.246094 7.625 37.246094 7.371094 C 37.246094 7.117188 37.03125 6.902344 36.78125 6.902344 L 22.664062 6.902344 L 20.132812 3.238281 C 20.035156 3.101562 19.898438 3.042969 19.742188 3.042969 L 13.570312 3.042969 C 13.335938 1.347656 11.894531 0.0429688 10.144531 0.0429688 C 8.234375 0.0429688 6.679688 1.601562 6.679688 3.511719 C 6.679688 5.421875 8.253906 6.980469 10.164062 6.980469 Z M 10.164062 0.996094 C 11.546875 0.996094 12.675781 2.128906 12.675781 3.511719 C 12.675781 4.894531 11.546875 6.027344 10.164062 6.027344 C 8.78125 6.027344 7.652344 4.894531 7.652344 3.511719 C 7.652344 2.128906 8.761719 0.996094 10.164062 0.996094 Z M 10.164062 0.996094 " fill-opacity="1" fill-rule="nonzero"/></g><g clip-path="url(#id2)"><path fill="#ffffff" d="M 36.78125 12.324219 L 21.847656 12.324219 C 21.613281 10.628906 20.171875 9.320312 18.417969 9.320312 C 16.511719 9.320312 14.953125 10.878906 14.953125 12.792969 C 14.953125 14.703125 16.511719 16.261719 18.417969 16.261719 C 20.171875 16.261719 21.613281 14.957031 21.847656 13.257812 L 36.78125 13.257812 C 37.03125 13.257812 37.246094 13.042969 37.246094 12.792969 C 37.246094 12.539062 37.03125 12.324219 36.78125 12.324219 Z M 18.417969 15.324219 C 17.035156 15.324219 15.90625 14.195312 15.90625 12.8125 C 15.90625 11.425781 17.035156 10.277344 18.417969 10.277344 C 19.800781 10.277344 20.929688 11.40625 20.929688 12.792969 C 20.929688 14.195312 19.800781 15.324219 18.417969 15.324219 Z M 18.417969 15.324219 " fill-opacity="1" fill-rule="nonzero"/></g><g clip-path="url(#id3)"><path fill="#ffffff" d="M 36.78125 18.328125 L 23.753906 18.328125 C 23.597656 18.328125 23.441406 18.40625 23.34375 18.542969 L 21.515625 21.464844 L 13.492188 21.464844 L 11.507812 17.761719 C 11.429688 17.605469 11.273438 17.507812 11.097656 17.507812 L 6.890625 17.507812 C 6.660156 15.8125 5.21875 14.507812 3.464844 14.507812 C 1.558594 14.507812 0 16.066406 0 17.976562 C 0 19.886719 1.558594 21.445312 3.464844 21.445312 C 5.21875 21.445312 6.660156 20.140625 6.890625 18.445312 L 10.804688 18.445312 L 12.792969 22.148438 C 12.871094 22.304688 13.027344 22.402344 13.199219 22.402344 L 21.769531 22.402344 C 21.921875 22.402344 22.078125 22.324219 22.175781 22.1875 L 24.007812 19.261719 L 36.761719 19.261719 C 37.011719 19.261719 37.226562 19.050781 37.226562 18.796875 C 37.246094 18.542969 37.03125 18.328125 36.78125 18.328125 Z M 3.464844 20.53125 C 2.082031 20.53125 0.953125 19.398438 0.953125 18.015625 C 0.953125 16.632812 2.082031 15.5 3.464844 15.5 C 4.847656 15.5 5.976562 16.632812 5.976562 18.015625 C 5.996094 19.398438 4.867188 20.53125 3.464844 20.53125 Z M 3.464844 20.53125 " fill-opacity="1" fill-rule="nonzero"/></g><g clip-path="url(#id4)"><path fill="#ffffff" d="M 36.78125 23.84375 L 29.265625 23.84375 C 29.089844 23.84375 28.933594 23.941406 28.855469 24.078125 L 26.636719 27.859375 L 15.304688 27.859375 C 15.070312 26.164062 13.628906 24.859375 11.878906 24.859375 C 9.96875 24.859375 8.410156 26.417969 8.410156 28.328125 C 8.410156 30.238281 9.96875 31.796875 11.878906 31.796875 C 13.628906 31.796875 15.070312 30.492188 15.304688 28.796875 L 26.90625 28.796875 C 27.082031 28.796875 27.238281 28.699219 27.316406 28.5625 L 29.535156 24.78125 L 36.78125 24.78125 C 37.03125 24.78125 37.246094 24.566406 37.246094 24.3125 C 37.246094 24.058594 37.03125 23.84375 36.78125 23.84375 Z M 11.878906 30.863281 C 10.496094 30.863281 9.367188 29.730469 9.367188 28.347656 C 9.367188 26.964844 10.496094 25.832031 11.878906 25.832031 C 13.257812 25.832031 14.390625 26.964844 14.390625 28.347656 C 14.40625 29.730469 13.277344 30.863281 11.878906 30.863281 Z M 11.878906 30.863281 " fill-opacity="1" fill-rule="nonzero"/></g><g fill="#ffffff" fill-opacity="1"><g transform="translate(39.032762, 21.436759)"><g><path d="M 19.527344 -14.992188 C 19.527344 -14.964844 19.527344 -14.941406 19.527344 -14.914062 C 19.527344 -14.890625 19.527344 -14.863281 19.527344 -14.839844 Z M 20.015625 -1.101562 L 15.53125 -8.789062 C 16.785156 -8.945312 17.761719 -9.480469 18.402344 -10.351562 C 19.117188 -11.402344 19.503906 -12.917969 19.527344 -14.914062 C 19.503906 -16.914062 19.117188 -18.425781 18.402344 -19.476562 C 17.632812 -20.578125 16.351562 -21.117188 14.609375 -21.117188 L 2.792969 -21.117188 C 2.5625 -21.117188 2.050781 -21.039062 2.050781 -20.21875 L 2.050781 -18.195312 C 2.050781 -17.402344 2.5625 -17.324219 2.792969 -17.324219 L 13.941406 -17.324219 C 14.609375 -17.324219 15.042969 -17.144531 15.300781 -16.761719 C 15.582031 -16.375 15.710938 -15.761719 15.710938 -14.914062 C 15.710938 -14.070312 15.582031 -13.453125 15.300781 -13.070312 C 15.042969 -12.6875 14.609375 -12.507812 13.941406 -12.507812 L 2.792969 -12.507812 C 2.5625 -12.507812 2.050781 -12.429688 2.050781 -11.636719 L 2.050781 -0.871094 C 2.050781 -0.078125 2.5625 0.0273438 2.792969 0.0273438 L 5.125 0.0273438 C 5.355469 0.0273438 5.84375 -0.078125 5.84375 -0.871094 L 5.84375 -8.714844 L 11.25 -8.714844 L 15.890625 -0.488281 C 15.992188 -0.332031 16.070312 -0.203125 16.171875 -0.128906 C 16.300781 -0.0273438 16.476562 0.0273438 16.710938 0.0273438 L 19.527344 0.0273438 C 19.835938 0.0273438 20.066406 -0.179688 20.117188 -0.488281 C 20.144531 -0.742188 20.117188 -0.949219 20.015625 -1.101562 Z M 20.015625 -1.101562 "/></g></g></g><g fill="#ffffff" fill-opacity="1"><g transform="translate(62.498149, 21.436759)"><g><path d="M 17.453125 -4.585938 L 8.429688 -4.585938 C 7.894531 -4.585938 7.457031 -4.664062 7.097656 -4.765625 C 6.765625 -4.894531 6.535156 -5.074219 6.328125 -5.332031 C 6.125 -5.613281 5.972656 -5.996094 5.894531 -6.484375 C 5.867188 -6.613281 5.867188 -6.792969 5.84375 -6.917969 C 5.84375 -6.917969 5.867188 -8.765625 5.894531 -8.765625 L 17.351562 -8.765625 C 17.554688 -8.765625 18.066406 -8.867188 18.066406 -9.660156 L 18.066406 -11.6875 C 18.066406 -12.480469 17.554688 -12.558594 17.351562 -12.558594 L 4.125 -12.53125 C 3.382812 -12.480469 2.742188 -12.097656 2.382812 -11.457031 C 2.253906 -11.25 2.152344 -11.046875 2.101562 -10.816406 L 2.050781 -7.585938 L 2.050781 -7.457031 C 2.074219 -6.253906 2.203125 -5.226562 2.382812 -4.382812 C 2.613281 -3.355469 3 -2.511719 3.484375 -1.871094 C 3.996094 -1.203125 4.664062 -0.742188 5.484375 -0.460938 C 6.277344 -0.152344 7.226562 -0.0273438 8.355469 -0.0273438 L 17.453125 -0.0273438 C 17.683594 -0.0273438 18.195312 -0.101562 18.195312 -0.898438 L 18.195312 -3.714844 C 18.195312 -4.511719 17.683594 -4.585938 17.453125 -4.585938 Z M 17.476562 -21.167969 L 2.742188 -21.167969 C 2.539062 -21.167969 2.050781 -21.066406 2.050781 -20.246094 L 2.050781 -18.246094 C 2.050781 -17.453125 2.539062 -17.375 2.742188 -17.375 L 17.476562 -17.351562 C 17.683594 -17.351562 18.195312 -17.453125 18.195312 -18.246094 L 18.195312 -20.269531 C 18.195312 -21.066406 17.683594 -21.167969 17.476562 -21.167969 Z M 17.476562 -21.167969 "/></g></g></g><g fill="#ffffff" fill-opacity="1"><g transform="translate(84.016633, 21.436759)"><g><path d="M 20.195312 -21.117188 L 17.914062 -21.117188 C 17.683594 -21.117188 17.195312 -21.039062 17.195312 -20.21875 L 17.195312 -4.816406 C 17.195312 -4.792969 17.195312 -4.792969 17.195312 -4.765625 L 17.066406 -4.765625 C 17.042969 -4.765625 17.015625 -4.765625 16.992188 -4.84375 L 8.894531 -19.246094 C 8.6875 -19.628906 8.507812 -19.9375 8.328125 -20.167969 C 8.148438 -20.425781 7.96875 -20.628906 7.789062 -20.757812 C 7.585938 -20.910156 7.355469 -21.015625 7.074219 -21.066406 C 6.816406 -21.089844 6.507812 -21.117188 6.175781 -21.117188 L 4.253906 -21.117188 C 3.511719 -21.117188 2.945312 -20.859375 2.589844 -20.398438 C 2.230469 -19.914062 2.050781 -19.066406 2.050781 -17.8125 L 2.050781 -0.871094 C 2.050781 -0.078125 2.5625 0.0273438 2.792969 0.0273438 L 5.074219 0.0273438 C 5.304688 0.0273438 5.792969 -0.078125 5.792969 -0.871094 L 5.792969 -16.273438 C 5.792969 -16.300781 5.792969 -16.324219 5.792969 -16.324219 L 5.921875 -16.324219 C 5.921875 -16.324219 5.945312 -16.324219 5.996094 -16.246094 L 14.121094 -1.84375 C 14.324219 -1.433594 14.53125 -1.128906 14.710938 -0.898438 C 14.890625 -0.640625 15.070312 -0.460938 15.273438 -0.332031 C 15.480469 -0.179688 15.710938 -0.101562 15.964844 -0.0507812 C 16.195312 0 16.476562 0.0273438 16.835938 0.0273438 L 18.707031 0.0273438 C 19.453125 0.0273438 20.015625 -0.230469 20.375 -0.71875 C 20.734375 -1.179688 20.910156 -2.023438 20.910156 -3.28125 L 20.910156 -20.21875 C 20.910156 -21.039062 20.398438 -21.117188 20.195312 -21.117188 Z M 20.195312 -21.117188 "/></g></g></g><g fill="#ffffff" fill-opacity="1"><g transform="translate(108.250536, 21.436759)"><g><path d="M 19.398438 -21.117188 L 8.378906 -21.117188 C 7.253906 -21.117188 6.277344 -20.964844 5.484375 -20.679688 C 4.691406 -20.375 3.996094 -19.886719 3.511719 -19.246094 C 3 -18.578125 2.613281 -17.761719 2.382812 -16.734375 C 2.152344 -15.734375 2.050781 -14.503906 2.050781 -13.09375 L 2.050781 -8.019531 C 2.050781 -6.585938 2.152344 -5.355469 2.382812 -4.332031 C 2.613281 -3.332031 3 -2.484375 3.511719 -1.820312 C 4.023438 -1.179688 4.691406 -0.691406 5.484375 -0.410156 C 6.277344 -0.128906 7.253906 0.0273438 8.378906 0.0273438 L 17.144531 0.0273438 C 18.09375 0.0273438 18.835938 -0.359375 19.347656 -1.101562 C 19.835938 -1.820312 20.09375 -3.023438 20.09375 -4.742188 L 20.09375 -11.609375 C 20.09375 -12.582031 19.527344 -12.738281 19.195312 -12.738281 L 10.121094 -12.738281 C 9.917969 -12.738281 9.40625 -12.632812 9.40625 -11.8125 L 9.40625 -9.867188 C 9.40625 -9.019531 9.917969 -8.945312 10.121094 -8.945312 L 16.503906 -8.945312 C 16.503906 -8.945312 16.53125 -5.355469 16.53125 -5.355469 C 16.53125 -4.5625 16.402344 -4.230469 16.300781 -4.074219 C 16.171875 -3.871094 15.964844 -3.792969 15.683594 -3.792969 L 8.507812 -3.792969 C 7.96875 -3.792969 7.507812 -3.84375 7.175781 -3.972656 C 6.84375 -4.074219 6.613281 -4.253906 6.40625 -4.535156 C 6.226562 -4.792969 6.074219 -5.175781 5.996094 -5.664062 C 5.894531 -6.175781 5.84375 -6.816406 5.84375 -7.585938 L 5.84375 -13.53125 C 5.84375 -14.300781 5.894531 -14.941406 5.996094 -15.453125 C 6.074219 -15.914062 6.226562 -16.300781 6.40625 -16.582031 C 6.613281 -16.835938 6.84375 -17.015625 7.175781 -17.144531 C 7.507812 -17.246094 7.96875 -17.324219 8.507812 -17.324219 L 19.398438 -17.324219 C 19.605469 -17.324219 20.117188 -17.402344 20.117188 -18.222656 L 20.117188 -20.21875 C 20.117188 -21.015625 19.605469 -21.117188 19.398438 -21.117188 Z M 19.398438 -21.117188 "/></g></g></g><g fill="#ffffff" fill-opacity="1"><g transform="translate(131.690311, 21.436759)"><g><path d="M 15.785156 -18.734375 C 15.734375 -18.863281 15.683594 -19.015625 15.632812 -19.117188 C 15.222656 -20.449219 13.992188 -21.398438 12.582031 -21.398438 C 11.941406 -21.398438 11.328125 -21.21875 10.816406 -20.859375 C 10.660156 -20.785156 10.53125 -20.679688 10.429688 -20.605469 C 10.046875 -20.269531 9.660156 -19.65625 9.304688 -18.734375 L 2.152344 -0.972656 C 2.074219 -0.742188 2.050781 -0.511719 2.101562 -0.359375 C 2.128906 -0.203125 2.253906 0.0273438 2.664062 0.0273438 L 5.484375 0.0273438 C 5.816406 0.0273438 6.074219 -0.179688 6.203125 -0.511719 L 7.664062 -4.175781 L 13.273438 -4.175781 C 13.558594 -4.175781 13.8125 -4.304688 13.941406 -4.535156 C 14.09375 -4.742188 14.121094 -5.023438 14.042969 -5.277344 L 13.121094 -7.558594 C 12.992188 -7.867188 12.710938 -8.074219 12.378906 -8.074219 L 9.199219 -8.074219 L 12.480469 -16.375 C 12.507812 -16.425781 12.53125 -16.453125 12.53125 -16.453125 L 12.632812 -16.453125 C 12.632812 -16.453125 12.632812 -16.453125 12.660156 -16.402344 L 19.015625 -0.539062 C 19.144531 -0.179688 19.398438 0.0273438 19.757812 0.0273438 L 22.5 0.0273438 C 22.910156 0.0273438 23.011719 -0.230469 23.066406 -0.359375 C 23.117188 -0.511719 23.089844 -0.742188 22.988281 -0.972656 Z M 15.785156 -18.734375 "/></g></g></g><g fill="#ffffff" fill-opacity="1"><g transform="translate(39.032762, 33.411419)"><g><path d="M 8.882812 -9.492188 L 1.253906 -9.492188 C 1.152344 -9.492188 0.921875 -9.457031 0.921875 -9.101562 L 0.921875 -8.203125 C 0.921875 -7.820312 1.152344 -7.789062 1.253906 -7.789062 L 4.214844 -7.789062 L 4.214844 -0.390625 C 4.214844 -0.0351562 4.445312 0 4.539062 0 L 5.597656 0 C 5.703125 0 5.921875 -0.0351562 5.921875 -0.390625 L 5.921875 -7.789062 L 8.882812 -7.789062 C 8.984375 -7.789062 9.214844 -7.820312 9.214844 -8.203125 L 9.214844 -9.101562 C 9.214844 -9.457031 8.984375 -9.492188 8.882812 -9.492188 Z M 8.882812 -9.492188 "/></g></g></g><g fill="#ffffff" fill-opacity="1"><g transform="translate(49.745941, 33.411419)"><g><path d="M 7.84375 -2.0625 L 3.789062 -2.0625 C 3.546875 -2.0625 3.351562 -2.097656 3.191406 -2.144531 C 3.042969 -2.199219 2.9375 -2.28125 2.84375 -2.394531 C 2.753906 -2.523438 2.683594 -2.695312 2.648438 -2.914062 C 2.636719 -2.972656 2.636719 -3.054688 2.625 -3.109375 C 2.625 -3.109375 2.636719 -3.941406 2.648438 -3.941406 L 7.800781 -3.941406 C 7.890625 -3.941406 8.121094 -3.984375 8.121094 -4.34375 L 8.121094 -5.253906 C 8.121094 -5.609375 7.890625 -5.644531 7.800781 -5.644531 L 1.855469 -5.632812 C 1.519531 -5.609375 1.234375 -5.4375 1.070312 -5.148438 C 1.015625 -5.058594 0.96875 -4.964844 0.945312 -4.863281 L 0.921875 -3.410156 L 0.921875 -3.351562 C 0.933594 -2.8125 0.992188 -2.351562 1.070312 -1.96875 C 1.175781 -1.507812 1.347656 -1.128906 1.566406 -0.839844 C 1.796875 -0.542969 2.097656 -0.335938 2.464844 -0.207031 C 2.824219 -0.0703125 3.25 -0.0117188 3.753906 -0.0117188 L 7.84375 -0.0117188 C 7.949219 -0.0117188 8.179688 -0.046875 8.179688 -0.402344 L 8.179688 -1.671875 C 8.179688 -2.027344 7.949219 -2.0625 7.84375 -2.0625 Z M 7.855469 -9.515625 L 1.234375 -9.515625 C 1.140625 -9.515625 0.921875 -9.46875 0.921875 -9.101562 L 0.921875 -8.203125 C 0.921875 -7.84375 1.140625 -7.8125 1.234375 -7.8125 L 7.855469 -7.800781 C 7.949219 -7.800781 8.179688 -7.84375 8.179688 -8.203125 L 8.179688 -9.113281 C 8.179688 -9.46875 7.949219 -9.515625 7.855469 -9.515625 Z M 7.855469 -9.515625 "/></g></g></g><g fill="#ffffff" fill-opacity="1"><g transform="translate(59.422366, 33.411419)"><g><path d="M 7.960938 -9.492188 L 3.765625 -9.492188 C 3.261719 -9.492188 2.824219 -9.421875 2.464844 -9.296875 C 2.097656 -9.160156 1.796875 -8.941406 1.578125 -8.652344 C 1.347656 -8.363281 1.175781 -7.984375 1.070312 -7.523438 C 0.96875 -7.074219 0.921875 -6.519531 0.921875 -5.886719 L 0.921875 -3.605469 C 0.921875 -2.960938 0.96875 -2.40625 1.070312 -1.945312 C 1.175781 -1.496094 1.347656 -1.117188 1.578125 -0.816406 C 1.808594 -0.53125 2.109375 -0.3125 2.464844 -0.183594 C 2.824219 -0.0585938 3.261719 0.0117188 3.765625 0.0117188 L 7.960938 0.0117188 C 8.050781 0.0117188 8.28125 -0.0351562 8.28125 -0.390625 L 8.28125 -1.300781 C 8.28125 -1.660156 8.050781 -1.703125 7.960938 -1.703125 L 3.824219 -1.703125 C 3.582031 -1.703125 3.375 -1.726562 3.226562 -1.785156 C 3.074219 -1.832031 2.972656 -1.914062 2.878906 -2.039062 C 2.789062 -2.152344 2.730469 -2.328125 2.683594 -2.546875 C 2.648438 -2.777344 2.625 -3.0625 2.625 -3.410156 L 2.625 -6.09375 C 2.625 -6.441406 2.648438 -6.726562 2.683594 -6.945312 C 2.730469 -7.164062 2.789062 -7.328125 2.878906 -7.453125 C 2.972656 -7.582031 3.074219 -7.660156 3.226562 -7.707031 C 3.375 -7.765625 3.582031 -7.789062 3.824219 -7.789062 L 7.960938 -7.789062 C 8.050781 -7.789062 8.28125 -7.832031 8.28125 -8.203125 L 8.28125 -9.089844 C 8.28125 -9.445312 8.050781 -9.492188 7.960938 -9.492188 Z M 7.960938 -9.492188 "/></g></g></g><g fill="#ffffff" fill-opacity="1"><g transform="translate(69.202463, 33.411419)"><g><path d="M 8.363281 -9.492188 L 7.304688 -9.492188 C 7.210938 -9.492188 6.992188 -9.445312 6.992188 -9.089844 L 6.992188 -5.644531 L 2.625 -5.644531 L 2.625 -9.089844 C 2.625 -9.445312 2.40625 -9.492188 2.304688 -9.492188 L 1.253906 -9.492188 C 1.152344 -9.492188 0.921875 -9.445312 0.921875 -9.089844 L 0.921875 -0.390625 C 0.921875 -0.0351562 1.152344 0.0117188 1.253906 0.0117188 L 2.304688 0.0117188 C 2.40625 0.0117188 2.625 -0.0351562 2.625 -0.390625 L 2.625 -3.941406 L 6.992188 -3.941406 L 6.992188 -0.390625 C 6.992188 -0.0351562 7.210938 0.0117188 7.304688 0.0117188 L 8.363281 0.0117188 C 8.46875 0.0117188 8.699219 -0.0351562 8.699219 -0.390625 L 8.699219 -9.089844 C 8.699219 -9.445312 8.46875 -9.492188 8.363281 -9.492188 Z M 8.363281 -9.492188 "/></g></g></g><g fill="#ffffff" fill-opacity="1"><g transform="translate(79.39726, 33.411419)"><g><path d="M 9.078125 -9.492188 L 8.050781 -9.492188 C 7.949219 -9.492188 7.730469 -9.457031 7.730469 -9.089844 L 7.730469 -2.164062 C 7.730469 -2.152344 7.730469 -2.152344 7.730469 -2.144531 L 7.671875 -2.144531 C 7.660156 -2.144531 7.648438 -2.144531 7.636719 -2.175781 L 3.996094 -8.652344 C 3.90625 -8.824219 3.824219 -8.960938 3.742188 -9.066406 C 3.664062 -9.179688 3.582031 -9.273438 3.503906 -9.332031 C 3.410156 -9.398438 3.304688 -9.445312 3.179688 -9.46875 C 3.0625 -9.480469 2.925781 -9.492188 2.777344 -9.492188 L 1.914062 -9.492188 C 1.578125 -9.492188 1.324219 -9.378906 1.164062 -9.167969 C 1.003906 -8.949219 0.921875 -8.570312 0.921875 -8.007812 L 0.921875 -0.390625 C 0.921875 -0.0351562 1.152344 0.0117188 1.253906 0.0117188 L 2.28125 0.0117188 C 2.382812 0.0117188 2.605469 -0.0351562 2.605469 -0.390625 L 2.605469 -7.316406 C 2.605469 -7.328125 2.605469 -7.339844 2.605469 -7.339844 L 2.660156 -7.339844 C 2.660156 -7.339844 2.671875 -7.339844 2.695312 -7.304688 L 6.347656 -0.828125 C 6.441406 -0.644531 6.53125 -0.507812 6.613281 -0.402344 C 6.691406 -0.289062 6.773438 -0.207031 6.867188 -0.148438 C 6.957031 -0.0820312 7.0625 -0.046875 7.175781 -0.0234375 C 7.28125 0 7.40625 0.0117188 7.570312 0.0117188 L 8.410156 0.0117188 C 8.742188 0.0117188 8.996094 -0.105469 9.160156 -0.324219 C 9.320312 -0.53125 9.398438 -0.910156 9.398438 -1.472656 L 9.398438 -9.089844 C 9.398438 -9.457031 9.167969 -9.492188 9.078125 -9.492188 Z M 9.078125 -9.492188 "/></g></g></g><g fill="#ffffff" fill-opacity="1"><g transform="translate(90.294758, 33.411419)"><g><path d="M 8.765625 -8.652344 C 8.535156 -8.941406 8.238281 -9.160156 7.867188 -9.296875 C 7.511719 -9.421875 7.074219 -9.492188 6.566406 -9.492188 L 3.753906 -9.492188 C 3.25 -9.492188 2.824219 -9.421875 2.464844 -9.296875 C 2.097656 -9.160156 1.796875 -8.941406 1.566406 -8.652344 C 1.347656 -8.363281 1.175781 -7.984375 1.070312 -7.523438 C 0.96875 -7.074219 0.921875 -6.53125 0.921875 -5.886719 L 0.921875 -3.605469 C 0.921875 -2.960938 0.96875 -2.40625 1.070312 -1.957031 C 1.175781 -1.496094 1.347656 -1.117188 1.566406 -0.828125 C 1.796875 -0.53125 2.097656 -0.3125 2.464844 -0.183594 C 2.8125 -0.0585938 3.25 0.0117188 3.753906 0.0117188 L 6.566406 0.0117188 C 7.074219 0.0117188 7.511719 -0.0585938 7.867188 -0.183594 C 8.238281 -0.3125 8.535156 -0.53125 8.765625 -0.816406 C 8.996094 -1.117188 9.160156 -1.496094 9.261719 -1.957031 C 9.355469 -2.40625 9.410156 -2.960938 9.410156 -3.605469 L 9.410156 -5.886719 C 9.410156 -6.519531 9.355469 -7.074219 9.261719 -7.523438 C 9.160156 -7.984375 8.996094 -8.363281 8.765625 -8.652344 Z M 7.695312 -6.082031 L 7.695312 -3.398438 C 7.695312 -3.0625 7.683594 -2.777344 7.636719 -2.546875 C 7.601562 -2.339844 7.535156 -2.152344 7.441406 -2.039062 C 7.359375 -1.914062 7.246094 -1.832031 7.097656 -1.785156 C 6.945312 -1.726562 6.75 -1.703125 6.507812 -1.703125 L 3.8125 -1.703125 C 3.570312 -1.703125 3.375 -1.726562 3.226562 -1.785156 C 3.074219 -1.832031 2.960938 -1.914062 2.878906 -2.039062 C 2.789062 -2.152344 2.730469 -2.339844 2.683594 -2.546875 C 2.648438 -2.777344 2.625 -3.0625 2.625 -3.398438 L 2.625 -6.082031 C 2.625 -6.417969 2.648438 -6.703125 2.683594 -6.933594 C 2.730469 -7.152344 2.789062 -7.328125 2.878906 -7.453125 C 2.960938 -7.570312 3.074219 -7.648438 3.226562 -7.707031 C 3.375 -7.753906 3.570312 -7.789062 3.8125 -7.789062 L 6.507812 -7.789062 C 6.75 -7.789062 6.945312 -7.753906 7.097656 -7.707031 C 7.246094 -7.648438 7.359375 -7.570312 7.441406 -7.453125 C 7.535156 -7.328125 7.601562 -7.152344 7.636719 -6.933594 C 7.683594 -6.703125 7.695312 -6.417969 7.695312 -6.082031 Z M 7.695312 -6.082031 "/></g></g></g><g fill="#ffffff" fill-opacity="1"><g transform="translate(101.203769, 33.411419)"><g><path d="M 7.570312 -1.703125 L 3.824219 -1.703125 C 3.582031 -1.703125 3.386719 -1.726562 3.226562 -1.785156 C 3.085938 -1.832031 2.972656 -1.914062 2.890625 -2.039062 C 2.800781 -2.164062 2.730469 -2.339844 2.695312 -2.546875 C 2.648438 -2.777344 2.636719 -3.0625 2.636719 -3.410156 L 2.636719 -9.089844 C 2.636719 -9.457031 2.40625 -9.492188 2.316406 -9.492188 L 1.253906 -9.492188 C 1.152344 -9.492188 0.921875 -9.457031 0.921875 -9.089844 L 0.921875 -3.605469 C 0.921875 -2.960938 0.980469 -2.40625 1.082031 -1.957031 C 1.1875 -1.496094 1.347656 -1.117188 1.578125 -0.828125 C 1.808594 -0.53125 2.109375 -0.3125 2.476562 -0.183594 C 2.824219 -0.0585938 3.261719 0.0117188 3.765625 0.0117188 L 7.570312 0.0117188 C 7.671875 0.0117188 7.890625 -0.0351562 7.890625 -0.390625 L 7.890625 -1.300781 C 7.890625 -1.660156 7.671875 -1.703125 7.570312 -1.703125 Z M 7.570312 -1.703125 "/></g></g></g><g fill="#ffffff" fill-opacity="1"><g transform="translate(110.592203, 33.411419)"><g><path d="M 8.765625 -8.652344 C 8.535156 -8.941406 8.238281 -9.160156 7.867188 -9.296875 C 7.511719 -9.421875 7.074219 -9.492188 6.566406 -9.492188 L 3.753906 -9.492188 C 3.25 -9.492188 2.824219 -9.421875 2.464844 -9.296875 C 2.097656 -9.160156 1.796875 -8.941406 1.566406 -8.652344 C 1.347656 -8.363281 1.175781 -7.984375 1.070312 -7.523438 C 0.96875 -7.074219 0.921875 -6.53125 0.921875 -5.886719 L 0.921875 -3.605469 C 0.921875 -2.960938 0.96875 -2.40625 1.070312 -1.957031 C 1.175781 -1.496094 1.347656 -1.117188 1.566406 -0.828125 C 1.796875 -0.53125 2.097656 -0.3125 2.464844 -0.183594 C 2.8125 -0.0585938 3.25 0.0117188 3.753906 0.0117188 L 6.566406 0.0117188 C 7.074219 0.0117188 7.511719 -0.0585938 7.867188 -0.183594 C 8.238281 -0.3125 8.535156 -0.53125 8.765625 -0.816406 C 8.996094 -1.117188 9.160156 -1.496094 9.261719 -1.957031 C 9.355469 -2.40625 9.410156 -2.960938 9.410156 -3.605469 L 9.410156 -5.886719 C 9.410156 -6.519531 9.355469 -7.074219 9.261719 -7.523438 C 9.160156 -7.984375 8.996094 -8.363281 8.765625 -8.652344 Z M 7.695312 -6.082031 L 7.695312 -3.398438 C 7.695312 -3.0625 7.683594 -2.777344 7.636719 -2.546875 C 7.601562 -2.339844 7.535156 -2.152344 7.441406 -2.039062 C 7.359375 -1.914062 7.246094 -1.832031 7.097656 -1.785156 C 6.945312 -1.726562 6.75 -1.703125 6.507812 -1.703125 L 3.8125 -1.703125 C 3.570312 -1.703125 3.375 -1.726562 3.226562 -1.785156 C 3.074219 -1.832031 2.960938 -1.914062 2.878906 -2.039062 C 2.789062 -2.152344 2.730469 -2.339844 2.683594 -2.546875 C 2.648438 -2.777344 2.625 -3.0625 2.625 -3.398438 L 2.625 -6.082031 C 2.625 -6.417969 2.648438 -6.703125 2.683594 -6.933594 C 2.730469 -7.152344 2.789062 -7.328125 2.878906 -7.453125 C 2.960938 -7.570312 3.074219 -7.648438 3.226562 -7.707031 C 3.375 -7.753906 3.570312 -7.789062 3.8125 -7.789062 L 6.507812 -7.789062 C 6.75 -7.789062 6.945312 -7.753906 7.097656 -7.707031 C 7.246094 -7.648438 7.359375 -7.570312 7.441406 -7.453125 C 7.535156 -7.328125 7.601562 -7.152344 7.636719 -6.933594 C 7.683594 -6.703125 7.695312 -6.417969 7.695312 -6.082031 Z M 7.695312 -6.082031 "/></g></g></g><g fill="#ffffff" fill-opacity="1"><g transform="translate(121.501214, 33.411419)"><g><path d="M 8.71875 -9.492188 L 3.765625 -9.492188 C 3.261719 -9.492188 2.824219 -9.421875 2.464844 -9.296875 C 2.109375 -9.160156 1.796875 -8.941406 1.578125 -8.652344 C 1.347656 -8.351562 1.175781 -7.984375 1.070312 -7.523438 C 0.96875 -7.074219 0.921875 -6.519531 0.921875 -5.886719 L 0.921875 -3.605469 C 0.921875 -2.960938 0.96875 -2.40625 1.070312 -1.945312 C 1.175781 -1.496094 1.347656 -1.117188 1.578125 -0.816406 C 1.808594 -0.53125 2.109375 -0.3125 2.464844 -0.183594 C 2.824219 -0.0585938 3.261719 0.0117188 3.765625 0.0117188 L 7.707031 0.0117188 C 8.132812 0.0117188 8.46875 -0.160156 8.699219 -0.496094 C 8.917969 -0.816406 9.03125 -1.359375 9.03125 -2.132812 L 9.03125 -5.21875 C 9.03125 -5.65625 8.777344 -5.726562 8.628906 -5.726562 L 4.550781 -5.726562 C 4.457031 -5.726562 4.226562 -5.679688 4.226562 -5.3125 L 4.226562 -4.433594 C 4.226562 -4.054688 4.457031 -4.019531 4.550781 -4.019531 L 7.417969 -4.019531 C 7.417969 -4.019531 7.429688 -2.40625 7.429688 -2.40625 C 7.429688 -2.050781 7.371094 -1.902344 7.328125 -1.832031 C 7.269531 -1.738281 7.175781 -1.703125 7.050781 -1.703125 L 3.824219 -1.703125 C 3.582031 -1.703125 3.375 -1.726562 3.226562 -1.785156 C 3.074219 -1.832031 2.972656 -1.914062 2.878906 -2.039062 C 2.800781 -2.152344 2.730469 -2.328125 2.695312 -2.546875 C 2.648438 -2.777344 2.625 -3.0625 2.625 -3.410156 L 2.625 -6.082031 C 2.625 -6.429688 2.648438 -6.714844 2.695312 -6.945312 C 2.730469 -7.152344 2.800781 -7.328125 2.878906 -7.453125 C 2.972656 -7.570312 3.074219 -7.648438 3.226562 -7.707031 C 3.375 -7.753906 3.582031 -7.789062 3.824219 -7.789062 L 8.71875 -7.789062 C 8.8125 -7.789062 9.042969 -7.820312 9.042969 -8.191406 L 9.042969 -9.089844 C 9.042969 -9.445312 8.8125 -9.492188 8.71875 -9.492188 Z M 8.71875 -9.492188 "/></g></g></g><g fill="#ffffff" fill-opacity="1"><g transform="translate(132.041599, 33.411419)"><g><path d="M 2.304688 -9.492188 L 1.246094 -9.492188 C 1.152344 -9.492188 0.921875 -9.445312 0.921875 -9.089844 L 0.921875 -0.390625 C 0.921875 -0.0351562 1.152344 0.0117188 1.246094 0.0117188 L 2.304688 0.0117188 C 2.394531 0.0117188 2.625 -0.0351562 2.625 -0.390625 L 2.625 -9.089844 C 2.625 -9.445312 2.394531 -9.492188 2.304688 -9.492188 Z M 2.304688 -9.492188 "/></g></g></g><g fill="#ffffff" fill-opacity="1"><g transform="translate(136.165603, 33.411419)"><g><path d="M 7.84375 -2.0625 L 3.789062 -2.0625 C 3.546875 -2.0625 3.351562 -2.097656 3.191406 -2.144531 C 3.042969 -2.199219 2.9375 -2.28125 2.84375 -2.394531 C 2.753906 -2.523438 2.683594 -2.695312 2.648438 -2.914062 C 2.636719 -2.972656 2.636719 -3.054688 2.625 -3.109375 C 2.625 -3.109375 2.636719 -3.941406 2.648438 -3.941406 L 7.800781 -3.941406 C 7.890625 -3.941406 8.121094 -3.984375 8.121094 -4.34375 L 8.121094 -5.253906 C 8.121094 -5.609375 7.890625 -5.644531 7.800781 -5.644531 L 1.855469 -5.632812 C 1.519531 -5.609375 1.234375 -5.4375 1.070312 -5.148438 C 1.015625 -5.058594 0.96875 -4.964844 0.945312 -4.863281 L 0.921875 -3.410156 L 0.921875 -3.351562 C 0.933594 -2.8125 0.992188 -2.351562 1.070312 -1.96875 C 1.175781 -1.507812 1.347656 -1.128906 1.566406 -0.839844 C 1.796875 -0.542969 2.097656 -0.335938 2.464844 -0.207031 C 2.824219 -0.0703125 3.25 -0.0117188 3.753906 -0.0117188 L 7.84375 -0.0117188 C 7.949219 -0.0117188 8.179688 -0.046875 8.179688 -0.402344 L 8.179688 -1.671875 C 8.179688 -2.027344 7.949219 -2.0625 7.84375 -2.0625 Z M 7.855469 -9.515625 L 1.234375 -9.515625 C 1.140625 -9.515625 0.921875 -9.46875 0.921875 -9.101562 L 0.921875 -8.203125 C 0.921875 -7.84375 1.140625 -7.8125 1.234375 -7.8125 L 7.855469 -7.800781 C 7.949219 -7.800781 8.179688 -7.84375 8.179688 -8.203125 L 8.179688 -9.113281 C 8.179688 -9.46875 7.949219 -9.515625 7.855469 -9.515625 Z M 7.855469 -9.515625 "/></g></g></g><g fill="#ffffff" fill-opacity="1"><g transform="translate(145.842028, 33.411419)"><g><path d="M 6.484375 -5.667969 L 3.03125 -5.667969 C 2.855469 -5.667969 2.636719 -5.738281 2.636719 -6.300781 L 2.636719 -7.152344 C 2.636719 -7.359375 2.671875 -7.523438 2.730469 -7.636719 C 2.777344 -7.707031 2.84375 -7.789062 3.042969 -7.789062 L 7.730469 -7.789062 C 7.820312 -7.789062 8.050781 -7.820312 8.050781 -8.179688 L 8.050781 -9.101562 C 8.050781 -9.457031 7.820312 -9.492188 7.730469 -9.492188 L 2.765625 -9.492188 C 2.132812 -9.492188 1.671875 -9.285156 1.371094 -8.859375 C 1.070312 -8.445312 0.921875 -7.890625 0.921875 -7.222656 L 0.921875 -6.347656 C 0.921875 -5.550781 1.082031 -4.90625 1.371094 -4.503906 C 1.726562 -4.03125 2.257812 -3.960938 2.742188 -3.960938 L 6.199219 -3.960938 C 6.371094 -3.960938 6.601562 -3.894531 6.601562 -3.328125 L 6.601562 -2.339844 C 6.601562 -2.132812 6.566406 -1.96875 6.496094 -1.855469 C 6.453125 -1.785156 6.382812 -1.703125 6.1875 -1.703125 L 1.265625 -1.703125 C 1.164062 -1.703125 0.933594 -1.671875 0.933594 -1.3125 L 0.933594 -0.390625 C 0.933594 -0.0351562 1.164062 0 1.265625 0 L 6.460938 0 C 7.097656 0 7.570312 -0.21875 7.867188 -0.644531 C 8.15625 -1.058594 8.304688 -1.601562 8.304688 -2.269531 L 8.304688 -3.28125 C 8.304688 -4.03125 8.15625 -4.621094 7.855469 -5.035156 C 7.546875 -5.449219 7.085938 -5.667969 6.484375 -5.667969 Z M 6.484375 -5.667969 "/></g></g></g></svg>