<svg width="470" height="370" viewBox="0 0 470 370" fill="none" xmlns="http://www.w3.org/2000/svg">
<path d="M328.232 91.3304L328.241 91.3308C328.257 91.3314 328.273 91.3279 328.287 91.3206L328.295 91.3166C329.592 90.6584 330.924 90.0718 332.286 89.5596C333.636 89.046 335.035 88.5486 336.396 88.1497L336.286 88.1657L336.306 88.1662C336.339 88.1673 336.373 88.1629 336.406 88.1532L336.433 88.1449C343.622 85.8883 351.087 84.6302 358.618 84.4058C362.371 84.2945 366.128 84.4144 369.867 84.7647L381.199 85.7228C388.756 86.3328 396.327 86.769 403.895 87.2511C411.465 87.71 419.031 88.2077 426.586 88.8374L426.425 88.2583C425.088 89.2305 423.865 90.3505 422.779 91.5971C421.704 92.8585 420.789 94.2471 420.052 95.7318C419.339 97.2262 418.775 98.7868 418.366 100.391C417.978 101.999 417.73 103.637 417.623 105.288C417.439 108.586 417.661 111.895 418.283 115.14C418.871 118.398 419.795 121.587 421.039 124.656L421.938 123.497C416.622 122.492 411.308 121.478 405.984 120.512L390.021 117.58L390.893 118.366L390.778 118.023L390.813 118.117C390.041 115.672 388.45 113.567 386.309 112.158C384.181 110.753 381.657 110.071 379.111 110.214C376.554 110.378 374.128 111.405 372.229 113.125C371.981 113.324 371.757 113.551 371.562 113.802L370.945 114.528C370.575 115.039 370.234 115.57 369.924 116.12C369.629 116.664 369.427 117.225 369.176 117.777C369.059 118.055 368.932 118.329 368.825 118.61L368.561 119.466C367.291 123.994 366.803 128.706 367.117 133.398C367.326 138.028 367.976 142.626 369.056 147.132L369.854 146.331L359.123 144.086L348.37 141.934C348.343 141.929 348.315 141.934 348.292 141.949C348.269 141.964 348.252 141.988 348.246 142.014C348.24 142.041 348.244 142.07 348.259 142.093C348.273 142.117 348.296 142.134 348.323 142.141L358.928 144.924L369.553 147.628C369.66 147.655 369.772 147.655 369.879 147.627C369.985 147.599 370.083 147.545 370.164 147.47C370.244 147.394 370.304 147.3 370.338 147.195C370.373 147.09 370.38 146.978 370.36 146.87L370.351 146.826C369.494 142.38 369.004 137.87 368.887 133.342C368.694 128.874 369.262 124.405 370.566 120.127L370.818 119.346C370.918 119.094 371.036 118.851 371.144 118.603C371.373 118.118 371.565 117.595 371.821 117.14C372.11 116.717 372.337 116.246 372.665 115.857L373.168 115.281C373.323 115.079 373.504 114.899 373.707 114.746C375.246 113.389 377.196 112.591 379.243 112.481C381.3 112.363 383.34 112.91 385.062 114.042C386.777 115.174 388.06 116.852 388.704 118.804L388.739 118.898C388.745 118.924 388.753 118.95 388.764 118.975L388.835 119.137C388.907 119.299 389.018 119.441 389.158 119.55C389.298 119.659 389.462 119.732 389.636 119.762L405.639 122.473C410.971 123.388 416.311 124.256 421.65 125.132C421.798 125.156 421.95 125.14 422.09 125.085C422.23 125.03 422.352 124.939 422.445 124.82C422.537 124.701 422.595 124.56 422.614 124.411C422.632 124.262 422.61 124.11 422.55 123.973C421.281 121.039 420.292 117.992 419.595 114.873C418.871 111.749 418.545 108.545 418.625 105.339C418.678 103.741 418.867 102.15 419.191 100.584C419.535 99.0242 420.052 97.5075 420.731 96.0622C421.424 94.624 422.291 93.2762 423.311 92.0489C424.348 90.8309 425.519 89.7336 426.801 88.7777L426.81 88.7707C426.86 88.7311 426.898 88.677 426.918 88.6155C426.938 88.554 426.938 88.488 426.92 88.4262C426.901 88.3643 426.865 88.3094 426.815 88.2688C426.764 88.2281 426.703 88.2036 426.639 88.1984C419.082 87.584 411.536 86.8424 403.994 86.0534C396.449 85.2889 388.909 84.4785 381.354 83.8419L370.018 82.9302C366.202 82.6044 362.369 82.5457 358.545 82.7543C354.723 82.9662 350.922 83.4659 347.175 84.2492C343.431 85.0072 339.754 86.0633 336.179 87.4072L336.305 87.386L336.286 87.3865L336.256 87.3874C336.228 87.3883 336.201 87.3935 336.175 87.4026C334.758 87.909 333.432 88.472 332.083 89.0752C330.741 89.6746 329.44 90.3618 328.189 91.1322L328.241 91.1182L328.231 91.1185C328.204 91.1196 328.178 91.1312 328.159 91.151C328.14 91.1707 328.13 91.1971 328.13 91.2245C328.13 91.2519 328.14 91.2782 328.159 91.298C328.178 91.3177 328.204 91.3294 328.231 91.3305L328.232 91.3304Z" fill="black"/>
<path d="M281.891 119.593C282.495 116.566 283.707 113.693 285.454 111.148C286.325 109.928 287.328 108.807 288.444 107.806C289.573 106.818 290.784 105.927 292.064 105.143C294.691 103.606 297.495 102.391 300.414 101.526C303.373 100.629 306.4 99.9699 309.464 99.5539L309.523 99.5481C310.571 99.256 311.614 98.9441 312.655 98.6123C311.564 98.666 310.478 98.7437 309.395 98.8393L309.453 98.8335C306.253 98.6936 303.05 98.9988 299.933 99.7403C296.769 100.454 293.741 101.678 290.97 103.366C288.145 105.07 285.793 107.456 284.13 110.307C282.531 113.132 281.755 116.349 281.891 119.593Z" fill="black"/>
<path d="M382.195 110.862C380.35 110.147 378.484 109.525 376.605 108.96C374.727 108.388 372.84 107.86 370.943 107.375C369.052 106.865 367.14 106.449 365.235 105.999C363.32 105.597 361.409 105.177 359.479 104.839L359.033 104.761L358.753 104.975C357.962 105.587 357.232 106.274 356.573 107.027C355.92 107.743 355.319 108.506 354.777 109.309C354.233 110.103 353.745 110.934 353.316 111.795C352.884 112.647 352.519 113.532 352.223 114.441C352.776 113.667 353.345 112.917 353.931 112.193C354.525 111.47 355.124 110.748 355.749 110.093C356.388 109.429 357.04 108.786 357.719 108.181C358.382 107.598 359.076 107.051 359.798 106.544L359.072 106.68C360.963 107.188 362.873 107.613 364.777 108.064C366.692 108.466 368.6 108.901 370.529 109.242C372.451 109.612 374.384 109.934 376.327 110.21C378.268 110.497 380.221 110.726 382.195 110.862Z" fill="black"/>
<path d="M409.063 87.0735C406.8 89.1671 405.02 91.728 403.846 94.5787C402.617 97.4288 401.842 100.454 401.549 103.544C401.304 106.626 401.493 109.728 402.11 112.757C402.185 113.134 402.242 113.513 402.331 113.886L402.647 114.992L403.311 117.186C403.847 118.616 404.474 120.01 405.131 121.37C404.917 119.853 404.564 118.398 404.318 116.926L404.007 114.714L403.836 113.617C403.79 113.251 403.776 112.88 403.745 112.512C403.693 111.775 403.635 111.042 403.557 110.311C403.503 109.579 403.532 108.843 403.514 108.112C403.481 106.651 403.529 105.19 403.657 103.734C403.926 100.824 404.505 97.951 405.384 95.1641C406.271 92.325 407.506 89.6073 409.063 87.0735Z" fill="black"/>
<path d="M351.652 109.128C350.07 108.536 348.477 107.955 346.874 107.404C346.963 108.058 347.01 108.718 347.014 109.378C348.387 109.809 349.769 110.22 351.161 110.621C352.103 110.892 353.045 111.163 353.996 111.433C354.127 111.233 354.257 111.042 354.387 110.862C354.517 110.671 354.658 110.491 354.778 110.321C353.736 109.91 352.694 109.519 351.652 109.128Z" fill="black"/>
<path d="M335.865 105.74C337.087 106.161 338.289 106.582 339.511 106.993H339.521C339.902 106.39 340.345 105.828 340.844 105.319L340.393 105.168C339.04 104.727 337.688 104.286 336.336 103.855C336.175 104.537 336.005 105.168 335.865 105.74Z" fill="black"/>
<path d="M342.747 99.1336C340.733 98.482 338.72 97.8304 336.696 97.1989C336.915 97.8717 337.02 98.5764 337.007 99.2839C338.7 99.8854 340.413 100.457 342.116 101.038C345.892 102.271 349.689 103.484 353.516 104.577C355.289 105.098 357.072 105.596 358.865 106.07C360.928 106.622 362.992 107.143 365.086 107.594C364.254 107.223 363.423 106.852 362.581 106.491C362.571 106.491 362.571 106.491 362.561 106.481C359.736 105.278 356.871 104.166 354.006 103.093C350.28 101.69 346.513 100.407 342.747 99.1336Z" fill="black"/>
<path d="M326.989 95.585C327.16 95.6552 327.33 95.7253 327.5 95.7855C327.938 95.4188 328.432 95.1244 328.963 94.9134C328.422 94.763 327.881 94.6126 327.34 94.4623C327.21 94.8833 327.09 95.2642 326.989 95.585Z" fill="black"/>
<path d="M421.792 124.311C444.408 103.655 426.609 88.522 426.609 88.522C410.802 99.9756 421.792 124.311 421.792 124.311Z" fill="#C9FF56"/>
<path d="M369.705 146.976C388.367 152.546 389.828 118.67 389.828 118.67C389.806 118.6 389.784 118.531 389.762 118.462C386.956 109.837 374.928 108.722 370.779 116.786C365.156 127.715 369.705 146.976 369.705 146.976Z" fill="#C9FF56"/>
<path d="M355.628 142.93C358.719 150.551 361.882 158.094 364.791 165.706C367.765 173.225 370.271 180.92 372.295 188.749C372.773 190.67 373.139 192.617 373.393 194.58C373.669 196.48 373.661 198.412 373.368 200.31C373.214 201.202 372.911 202.063 372.472 202.855C372.025 203.608 371.404 204.243 370.662 204.708C368.969 205.567 367.043 205.856 365.172 205.531C361.199 204.84 357.376 203.463 353.876 201.459C352.987 200.966 352.096 200.48 351.218 199.965L348.623 198.349C346.871 197.31 345.23 196.093 343.55 194.95C341.875 193.796 340.283 192.524 338.651 191.321L336.28 189.409C335.491 188.772 334.679 188.167 333.918 187.495C332.387 186.163 330.794 184.915 329.306 183.54L327.037 181.524L324.827 179.444C321.891 176.66 319.067 173.767 316.354 170.763C313.623 167.782 311.002 164.702 308.442 161.571C303.31 155.294 298.532 148.735 294.13 141.925C291.921 138.514 289.802 135.039 287.772 131.5C285.739 127.965 283.793 124.363 282.021 120.672L281.622 120.814C284.019 128.739 287.25 136.386 291.261 143.629C295.22 150.927 299.79 157.877 304.921 164.403C310.107 170.905 315.865 176.928 322.126 182.401L324.476 184.446L326.892 186.412C328.492 187.733 330.166 188.964 331.84 190.188C333.517 191.408 335.259 192.541 336.984 193.684C338.761 194.756 340.491 195.891 342.297 196.903C344.101 197.918 345.881 198.964 347.72 199.904C349.544 200.869 351.362 201.841 353.225 202.743C356.937 204.662 360.895 206.058 364.988 206.892C367.171 207.353 369.442 207.124 371.489 206.237C372.546 205.706 373.461 204.93 374.156 203.973C374.81 203.026 375.309 201.982 375.635 200.878C376.212 198.763 376.466 196.572 376.387 194.38C376.329 192.255 376.116 190.137 375.749 188.043C375.001 183.927 373.904 179.883 372.47 175.954C371.096 172.033 369.525 168.202 367.82 164.439C366.985 162.551 366.077 160.696 365.164 158.847C364.257 156.995 363.301 155.168 362.317 153.357C360.357 149.732 358.29 146.167 356.001 142.729L355.628 142.93Z" fill="black"/>
<path d="M405.418 92.9123C399.649 92.0435 393.864 91.3833 388.074 90.7964C382.285 90.1963 376.487 89.7199 370.687 89.2674C364.884 88.8544 359.079 88.4679 353.265 88.2044C347.452 87.9278 341.633 87.7262 335.799 87.7346C341.568 88.606 347.352 89.2673 353.142 89.8536C358.931 90.4531 364.73 90.9296 370.53 91.3795C376.333 91.7899 382.138 92.1764 387.952 92.4393C393.765 92.7153 399.584 92.9181 405.418 92.9123Z" fill="black"/>
<path d="M334.562 190.163C335.392 182.801 336.19 175.427 336.904 168.045L337.178 165.277L337.315 163.892C337.329 163.785 337.333 163.645 337.354 163.563C337.379 163.497 337.4 163.43 337.415 163.362C337.484 163.177 337.563 162.996 337.651 162.819C338.469 161.269 339.541 159.718 340.537 158.171C342.568 155.073 344.527 151.896 346.278 148.59C347.145 146.931 347.961 145.239 348.674 143.494C349.38 141.726 349.972 139.966 350.585 138.228C351.816 134.738 353.036 131.246 354.21 127.737L355.993 122.48L356.438 121.166C356.612 120.669 356.728 120.153 356.785 119.629C356.909 118.564 356.759 117.485 356.349 116.494C355.941 115.439 355.165 114.568 354.165 114.042C353.13 113.588 351.963 113.541 350.896 113.911C349.06 114.6 347.385 115.658 345.974 117.02L347.075 117.639C347.33 115.851 347.494 114.052 347.565 112.248C347.6 111.347 347.606 110.437 347.569 109.536C347.493 108.627 347.457 107.704 347.304 106.802C347.172 105.842 346.829 104.922 346.3 104.11C345.985 103.654 345.519 103.323 344.985 103.176C344.472 103.07 343.94 103.1 343.441 103.261C341.642 103.873 340.132 105.129 339.202 106.787L339.521 106.612H339.511L339.304 106.613L339.194 106.783C338.579 107.77 338.022 108.792 337.526 109.844C337.295 110.345 337.025 110.826 336.718 111.283C336.529 111.507 336.531 111.504 336.262 111.52C336.177 111.528 336.092 111.511 336.017 111.47C335.943 111.428 335.883 111.365 335.846 111.289C335.659 110.809 335.584 110.292 335.626 109.779C335.641 109.216 335.685 108.654 335.759 108.096C335.903 106.968 336.125 105.85 336.423 104.753C336.728 103.635 336.974 102.502 337.159 101.359C337.37 100.189 337.386 98.993 337.207 97.8182C337.095 97.2092 336.869 96.6268 336.541 96.1017C336.196 95.5709 335.726 95.1335 335.171 94.8285C334.076 94.2925 332.859 94.0576 331.643 94.1481L331.706 94.151C331.187 94.1011 330.665 94.1183 330.151 94.2023C329.642 94.2844 329.145 94.4253 328.668 94.6219C327.705 95.0258 326.87 95.685 326.254 96.5287L326.293 96.4837C326.213 96.5686 326.166 96.6797 326.161 96.7965L326.169 98.5058L326.952 96.9846L326.962 96.9649L326.972 96.9459L326.989 96.8979C328.392 93.1764 329.337 89.2981 329.804 85.3482C329.902 84.3249 329.888 83.2938 329.762 82.2735C329.667 81.1359 329.174 80.0681 328.371 79.2579C327.901 78.8516 327.328 78.5849 326.715 78.4881C326.121 78.4186 325.519 78.48 324.951 78.6678C323.937 79.0485 323.01 79.6304 322.226 80.3787C320.754 81.7788 319.46 83.3555 318.373 85.073C317.278 86.7417 316.272 88.467 315.359 90.2417C313.457 93.7611 311.957 97.4831 310.886 101.338C309.865 105.154 308.901 108.936 307.592 112.586C306.271 116.19 304.678 119.816 302.143 122.445C300.966 123.735 299.39 124.59 297.668 124.872C296.784 124.964 295.891 124.928 295.017 124.764C294.086 124.635 293.164 124.446 292.258 124.197C290.44 123.705 288.686 122.997 287.035 122.09C285.401 121.197 283.892 120.093 282.546 118.806L281.464 117.732L280.888 119.047C280.264 120.524 279.885 122.093 279.765 123.692C279.635 125.243 279.691 126.804 279.931 128.341C280.44 131.384 281.54 134.296 283.169 136.915C283.978 138.245 284.961 139.461 286.094 140.528C287.246 141.552 288.504 142.45 289.847 143.206C291.169 143.949 292.523 144.566 293.764 145.259C294.976 145.846 296.013 146.741 296.771 147.855C297.403 149.062 297.737 150.402 297.746 151.765C297.842 153.215 297.897 154.677 297.915 156.143C297.951 159.076 297.895 162.019 297.79 164.96C297.677 167.901 297.563 170.844 297.373 173.784C297.165 176.717 297.002 179.672 296.509 182.563L296.704 182.608C297.333 179.707 297.625 176.768 297.965 173.834C298.276 170.898 298.559 167.957 298.753 165.009C298.948 162.061 299.096 159.109 299.151 156.145C299.179 154.663 299.167 153.176 299.115 151.682C299.141 150.088 298.781 148.512 298.066 147.087C297.197 145.728 295.986 144.622 294.555 143.88C293.236 143.113 291.915 142.482 290.682 141.755C289.468 141.042 288.333 140.202 287.297 139.248C286.302 138.272 285.442 137.166 284.741 135.96C283.293 133.53 282.333 130.84 281.912 128.042C281.703 126.663 281.658 125.265 281.779 123.875C281.886 122.529 282.201 121.209 282.713 119.959L281.055 120.2C284.043 123.071 287.708 125.14 291.709 126.213C292.698 126.488 293.703 126.699 294.718 126.844C295.237 126.9 295.712 126.997 296.268 127.018L297.101 127.043C297.379 127.026 297.658 126.994 297.937 126.968C300.135 126.642 302.152 125.567 303.649 123.924C306.565 120.808 308.12 116.99 309.465 113.247C310.774 109.473 311.713 105.609 312.685 101.818C312.932 100.873 313.179 99.9328 313.478 99.0415C313.782 98.1327 314.126 97.2273 314.485 96.3269C315.204 94.5259 315.998 92.747 316.864 91.0079C317.718 89.2681 318.664 87.5747 319.697 85.9346C320.69 84.3081 321.869 82.8037 323.212 81.452C323.834 80.8185 324.576 80.3148 325.394 79.9698C325.758 79.8372 326.147 79.7826 326.533 79.8096C326.897 79.8584 327.241 80.0061 327.527 80.2366C328.119 80.836 328.486 81.6212 328.567 82.46C328.707 83.3903 328.745 84.3331 328.68 85.2717C328.315 89.1543 327.479 92.9779 326.189 96.6577L326.215 96.591L326.205 96.611L326.996 96.7992C326.997 96.8499 326.988 96.9004 326.969 96.9474C326.95 96.9944 326.921 97.0369 326.885 97.0722L326.924 97.0269C327.437 96.2819 328.145 95.6927 328.97 95.3239C329.8 94.9593 330.706 94.8047 331.609 94.8738L331.649 94.8776L331.672 94.8768C332.757 94.7828 333.847 94.9769 334.833 95.4395C335.29 95.7006 335.683 96.0619 335.98 96.4963C336.278 96.9308 336.474 97.4271 336.553 97.948C336.726 99.0481 336.718 100.169 336.529 101.267C336.357 102.393 336.125 103.509 335.835 104.611C335.528 105.73 335.292 106.867 335.128 108.016C335.044 108.595 334.992 109.179 334.97 109.765C334.911 110.399 335.009 111.039 335.257 111.626C335.36 111.797 335.503 111.939 335.674 112.041C335.845 112.143 336.038 112.201 336.237 112.21C336.436 112.219 336.634 112.179 336.813 112.093C336.993 112.007 337.148 111.878 337.265 111.717C337.609 111.227 337.911 110.71 338.167 110.169C338.663 109.149 339.217 108.158 339.828 107.202L339.511 107.373L339.521 107.373L339.727 107.374L339.841 107.199C340.673 105.716 342.038 104.607 343.658 104.096C343.988 103.953 344.358 103.932 344.702 104.036C345.046 104.14 345.342 104.363 345.537 104.664C345.952 105.369 346.21 106.155 346.294 106.968C346.412 107.827 346.416 108.691 346.465 109.557C346.474 110.436 346.442 111.308 346.382 112.186C346.259 113.939 346.048 115.685 345.751 117.417L345.444 119.203L346.853 118.036C348.146 116.854 349.662 115.943 351.313 115.358C352.017 115.122 352.783 115.159 353.46 115.464C354.092 115.846 354.573 116.434 354.822 117.13C355.115 117.863 355.216 118.658 355.115 119.44C355.069 119.837 354.976 120.228 354.841 120.604L354.382 121.915L352.549 127.162C351.313 130.655 350.123 134.163 348.943 137.676C348.346 139.436 347.775 141.194 347.127 142.872C346.458 144.562 345.683 146.218 344.855 147.85C343.189 151.115 341.256 154.247 339.316 157.396C338.357 158.99 337.35 160.515 336.487 162.265C336.375 162.505 336.278 162.752 336.197 163.004C336.159 163.161 336.125 163.321 336.097 163.478C336.076 163.623 336.077 163.717 336.066 163.839L335.968 165.222L335.773 167.988C335.237 175.364 334.784 182.749 334.363 190.145L334.562 190.163Z" fill="black"/>
<path d="M322.492 107.593L327.045 96.9778L326.108 96.6229L322.492 107.593Z" fill="black"/>
<path d="M174.165 71.3286C177.858 72.8944 181.707 74.2108 185.561 75.4186C189.435 76.6141 193.373 77.5938 197.355 78.3534C201.359 79.1738 205.437 79.5803 209.524 79.5667C211.598 79.5478 213.666 79.3355 215.7 78.9327C217.796 78.533 219.802 77.756 221.621 76.6393L221.532 76.6901C224.59 75.1633 227.664 73.6688 230.705 72.1082L231.72 71.5875L231.109 70.7081C231.036 70.59 230.944 70.4846 230.837 70.3957C230.786 70.3473 230.731 70.3031 230.672 70.2635C230.58 70.2 230.472 70.117 230.39 70.0741C230.221 69.9814 230.041 69.8667 229.88 69.798C229.55 69.6345 229.223 69.4945 228.902 69.3722C228.255 69.1201 227.613 68.8966 226.969 68.7054C225.685 68.2977 224.391 67.9893 223.099 67.6868C220.514 67.0902 217.921 66.5856 215.318 66.1729C212.717 65.7355 210.113 65.3516 207.505 64.9975C204.9 64.6281 202.288 64.3204 199.679 63.9933L200.033 64.188L194.697 58.0775C192.916 56.038 191.199 53.9674 189.357 51.9506C185.637 47.9601 181.327 44.5644 176.578 41.882C174.195 40.556 171.719 39.4049 169.17 38.4379C166.609 37.4973 163.989 36.7281 161.327 36.1352C155.992 34.7775 150.465 34.3391 144.983 34.8388C139.434 35.525 134.144 37.5882 129.595 40.8408C125.07 44.1413 121.383 48.4602 118.833 53.449C117.57 55.9414 116.586 58.5655 115.897 61.2736L115.451 63.3207C115.327 63.9987 115.207 64.6717 115.104 65.3514C114.888 66.7071 114.712 68.0705 114.577 69.4415C114.284 72.1935 114.217 74.965 114.376 77.728C114.525 80.5333 115.037 83.3075 115.897 85.9815L116.243 87.0212L117.289 86.7066L131.421 82.4554L145.592 78.3271C150.316 76.9513 155.051 75.6162 159.807 74.3697C162.181 73.7281 164.563 73.1232 166.953 72.5549C168.153 72.306 169.346 71.9847 170.554 71.7944L172.364 71.4699L174.165 71.3286ZM174.215 71.1119L172.328 71.1315L170.484 71.3422C169.25 71.4725 168.046 71.7311 166.824 71.9196C164.396 72.3654 161.975 72.8423 159.567 73.3745C154.753 74.4437 149.961 75.6013 145.18 76.7997C140.398 77.9949 135.644 79.2883 130.887 80.5729C126.134 81.8736 121.38 83.1586 116.646 84.5425L118.038 85.2675C116.45 80.3386 116.461 74.9351 116.939 69.6741C117.066 68.3528 117.234 67.0341 117.443 65.7179C117.541 65.0605 117.657 64.4016 117.776 63.7496L118.191 61.8328C118.807 59.2882 119.699 56.8184 120.85 54.467C123.185 49.7521 126.594 45.652 130.802 42.4974C135.049 39.3675 139.995 37.3237 145.211 36.5441C150.505 35.9181 155.867 36.1754 161.077 37.3055C166.364 38.2486 171.468 40.026 176.198 42.5714C180.927 45.1365 185.198 48.4682 188.838 52.431C192.378 56.4745 195.752 60.7352 199.172 64.9151L199.302 65.0733L199.526 65.1099C202.115 65.5319 204.706 65.9379 207.287 66.3985C209.87 66.844 212.447 67.319 215.009 67.845C217.573 68.3651 220.126 68.9215 222.649 69.5462C223.908 69.8617 225.161 70.2057 226.38 70.5885C226.994 70.7728 227.593 70.9861 228.168 71.2123C228.46 71.3243 228.735 71.4448 228.994 71.5738C229.136 71.6346 229.229 71.7037 229.349 71.7663C229.393 71.7922 229.435 71.8204 229.476 71.8509C229.499 71.8655 229.517 71.8787 229.504 71.8706C229.49 71.8468 229.541 71.9288 229.405 71.7322L229.809 70.3324C226.749 71.8541 223.722 73.442 220.678 74.9975L220.63 75.0223L220.59 75.0485C217.431 77.1079 213.392 77.7013 209.485 77.8416C207.501 77.8902 205.517 77.8314 203.539 77.6658C201.553 77.5225 199.568 77.2824 197.591 76.9739C193.631 76.3812 189.715 75.4819 185.814 74.5151C181.908 73.5335 178.068 72.3924 174.215 71.1119Z" fill="black"/>
<path d="M149.755 40.8112C151.652 43.0412 153.595 45.2088 155.547 47.3648L161.399 53.8223C163.349 55.9709 165.284 58.133 167.202 60.3085C169.108 62.4973 170.992 64.6991 172.864 66.9523C171.474 64.3715 169.881 61.9058 168.099 59.5788C166.346 57.2317 164.441 55.0094 162.496 52.8278C160.525 50.6693 158.491 48.5704 156.371 46.5604C154.267 44.5305 152.059 42.6115 149.755 40.8112Z" fill="black"/>
<path d="M139.625 41.8782C138.057 44.7268 136.669 47.6718 135.472 50.6957C134.254 53.7113 133.191 56.7856 132.281 59.9188C131.38 63.0539 130.676 66.2428 130.176 69.4665C129.678 72.6933 129.54 75.9653 129.763 79.2227C130.114 76.0148 130.631 72.8274 131.313 69.6734C132.006 66.533 132.82 63.4218 133.704 60.3281C134.577 57.2299 135.567 54.1631 136.553 51.0901C137.569 48.0269 138.571 44.9517 139.625 41.8782Z" fill="black"/>
<path d="M199.603 64.5516C197.852 64.5759 196.105 64.6984 194.368 64.9185C192.637 65.1135 190.92 65.3936 189.207 65.6903C187.499 66.0142 185.794 66.3565 184.105 66.7836C182.402 67.1888 180.723 67.6905 179.077 68.2861C180.827 68.2637 182.575 68.1419 184.312 67.9214C186.043 67.7261 187.759 67.4459 189.472 67.1475C191.18 66.8217 192.885 66.4794 194.574 66.052C196.277 65.6464 197.956 65.1455 199.603 64.5516Z" fill="black"/>
<path d="M199.603 78.0052C199.575 79.4928 199.653 80.9778 199.759 82.4651C199.855 83.9662 200.068 85.4574 200.399 86.9248C200.562 87.7176 200.861 88.4762 201.282 89.1675C201.661 89.7333 202.029 90.3946 202.396 91.0242C203.136 92.2961 203.851 93.5903 204.564 94.8834C206.006 97.4619 207.424 100.053 208.818 102.657C209.502 103.964 210.21 105.259 210.865 106.573C211.195 107.229 211.507 107.891 211.813 108.548C211.962 108.878 212.104 109.208 212.227 109.534C212.282 109.694 212.348 109.862 212.38 110.004C212.401 110.065 212.415 110.127 212.421 110.19C212.424 110.202 212.434 110.262 212.433 110.235C212.433 110.21 212.44 110.186 212.452 110.164C212.464 110.142 212.482 110.124 212.503 110.111L212.775 109.92C212.269 110.04 211.75 110.089 211.231 110.065C210.676 110.043 210.125 109.969 209.584 109.844C209.034 109.715 208.492 109.551 207.962 109.355C207.427 109.151 206.903 108.917 206.393 108.656L206.318 108.618L206.269 108.628C205.748 108.727 205.261 108.953 204.849 109.286C204.456 109.617 204.175 110.062 204.045 110.56C204.24 110.11 204.569 109.73 204.987 109.475C205.385 109.223 205.839 109.072 206.308 109.035L206.184 109.007C207.167 109.689 208.24 110.229 209.373 110.612C209.955 110.8 210.553 110.933 211.159 111.008C211.8 111.097 212.452 111.075 213.087 110.944L213.269 110.904L213.359 110.753C213.43 110.632 213.479 110.499 213.504 110.361C213.513 110.285 213.514 110.208 213.506 110.131C213.503 110.009 213.487 109.888 213.459 109.77C213.418 109.568 213.367 109.369 213.306 109.173C213.19 108.797 213.06 108.439 212.925 108.084C212.655 107.376 212.351 106.691 212.042 106.011C211.42 104.652 210.777 103.309 210.088 101.991C208.734 99.3424 207.288 96.7488 205.797 94.1791C205.04 92.9004 204.269 91.6307 203.474 90.3689C203.069 89.7354 202.672 89.1263 202.19 88.4864C201.817 87.9229 201.536 87.304 201.356 86.6527C200.564 83.8162 199.978 80.9262 199.603 78.0052Z" fill="black"/>
<path d="M195.871 114.255C200.136 107.676 206.289 110.56 206.289 110.56C206.289 110.56 208.666 143.242 194.094 144.131C183.004 144.808 173.461 138.069 166.752 130.812C163.277 127.034 161.077 122.258 160.466 117.161C159.555 109.717 158.188 98.4715 157.841 95.2274C157.308 90.2482 155.291 77.2107 148.067 78.0052C148.067 78.0052 132.961 78.1557 140.781 104.297C140.781 104.297 142.913 120.657 129.052 118.701C129.052 118.701 131.895 110.521 128.163 104.297C124.431 98.0727 119.525 90.204 119.757 84.8022C119.757 84.8022 168.681 70.3311 174.19 71.2203C170.799 73.0114 168.072 75.8434 166.409 79.3002C164.746 82.7571 164.234 86.6566 164.949 90.426C166.574 100.997 174.392 115.183 178.02 121.334C178.595 122.315 179.425 123.122 180.422 123.669C181.419 124.216 182.545 124.482 183.681 124.439C185.782 124.355 188.193 124.047 189.34 123.147C191.606 121.369 195.871 114.255 195.871 114.255Z" fill="black"/>
<path d="M196.394 82.9044C195.355 82.1041 194.166 81.5207 192.898 81.1888C191.607 80.8256 190.259 80.713 188.926 80.8573C187.564 81.0204 186.268 81.5372 185.167 82.3565C184.097 83.1563 183.275 84.2434 182.798 85.4917C183.696 84.647 184.7 83.9219 185.784 83.3341C186.824 82.8029 187.95 82.4618 189.11 82.3268C190.297 82.1952 191.495 82.193 192.683 82.3205C193.896 82.4475 195.124 82.6468 196.394 82.9044Z" fill="black"/>
<path d="M154.464 101.096C152.082 102.031 149.325 101.925 147.561 100.36C146.671 99.571 145.961 98.6002 145.477 97.5131C144.957 96.3955 144.541 95.2325 144.233 94.0388C143.546 91.6316 143.139 89.153 143.022 86.6523C142.967 85.3972 142.999 84.1398 143.116 82.889C143.175 82.2602 143.266 81.6347 143.389 81.0152C143.445 80.702 143.524 80.397 143.607 80.0897C143.672 79.7788 143.799 79.484 143.979 79.2228C143.533 79.702 143.197 80.2736 142.996 80.8971C142.758 81.5062 142.559 82.1298 142.4 82.7641C142.097 84.0396 141.919 85.3414 141.866 86.6514C141.771 89.2798 142.089 91.9068 142.807 94.4368C143.519 96.8946 144.555 99.615 146.865 101.278C148.001 102.092 149.384 102.485 150.778 102.391C152.101 102.303 153.376 101.855 154.464 101.096Z" fill="black"/>
<path d="M171.704 135.558C170.832 136.09 170.027 136.723 169.304 137.445C168.577 138.146 167.907 138.904 167.3 139.711C166.684 140.526 166.154 141.403 165.717 142.326C165.207 143.256 165.001 144.323 165.127 145.376C165.554 144.496 166.085 143.672 166.709 142.919C167.295 142.147 167.909 141.388 168.486 140.598C169.072 139.814 169.643 139.011 170.189 138.182C170.757 137.345 171.264 136.468 171.704 135.558Z" fill="black"/>
<path d="M129.052 118.701C128.11 120.159 127.253 121.669 126.483 123.224C126.094 123.967 125.709 124.702 125.276 125.401C124.848 126.137 124.325 126.815 123.72 127.415C124.661 127.284 125.527 126.831 126.171 126.133C126.829 125.486 127.377 124.737 127.793 123.913C128.211 123.113 128.533 122.267 128.752 121.392C128.991 120.516 129.092 119.608 129.052 118.701Z" fill="black"/>
<path d="M107.367 114.962C107.367 114.962 124.507 116.215 127.402 123.062L126.881 124.044L124.968 123.062C115.772 118.481 110.573 124.565 116.964 125.638C123.365 126.7 161.481 144.173 161.481 144.173C178.01 148.854 187.697 174.005 187.697 174.005C185.032 172.862 182.317 171.84 179.623 170.747C176.858 169.855 174.113 168.893 171.318 168.101C165.707 166.515 159.984 165.352 154.199 164.622C148.403 163.876 142.549 163.694 136.718 164.081C135.266 164.241 133.813 164.332 132.361 164.542C130.928 164.793 129.476 164.963 128.053 165.304C125.192 165.866 122.405 166.758 119.749 167.96C122.511 167.134 125.345 166.567 128.213 166.266C129.636 166.046 131.078 165.976 132.501 165.845C133.933 165.755 135.366 165.705 136.798 165.635C142.534 165.548 148.269 165.873 153.958 166.607L158.226 167.158L162.473 167.91L164.597 168.261L166.7 168.722C168.113 169.033 169.515 169.334 170.928 169.624C173.733 170.276 176.517 171.018 179.332 171.689C182.117 172.451 184.882 173.293 187.697 174.005C231.052 181.122 273.356 207.797 276.191 207.085C279.036 206.373 281.53 183.969 281.53 178.205C281.53 172.451 282.592 161.555 291.127 161.555C299.652 161.555 298.59 169.023 298.59 169.023C282.592 173.293 319.556 176.501 330.576 177.914C341.595 179.338 335.554 175.078 335.554 175.078C335.554 175.078 338.75 171.659 342.176 175.91C343.245 177.281 343.966 178.891 344.276 180.602C344.587 182.313 344.478 184.074 343.959 185.733C342.867 189.382 341.254 194.916 340.172 199.256C338.389 206.373 331.998 257.587 329.864 262.569C327.731 267.542 283.664 280.703 189.831 273.947C182.227 272.754 174.654 271.491 167.081 270.228C159.518 268.935 151.955 267.612 144.452 266.078C140.695 265.326 136.938 264.544 133.222 263.652C129.486 262.8 125.779 261.854 122.103 260.815C118.424 259.782 114.8 258.564 111.244 257.166C107.643 255.87 104.289 253.968 101.327 251.543C102.632 252.972 104.129 254.214 105.774 255.232C107.402 256.284 109.095 257.231 110.843 258.069C114.352 259.703 117.958 261.119 121.642 262.309C128.996 264.647 136.478 266.562 144.051 268.043C151.614 269.546 159.214 270.789 166.851 271.772C174.484 272.784 182.147 273.526 189.831 273.947C189.831 273.947 193.247 294.727 195.03 313.423H61.377C61.5172 295.168 61.5473 270.98 60.9863 249.227C59.9245 207.266 60.9863 187.518 60.9863 187.518C62.9079 187.305 64.8059 186.916 66.6562 186.355C68.5094 185.824 70.3226 185.192 72.1357 184.541C75.752 183.237 79.2781 181.714 82.7842 180.15C86.2704 178.556 89.7163 176.892 93.1122 175.098C96.5081 173.323 99.864 171.449 103.11 169.384C99.4933 170.707 95.9573 172.181 92.4411 173.694C88.9249 175.188 85.4489 176.772 81.9528 178.326L71.5447 183.097C68.0486 184.641 64.6327 186.305 60.9863 187.518C60.9863 187.518 43.3957 195.527 41.7929 175.248C40.2001 154.979 59.3936 111.233 107.367 114.962ZM99.9841 180.821C98.2163 182.492 96.674 184.385 95.3963 186.455C94.7652 187.488 94.2242 188.58 93.6532 189.663C93.1623 190.776 92.7617 191.918 92.3009 193.051C92.0833 193.618 91.9092 194.202 91.78 194.795L91.3192 196.56C91.0084 197.732 90.7807 198.924 90.638 200.128L90.3976 201.933L90.2774 202.835L90.2373 203.737L90.1171 207.356L90.0871 208.258L90.1472 209.16L90.2774 210.965C90.3575 212.167 90.4376 213.36 90.5679 214.553C90.9685 216.919 91.3492 219.285 91.8601 221.62C92.5112 223.926 93.1424 226.221 93.8636 228.487C93.5731 226.111 93.2025 223.775 92.8318 221.44C92.5513 219.094 92.391 216.738 92.1206 214.403L92.0304 210.884L91.9803 209.13L91.9503 208.258L92.0104 207.386L92.1907 203.887L92.2308 203.015L92.361 202.153L92.6214 200.429C93.2091 195.821 94.6027 191.352 96.7386 187.227C97.8446 185.183 99.1679 183.263 100.685 181.503C102.199 179.701 103.972 178.134 105.945 176.852C103.732 177.799 101.712 179.145 99.9841 180.821ZM74.7303 140.223C75.4474 141.733 76.6751 142.94 78.1963 143.631C78.9491 143.975 79.739 144.231 80.5504 144.393C81.3607 144.508 82.1767 144.578 82.9947 144.604C83.8061 144.564 84.6275 144.564 85.4289 144.463L87.8131 144.072C88.6044 143.912 89.3658 143.682 90.1471 143.481L92.4011 142.87C93.8705 142.486 95.3676 142.218 96.8788 142.068C99.9404 141.782 103.021 141.772 106.085 142.038C112.276 142.597 118.41 143.663 124.427 145.225C127.452 145.987 130.477 146.809 133.473 147.701C136.488 148.553 139.453 149.536 142.438 150.528C136.763 147.792 130.877 145.515 124.838 143.722C118.785 141.853 112.553 140.62 106.245 140.043C103.052 139.789 99.8426 139.836 96.6585 140.183C95.0555 140.389 93.4712 140.721 91.9202 141.175L87.4624 142.549L85.2285 143.03C84.4772 143.16 83.726 143.19 82.9746 143.291C82.2233 143.341 81.472 143.28 80.7307 143.26C79.9957 143.162 79.2736 142.984 78.5769 142.729C77.1597 142.241 75.9627 141.264 75.201 139.972C74.8075 139.317 74.5106 138.608 74.3195 137.867C74.0941 137.119 73.9728 136.343 73.9589 135.562C73.7846 137.157 74.0514 138.769 74.7302 140.223H74.7303Z" fill="black"/>
<path d="M251.316 313.426C231.59 312.853 211.865 312.469 192.139 312.274C182.276 312.137 172.413 312.107 162.55 312.027L132.961 311.945L103.373 312.023C93.5099 312.105 83.6471 312.132 73.7842 312.269C54.0583 312.463 34.3326 312.849 14.6068 313.426C34.3326 314.002 54.0583 314.387 73.7842 314.582C83.6471 314.72 93.5099 314.746 103.373 314.829L132.961 314.907L162.55 314.825C172.413 314.745 182.276 314.714 192.139 314.578C211.865 314.383 231.59 313.999 251.316 313.426Z" fill="black"/>
<path d="M193.072 93.6391C189.204 93.6391 189.198 87.6245 193.072 87.6245C196.939 87.6245 196.946 93.6391 193.072 93.6391Z" fill="black"/>
</svg>
