<svg width="448" height="485" viewBox="0 0 448 485" fill="none" xmlns="http://www.w3.org/2000/svg">
<rect width="212" height="212" fill="#F8F9FA"/>
<path d="M52.7191 107.04V84.32L54.1991 85.44L48.6791 88.36L47.5191 84.6L54.9991 80.6H57.0791V107.04H52.7191ZM48.2791 109V104.84H61.6391V109H48.2791ZM67.5591 116.16L66.0391 114.32C66.9724 113.787 67.7324 113.173 68.3191 112.48C68.9057 111.787 69.1991 111.187 69.1991 110.68C69.1991 110.413 69.1324 110.147 68.9991 109.88C68.8657 109.64 68.5857 109.293 68.1591 108.84C67.6257 108.333 67.2791 107.907 67.1191 107.56C66.9591 107.213 66.8791 106.84 66.8791 106.44C66.8791 105.8 67.1057 105.293 67.5591 104.92C68.0124 104.52 68.5991 104.32 69.3191 104.32C69.9857 104.32 70.5857 104.52 71.1191 104.92C71.6791 105.293 72.1057 105.827 72.3991 106.52C72.7191 107.187 72.8791 107.96 72.8791 108.84C72.8791 109.64 72.7457 110.413 72.4791 111.16C72.2124 111.907 71.8391 112.6 71.3591 113.24C70.8791 113.88 70.3191 114.453 69.6791 114.96C69.0391 115.467 68.3324 115.867 67.5591 116.16ZM83.8231 109L83.6631 108.6L91.9831 90.92L92.1031 94.24C91.6231 95.04 91.0898 95.7467 90.5031 96.36C89.9431 96.9733 89.3165 97.5067 88.6231 97.96C87.9565 98.3867 87.2631 98.72 86.5431 98.96C85.8231 99.1733 85.0898 99.28 84.3431 99.28C82.8231 99.28 81.4231 98.88 80.1431 98.08C78.8631 97.28 77.8365 96.2133 77.0631 94.88C76.2898 93.5467 75.9031 92.0933 75.9031 90.52C75.9031 88.6267 76.3298 86.9333 77.1831 85.44C78.0365 83.92 79.1965 82.72 80.6631 81.84C82.1565 80.96 83.8231 80.52 85.6631 80.52C86.9965 80.52 88.2498 80.76 89.4231 81.24C90.5965 81.72 91.6231 82.4 92.5031 83.28C93.3831 84.1333 94.0765 85.1333 94.5831 86.28C95.0898 87.4 95.3431 88.6 95.3431 89.88C95.3431 90.5467 95.2765 91.2667 95.1431 92.04C95.0098 92.7867 94.7831 93.64 94.4631 94.6C94.1698 95.5333 93.7698 96.6133 93.2631 97.84C92.7565 99.04 92.1298 100.44 91.3831 102.04L88.0631 109H83.8231ZM85.2631 95.28C86.3031 95.28 87.2365 95.0533 88.0631 94.6C88.8898 94.12 89.5298 93.4933 89.9831 92.72C90.4631 91.92 90.7031 91.0267 90.7031 90.04C90.7031 89 90.4765 88.0667 90.0231 87.24C89.5698 86.3867 88.9298 85.72 88.1031 85.24C87.3031 84.76 86.3831 84.52 85.3431 84.52C84.3831 84.52 83.5298 84.76 82.7831 85.24C82.0365 85.6933 81.4365 86.3333 80.9831 87.16C80.5565 87.96 80.3431 88.9067 80.3431 90C80.3431 90.9333 80.5565 91.8 80.9831 92.6C81.4365 93.4 82.0365 94.0533 82.7831 94.56C83.5298 95.04 84.3565 95.28 85.2631 95.28ZM108.854 109.4C106.721 109.4 104.881 108.813 103.334 107.64C101.814 106.467 100.641 104.813 99.8144 102.68C98.9877 100.52 98.5744 97.96 98.5744 95C98.5744 92.04 98.9877 89.4933 99.8144 87.36C100.641 85.2 101.814 83.5333 103.334 82.36C104.881 81.1867 106.721 80.6 108.854 80.6C110.988 80.6 112.828 81.1867 114.374 82.36C115.921 83.5333 117.108 85.2 117.934 87.36C118.761 89.4933 119.174 92.04 119.174 95C119.174 97.96 118.761 100.52 117.934 102.68C117.108 104.813 115.921 106.467 114.374 107.64C112.828 108.813 110.988 109.4 108.854 109.4ZM108.854 105.48C110.801 105.48 112.308 104.573 113.374 102.76C114.441 100.92 114.974 98.3333 114.974 95C114.974 91.6667 114.441 89.0933 113.374 87.28C112.308 85.44 110.801 84.52 108.854 84.52C106.908 84.52 105.401 85.44 104.334 87.28C103.268 89.0933 102.734 91.6667 102.734 95C102.734 98.3333 103.268 100.92 104.334 102.76C105.401 104.573 106.908 105.48 108.854 105.48ZM133.151 109.4C131.018 109.4 129.178 108.813 127.631 107.64C126.111 106.467 124.938 104.813 124.111 102.68C123.285 100.52 122.871 97.96 122.871 95C122.871 92.04 123.285 89.4933 124.111 87.36C124.938 85.2 126.111 83.5333 127.631 82.36C129.178 81.1867 131.018 80.6 133.151 80.6C135.285 80.6 137.125 81.1867 138.671 82.36C140.218 83.5333 141.405 85.2 142.231 87.36C143.058 89.4933 143.471 92.04 143.471 95C143.471 97.96 143.058 100.52 142.231 102.68C141.405 104.813 140.218 106.467 138.671 107.64C137.125 108.813 135.285 109.4 133.151 109.4ZM133.151 105.48C135.098 105.48 136.605 104.573 137.671 102.76C138.738 100.92 139.271 98.3333 139.271 95C139.271 91.6667 138.738 89.0933 137.671 87.28C136.605 85.44 135.098 84.52 133.151 84.52C131.205 84.52 129.698 85.44 128.631 87.28C127.565 89.0933 127.031 91.6667 127.031 95C127.031 98.3333 127.565 100.92 128.631 102.76C129.698 104.573 131.205 105.48 133.151 105.48ZM147.128 99.6V96H167.168V99.6H147.128ZM155.008 107.32V88H159.208V107.32H155.008Z" fill="#1B1B1B"/>
<path d="M54.5123 146V136.2H55.5763L59.3423 142.318L58.8383 142.304L62.6463 136.2H63.6403V146H62.5483V141.52C62.5483 140.68 62.5623 139.924 62.5903 139.252C62.6183 138.58 62.6696 137.913 62.7443 137.25L62.9403 137.642L59.4263 143.158H58.6703L55.2543 137.712L55.4083 137.25C55.483 137.875 55.5343 138.519 55.5623 139.182C55.5903 139.835 55.6043 140.615 55.6043 141.52V146H54.5123ZM69.3299 146.14C68.6019 146.14 67.9532 145.981 67.3839 145.664C66.8239 145.347 66.3852 144.903 66.0679 144.334C65.7506 143.765 65.5919 143.111 65.5919 142.374C65.5919 141.805 65.6806 141.291 65.8579 140.834C66.0352 140.367 66.2826 139.961 66.5999 139.616C66.9266 139.271 67.3139 139.005 67.7619 138.818C68.2099 138.622 68.6952 138.524 69.2179 138.524C69.7126 138.524 70.1606 138.613 70.5619 138.79C70.9726 138.967 71.3226 139.215 71.6119 139.532C71.9106 139.84 72.1346 140.209 72.2839 140.638C72.4332 141.067 72.4986 141.539 72.4799 142.052L72.4659 142.542H66.3759L66.2219 141.66H71.6679L71.4159 141.898V141.562C71.3972 141.226 71.2992 140.904 71.1219 140.596C70.9446 140.279 70.6926 140.022 70.3659 139.826C70.0486 139.63 69.6659 139.532 69.2179 139.532C68.6952 139.532 68.2426 139.639 67.8599 139.854C67.4772 140.059 67.1832 140.367 66.9779 140.778C66.7726 141.189 66.6699 141.697 66.6699 142.304C66.6699 142.883 66.7819 143.387 67.0059 143.816C67.2299 144.236 67.5472 144.563 67.9579 144.796C68.3779 145.029 68.8819 145.146 69.4699 145.146C69.8152 145.146 70.1559 145.09 70.4919 144.978C70.8372 144.857 71.2152 144.623 71.6259 144.278L72.1719 145.034C71.9572 145.249 71.7006 145.44 71.4019 145.608C71.1032 145.767 70.7766 145.897 70.4219 146C70.0672 146.093 69.7032 146.14 69.3299 146.14ZM77.1912 146.14C76.4632 146.14 75.8146 145.981 75.2452 145.664C74.6852 145.347 74.2466 144.903 73.9292 144.334C73.6119 143.765 73.4532 143.111 73.4532 142.374C73.4532 141.805 73.5419 141.291 73.7192 140.834C73.8966 140.367 74.1439 139.961 74.4612 139.616C74.7879 139.271 75.1752 139.005 75.6232 138.818C76.0712 138.622 76.5566 138.524 77.0792 138.524C77.5739 138.524 78.0219 138.613 78.4232 138.79C78.8339 138.967 79.1839 139.215 79.4732 139.532C79.7719 139.84 79.9959 140.209 80.1452 140.638C80.2946 141.067 80.3599 141.539 80.3412 142.052L80.3272 142.542H74.2372L74.0832 141.66H79.5292L79.2772 141.898V141.562C79.2586 141.226 79.1606 140.904 78.9832 140.596C78.8059 140.279 78.5539 140.022 78.2272 139.826C77.9099 139.63 77.5272 139.532 77.0792 139.532C76.5566 139.532 76.1039 139.639 75.7212 139.854C75.3386 140.059 75.0446 140.367 74.8392 140.778C74.6339 141.189 74.5312 141.697 74.5312 142.304C74.5312 142.883 74.6432 143.387 74.8672 143.816C75.0912 144.236 75.4086 144.563 75.8192 144.796C76.2392 145.029 76.7432 145.146 77.3312 145.146C77.6766 145.146 78.0172 145.09 78.3532 144.978C78.6986 144.857 79.0766 144.623 79.4872 144.278L80.0332 145.034C79.8186 145.249 79.5619 145.44 79.2632 145.608C78.9646 145.767 78.6379 145.897 78.2832 146C77.9286 146.093 77.5646 146.14 77.1912 146.14ZM82.8405 146V136.774H83.8905V146H82.8405ZM81.1885 139.7V138.692H85.7385V139.7H81.1885ZM87.3079 146V138.692H88.3579V146H87.3079ZM87.8259 137.11C87.5645 137.11 87.3639 137.045 87.2239 136.914C87.0932 136.774 87.0279 136.587 87.0279 136.354C87.0279 136.121 87.0979 135.934 87.2379 135.794C87.3779 135.654 87.5739 135.584 87.8259 135.584C88.0779 135.584 88.2739 135.654 88.4139 135.794C88.5539 135.925 88.6239 136.111 88.6239 136.354C88.6239 136.578 88.5539 136.76 88.4139 136.9C88.2739 137.04 88.0779 137.11 87.8259 137.11ZM90.6509 146V138.692H91.6869L91.7289 140.218L91.5609 140.288C91.6542 139.971 91.8362 139.681 92.1069 139.42C92.3776 139.159 92.6996 138.949 93.0729 138.79C93.4556 138.622 93.8476 138.538 94.2489 138.538C94.7902 138.538 95.2429 138.645 95.6069 138.86C95.9709 139.075 96.2462 139.406 96.4329 139.854C96.6196 140.302 96.7129 140.871 96.7129 141.562V146H95.6489V141.618C95.6489 141.133 95.5836 140.736 95.4529 140.428C95.3316 140.111 95.1402 139.877 94.8789 139.728C94.6176 139.579 94.2956 139.509 93.9129 139.518C93.5956 139.518 93.3016 139.574 93.0309 139.686C92.7602 139.789 92.5269 139.933 92.3309 140.12C92.1349 140.307 91.9809 140.521 91.8689 140.764C91.7569 141.007 91.7009 141.268 91.7009 141.548V146H91.1829C91.1176 146 91.0429 146 90.9589 146C90.8749 146 90.7722 146 90.6509 146ZM101.867 149.22C101.326 149.22 100.813 149.136 100.327 148.968C99.842 148.8 99.4406 148.59 99.1233 148.338L99.5433 147.456C99.73 147.605 99.9446 147.736 100.187 147.848C100.439 147.969 100.71 148.063 100.999 148.128C101.289 148.203 101.583 148.24 101.881 148.24C102.423 148.24 102.88 148.137 103.253 147.932C103.636 147.736 103.925 147.442 104.121 147.05C104.327 146.658 104.429 146.173 104.429 145.594V144.194L104.597 144.152C104.513 144.507 104.331 144.838 104.051 145.146C103.771 145.445 103.431 145.687 103.029 145.874C102.628 146.051 102.203 146.14 101.755 146.14C101.074 146.14 100.463 145.977 99.9213 145.65C99.3893 145.323 98.9693 144.875 98.6613 144.306C98.3533 143.727 98.1993 143.074 98.1993 142.346C98.1993 141.609 98.3533 140.955 98.6613 140.386C98.9786 139.807 99.4033 139.355 99.9353 139.028C100.467 138.701 101.065 138.538 101.727 138.538C102.017 138.538 102.297 138.575 102.567 138.65C102.838 138.715 103.085 138.813 103.309 138.944C103.543 139.075 103.753 139.224 103.939 139.392C104.126 139.56 104.28 139.742 104.401 139.938C104.532 140.134 104.625 140.335 104.681 140.54L104.387 140.498L104.429 138.692H105.479V145.552C105.479 146.14 105.395 146.658 105.227 147.106C105.059 147.563 104.812 147.946 104.485 148.254C104.168 148.571 103.785 148.809 103.337 148.968C102.899 149.136 102.409 149.22 101.867 149.22ZM101.881 145.132C102.376 145.132 102.815 145.015 103.197 144.782C103.589 144.539 103.897 144.208 104.121 143.788C104.345 143.368 104.457 142.883 104.457 142.332C104.457 141.791 104.345 141.31 104.121 140.89C103.907 140.47 103.603 140.139 103.211 139.896C102.819 139.653 102.376 139.532 101.881 139.532C101.377 139.532 100.929 139.653 100.537 139.896C100.155 140.139 99.8513 140.47 99.6273 140.89C99.4033 141.31 99.2913 141.791 99.2913 142.332C99.2913 142.864 99.3986 143.345 99.6133 143.774C99.8373 144.194 100.141 144.525 100.523 144.768C100.915 145.011 101.368 145.132 101.881 145.132ZM109.779 146.14C109.154 146.14 108.594 146.023 108.099 145.79C107.605 145.557 107.213 145.249 106.923 144.866L107.665 144.222C107.936 144.549 108.253 144.796 108.617 144.964C108.991 145.132 109.406 145.216 109.863 145.216C110.097 145.216 110.307 145.193 110.493 145.146C110.68 145.09 110.843 145.011 110.983 144.908C111.123 144.805 111.231 144.684 111.305 144.544C111.38 144.404 111.417 144.25 111.417 144.082C111.417 143.774 111.282 143.517 111.011 143.312C110.89 143.228 110.717 143.144 110.493 143.06C110.269 142.967 109.999 142.878 109.681 142.794C109.159 142.645 108.725 142.495 108.379 142.346C108.034 142.187 107.763 142.005 107.567 141.8C107.427 141.632 107.32 141.45 107.245 141.254C107.18 141.058 107.147 140.843 107.147 140.61C107.147 140.311 107.208 140.036 107.329 139.784C107.46 139.532 107.637 139.313 107.861 139.126C108.095 138.93 108.365 138.785 108.673 138.692C108.991 138.589 109.331 138.538 109.695 138.538C110.041 138.538 110.381 138.585 110.717 138.678C111.053 138.771 111.366 138.907 111.655 139.084C111.945 139.261 112.192 139.471 112.397 139.714L111.753 140.414C111.576 140.227 111.38 140.059 111.165 139.91C110.951 139.761 110.722 139.644 110.479 139.56C110.246 139.476 110.003 139.434 109.751 139.434C109.527 139.434 109.317 139.462 109.121 139.518C108.935 139.574 108.771 139.653 108.631 139.756C108.501 139.849 108.398 139.966 108.323 140.106C108.258 140.246 108.225 140.4 108.225 140.568C108.225 140.708 108.253 140.834 108.309 140.946C108.365 141.058 108.445 141.156 108.547 141.24C108.678 141.343 108.86 141.441 109.093 141.534C109.336 141.618 109.635 141.707 109.989 141.8C110.4 141.912 110.745 142.029 111.025 142.15C111.315 142.262 111.553 142.397 111.739 142.556C111.991 142.743 112.169 142.957 112.271 143.2C112.383 143.443 112.439 143.718 112.439 144.026C112.439 144.437 112.323 144.801 112.089 145.118C111.865 145.435 111.553 145.687 111.151 145.874C110.75 146.051 110.293 146.14 109.779 146.14ZM121.284 146.14C120.79 146.14 120.323 146.07 119.884 145.93C119.446 145.79 119.044 145.58 118.68 145.3C118.316 145.02 117.994 144.675 117.714 144.264L118.47 143.424C118.909 144.049 119.357 144.488 119.814 144.74C120.281 144.992 120.804 145.118 121.382 145.118C121.802 145.118 122.185 145.048 122.53 144.908C122.876 144.768 123.146 144.572 123.342 144.32C123.538 144.068 123.636 143.779 123.636 143.452C123.636 143.237 123.599 143.046 123.524 142.878C123.459 142.71 123.356 142.561 123.216 142.43C123.076 142.299 122.904 142.183 122.698 142.08C122.493 141.977 122.255 141.884 121.984 141.8C121.723 141.716 121.429 141.632 121.102 141.548C120.626 141.436 120.206 141.305 119.842 141.156C119.488 140.997 119.184 140.806 118.932 140.582C118.69 140.358 118.503 140.101 118.372 139.812C118.251 139.513 118.19 139.163 118.19 138.762C118.19 138.379 118.27 138.025 118.428 137.698C118.596 137.371 118.825 137.091 119.114 136.858C119.404 136.615 119.744 136.429 120.136 136.298C120.528 136.167 120.948 136.102 121.396 136.102C121.9 136.102 122.348 136.172 122.74 136.312C123.142 136.443 123.496 136.639 123.804 136.9C124.112 137.161 124.378 137.474 124.602 137.838L123.832 138.594C123.636 138.286 123.412 138.02 123.16 137.796C122.918 137.572 122.647 137.404 122.348 137.292C122.059 137.171 121.737 137.11 121.382 137.11C120.972 137.11 120.608 137.18 120.29 137.32C119.982 137.46 119.74 137.656 119.562 137.908C119.385 138.151 119.296 138.431 119.296 138.748C119.296 138.981 119.338 139.191 119.422 139.378C119.506 139.555 119.637 139.714 119.814 139.854C120.001 139.985 120.239 140.106 120.528 140.218C120.827 140.321 121.182 140.419 121.592 140.512C122.078 140.624 122.512 140.759 122.894 140.918C123.286 141.077 123.618 141.268 123.888 141.492C124.168 141.707 124.378 141.959 124.518 142.248C124.668 142.537 124.742 142.869 124.742 143.242C124.742 143.821 124.598 144.329 124.308 144.768C124.019 145.197 123.613 145.533 123.09 145.776C122.577 146.019 121.975 146.14 121.284 146.14ZM129.76 146.14C129.032 146.14 128.383 145.977 127.814 145.65C127.254 145.323 126.811 144.871 126.484 144.292C126.167 143.713 126.008 143.055 126.008 142.318C126.008 141.59 126.167 140.941 126.484 140.372C126.811 139.803 127.254 139.355 127.814 139.028C128.383 138.701 129.032 138.538 129.76 138.538C130.479 138.538 131.118 138.701 131.678 139.028C132.247 139.355 132.691 139.803 133.008 140.372C133.335 140.941 133.498 141.59 133.498 142.318C133.498 143.055 133.335 143.713 133.008 144.292C132.691 144.871 132.247 145.323 131.678 145.65C131.118 145.977 130.479 146.14 129.76 146.14ZM129.76 145.146C130.273 145.146 130.731 145.025 131.132 144.782C131.533 144.53 131.846 144.194 132.07 143.774C132.294 143.345 132.406 142.859 132.406 142.318C132.406 141.777 132.294 141.296 132.07 140.876C131.846 140.456 131.533 140.129 131.132 139.896C130.731 139.653 130.273 139.532 129.76 139.532C129.247 139.532 128.785 139.653 128.374 139.896C127.973 140.129 127.655 140.461 127.422 140.89C127.198 141.31 127.091 141.786 127.1 142.318C127.091 142.859 127.198 143.345 127.422 143.774C127.655 144.194 127.973 144.53 128.374 144.782C128.785 145.025 129.247 145.146 129.76 145.146ZM139.374 146V136.2H140.466V146H139.374ZM139.92 141.632V140.554H144.876V141.632H139.92ZM139.92 137.264V136.2H145.534V137.264H139.92ZM149.903 146.14C149.269 146.14 148.695 145.977 148.181 145.65C147.668 145.314 147.262 144.861 146.963 144.292C146.665 143.713 146.515 143.06 146.515 142.332C146.515 141.595 146.669 140.941 146.977 140.372C147.285 139.803 147.696 139.355 148.209 139.028C148.732 138.701 149.315 138.538 149.959 138.538C150.342 138.538 150.697 138.594 151.023 138.706C151.35 138.818 151.639 138.977 151.891 139.182C152.153 139.378 152.367 139.611 152.535 139.882C152.713 140.143 152.834 140.428 152.899 140.736L152.591 140.582L152.633 138.692H153.683V146H152.619V144.208L152.899 144.026C152.834 144.306 152.708 144.577 152.521 144.838C152.335 145.09 152.106 145.314 151.835 145.51C151.574 145.706 151.275 145.86 150.939 145.972C150.613 146.084 150.267 146.14 149.903 146.14ZM150.141 145.132C150.627 145.132 151.061 145.015 151.443 144.782C151.826 144.539 152.125 144.208 152.339 143.788C152.563 143.359 152.675 142.873 152.675 142.332C152.675 141.791 152.563 141.31 152.339 140.89C152.125 140.47 151.826 140.139 151.443 139.896C151.061 139.653 150.627 139.532 150.141 139.532C149.647 139.532 149.208 139.653 148.825 139.896C148.452 140.139 148.153 140.47 147.929 140.89C147.715 141.31 147.607 141.791 147.607 142.332C147.607 142.864 147.715 143.345 147.929 143.774C148.144 144.194 148.443 144.525 148.825 144.768C149.208 145.011 149.647 145.132 150.141 145.132ZM155.729 146V138.692H156.779L156.807 140.638L156.695 140.372C156.798 140.045 156.961 139.742 157.185 139.462C157.418 139.182 157.694 138.958 158.011 138.79C158.328 138.622 158.678 138.538 159.061 138.538C159.22 138.538 159.369 138.552 159.509 138.58C159.649 138.599 159.766 138.627 159.859 138.664L159.565 139.84C159.444 139.784 159.318 139.747 159.187 139.728C159.066 139.7 158.949 139.686 158.837 139.686C158.52 139.686 158.235 139.742 157.983 139.854C157.731 139.966 157.516 140.125 157.339 140.33C157.162 140.526 157.026 140.755 156.933 141.016C156.84 141.277 156.793 141.557 156.793 141.856V146H155.729Z" fill="#4D4E52"/>
<rect y="236" width="212" height="212" fill="#F8F9FA"/>
<path d="M65.5964 345.28C63.7564 345.28 62.0897 344.867 60.5964 344.04C59.1031 343.187 57.8631 341.973 56.8764 340.4L59.2764 337.72C60.5297 339.107 61.6231 340.053 62.5564 340.56C63.4897 341.067 64.5031 341.32 65.5964 341.32C66.6897 341.32 67.6764 341.08 68.5564 340.6C69.4364 340.12 70.1297 339.467 70.6364 338.64C71.1697 337.813 71.4364 336.893 71.4364 335.88C71.4364 334.813 71.1831 333.867 70.6764 333.04C70.1964 332.187 69.5431 331.52 68.7164 331.04C67.8897 330.533 66.9564 330.28 65.9164 330.28C65.4097 330.28 64.9297 330.32 64.4764 330.4C64.0231 330.453 63.4764 330.6 62.8364 330.84C62.1964 331.08 61.3564 331.453 60.3164 331.96L58.0364 328.88L59.6764 317H74.7964V321H62.3964L63.2364 320.24L61.9164 329.12L60.9164 327.96C61.1831 327.693 61.6364 327.44 62.2764 327.2C62.9164 326.933 63.6231 326.72 64.3964 326.56C65.1964 326.373 65.9564 326.28 66.6764 326.28C68.3831 326.28 69.9031 326.68 71.2364 327.48C72.5964 328.253 73.6631 329.333 74.4364 330.72C75.2364 332.107 75.6364 333.693 75.6364 335.48C75.6364 337.32 75.1964 338.987 74.3164 340.48C73.4364 341.947 72.2364 343.12 70.7164 344C69.1964 344.853 67.4897 345.28 65.5964 345.28ZM81.5708 352.16L80.0508 350.32C80.9841 349.787 81.7441 349.173 82.3308 348.48C82.9174 347.787 83.2108 347.187 83.2108 346.68C83.2108 346.413 83.1441 346.147 83.0108 345.88C82.8774 345.64 82.5974 345.293 82.1708 344.84C81.6374 344.333 81.2908 343.907 81.1308 343.56C80.9708 343.213 80.8908 342.84 80.8908 342.44C80.8908 341.8 81.1174 341.293 81.5708 340.92C82.0241 340.52 82.6108 340.32 83.3308 340.32C83.9974 340.32 84.5974 340.52 85.1308 340.92C85.6908 341.293 86.1174 341.827 86.4108 342.52C86.7308 343.187 86.8908 343.96 86.8908 344.84C86.8908 345.64 86.7574 346.413 86.4908 347.16C86.2241 347.907 85.8508 348.6 85.3708 349.24C84.8908 349.88 84.3308 350.453 83.6908 350.96C83.0508 351.467 82.3441 351.867 81.5708 352.16ZM97.8348 345L97.6748 344.6L105.995 326.92L106.115 330.24C105.635 331.04 105.102 331.747 104.515 332.36C103.955 332.973 103.328 333.507 102.635 333.96C101.968 334.387 101.275 334.72 100.555 334.96C99.8348 335.173 99.1015 335.28 98.3548 335.28C96.8348 335.28 95.4348 334.88 94.1548 334.08C92.8748 333.28 91.8482 332.213 91.0748 330.88C90.3015 329.547 89.9148 328.093 89.9148 326.52C89.9148 324.627 90.3415 322.933 91.1948 321.44C92.0482 319.92 93.2082 318.72 94.6748 317.84C96.1682 316.96 97.8348 316.52 99.6748 316.52C101.008 316.52 102.262 316.76 103.435 317.24C104.608 317.72 105.635 318.4 106.515 319.28C107.395 320.133 108.088 321.133 108.595 322.28C109.102 323.4 109.355 324.6 109.355 325.88C109.355 326.547 109.288 327.267 109.155 328.04C109.022 328.787 108.795 329.64 108.475 330.6C108.182 331.533 107.782 332.613 107.275 333.84C106.768 335.04 106.142 336.44 105.395 338.04L102.075 345H97.8348ZM99.2748 331.28C100.315 331.28 101.248 331.053 102.075 330.6C102.902 330.12 103.542 329.493 103.995 328.72C104.475 327.92 104.715 327.027 104.715 326.04C104.715 325 104.488 324.067 104.035 323.24C103.582 322.387 102.942 321.72 102.115 321.24C101.315 320.76 100.395 320.52 99.3548 320.52C98.3948 320.52 97.5415 320.76 96.7948 321.24C96.0482 321.693 95.4482 322.333 94.9948 323.16C94.5682 323.96 94.3548 324.907 94.3548 326C94.3548 326.933 94.5682 327.8 94.9948 328.6C95.4482 329.4 96.0482 330.053 96.7948 330.56C97.5415 331.04 98.3682 331.28 99.2748 331.28ZM124.826 345V322.44L125.826 322.68L116.626 333.92L116.466 333.44H133.866V337.4H113.786L111.946 333.8L125.666 317H128.986V345H124.826ZM138.49 345L137.17 341.72L145.73 332.08C146.183 331.6 146.65 331.053 147.13 330.44C147.636 329.8 148.116 329.147 148.57 328.48C149.023 327.813 149.383 327.16 149.65 326.52C149.943 325.853 150.09 325.227 150.09 324.64C150.09 323.787 149.916 323.067 149.57 322.48C149.25 321.867 148.77 321.4 148.13 321.08C147.516 320.76 146.77 320.6 145.89 320.6C145.116 320.6 144.356 320.827 143.61 321.28C142.863 321.733 142.183 322.373 141.57 323.2C140.956 324.027 140.476 324.987 140.13 326.08L136.81 324C137.263 322.453 137.943 321.133 138.85 320.04C139.783 318.92 140.89 318.067 142.17 317.48C143.476 316.893 144.89 316.6 146.41 316.6C147.983 316.6 149.383 316.933 150.61 317.6C151.836 318.24 152.796 319.147 153.49 320.32C154.183 321.467 154.53 322.8 154.53 324.32C154.53 324.933 154.463 325.56 154.33 326.2C154.196 326.84 153.983 327.507 153.69 328.2C153.396 328.867 153.023 329.573 152.57 330.32C152.116 331.04 151.57 331.8 150.93 332.6C150.316 333.4 149.61 334.24 148.81 335.12L142.45 342.04L141.65 340.84H155.41V345H138.49Z" fill="#1B1B1B"/>
<path d="M48.6524 382.14C47.9524 382.14 47.3084 382.019 46.7204 381.776C46.1324 381.524 45.6237 381.174 45.1944 380.726C44.7651 380.269 44.4291 379.732 44.1864 379.116C43.9531 378.5 43.8364 377.828 43.8364 377.1C43.8364 376.381 43.9531 375.723 44.1864 375.126C44.4291 374.519 44.7697 373.992 45.2084 373.544C45.6471 373.087 46.1557 372.737 46.7344 372.494C47.3131 372.251 47.9477 372.13 48.6384 372.13C49.0957 372.13 49.5484 372.205 49.9964 372.354C50.4444 372.494 50.8551 372.69 51.2284 372.942C51.6111 373.194 51.9237 373.483 52.1664 373.81L51.4104 374.594C51.1771 374.314 50.9064 374.071 50.5984 373.866C50.2997 373.661 49.9824 373.502 49.6464 373.39C49.3104 373.278 48.9744 373.222 48.6384 373.222C48.1157 373.222 47.6257 373.32 47.1684 373.516C46.7204 373.703 46.3331 373.969 46.0064 374.314C45.6797 374.659 45.4231 375.07 45.2364 375.546C45.0591 376.022 44.9704 376.54 44.9704 377.1C44.9704 377.679 45.0591 378.211 45.2364 378.696C45.4231 379.181 45.6844 379.601 46.0204 379.956C46.3657 380.301 46.7671 380.572 47.2244 380.768C47.6911 380.955 48.2091 381.048 48.7784 381.048C49.1144 381.048 49.4504 381.001 49.7864 380.908C50.1224 380.805 50.4304 380.665 50.7104 380.488C50.9904 380.311 51.2284 380.11 51.4244 379.886L51.9844 380.796C51.7697 381.057 51.4804 381.291 51.1164 381.496C50.7617 381.692 50.3697 381.851 49.9404 381.972C49.5111 382.084 49.0817 382.14 48.6524 382.14ZM56.8673 382.14C56.1393 382.14 55.4907 381.977 54.9213 381.65C54.3613 381.323 53.918 380.871 53.5913 380.292C53.274 379.713 53.1153 379.055 53.1153 378.318C53.1153 377.59 53.274 376.941 53.5913 376.372C53.918 375.803 54.3613 375.355 54.9213 375.028C55.4907 374.701 56.1393 374.538 56.8673 374.538C57.586 374.538 58.2253 374.701 58.7853 375.028C59.3547 375.355 59.798 375.803 60.1153 376.372C60.442 376.941 60.6053 377.59 60.6053 378.318C60.6053 379.055 60.442 379.713 60.1153 380.292C59.798 380.871 59.3547 381.323 58.7853 381.65C58.2253 381.977 57.586 382.14 56.8673 382.14ZM56.8673 381.146C57.3807 381.146 57.838 381.025 58.2393 380.782C58.6407 380.53 58.9533 380.194 59.1773 379.774C59.4013 379.345 59.5133 378.859 59.5133 378.318C59.5133 377.777 59.4013 377.296 59.1773 376.876C58.9533 376.456 58.6407 376.129 58.2393 375.896C57.838 375.653 57.3807 375.532 56.8673 375.532C56.354 375.532 55.892 375.653 55.4813 375.896C55.08 376.129 54.7627 376.461 54.5293 376.89C54.3053 377.31 54.198 377.786 54.2073 378.318C54.198 378.859 54.3053 379.345 54.5293 379.774C54.7627 380.194 55.08 380.53 55.4813 380.782C55.892 381.025 56.354 381.146 56.8673 381.146ZM64.7272 382.14C64.1672 382.14 63.6912 382.028 63.2992 381.804C62.9166 381.571 62.6226 381.235 62.4172 380.796C62.2212 380.357 62.1232 379.811 62.1232 379.158V374.692H63.1872V378.948C63.1872 379.443 63.2526 379.858 63.3832 380.194C63.5232 380.521 63.7286 380.768 63.9992 380.936C64.2792 381.104 64.6199 381.188 65.0212 381.188C65.3292 381.188 65.6139 381.137 65.8752 381.034C66.1366 380.922 66.3652 380.773 66.5612 380.586C66.7572 380.399 66.9112 380.18 67.0232 379.928C67.1352 379.676 67.1912 379.41 67.1912 379.13V374.692H68.2412V382H67.2052L67.1632 380.46L67.3312 380.376C67.2192 380.703 67.0326 381.001 66.7712 381.272C66.5099 381.533 66.1972 381.743 65.8332 381.902C65.4786 382.061 65.1099 382.14 64.7272 382.14ZM72.6797 382.14C72.0543 382.14 71.4943 382.023 70.9997 381.79C70.505 381.557 70.113 381.249 69.8237 380.866L70.5657 380.222C70.8363 380.549 71.1537 380.796 71.5177 380.964C71.891 381.132 72.3063 381.216 72.7637 381.216C72.997 381.216 73.207 381.193 73.3937 381.146C73.5803 381.09 73.7437 381.011 73.8837 380.908C74.0237 380.805 74.131 380.684 74.2057 380.544C74.2803 380.404 74.3177 380.25 74.3177 380.082C74.3177 379.774 74.1823 379.517 73.9117 379.312C73.7903 379.228 73.6177 379.144 73.3937 379.06C73.1697 378.967 72.899 378.878 72.5817 378.794C72.059 378.645 71.625 378.495 71.2797 378.346C70.9343 378.187 70.6637 378.005 70.4677 377.8C70.3277 377.632 70.2203 377.45 70.1457 377.254C70.0803 377.058 70.0477 376.843 70.0477 376.61C70.0477 376.311 70.1083 376.036 70.2297 375.784C70.3603 375.532 70.5377 375.313 70.7617 375.126C70.995 374.93 71.2657 374.785 71.5737 374.692C71.891 374.589 72.2317 374.538 72.5957 374.538C72.941 374.538 73.2817 374.585 73.6177 374.678C73.9537 374.771 74.2663 374.907 74.5557 375.084C74.845 375.261 75.0923 375.471 75.2977 375.714L74.6537 376.414C74.4763 376.227 74.2803 376.059 74.0657 375.91C73.851 375.761 73.6223 375.644 73.3797 375.56C73.1463 375.476 72.9037 375.434 72.6517 375.434C72.4277 375.434 72.2177 375.462 72.0217 375.518C71.835 375.574 71.6717 375.653 71.5317 375.756C71.401 375.849 71.2983 375.966 71.2237 376.106C71.1583 376.246 71.1257 376.4 71.1257 376.568C71.1257 376.708 71.1537 376.834 71.2097 376.946C71.2657 377.058 71.345 377.156 71.4477 377.24C71.5783 377.343 71.7603 377.441 71.9937 377.534C72.2363 377.618 72.535 377.707 72.8897 377.8C73.3003 377.912 73.6457 378.029 73.9257 378.15C74.215 378.262 74.453 378.397 74.6397 378.556C74.8917 378.743 75.069 378.957 75.1717 379.2C75.2837 379.443 75.3397 379.718 75.3397 380.026C75.3397 380.437 75.223 380.801 74.9897 381.118C74.7657 381.435 74.453 381.687 74.0517 381.874C73.6503 382.051 73.193 382.14 72.6797 382.14ZM80.2049 382.14C79.4769 382.14 78.8282 381.981 78.2589 381.664C77.6989 381.347 77.2602 380.903 76.9429 380.334C76.6256 379.765 76.4669 379.111 76.4669 378.374C76.4669 377.805 76.5556 377.291 76.7329 376.834C76.9102 376.367 77.1576 375.961 77.4749 375.616C77.8016 375.271 78.1889 375.005 78.6369 374.818C79.0849 374.622 79.5702 374.524 80.0929 374.524C80.5876 374.524 81.0356 374.613 81.4369 374.79C81.8476 374.967 82.1976 375.215 82.4869 375.532C82.7856 375.84 83.0096 376.209 83.1589 376.638C83.3082 377.067 83.3736 377.539 83.3549 378.052L83.3409 378.542H77.2509L77.0969 377.66H82.5429L82.2909 377.898V377.562C82.2722 377.226 82.1742 376.904 81.9969 376.596C81.8196 376.279 81.5676 376.022 81.2409 375.826C80.9236 375.63 80.5409 375.532 80.0929 375.532C79.5702 375.532 79.1176 375.639 78.7349 375.854C78.3522 376.059 78.0582 376.367 77.8529 376.778C77.6476 377.189 77.5449 377.697 77.5449 378.304C77.5449 378.883 77.6569 379.387 77.8809 379.816C78.1049 380.236 78.4222 380.563 78.8329 380.796C79.2529 381.029 79.7569 381.146 80.3449 381.146C80.6902 381.146 81.0309 381.09 81.3669 380.978C81.7122 380.857 82.0902 380.623 82.5009 380.278L83.0469 381.034C82.8322 381.249 82.5756 381.44 82.2769 381.608C81.9782 381.767 81.6516 381.897 81.2969 382C80.9422 382.093 80.5782 382.14 80.2049 382.14ZM87.2402 382.14C86.6149 382.14 86.0549 382.023 85.5602 381.79C85.0656 381.557 84.6736 381.249 84.3842 380.866L85.1262 380.222C85.3969 380.549 85.7142 380.796 86.0782 380.964C86.4516 381.132 86.8669 381.216 87.3242 381.216C87.5576 381.216 87.7676 381.193 87.9542 381.146C88.1409 381.09 88.3042 381.011 88.4442 380.908C88.5842 380.805 88.6916 380.684 88.7662 380.544C88.8409 380.404 88.8782 380.25 88.8782 380.082C88.8782 379.774 88.7429 379.517 88.4722 379.312C88.3509 379.228 88.1782 379.144 87.9542 379.06C87.7302 378.967 87.4596 378.878 87.1422 378.794C86.6196 378.645 86.1856 378.495 85.8402 378.346C85.4949 378.187 85.2242 378.005 85.0282 377.8C84.8882 377.632 84.7809 377.45 84.7062 377.254C84.6409 377.058 84.6082 376.843 84.6082 376.61C84.6082 376.311 84.6689 376.036 84.7902 375.784C84.9209 375.532 85.0982 375.313 85.3222 375.126C85.5556 374.93 85.8262 374.785 86.1342 374.692C86.4516 374.589 86.7922 374.538 87.1562 374.538C87.5016 374.538 87.8422 374.585 88.1782 374.678C88.5142 374.771 88.8269 374.907 89.1162 375.084C89.4056 375.261 89.6529 375.471 89.8582 375.714L89.2142 376.414C89.0369 376.227 88.8409 376.059 88.6262 375.91C88.4116 375.761 88.1829 375.644 87.9402 375.56C87.7069 375.476 87.4642 375.434 87.2122 375.434C86.9882 375.434 86.7782 375.462 86.5822 375.518C86.3956 375.574 86.2322 375.653 86.0922 375.756C85.9616 375.849 85.8589 375.966 85.7842 376.106C85.7189 376.246 85.6862 376.4 85.6862 376.568C85.6862 376.708 85.7142 376.834 85.7702 376.946C85.8262 377.058 85.9056 377.156 86.0082 377.24C86.1389 377.343 86.3209 377.441 86.5542 377.534C86.7969 377.618 87.0956 377.707 87.4502 377.8C87.8609 377.912 88.2062 378.029 88.4862 378.15C88.7756 378.262 89.0136 378.397 89.2002 378.556C89.4522 378.743 89.6296 378.957 89.7322 379.2C89.8442 379.443 89.9002 379.718 89.9002 380.026C89.9002 380.437 89.7836 380.801 89.5502 381.118C89.3262 381.435 89.0136 381.687 88.6122 381.874C88.2109 382.051 87.7536 382.14 87.2402 382.14ZM98.7453 382.14C98.2506 382.14 97.7839 382.07 97.3453 381.93C96.9066 381.79 96.5053 381.58 96.1413 381.3C95.7773 381.02 95.4553 380.675 95.1753 380.264L95.9313 379.424C96.3699 380.049 96.8179 380.488 97.2753 380.74C97.7419 380.992 98.2646 381.118 98.8433 381.118C99.2633 381.118 99.6459 381.048 99.9913 380.908C100.337 380.768 100.607 380.572 100.803 380.32C100.999 380.068 101.097 379.779 101.097 379.452C101.097 379.237 101.06 379.046 100.985 378.878C100.92 378.71 100.817 378.561 100.677 378.43C100.537 378.299 100.365 378.183 100.159 378.08C99.9539 377.977 99.7159 377.884 99.4453 377.8C99.1839 377.716 98.8899 377.632 98.5633 377.548C98.0873 377.436 97.6673 377.305 97.3033 377.156C96.9486 376.997 96.6453 376.806 96.3933 376.582C96.1506 376.358 95.9639 376.101 95.8333 375.812C95.7119 375.513 95.6513 375.163 95.6513 374.762C95.6513 374.379 95.7306 374.025 95.8893 373.698C96.0573 373.371 96.2859 373.091 96.5753 372.858C96.8646 372.615 97.2053 372.429 97.5973 372.298C97.9893 372.167 98.4093 372.102 98.8573 372.102C99.3613 372.102 99.8093 372.172 100.201 372.312C100.603 372.443 100.957 372.639 101.265 372.9C101.573 373.161 101.839 373.474 102.063 373.838L101.293 374.594C101.097 374.286 100.873 374.02 100.621 373.796C100.379 373.572 100.108 373.404 99.8093 373.292C99.5199 373.171 99.1979 373.11 98.8433 373.11C98.4326 373.11 98.0686 373.18 97.7513 373.32C97.4433 373.46 97.2006 373.656 97.0233 373.908C96.8459 374.151 96.7573 374.431 96.7573 374.748C96.7573 374.981 96.7993 375.191 96.8833 375.378C96.9673 375.555 97.0979 375.714 97.2753 375.854C97.4619 375.985 97.6999 376.106 97.9893 376.218C98.2879 376.321 98.6426 376.419 99.0533 376.512C99.5386 376.624 99.9726 376.759 100.355 376.918C100.747 377.077 101.079 377.268 101.349 377.492C101.629 377.707 101.839 377.959 101.979 378.248C102.129 378.537 102.203 378.869 102.203 379.242C102.203 379.821 102.059 380.329 101.769 380.768C101.48 381.197 101.074 381.533 100.551 381.776C100.038 382.019 99.4359 382.14 98.7453 382.14ZM107.221 382.14C106.493 382.14 105.844 381.977 105.275 381.65C104.715 381.323 104.272 380.871 103.945 380.292C103.628 379.713 103.469 379.055 103.469 378.318C103.469 377.59 103.628 376.941 103.945 376.372C104.272 375.803 104.715 375.355 105.275 375.028C105.844 374.701 106.493 374.538 107.221 374.538C107.94 374.538 108.579 374.701 109.139 375.028C109.708 375.355 110.152 375.803 110.469 376.372C110.796 376.941 110.959 377.59 110.959 378.318C110.959 379.055 110.796 379.713 110.469 380.292C110.152 380.871 109.708 381.323 109.139 381.65C108.579 381.977 107.94 382.14 107.221 382.14ZM107.221 381.146C107.734 381.146 108.192 381.025 108.593 380.782C108.994 380.53 109.307 380.194 109.531 379.774C109.755 379.345 109.867 378.859 109.867 378.318C109.867 377.777 109.755 377.296 109.531 376.876C109.307 376.456 108.994 376.129 108.593 375.896C108.192 375.653 107.734 375.532 107.221 375.532C106.708 375.532 106.246 375.653 105.835 375.896C105.434 376.129 105.116 376.461 104.883 376.89C104.659 377.31 104.552 377.786 104.561 378.318C104.552 378.859 104.659 379.345 104.883 379.774C105.116 380.194 105.434 380.53 105.835 380.782C106.246 381.025 106.708 381.146 107.221 381.146ZM112.519 382V371.64H113.569V382H112.519ZM118.467 382.14C117.804 382.14 117.207 381.977 116.675 381.65C116.152 381.323 115.737 380.875 115.429 380.306C115.13 379.727 114.981 379.074 114.981 378.346C114.981 377.609 115.135 376.955 115.443 376.386C115.751 375.807 116.166 375.355 116.689 375.028C117.211 374.701 117.799 374.538 118.453 374.538C118.817 374.538 119.167 374.594 119.503 374.706C119.848 374.818 120.156 374.977 120.427 375.182C120.697 375.378 120.921 375.607 121.099 375.868C121.276 376.12 121.383 376.386 121.421 376.666L121.099 376.554V371.64H122.149V382H121.113L121.085 380.18L121.351 380.082C121.313 380.343 121.206 380.6 121.029 380.852C120.861 381.095 120.646 381.314 120.385 381.51C120.123 381.706 119.825 381.86 119.489 381.972C119.162 382.084 118.821 382.14 118.467 382.14ZM118.621 381.174C119.106 381.174 119.54 381.053 119.923 380.81C120.305 380.567 120.604 380.231 120.819 379.802C121.043 379.373 121.155 378.883 121.155 378.332C121.155 377.781 121.043 377.296 120.819 376.876C120.604 376.447 120.305 376.111 119.923 375.868C119.54 375.616 119.106 375.49 118.621 375.49C118.117 375.49 117.673 375.616 117.291 375.868C116.917 376.111 116.619 376.447 116.395 376.876C116.18 377.296 116.073 377.781 116.073 378.332C116.073 378.873 116.18 379.359 116.395 379.788C116.609 380.217 116.908 380.558 117.291 380.81C117.673 381.053 118.117 381.174 118.621 381.174ZM132.584 382.14C131.893 382.14 131.254 382.019 130.666 381.776C130.087 381.524 129.578 381.174 129.14 380.726C128.71 380.278 128.374 379.751 128.132 379.144C127.898 378.528 127.782 377.856 127.782 377.128C127.782 376.4 127.898 375.733 128.132 375.126C128.374 374.51 128.71 373.978 129.14 373.53C129.578 373.073 130.087 372.723 130.666 372.48C131.254 372.228 131.893 372.102 132.584 372.102C133.284 372.102 133.923 372.228 134.502 372.48C135.09 372.723 135.598 373.073 136.028 373.53C136.466 373.978 136.802 374.51 137.036 375.126C137.278 375.733 137.4 376.4 137.4 377.128C137.4 377.847 137.278 378.514 137.036 379.13C136.802 379.737 136.466 380.269 136.028 380.726C135.598 381.174 135.09 381.524 134.502 381.776C133.923 382.019 133.284 382.14 132.584 382.14ZM132.584 381.062C133.116 381.062 133.606 380.969 134.054 380.782C134.511 380.586 134.903 380.311 135.23 379.956C135.556 379.601 135.808 379.186 135.986 378.71C136.172 378.225 136.266 377.697 136.266 377.128C136.266 376.549 136.172 376.022 135.986 375.546C135.808 375.061 135.556 374.641 135.23 374.286C134.903 373.931 134.511 373.656 134.054 373.46C133.606 373.264 133.116 373.166 132.584 373.166C132.052 373.166 131.557 373.264 131.1 373.46C130.652 373.656 130.264 373.931 129.938 374.286C129.611 374.641 129.359 375.061 129.182 375.546C129.004 376.022 128.916 376.549 128.916 377.128C128.916 377.697 129.004 378.225 129.182 378.71C129.359 379.186 129.611 379.601 129.938 379.956C130.264 380.311 130.652 380.586 131.1 380.782C131.557 380.969 132.052 381.062 132.584 381.062ZM139.11 382V374.692H140.146L140.188 376.218L140.02 376.288C140.113 375.971 140.295 375.681 140.566 375.42C140.837 375.159 141.159 374.949 141.532 374.79C141.915 374.622 142.307 374.538 142.708 374.538C143.249 374.538 143.702 374.645 144.066 374.86C144.43 375.075 144.705 375.406 144.892 375.854C145.079 376.302 145.172 376.871 145.172 377.562V382H144.108V377.618C144.108 377.133 144.043 376.736 143.912 376.428C143.791 376.111 143.599 375.877 143.338 375.728C143.077 375.579 142.755 375.509 142.372 375.518C142.055 375.518 141.761 375.574 141.49 375.686C141.219 375.789 140.986 375.933 140.79 376.12C140.594 376.307 140.44 376.521 140.328 376.764C140.216 377.007 140.16 377.268 140.16 377.548V382H139.642C139.577 382 139.502 382 139.418 382C139.334 382 139.231 382 139.11 382ZM147.204 382V371.64H148.254V382H147.204ZM150.601 382V374.692H151.651V382H150.601ZM151.119 373.11C150.857 373.11 150.657 373.045 150.517 372.914C150.386 372.774 150.321 372.587 150.321 372.354C150.321 372.121 150.391 371.934 150.531 371.794C150.671 371.654 150.867 371.584 151.119 371.584C151.371 371.584 151.567 371.654 151.707 371.794C151.847 371.925 151.917 372.111 151.917 372.354C151.917 372.578 151.847 372.76 151.707 372.9C151.567 373.04 151.371 373.11 151.119 373.11ZM153.944 382V374.692H154.98L155.022 376.218L154.854 376.288C154.947 375.971 155.129 375.681 155.4 375.42C155.671 375.159 155.993 374.949 156.366 374.79C156.749 374.622 157.141 374.538 157.542 374.538C158.083 374.538 158.536 374.645 158.9 374.86C159.264 375.075 159.539 375.406 159.726 375.854C159.913 376.302 160.006 376.871 160.006 377.562V382H158.942V377.618C158.942 377.133 158.877 376.736 158.746 376.428C158.625 376.111 158.433 375.877 158.172 375.728C157.911 375.579 157.589 375.509 157.206 375.518C156.889 375.518 156.595 375.574 156.324 375.686C156.053 375.789 155.82 375.933 155.624 376.12C155.428 376.307 155.274 376.521 155.162 376.764C155.05 377.007 154.994 377.268 154.994 377.548V382H154.476C154.411 382 154.336 382 154.252 382C154.168 382 154.065 382 153.944 382ZM165.23 382.14C164.502 382.14 163.854 381.981 163.284 381.664C162.724 381.347 162.286 380.903 161.968 380.334C161.651 379.765 161.492 379.111 161.492 378.374C161.492 377.805 161.581 377.291 161.758 376.834C161.936 376.367 162.183 375.961 162.5 375.616C162.827 375.271 163.214 375.005 163.662 374.818C164.11 374.622 164.596 374.524 165.118 374.524C165.613 374.524 166.061 374.613 166.462 374.79C166.873 374.967 167.223 375.215 167.512 375.532C167.811 375.84 168.035 376.209 168.184 376.638C168.334 377.067 168.399 377.539 168.38 378.052L168.366 378.542H162.276L162.122 377.66H167.568L167.316 377.898V377.562C167.298 377.226 167.2 376.904 167.022 376.596C166.845 376.279 166.593 376.022 166.266 375.826C165.949 375.63 165.566 375.532 165.118 375.532C164.596 375.532 164.143 375.639 163.76 375.854C163.378 376.059 163.084 376.367 162.878 376.778C162.673 377.189 162.57 377.697 162.57 378.304C162.57 378.883 162.682 379.387 162.906 379.816C163.13 380.236 163.448 380.563 163.858 380.796C164.278 381.029 164.782 381.146 165.37 381.146C165.716 381.146 166.056 381.09 166.392 380.978C166.738 380.857 167.116 380.623 167.526 380.278L168.072 381.034C167.858 381.249 167.601 381.44 167.302 381.608C167.004 381.767 166.677 381.897 166.322 382C165.968 382.093 165.604 382.14 165.23 382.14Z" fill="#4D4E52"/>
<rect x="236" y="273" width="212" height="212" fill="#F8F9FA"/>
<path d="M317.489 382.4C315.516 382.4 313.796 381.947 312.329 381.04C310.889 380.133 309.529 378.613 308.249 376.48L311.609 374.36C312.276 375.347 312.929 376.16 313.569 376.8C314.236 377.413 314.916 377.867 315.609 378.16C316.303 378.453 317.036 378.6 317.809 378.6C318.743 378.6 319.609 378.373 320.409 377.92C321.209 377.44 321.849 376.787 322.329 375.96C322.809 375.133 323.049 374.2 323.049 373.16C323.049 372.12 322.863 371.24 322.489 370.52C322.116 369.773 321.569 369.213 320.849 368.84C320.129 368.44 319.276 368.24 318.289 368.24C317.836 368.24 317.356 368.293 316.849 368.4C316.369 368.48 315.849 368.613 315.289 368.8C314.729 368.96 314.116 369.173 313.449 369.44L312.249 366.28L320.889 356.76L321.729 358H309.809V354H325.849L326.649 355.6L317.489 365.76L316.489 364.72C316.703 364.613 317.049 364.52 317.529 364.44C318.036 364.333 318.449 364.28 318.769 364.28C319.943 364.28 321.036 364.507 322.049 364.96C323.089 365.387 323.983 366 324.729 366.8C325.503 367.573 326.103 368.493 326.529 369.56C326.983 370.6 327.209 371.72 327.209 372.92C327.209 374.733 326.769 376.36 325.889 377.8C325.036 379.213 323.876 380.333 322.409 381.16C320.943 381.987 319.303 382.4 317.489 382.4ZM340.741 382.4C338.608 382.4 336.768 381.813 335.221 380.64C333.701 379.467 332.528 377.813 331.701 375.68C330.874 373.52 330.461 370.96 330.461 368C330.461 365.04 330.874 362.493 331.701 360.36C332.528 358.2 333.701 356.533 335.221 355.36C336.768 354.187 338.608 353.6 340.741 353.6C342.874 353.6 344.714 354.187 346.261 355.36C347.808 356.533 348.994 358.2 349.821 360.36C350.648 362.493 351.061 365.04 351.061 368C351.061 370.96 350.648 373.52 349.821 375.68C348.994 377.813 347.808 379.467 346.261 380.64C344.714 381.813 342.874 382.4 340.741 382.4ZM340.741 378.48C342.688 378.48 344.194 377.573 345.261 375.76C346.328 373.92 346.861 371.333 346.861 368C346.861 364.667 346.328 362.093 345.261 360.28C344.194 358.44 342.688 357.52 340.741 357.52C338.794 357.52 337.288 358.44 336.221 360.28C335.154 362.093 334.621 364.667 334.621 368C334.621 371.333 335.154 373.92 336.221 375.76C337.288 377.573 338.794 378.48 340.741 378.48ZM354.718 372.6V369H374.758V372.6H354.718ZM362.598 380.32V361H366.798V380.32H362.598Z" fill="#1B1B1B"/>
<path d="M279.593 419V409.2H285.529V410.264H280.685V417.936H285.501V419H279.593ZM280.097 414.492V413.428H284.745V414.492H280.097ZM292.524 419L289.99 415.738L289.864 415.584L286.826 411.692H288.156L290.648 414.898L290.788 415.08L293.84 419H292.524ZM286.77 419L289.752 415.15L290.382 415.906L288.03 419H286.77ZM290.858 415.416L290.256 414.674L292.384 411.692H293.658L290.858 415.416ZM295.087 422.08V411.692H296.137L296.165 413.47L295.969 413.498C296.053 413.143 296.235 412.821 296.515 412.532C296.795 412.233 297.136 411.995 297.537 411.818C297.939 411.641 298.363 411.552 298.811 411.552C299.465 411.552 300.048 411.715 300.561 412.042C301.084 412.369 301.499 412.817 301.807 413.386C302.115 413.955 302.269 414.609 302.269 415.346C302.269 416.074 302.12 416.723 301.821 417.292C301.523 417.861 301.112 418.314 300.589 418.65C300.067 418.977 299.479 419.14 298.825 419.14C298.368 419.14 297.934 419.047 297.523 418.86C297.113 418.673 296.763 418.431 296.473 418.132C296.184 417.824 295.993 417.493 295.899 417.138H296.151V422.08H295.087ZM298.657 418.132C299.152 418.132 299.591 418.011 299.973 417.768C300.356 417.525 300.659 417.194 300.883 416.774C301.107 416.354 301.219 415.878 301.219 415.346C301.219 414.805 301.107 414.324 300.883 413.904C300.659 413.484 300.356 413.153 299.973 412.91C299.591 412.667 299.152 412.546 298.657 412.546C298.163 412.546 297.719 412.667 297.327 412.91C296.945 413.143 296.641 413.47 296.417 413.89C296.193 414.31 296.081 414.791 296.081 415.332C296.081 415.873 296.193 416.354 296.417 416.774C296.641 417.194 296.945 417.525 297.327 417.768C297.719 418.011 298.163 418.132 298.657 418.132ZM307.016 419.14C306.288 419.14 305.64 418.981 305.07 418.664C304.51 418.347 304.072 417.903 303.754 417.334C303.437 416.765 303.278 416.111 303.278 415.374C303.278 414.805 303.367 414.291 303.544 413.834C303.722 413.367 303.969 412.961 304.286 412.616C304.613 412.271 305 412.005 305.448 411.818C305.896 411.622 306.382 411.524 306.904 411.524C307.399 411.524 307.847 411.613 308.248 411.79C308.659 411.967 309.009 412.215 309.298 412.532C309.597 412.84 309.821 413.209 309.97 413.638C310.12 414.067 310.185 414.539 310.166 415.052L310.152 415.542H304.062L303.908 414.66H309.354L309.102 414.898V414.562C309.084 414.226 308.986 413.904 308.808 413.596C308.631 413.279 308.379 413.022 308.052 412.826C307.735 412.63 307.352 412.532 306.904 412.532C306.382 412.532 305.929 412.639 305.546 412.854C305.164 413.059 304.87 413.367 304.664 413.778C304.459 414.189 304.356 414.697 304.356 415.304C304.356 415.883 304.468 416.387 304.692 416.816C304.916 417.236 305.234 417.563 305.644 417.796C306.064 418.029 306.568 418.146 307.156 418.146C307.502 418.146 307.842 418.09 308.178 417.978C308.524 417.857 308.902 417.623 309.312 417.278L309.858 418.034C309.644 418.249 309.387 418.44 309.088 418.608C308.79 418.767 308.463 418.897 308.108 419C307.754 419.093 307.39 419.14 307.016 419.14ZM311.658 419V411.692H312.708L312.736 413.638L312.624 413.372C312.726 413.045 312.89 412.742 313.114 412.462C313.347 412.182 313.622 411.958 313.94 411.79C314.257 411.622 314.607 411.538 314.99 411.538C315.148 411.538 315.298 411.552 315.438 411.58C315.578 411.599 315.694 411.627 315.788 411.664L315.494 412.84C315.372 412.784 315.246 412.747 315.116 412.728C314.994 412.7 314.878 412.686 314.766 412.686C314.448 412.686 314.164 412.742 313.912 412.854C313.66 412.966 313.445 413.125 313.268 413.33C313.09 413.526 312.955 413.755 312.862 414.016C312.768 414.277 312.722 414.557 312.722 414.856V419H311.658ZM318.162 419V409.774H319.212V419H318.162ZM316.51 412.7V411.692H321.06V412.7H316.51ZM325.017 419.14C324.391 419.14 323.831 419.023 323.337 418.79C322.842 418.557 322.45 418.249 322.161 417.866L322.903 417.222C323.173 417.549 323.491 417.796 323.855 417.964C324.228 418.132 324.643 418.216 325.101 418.216C325.334 418.216 325.544 418.193 325.731 418.146C325.917 418.09 326.081 418.011 326.221 417.908C326.361 417.805 326.468 417.684 326.543 417.544C326.617 417.404 326.655 417.25 326.655 417.082C326.655 416.774 326.519 416.517 326.249 416.312C326.127 416.228 325.955 416.144 325.731 416.06C325.507 415.967 325.236 415.878 324.919 415.794C324.396 415.645 323.962 415.495 323.617 415.346C323.271 415.187 323.001 415.005 322.805 414.8C322.665 414.632 322.557 414.45 322.483 414.254C322.417 414.058 322.385 413.843 322.385 413.61C322.385 413.311 322.445 413.036 322.567 412.784C322.697 412.532 322.875 412.313 323.099 412.126C323.332 411.93 323.603 411.785 323.911 411.692C324.228 411.589 324.569 411.538 324.933 411.538C325.278 411.538 325.619 411.585 325.955 411.678C326.291 411.771 326.603 411.907 326.893 412.084C327.182 412.261 327.429 412.471 327.635 412.714L326.991 413.414C326.813 413.227 326.617 413.059 326.403 412.91C326.188 412.761 325.959 412.644 325.717 412.56C325.483 412.476 325.241 412.434 324.989 412.434C324.765 412.434 324.555 412.462 324.359 412.518C324.172 412.574 324.009 412.653 323.869 412.756C323.738 412.849 323.635 412.966 323.561 413.106C323.495 413.246 323.463 413.4 323.463 413.568C323.463 413.708 323.491 413.834 323.547 413.946C323.603 414.058 323.682 414.156 323.785 414.24C323.915 414.343 324.097 414.441 324.331 414.534C324.573 414.618 324.872 414.707 325.227 414.8C325.637 414.912 325.983 415.029 326.263 415.15C326.552 415.262 326.79 415.397 326.977 415.556C327.229 415.743 327.406 415.957 327.509 416.2C327.621 416.443 327.677 416.718 327.677 417.026C327.677 417.437 327.56 417.801 327.327 418.118C327.103 418.435 326.79 418.687 326.389 418.874C325.987 419.051 325.53 419.14 325.017 419.14ZM336.48 419.14C335.752 419.14 335.103 418.977 334.534 418.65C333.974 418.323 333.53 417.871 333.204 417.292C332.886 416.713 332.728 416.055 332.728 415.318C332.728 414.59 332.886 413.941 333.204 413.372C333.53 412.803 333.974 412.355 334.534 412.028C335.103 411.701 335.752 411.538 336.48 411.538C337.198 411.538 337.838 411.701 338.398 412.028C338.967 412.355 339.41 412.803 339.728 413.372C340.054 413.941 340.218 414.59 340.218 415.318C340.218 416.055 340.054 416.713 339.728 417.292C339.41 417.871 338.967 418.323 338.398 418.65C337.838 418.977 337.198 419.14 336.48 419.14ZM336.48 418.146C336.993 418.146 337.45 418.025 337.852 417.782C338.253 417.53 338.566 417.194 338.79 416.774C339.014 416.345 339.126 415.859 339.126 415.318C339.126 414.777 339.014 414.296 338.79 413.876C338.566 413.456 338.253 413.129 337.852 412.896C337.45 412.653 336.993 412.532 336.48 412.532C335.966 412.532 335.504 412.653 335.094 412.896C334.692 413.129 334.375 413.461 334.142 413.89C333.918 414.31 333.81 414.786 333.82 415.318C333.81 415.859 333.918 416.345 334.142 416.774C334.375 417.194 334.692 417.53 335.094 417.782C335.504 418.025 335.966 418.146 336.48 418.146ZM342.316 419V410.558C342.316 410.194 342.395 409.872 342.554 409.592C342.713 409.312 342.937 409.093 343.226 408.934C343.525 408.766 343.87 408.682 344.262 408.682C344.561 408.682 344.827 408.738 345.06 408.85C345.303 408.953 345.503 409.097 345.662 409.284L345.298 410.11C345.149 409.951 344.985 409.839 344.808 409.774C344.64 409.699 344.477 409.662 344.318 409.662C344.113 409.662 343.94 409.699 343.8 409.774C343.66 409.839 343.553 409.942 343.478 410.082C343.413 410.213 343.38 410.371 343.38 410.558V419H342.89C342.787 419 342.689 419 342.596 419C342.503 419 342.409 419 342.316 419ZM341.014 412.728V411.748H345.242V412.728H341.014ZM351.699 419V409.774H352.749V419H351.699ZM350.047 412.7V411.692H354.597V412.7H350.047ZM355.886 419V408.64H356.936V413.288L356.726 413.498C356.829 413.115 357.02 412.779 357.3 412.49C357.58 412.191 357.907 411.958 358.28 411.79C358.663 411.622 359.05 411.538 359.442 411.538C360.002 411.538 360.469 411.645 360.842 411.86C361.216 412.075 361.491 412.406 361.668 412.854C361.855 413.302 361.948 413.871 361.948 414.562V419H360.884V414.618C360.884 414.133 360.819 413.736 360.688 413.428C360.567 413.111 360.376 412.877 360.114 412.728C359.853 412.579 359.526 412.509 359.134 412.518C358.826 412.518 358.537 412.574 358.266 412.686C357.996 412.789 357.762 412.933 357.566 413.12C357.37 413.307 357.216 413.521 357.104 413.764C356.992 414.007 356.936 414.268 356.936 414.548V419H356.418C356.353 419 356.278 419 356.194 419C356.11 419 356.008 419 355.886 419ZM367.173 419.14C366.445 419.14 365.796 418.981 365.227 418.664C364.667 418.347 364.228 417.903 363.911 417.334C363.593 416.765 363.435 416.111 363.435 415.374C363.435 414.805 363.523 414.291 363.701 413.834C363.878 413.367 364.125 412.961 364.443 412.616C364.769 412.271 365.157 412.005 365.605 411.818C366.053 411.622 366.538 411.524 367.061 411.524C367.555 411.524 368.003 411.613 368.405 411.79C368.815 411.967 369.165 412.215 369.455 412.532C369.753 412.84 369.977 413.209 370.127 413.638C370.276 414.067 370.341 414.539 370.323 415.052L370.309 415.542H364.219L364.065 414.66H369.511L369.259 414.898V414.562C369.24 414.226 369.142 413.904 368.965 413.596C368.787 413.279 368.535 413.022 368.209 412.826C367.891 412.63 367.509 412.532 367.061 412.532C366.538 412.532 366.085 412.639 365.703 412.854C365.32 413.059 365.026 413.367 364.821 413.778C364.615 414.189 364.513 414.697 364.513 415.304C364.513 415.883 364.625 416.387 364.849 416.816C365.073 417.236 365.39 417.563 365.801 417.796C366.221 418.029 366.725 418.146 367.313 418.146C367.658 418.146 367.999 418.09 368.335 417.978C368.68 417.857 369.058 417.623 369.469 417.278L370.015 418.034C369.8 418.249 369.543 418.44 369.245 418.608C368.946 418.767 368.619 418.897 368.265 419C367.91 419.093 367.546 419.14 367.173 419.14ZM378.594 419.14C377.959 419.14 377.385 418.977 376.872 418.65C376.358 418.314 375.952 417.861 375.654 417.292C375.355 416.713 375.206 416.06 375.206 415.332C375.206 414.595 375.36 413.941 375.668 413.372C375.976 412.803 376.386 412.355 376.9 412.028C377.422 411.701 378.006 411.538 378.65 411.538C379.032 411.538 379.387 411.594 379.714 411.706C380.04 411.818 380.33 411.977 380.582 412.182C380.843 412.378 381.058 412.611 381.226 412.882C381.403 413.143 381.524 413.428 381.59 413.736L381.282 413.582L381.324 411.692H382.374V419H381.31V417.208L381.59 417.026C381.524 417.306 381.398 417.577 381.212 417.838C381.025 418.09 380.796 418.314 380.526 418.51C380.264 418.706 379.966 418.86 379.63 418.972C379.303 419.084 378.958 419.14 378.594 419.14ZM378.832 418.132C379.317 418.132 379.751 418.015 380.134 417.782C380.516 417.539 380.815 417.208 381.03 416.788C381.254 416.359 381.366 415.873 381.366 415.332C381.366 414.791 381.254 414.31 381.03 413.89C380.815 413.47 380.516 413.139 380.134 412.896C379.751 412.653 379.317 412.532 378.832 412.532C378.337 412.532 377.898 412.653 377.516 412.896C377.142 413.139 376.844 413.47 376.62 413.89C376.405 414.31 376.298 414.791 376.298 415.332C376.298 415.864 376.405 416.345 376.62 416.774C376.834 417.194 377.133 417.525 377.516 417.768C377.898 418.011 378.337 418.132 378.832 418.132ZM384.419 419V411.692H385.469L385.497 413.638L385.385 413.372C385.488 413.045 385.651 412.742 385.875 412.462C386.109 412.182 386.384 411.958 386.701 411.79C387.019 411.622 387.369 411.538 387.751 411.538C387.91 411.538 388.059 411.552 388.199 411.58C388.339 411.599 388.456 411.627 388.549 411.664L388.255 412.84C388.134 412.784 388.008 412.747 387.877 412.728C387.756 412.7 387.639 412.686 387.527 412.686C387.21 412.686 386.925 412.742 386.673 412.854C386.421 412.966 386.207 413.125 386.029 413.33C385.852 413.526 385.717 413.755 385.623 414.016C385.53 414.277 385.483 414.557 385.483 414.856V419H384.419ZM392.548 419.14C391.82 419.14 391.171 418.981 390.602 418.664C390.042 418.347 389.603 417.903 389.286 417.334C388.968 416.765 388.81 416.111 388.81 415.374C388.81 414.805 388.898 414.291 389.076 413.834C389.253 413.367 389.5 412.961 389.818 412.616C390.144 412.271 390.532 412.005 390.98 411.818C391.428 411.622 391.913 411.524 392.436 411.524C392.93 411.524 393.378 411.613 393.78 411.79C394.19 411.967 394.54 412.215 394.83 412.532C395.128 412.84 395.352 413.209 395.502 413.638C395.651 414.067 395.716 414.539 395.698 415.052L395.684 415.542H389.594L389.44 414.66H394.886L394.634 414.898V414.562C394.615 414.226 394.517 413.904 394.34 413.596C394.162 413.279 393.91 413.022 393.584 412.826C393.266 412.63 392.884 412.532 392.436 412.532C391.913 412.532 391.46 412.639 391.078 412.854C390.695 413.059 390.401 413.367 390.196 413.778C389.99 414.189 389.888 414.697 389.888 415.304C389.888 415.883 390 416.387 390.224 416.816C390.448 417.236 390.765 417.563 391.176 417.796C391.596 418.029 392.1 418.146 392.688 418.146C393.033 418.146 393.374 418.09 393.71 417.978C394.055 417.857 394.433 417.623 394.844 417.278L395.39 418.034C395.175 418.249 394.918 418.44 394.62 418.608C394.321 418.767 393.994 418.897 393.64 419C393.285 419.093 392.921 419.14 392.548 419.14ZM400.045 419.14C399.41 419.14 398.836 418.977 398.323 418.65C397.81 418.314 397.404 417.861 397.105 417.292C396.806 416.713 396.657 416.06 396.657 415.332C396.657 414.595 396.811 413.941 397.119 413.372C397.427 412.803 397.838 412.355 398.351 412.028C398.874 411.701 399.457 411.538 400.101 411.538C400.484 411.538 400.838 411.594 401.165 411.706C401.492 411.818 401.781 411.977 402.033 412.182C402.294 412.378 402.509 412.611 402.677 412.882C402.854 413.143 402.976 413.428 403.041 413.736L402.733 413.582L402.775 411.692H403.825V419H402.761V417.208L403.041 417.026C402.976 417.306 402.85 417.577 402.663 417.838C402.476 418.09 402.248 418.314 401.977 418.51C401.716 418.706 401.417 418.86 401.081 418.972C400.754 419.084 400.409 419.14 400.045 419.14ZM400.283 418.132C400.768 418.132 401.202 418.015 401.585 417.782C401.968 417.539 402.266 417.208 402.481 416.788C402.705 416.359 402.817 415.873 402.817 415.332C402.817 414.791 402.705 414.31 402.481 413.89C402.266 413.47 401.968 413.139 401.585 412.896C401.202 412.653 400.768 412.532 400.283 412.532C399.788 412.532 399.35 412.653 398.967 412.896C398.594 413.139 398.295 413.47 398.071 413.89C397.856 414.31 397.749 414.791 397.749 415.332C397.749 415.864 397.856 416.345 398.071 416.774C398.286 417.194 398.584 417.525 398.967 417.768C399.35 418.011 399.788 418.132 400.283 418.132Z" fill="#4D4E52"/>
<rect x="236" y="38" width="212" height="212" fill="#F8F9FA"/>
<path d="M285.583 147.4C283.29 147.4 281.263 146.947 279.503 146.04C277.77 145.133 276.277 143.773 275.023 141.96L277.983 138.56C279.29 140.427 280.543 141.72 281.743 142.44C282.943 143.16 284.37 143.52 286.023 143.52C287.037 143.52 287.957 143.36 288.783 143.04C289.61 142.72 290.263 142.28 290.743 141.72C291.223 141.16 291.463 140.52 291.463 139.8C291.463 139.32 291.383 138.867 291.223 138.44C291.063 138.013 290.81 137.627 290.463 137.28C290.143 136.933 289.717 136.613 289.183 136.32C288.677 136.027 288.077 135.773 287.383 135.56C286.69 135.32 285.89 135.12 284.983 134.96C283.063 134.587 281.463 134.027 280.183 133.28C278.93 132.533 277.983 131.587 277.343 130.44C276.73 129.293 276.423 127.96 276.423 126.44C276.423 125.32 276.663 124.28 277.143 123.32C277.65 122.36 278.33 121.533 279.183 120.84C280.063 120.12 281.09 119.573 282.263 119.2C283.437 118.8 284.703 118.6 286.063 118.6C288.223 118.6 290.103 119.027 291.703 119.88C293.33 120.707 294.61 121.92 295.543 123.52L292.503 126.52C291.703 125.213 290.743 124.213 289.623 123.52C288.53 122.827 287.303 122.48 285.943 122.48C284.903 122.48 283.997 122.64 283.223 122.96C282.45 123.28 281.837 123.733 281.383 124.32C280.957 124.88 280.743 125.547 280.743 126.32C280.743 126.88 280.85 127.4 281.063 127.88C281.277 128.333 281.597 128.747 282.023 129.12C282.477 129.467 283.077 129.787 283.823 130.08C284.57 130.347 285.463 130.587 286.503 130.8C287.97 131.12 289.277 131.533 290.423 132.04C291.57 132.52 292.543 133.093 293.343 133.76C294.143 134.427 294.743 135.173 295.143 136C295.57 136.827 295.783 137.72 295.783 138.68C295.783 140.467 295.37 142.013 294.543 143.32C293.717 144.627 292.543 145.64 291.023 146.36C289.503 147.053 287.69 147.4 285.583 147.4ZM283.183 150.64V132.48L287.063 133.8V150.64H283.183ZM288.663 133.8L284.783 132.48V115.72H288.663V133.8ZM301.704 147L300.384 143.72L308.944 134.08C309.398 133.6 309.864 133.053 310.344 132.44C310.851 131.8 311.331 131.147 311.784 130.48C312.238 129.813 312.598 129.16 312.864 128.52C313.158 127.853 313.304 127.227 313.304 126.64C313.304 125.787 313.131 125.067 312.784 124.48C312.464 123.867 311.984 123.4 311.344 123.08C310.731 122.76 309.984 122.6 309.104 122.6C308.331 122.6 307.571 122.827 306.824 123.28C306.078 123.733 305.398 124.373 304.784 125.2C304.171 126.027 303.691 126.987 303.344 128.08L300.024 126C300.478 124.453 301.158 123.133 302.064 122.04C302.998 120.92 304.104 120.067 305.384 119.48C306.691 118.893 308.104 118.6 309.624 118.6C311.198 118.6 312.598 118.933 313.824 119.6C315.051 120.24 316.011 121.147 316.704 122.32C317.398 123.467 317.744 124.8 317.744 126.32C317.744 126.933 317.678 127.56 317.544 128.2C317.411 128.84 317.198 129.507 316.904 130.2C316.611 130.867 316.238 131.573 315.784 132.32C315.331 133.04 314.784 133.8 314.144 134.6C313.531 135.4 312.824 136.24 312.024 137.12L305.664 144.04L304.864 142.84H318.624V147H301.704ZM323.418 154.16L321.898 152.32C322.832 151.787 323.592 151.173 324.178 150.48C324.765 149.787 325.058 149.187 325.058 148.68C325.058 148.413 324.992 148.147 324.858 147.88C324.725 147.64 324.445 147.293 324.018 146.84C323.485 146.333 323.138 145.907 322.978 145.56C322.818 145.213 322.738 144.84 322.738 144.44C322.738 143.8 322.965 143.293 323.418 142.92C323.872 142.52 324.458 142.32 325.178 142.32C325.845 142.32 326.445 142.52 326.978 142.92C327.538 143.293 327.965 143.827 328.258 144.52C328.578 145.187 328.738 145.96 328.738 146.84C328.738 147.64 328.605 148.413 328.338 149.16C328.072 149.907 327.698 150.6 327.218 151.24C326.738 151.88 326.178 152.453 325.538 152.96C324.898 153.467 324.192 153.867 323.418 154.16ZM342.123 147.12C340.389 147.12 338.803 146.76 337.363 146.04C335.949 145.293 334.816 144.307 333.963 143.08C333.109 141.853 332.683 140.493 332.683 139C332.683 138.173 332.789 137.4 333.003 136.68C333.243 135.933 333.589 135.253 334.043 134.64C334.523 134.027 335.096 133.467 335.763 132.96C336.429 132.453 337.203 132 338.083 131.6L337.843 132.44C337.149 132.173 336.523 131.853 335.963 131.48C335.429 131.08 334.963 130.627 334.563 130.12C334.163 129.613 333.856 129.067 333.643 128.48C333.456 127.893 333.363 127.28 333.363 126.64C333.363 125.227 333.749 123.947 334.523 122.8C335.323 121.653 336.376 120.733 337.683 120.04C339.016 119.347 340.496 119 342.123 119C343.749 119 345.216 119.347 346.523 120.04C347.856 120.733 348.909 121.653 349.683 122.8C350.483 123.947 350.883 125.227 350.883 126.64C350.883 127.28 350.776 127.893 350.562 128.48C350.376 129.067 350.096 129.6 349.723 130.08C349.349 130.56 348.869 131 348.283 131.4C347.723 131.8 347.083 132.147 346.363 132.44L346.243 131.76C347.043 132.08 347.763 132.493 348.403 133C349.069 133.507 349.643 134.08 350.123 134.72C350.603 135.36 350.963 136.04 351.203 136.76C351.469 137.48 351.603 138.227 351.603 139C351.603 140.52 351.176 141.893 350.323 143.12C349.469 144.347 348.323 145.32 346.883 146.04C345.469 146.76 343.883 147.12 342.123 147.12ZM342.123 143.12C343.109 143.12 343.989 142.933 344.763 142.56C345.563 142.187 346.189 141.68 346.643 141.04C347.096 140.4 347.323 139.667 347.323 138.84C347.323 137.96 347.096 137.187 346.643 136.52C346.189 135.827 345.563 135.28 344.763 134.88C343.989 134.48 343.109 134.28 342.123 134.28C341.136 134.28 340.256 134.48 339.483 134.88C338.709 135.28 338.096 135.827 337.643 136.52C337.189 137.187 336.963 137.96 336.963 138.84C336.963 139.64 337.189 140.36 337.643 141C338.096 141.64 338.709 142.16 339.483 142.56C340.256 142.933 341.136 143.12 342.123 143.12ZM342.123 130.44C342.976 130.44 343.736 130.28 344.403 129.96C345.096 129.64 345.629 129.213 346.003 128.68C346.403 128.12 346.603 127.48 346.603 126.76C346.603 126.04 346.403 125.4 346.003 124.84C345.629 124.28 345.096 123.84 344.403 123.52C343.736 123.173 342.976 123 342.123 123C341.269 123 340.496 123.173 339.803 123.52C339.136 123.84 338.603 124.28 338.203 124.84C337.829 125.4 337.643 126.04 337.643 126.76C337.643 127.48 337.829 128.12 338.203 128.68C338.603 129.213 339.136 129.64 339.803 129.96C340.496 130.28 341.269 130.44 342.123 130.44ZM358.207 147L369.807 121.72L370.287 123H356.127V119H373.447L374.007 121.76L362.847 147H358.207ZM379.326 147V119H383.566L393.766 135.6L391.726 135.56L402.046 119H406.046V147H401.726V135.52C401.726 133.12 401.78 130.96 401.886 129.04C402.02 127.12 402.233 125.213 402.526 123.32L403.086 124.8L393.926 138.96H391.286L382.406 124.96L382.846 123.32C383.14 125.107 383.34 126.947 383.446 128.84C383.58 130.707 383.646 132.933 383.646 135.52V147H379.326Z" fill="#1B1B1B"/>
<path d="M261.382 184.14C260.691 184.14 260.052 184.019 259.464 183.776C258.885 183.524 258.376 183.174 257.938 182.726C257.508 182.278 257.172 181.751 256.93 181.144C256.696 180.528 256.58 179.856 256.58 179.128C256.58 178.4 256.696 177.733 256.93 177.126C257.172 176.51 257.508 175.978 257.938 175.53C258.376 175.073 258.885 174.723 259.464 174.48C260.052 174.228 260.691 174.102 261.382 174.102C262.082 174.102 262.721 174.228 263.3 174.48C263.888 174.723 264.396 175.073 264.826 175.53C265.264 175.978 265.6 176.51 265.834 177.126C266.076 177.733 266.198 178.4 266.198 179.128C266.198 179.847 266.076 180.514 265.834 181.13C265.6 181.737 265.264 182.269 264.826 182.726C264.396 183.174 263.888 183.524 263.3 183.776C262.721 184.019 262.082 184.14 261.382 184.14ZM261.382 183.062C261.914 183.062 262.404 182.969 262.852 182.782C263.309 182.586 263.701 182.311 264.028 181.956C264.354 181.601 264.606 181.186 264.784 180.71C264.97 180.225 265.064 179.697 265.064 179.128C265.064 178.549 264.97 178.022 264.784 177.546C264.606 177.061 264.354 176.641 264.028 176.286C263.701 175.931 263.309 175.656 262.852 175.46C262.404 175.264 261.914 175.166 261.382 175.166C260.85 175.166 260.355 175.264 259.898 175.46C259.45 175.656 259.062 175.931 258.736 176.286C258.409 176.641 258.157 177.061 257.98 177.546C257.802 178.022 257.714 178.549 257.714 179.128C257.714 179.697 257.802 180.225 257.98 180.71C258.157 181.186 258.409 181.601 258.736 181.956C259.062 182.311 259.45 182.586 259.898 182.782C260.355 182.969 260.85 183.062 261.382 183.062ZM270.498 184.14C269.938 184.14 269.462 184.028 269.07 183.804C268.687 183.571 268.393 183.235 268.188 182.796C267.992 182.357 267.894 181.811 267.894 181.158V176.692H268.958V180.948C268.958 181.443 269.023 181.858 269.154 182.194C269.294 182.521 269.499 182.768 269.77 182.936C270.05 183.104 270.39 183.188 270.792 183.188C271.1 183.188 271.384 183.137 271.646 183.034C271.907 182.922 272.136 182.773 272.332 182.586C272.528 182.399 272.682 182.18 272.794 181.928C272.906 181.676 272.962 181.41 272.962 181.13V176.692H274.012V184H272.976L272.934 182.46L273.102 182.376C272.99 182.703 272.803 183.001 272.542 183.272C272.28 183.533 271.968 183.743 271.604 183.902C271.249 184.061 270.88 184.14 270.498 184.14ZM276.056 184V176.692H277.106L277.134 178.638L277.022 178.372C277.125 178.045 277.288 177.742 277.512 177.462C277.746 177.182 278.021 176.958 278.338 176.79C278.656 176.622 279.006 176.538 279.388 176.538C279.547 176.538 279.696 176.552 279.836 176.58C279.976 176.599 280.093 176.627 280.186 176.664L279.892 177.84C279.771 177.784 279.645 177.747 279.514 177.728C279.393 177.7 279.276 177.686 279.164 177.686C278.847 177.686 278.562 177.742 278.31 177.854C278.058 177.966 277.844 178.125 277.666 178.33C277.489 178.526 277.354 178.755 277.26 179.016C277.167 179.277 277.12 179.557 277.12 179.856V184H276.056ZM288.283 184.14C287.592 184.14 286.976 183.977 286.435 183.65C285.893 183.314 285.464 182.861 285.147 182.292C284.839 181.713 284.685 181.06 284.685 180.332C284.685 179.604 284.839 178.955 285.147 178.386C285.464 177.807 285.893 177.355 286.435 177.028C286.976 176.701 287.597 176.538 288.297 176.538C288.922 176.538 289.491 176.664 290.005 176.916C290.518 177.159 290.929 177.499 291.237 177.938L290.621 178.694C290.443 178.461 290.229 178.255 289.977 178.078C289.734 177.901 289.468 177.765 289.179 177.672C288.899 177.569 288.619 177.518 288.339 177.518C287.844 177.518 287.401 177.644 287.009 177.896C286.617 178.139 286.304 178.47 286.071 178.89C285.847 179.31 285.735 179.791 285.735 180.332C285.735 180.873 285.847 181.359 286.071 181.788C286.304 182.208 286.617 182.539 287.009 182.782C287.401 183.025 287.839 183.146 288.325 183.146C288.605 183.146 288.88 183.104 289.151 183.02C289.421 182.927 289.678 182.796 289.921 182.628C290.163 182.46 290.387 182.25 290.593 181.998L291.209 182.754C290.891 183.174 290.467 183.51 289.935 183.762C289.403 184.014 288.852 184.14 288.283 184.14ZM292.6 184V173.64H293.65V184H292.6ZM295.996 184V176.692H297.046V184H295.996ZM296.514 175.11C296.253 175.11 296.052 175.045 295.912 174.914C295.782 174.774 295.716 174.587 295.716 174.354C295.716 174.121 295.786 173.934 295.926 173.794C296.066 173.654 296.262 173.584 296.514 173.584C296.766 173.584 296.962 173.654 297.102 173.794C297.242 173.925 297.312 174.111 297.312 174.354C297.312 174.578 297.242 174.76 297.102 174.9C296.962 175.04 296.766 175.11 296.514 175.11ZM302.559 184.14C301.831 184.14 301.183 183.981 300.613 183.664C300.053 183.347 299.615 182.903 299.297 182.334C298.98 181.765 298.821 181.111 298.821 180.374C298.821 179.805 298.91 179.291 299.087 178.834C299.265 178.367 299.512 177.961 299.829 177.616C300.156 177.271 300.543 177.005 300.991 176.818C301.439 176.622 301.925 176.524 302.447 176.524C302.942 176.524 303.39 176.613 303.791 176.79C304.202 176.967 304.552 177.215 304.841 177.532C305.14 177.84 305.364 178.209 305.513 178.638C305.663 179.067 305.728 179.539 305.709 180.052L305.695 180.542H299.605L299.451 179.66H304.897L304.645 179.898V179.562C304.627 179.226 304.529 178.904 304.351 178.596C304.174 178.279 303.922 178.022 303.595 177.826C303.278 177.63 302.895 177.532 302.447 177.532C301.925 177.532 301.472 177.639 301.089 177.854C300.707 178.059 300.413 178.367 300.207 178.778C300.002 179.189 299.899 179.697 299.899 180.304C299.899 180.883 300.011 181.387 300.235 181.816C300.459 182.236 300.777 182.563 301.187 182.796C301.607 183.029 302.111 183.146 302.699 183.146C303.045 183.146 303.385 183.09 303.721 182.978C304.067 182.857 304.445 182.623 304.855 182.278L305.401 183.034C305.187 183.249 304.93 183.44 304.631 183.608C304.333 183.767 304.006 183.897 303.651 184C303.297 184.093 302.933 184.14 302.559 184.14ZM307.201 184V176.692H308.237L308.279 178.218L308.111 178.288C308.204 177.971 308.386 177.681 308.657 177.42C308.927 177.159 309.249 176.949 309.623 176.79C310.005 176.622 310.397 176.538 310.799 176.538C311.34 176.538 311.793 176.645 312.157 176.86C312.521 177.075 312.796 177.406 312.983 177.854C313.169 178.302 313.263 178.871 313.263 179.562V184H312.199V179.618C312.199 179.133 312.133 178.736 312.003 178.428C311.881 178.111 311.69 177.877 311.429 177.728C311.167 177.579 310.845 177.509 310.463 177.518C310.145 177.518 309.851 177.574 309.581 177.686C309.31 177.789 309.077 177.933 308.881 178.12C308.685 178.307 308.531 178.521 308.419 178.764C308.307 179.007 308.251 179.268 308.251 179.548V184H307.733C307.667 184 307.593 184 307.509 184C307.425 184 307.322 184 307.201 184ZM316.275 184V174.774H317.325V184H316.275ZM314.623 177.7V176.692H319.173V177.7H314.623ZM323.13 184.14C322.505 184.14 321.945 184.023 321.45 183.79C320.955 183.557 320.563 183.249 320.274 182.866L321.016 182.222C321.287 182.549 321.604 182.796 321.968 182.964C322.341 183.132 322.757 183.216 323.214 183.216C323.447 183.216 323.657 183.193 323.844 183.146C324.031 183.09 324.194 183.011 324.334 182.908C324.474 182.805 324.581 182.684 324.656 182.544C324.731 182.404 324.768 182.25 324.768 182.082C324.768 181.774 324.633 181.517 324.362 181.312C324.241 181.228 324.068 181.144 323.844 181.06C323.62 180.967 323.349 180.878 323.032 180.794C322.509 180.645 322.075 180.495 321.73 180.346C321.385 180.187 321.114 180.005 320.918 179.8C320.778 179.632 320.671 179.45 320.596 179.254C320.531 179.058 320.498 178.843 320.498 178.61C320.498 178.311 320.559 178.036 320.68 177.784C320.811 177.532 320.988 177.313 321.212 177.126C321.445 176.93 321.716 176.785 322.024 176.692C322.341 176.589 322.682 176.538 323.046 176.538C323.391 176.538 323.732 176.585 324.068 176.678C324.404 176.771 324.717 176.907 325.006 177.084C325.295 177.261 325.543 177.471 325.748 177.714L325.104 178.414C324.927 178.227 324.731 178.059 324.516 177.91C324.301 177.761 324.073 177.644 323.83 177.56C323.597 177.476 323.354 177.434 323.102 177.434C322.878 177.434 322.668 177.462 322.472 177.518C322.285 177.574 322.122 177.653 321.982 177.756C321.851 177.849 321.749 177.966 321.674 178.106C321.609 178.246 321.576 178.4 321.576 178.568C321.576 178.708 321.604 178.834 321.66 178.946C321.716 179.058 321.795 179.156 321.898 179.24C322.029 179.343 322.211 179.441 322.444 179.534C322.687 179.618 322.985 179.707 323.34 179.8C323.751 179.912 324.096 180.029 324.376 180.15C324.665 180.262 324.903 180.397 325.09 180.556C325.342 180.743 325.519 180.957 325.622 181.2C325.734 181.443 325.79 181.718 325.79 182.026C325.79 182.437 325.673 182.801 325.44 183.118C325.216 183.435 324.903 183.687 324.502 183.874C324.101 184.051 323.643 184.14 323.13 184.14ZM334.579 184.14C333.851 184.14 333.202 183.981 332.633 183.664C332.073 183.347 331.634 182.903 331.317 182.334C331 181.765 330.841 181.111 330.841 180.374C330.841 179.805 330.93 179.291 331.107 178.834C331.284 178.367 331.532 177.961 331.849 177.616C332.176 177.271 332.563 177.005 333.011 176.818C333.459 176.622 333.944 176.524 334.467 176.524C334.962 176.524 335.41 176.613 335.811 176.79C336.222 176.967 336.572 177.215 336.861 177.532C337.16 177.84 337.384 178.209 337.533 178.638C337.682 179.067 337.748 179.539 337.729 180.052L337.715 180.542H331.625L331.471 179.66H336.917L336.665 179.898V179.562C336.646 179.226 336.548 178.904 336.371 178.596C336.194 178.279 335.942 178.022 335.615 177.826C335.298 177.63 334.915 177.532 334.467 177.532C333.944 177.532 333.492 177.639 333.109 177.854C332.726 178.059 332.432 178.367 332.227 178.778C332.022 179.189 331.919 179.697 331.919 180.304C331.919 180.883 332.031 181.387 332.255 181.816C332.479 182.236 332.796 182.563 333.207 182.796C333.627 183.029 334.131 183.146 334.719 183.146C335.064 183.146 335.405 183.09 335.741 182.978C336.086 182.857 336.464 182.623 336.875 182.278L337.421 183.034C337.206 183.249 336.95 183.44 336.651 183.608C336.352 183.767 336.026 183.897 335.671 184C335.316 184.093 334.952 184.14 334.579 184.14ZM342.076 184.14C341.442 184.14 340.868 183.977 340.354 183.65C339.841 183.314 339.435 182.861 339.136 182.292C338.838 181.713 338.688 181.06 338.688 180.332C338.688 179.595 338.842 178.941 339.15 178.372C339.458 177.803 339.869 177.355 340.382 177.028C340.905 176.701 341.488 176.538 342.132 176.538C342.515 176.538 342.87 176.594 343.196 176.706C343.523 176.818 343.812 176.977 344.064 177.182C344.326 177.378 344.54 177.611 344.708 177.882C344.886 178.143 345.007 178.428 345.072 178.736L344.764 178.582L344.806 176.692H345.856V184H344.792V182.208L345.072 182.026C345.007 182.306 344.881 182.577 344.694 182.838C344.508 183.09 344.279 183.314 344.008 183.51C343.747 183.706 343.448 183.86 343.112 183.972C342.786 184.084 342.44 184.14 342.076 184.14ZM342.314 183.132C342.8 183.132 343.234 183.015 343.616 182.782C343.999 182.539 344.298 182.208 344.512 181.788C344.736 181.359 344.848 180.873 344.848 180.332C344.848 179.791 344.736 179.31 344.512 178.89C344.298 178.47 343.999 178.139 343.616 177.896C343.234 177.653 342.8 177.532 342.314 177.532C341.82 177.532 341.381 177.653 340.998 177.896C340.625 178.139 340.326 178.47 340.102 178.89C339.888 179.31 339.78 179.791 339.78 180.332C339.78 180.864 339.888 181.345 340.102 181.774C340.317 182.194 340.616 182.525 340.998 182.768C341.381 183.011 341.82 183.132 342.314 183.132ZM347.902 184V176.692H348.952L348.98 178.638L348.868 178.372C348.971 178.045 349.134 177.742 349.358 177.462C349.591 177.182 349.867 176.958 350.184 176.79C350.501 176.622 350.851 176.538 351.234 176.538C351.393 176.538 351.542 176.552 351.682 176.58C351.822 176.599 351.939 176.627 352.032 176.664L351.738 177.84C351.617 177.784 351.491 177.747 351.36 177.728C351.239 177.7 351.122 177.686 351.01 177.686C350.693 177.686 350.408 177.742 350.156 177.854C349.904 177.966 349.689 178.125 349.512 178.33C349.335 178.526 349.199 178.755 349.106 179.016C349.013 179.277 348.966 179.557 348.966 179.856V184H347.902ZM353.125 184V176.692H354.161L354.203 178.218L354.035 178.288C354.128 177.971 354.31 177.681 354.581 177.42C354.851 177.159 355.173 176.949 355.547 176.79C355.929 176.622 356.321 176.538 356.723 176.538C357.264 176.538 357.717 176.645 358.081 176.86C358.445 177.075 358.72 177.406 358.907 177.854C359.093 178.302 359.187 178.871 359.187 179.562V184H358.123V179.618C358.123 179.133 358.057 178.736 357.927 178.428C357.805 178.111 357.614 177.877 357.353 177.728C357.091 177.579 356.769 177.509 356.387 177.518C356.069 177.518 355.775 177.574 355.505 177.686C355.234 177.789 355.001 177.933 354.805 178.12C354.609 178.307 354.455 178.521 354.343 178.764C354.231 179.007 354.175 179.268 354.175 179.548V184H353.657C353.591 184 353.517 184 353.433 184C353.349 184 353.246 184 353.125 184ZM364.411 184.14C363.683 184.14 363.034 183.981 362.465 183.664C361.905 183.347 361.466 182.903 361.149 182.334C360.832 181.765 360.673 181.111 360.673 180.374C360.673 179.805 360.762 179.291 360.939 178.834C361.116 178.367 361.364 177.961 361.681 177.616C362.008 177.271 362.395 177.005 362.843 176.818C363.291 176.622 363.776 176.524 364.299 176.524C364.794 176.524 365.242 176.613 365.643 176.79C366.054 176.967 366.404 177.215 366.693 177.532C366.992 177.84 367.216 178.209 367.365 178.638C367.514 179.067 367.58 179.539 367.561 180.052L367.547 180.542H361.457L361.303 179.66H366.749L366.497 179.898V179.562C366.478 179.226 366.38 178.904 366.203 178.596C366.026 178.279 365.774 178.022 365.447 177.826C365.13 177.63 364.747 177.532 364.299 177.532C363.776 177.532 363.324 177.639 362.941 177.854C362.558 178.059 362.264 178.367 362.059 178.778C361.854 179.189 361.751 179.697 361.751 180.304C361.751 180.883 361.863 181.387 362.087 181.816C362.311 182.236 362.628 182.563 363.039 182.796C363.459 183.029 363.963 183.146 364.551 183.146C364.896 183.146 365.237 183.09 365.573 182.978C365.918 182.857 366.296 182.623 366.707 182.278L367.253 183.034C367.038 183.249 366.782 183.44 366.483 183.608C366.184 183.767 365.858 183.897 365.503 184C365.148 184.093 364.784 184.14 364.411 184.14ZM372.02 184.14C371.358 184.14 370.76 183.977 370.228 183.65C369.706 183.323 369.29 182.875 368.982 182.306C368.684 181.727 368.534 181.074 368.534 180.346C368.534 179.609 368.688 178.955 368.996 178.386C369.304 177.807 369.72 177.355 370.242 177.028C370.765 176.701 371.353 176.538 372.006 176.538C372.37 176.538 372.72 176.594 373.056 176.706C373.402 176.818 373.71 176.977 373.98 177.182C374.251 177.378 374.475 177.607 374.652 177.868C374.83 178.12 374.937 178.386 374.974 178.666L374.652 178.554V173.64H375.702V184H374.666L374.638 182.18L374.904 182.082C374.867 182.343 374.76 182.6 374.582 182.852C374.414 183.095 374.2 183.314 373.938 183.51C373.677 183.706 373.378 183.86 373.042 183.972C372.716 184.084 372.375 184.14 372.02 184.14ZM372.174 183.174C372.66 183.174 373.094 183.053 373.476 182.81C373.859 182.567 374.158 182.231 374.372 181.802C374.596 181.373 374.708 180.883 374.708 180.332C374.708 179.781 374.596 179.296 374.372 178.876C374.158 178.447 373.859 178.111 373.476 177.868C373.094 177.616 372.66 177.49 372.174 177.49C371.67 177.49 371.227 177.616 370.844 177.868C370.471 178.111 370.172 178.447 369.948 178.876C369.734 179.296 369.626 179.781 369.626 180.332C369.626 180.873 369.734 181.359 369.948 181.788C370.163 182.217 370.462 182.558 370.844 182.81C371.227 183.053 371.67 183.174 372.174 183.174ZM383.393 184L380.859 176.692L381.979 176.678L383.953 182.628L383.603 182.6L385.745 177.812H386.375L388.531 182.6L388.111 182.628L390.127 176.692H391.233L388.699 184H388.083L385.815 178.792L386.235 178.82L384.037 184H383.393ZM392.752 184V176.692H393.802V184H392.752ZM393.27 175.11C393.009 175.11 392.808 175.045 392.668 174.914C392.538 174.774 392.472 174.587 392.472 174.354C392.472 174.121 392.542 173.934 392.682 173.794C392.822 173.654 393.018 173.584 393.27 173.584C393.522 173.584 393.718 173.654 393.858 173.794C393.998 173.925 394.068 174.111 394.068 174.354C394.068 174.578 393.998 174.76 393.858 174.9C393.718 175.04 393.522 175.11 393.27 175.11ZM397.103 184V174.774H398.153V184H397.103ZM395.451 177.7V176.692H400.001V177.7H395.451ZM401.291 184V173.64H402.341V178.288L402.131 178.498C402.233 178.115 402.425 177.779 402.705 177.49C402.985 177.191 403.311 176.958 403.685 176.79C404.067 176.622 404.455 176.538 404.847 176.538C405.407 176.538 405.873 176.645 406.247 176.86C406.62 177.075 406.895 177.406 407.073 177.854C407.259 178.302 407.353 178.871 407.353 179.562V184H406.289V179.618C406.289 179.133 406.223 178.736 406.093 178.428C405.971 178.111 405.78 177.877 405.519 177.728C405.257 177.579 404.931 177.509 404.539 177.518C404.231 177.518 403.941 177.574 403.671 177.686C403.4 177.789 403.167 177.933 402.971 178.12C402.775 178.307 402.621 178.521 402.509 178.764C402.397 179.007 402.341 179.268 402.341 179.548V184H401.823C401.757 184 401.683 184 401.599 184C401.515 184 401.412 184 401.291 184ZM415.871 184.14C415.311 184.14 414.835 184.028 414.443 183.804C414.06 183.571 413.766 183.235 413.561 182.796C413.365 182.357 413.267 181.811 413.267 181.158V176.692H414.331V180.948C414.331 181.443 414.396 181.858 414.527 182.194C414.667 182.521 414.872 182.768 415.143 182.936C415.423 183.104 415.763 183.188 416.165 183.188C416.473 183.188 416.757 183.137 417.019 183.034C417.28 182.922 417.509 182.773 417.705 182.586C417.901 182.399 418.055 182.18 418.167 181.928C418.279 181.676 418.335 181.41 418.335 181.13V176.692H419.385V184H418.349L418.307 182.46L418.475 182.376C418.363 182.703 418.176 183.001 417.915 183.272C417.653 183.533 417.341 183.743 416.977 183.902C416.622 184.061 416.253 184.14 415.871 184.14ZM423.823 184.14C423.198 184.14 422.638 184.023 422.143 183.79C421.649 183.557 421.257 183.249 420.967 182.866L421.709 182.222C421.98 182.549 422.297 182.796 422.661 182.964C423.035 183.132 423.45 183.216 423.907 183.216C424.141 183.216 424.351 183.193 424.537 183.146C424.724 183.09 424.887 183.011 425.027 182.908C425.167 182.805 425.275 182.684 425.349 182.544C425.424 182.404 425.461 182.25 425.461 182.082C425.461 181.774 425.326 181.517 425.055 181.312C424.934 181.228 424.761 181.144 424.537 181.06C424.313 180.967 424.043 180.878 423.725 180.794C423.203 180.645 422.769 180.495 422.423 180.346C422.078 180.187 421.807 180.005 421.611 179.8C421.471 179.632 421.364 179.45 421.289 179.254C421.224 179.058 421.191 178.843 421.191 178.61C421.191 178.311 421.252 178.036 421.373 177.784C421.504 177.532 421.681 177.313 421.905 177.126C422.139 176.93 422.409 176.785 422.717 176.692C423.035 176.589 423.375 176.538 423.739 176.538C424.085 176.538 424.425 176.585 424.761 176.678C425.097 176.771 425.41 176.907 425.699 177.084C425.989 177.261 426.236 177.471 426.441 177.714L425.797 178.414C425.62 178.227 425.424 178.059 425.209 177.91C424.995 177.761 424.766 177.644 424.523 177.56C424.29 177.476 424.047 177.434 423.795 177.434C423.571 177.434 423.361 177.462 423.165 177.518C422.979 177.574 422.815 177.653 422.675 177.756C422.545 177.849 422.442 177.966 422.367 178.106C422.302 178.246 422.269 178.4 422.269 178.568C422.269 178.708 422.297 178.834 422.353 178.946C422.409 179.058 422.489 179.156 422.591 179.24C422.722 179.343 422.904 179.441 423.137 179.534C423.38 179.618 423.679 179.707 424.033 179.8C424.444 179.912 424.789 180.029 425.069 180.15C425.359 180.262 425.597 180.397 425.783 180.556C426.035 180.743 426.213 180.957 426.315 181.2C426.427 181.443 426.483 181.718 426.483 182.026C426.483 182.437 426.367 182.801 426.133 183.118C425.909 183.435 425.597 183.687 425.195 183.874C424.794 184.051 424.337 184.14 423.823 184.14Z" fill="#4D4E52"/>
</svg>
