<svg width="448" height="485" viewBox="0 0 448 485" fill="none" xmlns="http://www.w3.org/2000/svg">
<rect y="53" width="376" height="188" fill="#F8F9FA"/>
<path d="M135.106 153.134V130.414L136.586 131.534L131.066 134.454L129.906 130.694L137.386 126.694H139.466V153.134H135.106ZM130.666 155.094V150.934H144.026V155.094H130.666ZM149.946 162.254L148.426 160.414C149.359 159.881 150.119 159.268 150.706 158.574C151.293 157.881 151.586 157.281 151.586 156.774C151.586 156.508 151.519 156.241 151.386 155.974C151.253 155.734 150.973 155.388 150.546 154.934C150.013 154.428 149.666 154.001 149.506 153.654C149.346 153.308 149.266 152.934 149.266 152.534C149.266 151.894 149.493 151.388 149.946 151.014C150.399 150.614 150.986 150.414 151.706 150.414C152.373 150.414 152.973 150.614 153.506 151.014C154.066 151.388 154.493 151.921 154.786 152.614C155.106 153.281 155.266 154.054 155.266 154.934C155.266 155.734 155.133 156.508 154.866 157.254C154.599 158.001 154.226 158.694 153.746 159.334C153.266 159.974 152.706 160.548 152.066 161.054C151.426 161.561 150.719 161.961 149.946 162.254ZM166.21 155.094L166.05 154.694L174.37 137.014L174.49 140.334C174.01 141.134 173.477 141.841 172.89 142.454C172.33 143.068 171.703 143.601 171.01 144.054C170.343 144.481 169.65 144.814 168.93 145.054C168.21 145.268 167.477 145.374 166.73 145.374C165.21 145.374 163.81 144.974 162.53 144.174C161.25 143.374 160.223 142.308 159.45 140.974C158.677 139.641 158.29 138.188 158.29 136.614C158.29 134.721 158.717 133.028 159.57 131.534C160.423 130.014 161.583 128.814 163.05 127.934C164.543 127.054 166.21 126.614 168.05 126.614C169.383 126.614 170.637 126.854 171.81 127.334C172.983 127.814 174.01 128.494 174.89 129.374C175.77 130.228 176.463 131.228 176.97 132.374C177.477 133.494 177.73 134.694 177.73 135.974C177.73 136.641 177.663 137.361 177.53 138.134C177.397 138.881 177.17 139.734 176.85 140.694C176.557 141.628 176.157 142.708 175.65 143.934C175.143 145.134 174.517 146.534 173.77 148.134L170.45 155.094H166.21ZM167.65 141.374C168.69 141.374 169.623 141.148 170.45 140.694C171.277 140.214 171.917 139.588 172.37 138.814C172.85 138.014 173.09 137.121 173.09 136.134C173.09 135.094 172.863 134.161 172.41 133.334C171.957 132.481 171.317 131.814 170.49 131.334C169.69 130.854 168.77 130.614 167.73 130.614C166.77 130.614 165.917 130.854 165.17 131.334C164.423 131.788 163.823 132.428 163.37 133.254C162.943 134.054 162.73 135.001 162.73 136.094C162.73 137.028 162.943 137.894 163.37 138.694C163.823 139.494 164.423 140.148 165.17 140.654C165.917 141.134 166.743 141.374 167.65 141.374ZM191.241 155.494C189.108 155.494 187.268 154.908 185.721 153.734C184.201 152.561 183.028 150.908 182.201 148.774C181.374 146.614 180.961 144.054 180.961 141.094C180.961 138.134 181.374 135.588 182.201 133.454C183.028 131.294 184.201 129.628 185.721 128.454C187.268 127.281 189.108 126.694 191.241 126.694C193.374 126.694 195.214 127.281 196.761 128.454C198.308 129.628 199.494 131.294 200.321 133.454C201.148 135.588 201.561 138.134 201.561 141.094C201.561 144.054 201.148 146.614 200.321 148.774C199.494 150.908 198.308 152.561 196.761 153.734C195.214 154.908 193.374 155.494 191.241 155.494ZM191.241 151.574C193.188 151.574 194.694 150.668 195.761 148.854C196.828 147.014 197.361 144.428 197.361 141.094C197.361 137.761 196.828 135.188 195.761 133.374C194.694 131.534 193.188 130.614 191.241 130.614C189.294 130.614 187.788 131.534 186.721 133.374C185.654 135.188 185.121 137.761 185.121 141.094C185.121 144.428 185.654 147.014 186.721 148.854C187.788 150.668 189.294 151.574 191.241 151.574ZM215.538 155.494C213.405 155.494 211.565 154.908 210.018 153.734C208.498 152.561 207.325 150.908 206.498 148.774C205.671 146.614 205.258 144.054 205.258 141.094C205.258 138.134 205.671 135.588 206.498 133.454C207.325 131.294 208.498 129.628 210.018 128.454C211.565 127.281 213.405 126.694 215.538 126.694C217.671 126.694 219.511 127.281 221.058 128.454C222.605 129.628 223.791 131.294 224.618 133.454C225.445 135.588 225.858 138.134 225.858 141.094C225.858 144.054 225.445 146.614 224.618 148.774C223.791 150.908 222.605 152.561 221.058 153.734C219.511 154.908 217.671 155.494 215.538 155.494ZM215.538 151.574C217.485 151.574 218.991 150.668 220.058 148.854C221.125 147.014 221.658 144.428 221.658 141.094C221.658 137.761 221.125 135.188 220.058 133.374C218.991 131.534 217.485 130.614 215.538 130.614C213.591 130.614 212.085 131.534 211.018 133.374C209.951 135.188 209.418 137.761 209.418 141.094C209.418 144.428 209.951 147.014 211.018 148.854C212.085 150.668 213.591 151.574 215.538 151.574ZM229.515 145.694V142.094H249.555V145.694H229.515ZM237.395 153.414V134.094H241.595V153.414H237.395Z" fill="#1B1B1B"/>
<path d="M136.899 184.17V174.37H137.963L141.729 180.488L141.225 180.474L145.033 174.37H146.027V184.17H144.935V179.69C144.935 178.85 144.949 178.094 144.977 177.422C145.005 176.75 145.056 176.082 145.131 175.42L145.327 175.812L141.813 181.328H141.057L137.641 175.882L137.795 175.42C137.87 176.045 137.921 176.689 137.949 177.352C137.977 178.005 137.991 178.784 137.991 179.69V184.17H136.899ZM151.717 184.31C150.989 184.31 150.34 184.151 149.771 183.834C149.211 183.516 148.772 183.073 148.455 182.504C148.137 181.934 147.979 181.281 147.979 180.544C147.979 179.974 148.067 179.461 148.245 179.004C148.422 178.537 148.669 178.131 148.987 177.786C149.313 177.44 149.701 177.174 150.149 176.988C150.597 176.792 151.082 176.694 151.605 176.694C152.099 176.694 152.547 176.782 152.949 176.96C153.359 177.137 153.709 177.384 153.999 177.702C154.297 178.01 154.521 178.378 154.671 178.808C154.82 179.237 154.885 179.708 154.867 180.222L154.853 180.712H148.763L148.609 179.83H154.055L153.803 180.068V179.732C153.784 179.396 153.686 179.074 153.509 178.766C153.331 178.448 153.079 178.192 152.753 177.996C152.435 177.8 152.053 177.702 151.605 177.702C151.082 177.702 150.629 177.809 150.247 178.024C149.864 178.229 149.57 178.537 149.365 178.948C149.159 179.358 149.057 179.867 149.057 180.474C149.057 181.052 149.169 181.556 149.393 181.986C149.617 182.406 149.934 182.732 150.345 182.966C150.765 183.199 151.269 183.316 151.857 183.316C152.202 183.316 152.543 183.26 152.879 183.148C153.224 183.026 153.602 182.793 154.013 182.448L154.559 183.204C154.344 183.418 154.087 183.61 153.789 183.778C153.49 183.936 153.163 184.067 152.809 184.17C152.454 184.263 152.09 184.31 151.717 184.31ZM159.578 184.31C158.85 184.31 158.201 184.151 157.632 183.834C157.072 183.516 156.633 183.073 156.316 182.504C155.999 181.934 155.84 181.281 155.84 180.544C155.84 179.974 155.929 179.461 156.106 179.004C156.283 178.537 156.531 178.131 156.848 177.786C157.175 177.44 157.562 177.174 158.01 176.988C158.458 176.792 158.943 176.694 159.466 176.694C159.961 176.694 160.409 176.782 160.81 176.96C161.221 177.137 161.571 177.384 161.86 177.702C162.159 178.01 162.383 178.378 162.532 178.808C162.681 179.237 162.747 179.708 162.728 180.222L162.714 180.712H156.624L156.47 179.83H161.916L161.664 180.068V179.732C161.645 179.396 161.547 179.074 161.37 178.766C161.193 178.448 160.941 178.192 160.614 177.996C160.297 177.8 159.914 177.702 159.466 177.702C158.943 177.702 158.491 177.809 158.108 178.024C157.725 178.229 157.431 178.537 157.226 178.948C157.021 179.358 156.918 179.867 156.918 180.474C156.918 181.052 157.03 181.556 157.254 181.986C157.478 182.406 157.795 182.732 158.206 182.966C158.626 183.199 159.13 183.316 159.718 183.316C160.063 183.316 160.404 183.26 160.74 183.148C161.085 183.026 161.463 182.793 161.874 182.448L162.42 183.204C162.205 183.418 161.949 183.61 161.65 183.778C161.351 183.936 161.025 184.067 160.67 184.17C160.315 184.263 159.951 184.31 159.578 184.31ZM165.227 184.17V174.944H166.277V184.17H165.227ZM163.575 177.87V176.862H168.125V177.87H163.575ZM169.695 184.17V176.862H170.745V184.17H169.695ZM170.213 175.28C169.951 175.28 169.751 175.214 169.611 175.084C169.48 174.944 169.415 174.757 169.415 174.524C169.415 174.29 169.485 174.104 169.625 173.964C169.765 173.824 169.961 173.754 170.213 173.754C170.465 173.754 170.661 173.824 170.801 173.964C170.941 174.094 171.011 174.281 171.011 174.524C171.011 174.748 170.941 174.93 170.801 175.07C170.661 175.21 170.465 175.28 170.213 175.28ZM173.038 184.17V176.862H174.074L174.116 178.388L173.948 178.458C174.041 178.14 174.223 177.851 174.494 177.59C174.764 177.328 175.086 177.118 175.46 176.96C175.842 176.792 176.234 176.708 176.636 176.708C177.177 176.708 177.63 176.815 177.994 177.03C178.358 177.244 178.633 177.576 178.82 178.024C179.006 178.472 179.1 179.041 179.1 179.732V184.17H178.036V179.788C178.036 179.302 177.97 178.906 177.84 178.598C177.718 178.28 177.527 178.047 177.266 177.898C177.004 177.748 176.682 177.678 176.3 177.688C175.982 177.688 175.688 177.744 175.418 177.856C175.147 177.958 174.914 178.103 174.718 178.29C174.522 178.476 174.368 178.691 174.256 178.934C174.144 179.176 174.088 179.438 174.088 179.718V184.17H173.57C173.504 184.17 173.43 184.17 173.346 184.17C173.262 184.17 173.159 184.17 173.038 184.17ZM184.254 187.39C183.713 187.39 183.199 187.306 182.714 187.138C182.229 186.97 181.827 186.76 181.51 186.508L181.93 185.626C182.117 185.775 182.331 185.906 182.574 186.018C182.826 186.139 183.097 186.232 183.386 186.298C183.675 186.372 183.969 186.41 184.268 186.41C184.809 186.41 185.267 186.307 185.64 186.102C186.023 185.906 186.312 185.612 186.508 185.22C186.713 184.828 186.816 184.342 186.816 183.764V182.364L186.984 182.322C186.9 182.676 186.718 183.008 186.438 183.316C186.158 183.614 185.817 183.857 185.416 184.044C185.015 184.221 184.59 184.31 184.142 184.31C183.461 184.31 182.849 184.146 182.308 183.82C181.776 183.493 181.356 183.045 181.048 182.476C180.74 181.897 180.586 181.244 180.586 180.516C180.586 179.778 180.74 179.125 181.048 178.556C181.365 177.977 181.79 177.524 182.322 177.198C182.854 176.871 183.451 176.708 184.114 176.708C184.403 176.708 184.683 176.745 184.954 176.82C185.225 176.885 185.472 176.983 185.696 177.114C185.929 177.244 186.139 177.394 186.326 177.562C186.513 177.73 186.667 177.912 186.788 178.108C186.919 178.304 187.012 178.504 187.068 178.71L186.774 178.668L186.816 176.862H187.866V183.722C187.866 184.31 187.782 184.828 187.614 185.276C187.446 185.733 187.199 186.116 186.872 186.424C186.555 186.741 186.172 186.979 185.724 187.138C185.285 187.306 184.795 187.39 184.254 187.39ZM184.268 183.302C184.763 183.302 185.201 183.185 185.584 182.952C185.976 182.709 186.284 182.378 186.508 181.958C186.732 181.538 186.844 181.052 186.844 180.502C186.844 179.96 186.732 179.48 186.508 179.06C186.293 178.64 185.99 178.308 185.598 178.066C185.206 177.823 184.763 177.702 184.268 177.702C183.764 177.702 183.316 177.823 182.924 178.066C182.541 178.308 182.238 178.64 182.014 179.06C181.79 179.48 181.678 179.96 181.678 180.502C181.678 181.034 181.785 181.514 182 181.944C182.224 182.364 182.527 182.695 182.91 182.938C183.302 183.18 183.755 183.302 184.268 183.302ZM192.166 184.31C191.541 184.31 190.981 184.193 190.486 183.96C189.991 183.726 189.599 183.418 189.31 183.036L190.052 182.392C190.323 182.718 190.64 182.966 191.004 183.134C191.377 183.302 191.793 183.386 192.25 183.386C192.483 183.386 192.693 183.362 192.88 183.316C193.067 183.26 193.23 183.18 193.37 183.078C193.51 182.975 193.617 182.854 193.692 182.714C193.767 182.574 193.804 182.42 193.804 182.252C193.804 181.944 193.669 181.687 193.398 181.482C193.277 181.398 193.104 181.314 192.88 181.23C192.656 181.136 192.385 181.048 192.068 180.964C191.545 180.814 191.111 180.665 190.766 180.516C190.421 180.357 190.15 180.175 189.954 179.97C189.814 179.802 189.707 179.62 189.632 179.424C189.567 179.228 189.534 179.013 189.534 178.78C189.534 178.481 189.595 178.206 189.716 177.954C189.847 177.702 190.024 177.482 190.248 177.296C190.481 177.1 190.752 176.955 191.06 176.862C191.377 176.759 191.718 176.708 192.082 176.708C192.427 176.708 192.768 176.754 193.104 176.848C193.44 176.941 193.753 177.076 194.042 177.254C194.331 177.431 194.579 177.641 194.784 177.884L194.14 178.584C193.963 178.397 193.767 178.229 193.552 178.08C193.337 177.93 193.109 177.814 192.866 177.73C192.633 177.646 192.39 177.604 192.138 177.604C191.914 177.604 191.704 177.632 191.508 177.688C191.321 177.744 191.158 177.823 191.018 177.926C190.887 178.019 190.785 178.136 190.71 178.276C190.645 178.416 190.612 178.57 190.612 178.738C190.612 178.878 190.64 179.004 190.696 179.116C190.752 179.228 190.831 179.326 190.934 179.41C191.065 179.512 191.247 179.61 191.48 179.704C191.723 179.788 192.021 179.876 192.376 179.97C192.787 180.082 193.132 180.198 193.412 180.32C193.701 180.432 193.939 180.567 194.126 180.726C194.378 180.912 194.555 181.127 194.658 181.37C194.77 181.612 194.826 181.888 194.826 182.196C194.826 182.606 194.709 182.97 194.476 183.288C194.252 183.605 193.939 183.857 193.538 184.044C193.137 184.221 192.679 184.31 192.166 184.31ZM203.671 184.31C203.176 184.31 202.71 184.24 202.271 184.1C201.832 183.96 201.431 183.75 201.067 183.47C200.703 183.19 200.381 182.844 200.101 182.434L200.857 181.594C201.296 182.219 201.744 182.658 202.201 182.91C202.668 183.162 203.19 183.288 203.769 183.288C204.189 183.288 204.572 183.218 204.917 183.078C205.262 182.938 205.533 182.742 205.729 182.49C205.925 182.238 206.023 181.948 206.023 181.622C206.023 181.407 205.986 181.216 205.911 181.048C205.846 180.88 205.743 180.73 205.603 180.6C205.463 180.469 205.29 180.352 205.085 180.25C204.88 180.147 204.642 180.054 204.371 179.97C204.11 179.886 203.816 179.802 203.489 179.718C203.013 179.606 202.593 179.475 202.229 179.326C201.874 179.167 201.571 178.976 201.319 178.752C201.076 178.528 200.89 178.271 200.759 177.982C200.638 177.683 200.577 177.333 200.577 176.932C200.577 176.549 200.656 176.194 200.815 175.868C200.983 175.541 201.212 175.261 201.501 175.028C201.79 174.785 202.131 174.598 202.523 174.468C202.915 174.337 203.335 174.272 203.783 174.272C204.287 174.272 204.735 174.342 205.127 174.482C205.528 174.612 205.883 174.808 206.191 175.07C206.499 175.331 206.765 175.644 206.989 176.008L206.219 176.764C206.023 176.456 205.799 176.19 205.547 175.966C205.304 175.742 205.034 175.574 204.735 175.462C204.446 175.34 204.124 175.28 203.769 175.28C203.358 175.28 202.994 175.35 202.677 175.49C202.369 175.63 202.126 175.826 201.949 176.078C201.772 176.32 201.683 176.6 201.683 176.918C201.683 177.151 201.725 177.361 201.809 177.548C201.893 177.725 202.024 177.884 202.201 178.024C202.388 178.154 202.626 178.276 202.915 178.388C203.214 178.49 203.568 178.588 203.979 178.682C204.464 178.794 204.898 178.929 205.281 179.088C205.673 179.246 206.004 179.438 206.275 179.662C206.555 179.876 206.765 180.128 206.905 180.418C207.054 180.707 207.129 181.038 207.129 181.412C207.129 181.99 206.984 182.499 206.695 182.938C206.406 183.367 206 183.703 205.477 183.946C204.964 184.188 204.362 184.31 203.671 184.31ZM212.147 184.31C211.419 184.31 210.77 184.146 210.201 183.82C209.641 183.493 209.197 183.04 208.871 182.462C208.553 181.883 208.395 181.225 208.395 180.488C208.395 179.76 208.553 179.111 208.871 178.542C209.197 177.972 209.641 177.524 210.201 177.198C210.77 176.871 211.419 176.708 212.147 176.708C212.865 176.708 213.505 176.871 214.065 177.198C214.634 177.524 215.077 177.972 215.395 178.542C215.721 179.111 215.885 179.76 215.885 180.488C215.885 181.225 215.721 181.883 215.395 182.462C215.077 183.04 214.634 183.493 214.065 183.82C213.505 184.146 212.865 184.31 212.147 184.31ZM212.147 183.316C212.66 183.316 213.117 183.194 213.519 182.952C213.92 182.7 214.233 182.364 214.457 181.944C214.681 181.514 214.793 181.029 214.793 180.488C214.793 179.946 214.681 179.466 214.457 179.046C214.233 178.626 213.92 178.299 213.519 178.066C213.117 177.823 212.66 177.702 212.147 177.702C211.633 177.702 211.171 177.823 210.761 178.066C210.359 178.299 210.042 178.63 209.809 179.06C209.585 179.48 209.477 179.956 209.487 180.488C209.477 181.029 209.585 181.514 209.809 181.944C210.042 182.364 210.359 182.7 210.761 182.952C211.171 183.194 211.633 183.316 212.147 183.316ZM221.76 184.17V174.37H222.852V184.17H221.76ZM222.306 179.802V178.724H227.262V179.802H222.306ZM222.306 175.434V174.37H227.92V175.434H222.306ZM232.29 184.31C231.656 184.31 231.082 184.146 230.568 183.82C230.055 183.484 229.649 183.031 229.35 182.462C229.052 181.883 228.902 181.23 228.902 180.502C228.902 179.764 229.056 179.111 229.364 178.542C229.672 177.972 230.083 177.524 230.596 177.198C231.119 176.871 231.702 176.708 232.346 176.708C232.729 176.708 233.084 176.764 233.41 176.876C233.737 176.988 234.026 177.146 234.278 177.352C234.54 177.548 234.754 177.781 234.922 178.052C235.1 178.313 235.221 178.598 235.286 178.906L234.978 178.752L235.02 176.862H236.07V184.17H235.006V182.378L235.286 182.196C235.221 182.476 235.095 182.746 234.908 183.008C234.722 183.26 234.493 183.484 234.222 183.68C233.961 183.876 233.662 184.03 233.326 184.142C233 184.254 232.654 184.31 232.29 184.31ZM232.528 183.302C233.014 183.302 233.448 183.185 233.83 182.952C234.213 182.709 234.512 182.378 234.726 181.958C234.95 181.528 235.062 181.043 235.062 180.502C235.062 179.96 234.95 179.48 234.726 179.06C234.512 178.64 234.213 178.308 233.83 178.066C233.448 177.823 233.014 177.702 232.528 177.702C232.034 177.702 231.595 177.823 231.212 178.066C230.839 178.308 230.54 178.64 230.316 179.06C230.102 179.48 229.994 179.96 229.994 180.502C229.994 181.034 230.102 181.514 230.316 181.944C230.531 182.364 230.83 182.695 231.212 182.938C231.595 183.18 232.034 183.302 232.528 183.302ZM238.116 184.17V176.862H239.166L239.194 178.808L239.082 178.542C239.184 178.215 239.348 177.912 239.572 177.632C239.805 177.352 240.08 177.128 240.398 176.96C240.715 176.792 241.065 176.708 241.448 176.708C241.606 176.708 241.756 176.722 241.896 176.75C242.036 176.768 242.152 176.796 242.246 176.834L241.952 178.01C241.83 177.954 241.704 177.916 241.574 177.898C241.452 177.87 241.336 177.856 241.224 177.856C240.906 177.856 240.622 177.912 240.37 178.024C240.118 178.136 239.903 178.294 239.726 178.5C239.548 178.696 239.413 178.924 239.32 179.186C239.226 179.447 239.18 179.727 239.18 180.026V184.17H238.116Z" fill="#4D4E52"/>
<rect x="72" y="265" width="376" height="188" fill="#F8F9FA"/>
<path d="M235.489 367.494C233.516 367.494 231.796 367.041 230.329 366.134C228.889 365.228 227.529 363.708 226.249 361.574L229.609 359.454C230.276 360.441 230.929 361.254 231.569 361.894C232.236 362.508 232.916 362.961 233.609 363.254C234.302 363.548 235.036 363.694 235.809 363.694C236.742 363.694 237.609 363.468 238.409 363.014C239.209 362.534 239.849 361.881 240.329 361.054C240.809 360.228 241.049 359.294 241.049 358.254C241.049 357.214 240.862 356.334 240.489 355.614C240.116 354.868 239.569 354.308 238.849 353.934C238.129 353.534 237.276 353.334 236.289 353.334C235.836 353.334 235.356 353.388 234.849 353.494C234.369 353.574 233.849 353.708 233.289 353.894C232.729 354.054 232.116 354.268 231.449 354.534L230.249 351.374L238.889 341.854L239.729 343.094H227.809V339.094H243.849L244.649 340.694L235.489 350.854L234.489 349.814C234.702 349.708 235.049 349.614 235.529 349.534C236.036 349.428 236.449 349.374 236.769 349.374C237.942 349.374 239.036 349.601 240.049 350.054C241.089 350.481 241.982 351.094 242.729 351.894C243.502 352.668 244.102 353.588 244.529 354.654C244.982 355.694 245.209 356.814 245.209 358.014C245.209 359.828 244.769 361.454 243.889 362.894C243.036 364.308 241.876 365.428 240.409 366.254C238.942 367.081 237.302 367.494 235.489 367.494ZM258.741 367.494C256.608 367.494 254.768 366.908 253.221 365.734C251.701 364.561 250.528 362.908 249.701 360.774C248.874 358.614 248.461 356.054 248.461 353.094C248.461 350.134 248.874 347.588 249.701 345.454C250.528 343.294 251.701 341.628 253.221 340.454C254.768 339.281 256.608 338.694 258.741 338.694C260.874 338.694 262.714 339.281 264.261 340.454C265.808 341.628 266.994 343.294 267.821 345.454C268.648 347.588 269.061 350.134 269.061 353.094C269.061 356.054 268.648 358.614 267.821 360.774C266.994 362.908 265.808 364.561 264.261 365.734C262.714 366.908 260.874 367.494 258.741 367.494ZM258.741 363.574C260.688 363.574 262.194 362.668 263.261 360.854C264.328 359.014 264.861 356.428 264.861 353.094C264.861 349.761 264.328 347.188 263.261 345.374C262.194 343.534 260.688 342.614 258.741 342.614C256.794 342.614 255.288 343.534 254.221 345.374C253.154 347.188 252.621 349.761 252.621 353.094C252.621 356.428 253.154 359.014 254.221 360.854C255.288 362.668 256.794 363.574 258.741 363.574ZM272.718 357.694V354.094H292.758V357.694H272.718ZM280.598 365.414V346.094H284.798V365.414H280.598Z" fill="#1B1B1B"/>
<path d="M197.207 396.17V386.37H203.143V387.434H198.299V395.106H203.115V396.17H197.207ZM197.711 391.662V390.598H202.359V391.662H197.711ZM210.138 396.17L207.604 392.908L207.478 392.754L204.44 388.862H205.77L208.262 392.068L208.402 392.25L211.454 396.17H210.138ZM204.384 396.17L207.366 392.32L207.996 393.076L205.644 396.17H204.384ZM208.472 392.586L207.87 391.844L209.998 388.862H211.272L208.472 392.586ZM212.701 399.25V388.862H213.751L213.779 390.64L213.583 390.668C213.667 390.313 213.849 389.991 214.129 389.702C214.409 389.403 214.75 389.165 215.151 388.988C215.552 388.811 215.977 388.722 216.425 388.722C217.078 388.722 217.662 388.885 218.175 389.212C218.698 389.539 219.113 389.987 219.421 390.556C219.729 391.125 219.883 391.779 219.883 392.516C219.883 393.244 219.734 393.893 219.435 394.462C219.136 395.031 218.726 395.484 218.203 395.82C217.68 396.147 217.092 396.31 216.439 396.31C215.982 396.31 215.548 396.217 215.137 396.03C214.726 395.843 214.376 395.601 214.087 395.302C213.798 394.994 213.606 394.663 213.513 394.308H213.765V399.25H212.701ZM216.271 395.302C216.766 395.302 217.204 395.181 217.587 394.938C217.97 394.695 218.273 394.364 218.497 393.944C218.721 393.524 218.833 393.048 218.833 392.516C218.833 391.975 218.721 391.494 218.497 391.074C218.273 390.654 217.97 390.323 217.587 390.08C217.204 389.837 216.766 389.716 216.271 389.716C215.776 389.716 215.333 389.837 214.941 390.08C214.558 390.313 214.255 390.64 214.031 391.06C213.807 391.48 213.695 391.961 213.695 392.502C213.695 393.043 213.807 393.524 214.031 393.944C214.255 394.364 214.558 394.695 214.941 394.938C215.333 395.181 215.776 395.302 216.271 395.302ZM224.63 396.31C223.902 396.31 223.253 396.151 222.684 395.834C222.124 395.517 221.685 395.073 221.368 394.504C221.051 393.935 220.892 393.281 220.892 392.544C220.892 391.975 220.981 391.461 221.158 391.004C221.335 390.537 221.583 390.131 221.9 389.786C222.227 389.441 222.614 389.175 223.062 388.988C223.51 388.792 223.995 388.694 224.518 388.694C225.013 388.694 225.461 388.783 225.862 388.96C226.273 389.137 226.623 389.385 226.912 389.702C227.211 390.01 227.435 390.379 227.584 390.808C227.733 391.237 227.799 391.709 227.78 392.222L227.766 392.712H221.676L221.522 391.83H226.968L226.716 392.068V391.732C226.697 391.396 226.599 391.074 226.422 390.766C226.245 390.449 225.993 390.192 225.666 389.996C225.349 389.8 224.966 389.702 224.518 389.702C223.995 389.702 223.543 389.809 223.16 390.024C222.777 390.229 222.483 390.537 222.278 390.948C222.073 391.359 221.97 391.867 221.97 392.474C221.97 393.053 222.082 393.557 222.306 393.986C222.53 394.406 222.847 394.733 223.258 394.966C223.678 395.199 224.182 395.316 224.77 395.316C225.115 395.316 225.456 395.26 225.792 395.148C226.137 395.027 226.515 394.793 226.926 394.448L227.472 395.204C227.257 395.419 227.001 395.61 226.702 395.778C226.403 395.937 226.077 396.067 225.722 396.17C225.367 396.263 225.003 396.31 224.63 396.31ZM229.271 396.17V388.862H230.321L230.349 390.808L230.237 390.542C230.34 390.215 230.503 389.912 230.727 389.632C230.961 389.352 231.236 389.128 231.553 388.96C231.871 388.792 232.221 388.708 232.603 388.708C232.762 388.708 232.911 388.722 233.051 388.75C233.191 388.769 233.308 388.797 233.401 388.834L233.107 390.01C232.986 389.954 232.86 389.917 232.729 389.898C232.608 389.87 232.491 389.856 232.379 389.856C232.062 389.856 231.777 389.912 231.525 390.024C231.273 390.136 231.059 390.295 230.881 390.5C230.704 390.696 230.569 390.925 230.475 391.186C230.382 391.447 230.335 391.727 230.335 392.026V396.17H229.271ZM235.775 396.17V386.944H236.825V396.17H235.775ZM234.123 389.87V388.862H238.673V389.87H234.123ZM242.63 396.31C242.005 396.31 241.445 396.193 240.95 395.96C240.456 395.727 240.064 395.419 239.774 395.036L240.516 394.392C240.787 394.719 241.104 394.966 241.468 395.134C241.842 395.302 242.257 395.386 242.714 395.386C242.948 395.386 243.158 395.363 243.344 395.316C243.531 395.26 243.694 395.181 243.834 395.078C243.974 394.975 244.082 394.854 244.156 394.714C244.231 394.574 244.268 394.42 244.268 394.252C244.268 393.944 244.133 393.687 243.862 393.482C243.741 393.398 243.568 393.314 243.344 393.23C243.12 393.137 242.85 393.048 242.532 392.964C242.01 392.815 241.576 392.665 241.23 392.516C240.885 392.357 240.614 392.175 240.418 391.97C240.278 391.802 240.171 391.62 240.096 391.424C240.031 391.228 239.998 391.013 239.998 390.78C239.998 390.481 240.059 390.206 240.18 389.954C240.311 389.702 240.488 389.483 240.712 389.296C240.946 389.1 241.216 388.955 241.524 388.862C241.842 388.759 242.182 388.708 242.546 388.708C242.892 388.708 243.232 388.755 243.568 388.848C243.904 388.941 244.217 389.077 244.506 389.254C244.796 389.431 245.043 389.641 245.248 389.884L244.604 390.584C244.427 390.397 244.231 390.229 244.016 390.08C243.802 389.931 243.573 389.814 243.33 389.73C243.097 389.646 242.854 389.604 242.602 389.604C242.378 389.604 242.168 389.632 241.972 389.688C241.786 389.744 241.622 389.823 241.482 389.926C241.352 390.019 241.249 390.136 241.174 390.276C241.109 390.416 241.076 390.57 241.076 390.738C241.076 390.878 241.104 391.004 241.16 391.116C241.216 391.228 241.296 391.326 241.398 391.41C241.529 391.513 241.711 391.611 241.944 391.704C242.187 391.788 242.486 391.877 242.84 391.97C243.251 392.082 243.596 392.199 243.876 392.32C244.166 392.432 244.404 392.567 244.59 392.726C244.842 392.913 245.02 393.127 245.122 393.37C245.234 393.613 245.29 393.888 245.29 394.196C245.29 394.607 245.174 394.971 244.94 395.288C244.716 395.605 244.404 395.857 244.002 396.044C243.601 396.221 243.144 396.31 242.63 396.31ZM254.093 396.31C253.365 396.31 252.717 396.147 252.147 395.82C251.587 395.493 251.144 395.041 250.817 394.462C250.5 393.883 250.341 393.225 250.341 392.488C250.341 391.76 250.5 391.111 250.817 390.542C251.144 389.973 251.587 389.525 252.147 389.198C252.717 388.871 253.365 388.708 254.093 388.708C254.812 388.708 255.451 388.871 256.011 389.198C256.581 389.525 257.024 389.973 257.341 390.542C257.668 391.111 257.831 391.76 257.831 392.488C257.831 393.225 257.668 393.883 257.341 394.462C257.024 395.041 256.581 395.493 256.011 395.82C255.451 396.147 254.812 396.31 254.093 396.31ZM254.093 395.316C254.607 395.316 255.064 395.195 255.465 394.952C255.867 394.7 256.179 394.364 256.403 393.944C256.627 393.515 256.739 393.029 256.739 392.488C256.739 391.947 256.627 391.466 256.403 391.046C256.179 390.626 255.867 390.299 255.465 390.066C255.064 389.823 254.607 389.702 254.093 389.702C253.58 389.702 253.118 389.823 252.707 390.066C252.306 390.299 251.989 390.631 251.755 391.06C251.531 391.48 251.424 391.956 251.433 392.488C251.424 393.029 251.531 393.515 251.755 393.944C251.989 394.364 252.306 394.7 252.707 394.952C253.118 395.195 253.58 395.316 254.093 395.316ZM259.93 396.17V387.728C259.93 387.364 260.009 387.042 260.168 386.762C260.326 386.482 260.55 386.263 260.84 386.104C261.138 385.936 261.484 385.852 261.876 385.852C262.174 385.852 262.44 385.908 262.674 386.02C262.916 386.123 263.117 386.267 263.276 386.454L262.912 387.28C262.762 387.121 262.599 387.009 262.422 386.944C262.254 386.869 262.09 386.832 261.932 386.832C261.726 386.832 261.554 386.869 261.414 386.944C261.274 387.009 261.166 387.112 261.092 387.252C261.026 387.383 260.994 387.541 260.994 387.728V396.17H260.504C260.401 396.17 260.303 396.17 260.21 396.17C260.116 396.17 260.023 396.17 259.93 396.17ZM258.628 389.898V388.918H262.856V389.898H258.628ZM269.313 396.17V386.944H270.363V396.17H269.313ZM267.661 389.87V388.862H272.211V389.87H267.661ZM273.5 396.17V385.81H274.55V390.458L274.34 390.668C274.443 390.285 274.634 389.949 274.914 389.66C275.194 389.361 275.521 389.128 275.894 388.96C276.277 388.792 276.664 388.708 277.056 388.708C277.616 388.708 278.083 388.815 278.456 389.03C278.829 389.245 279.105 389.576 279.282 390.024C279.469 390.472 279.562 391.041 279.562 391.732V396.17H278.498V391.788C278.498 391.303 278.433 390.906 278.302 390.598C278.181 390.281 277.989 390.047 277.728 389.898C277.467 389.749 277.14 389.679 276.748 389.688C276.44 389.688 276.151 389.744 275.88 389.856C275.609 389.959 275.376 390.103 275.18 390.29C274.984 390.477 274.83 390.691 274.718 390.934C274.606 391.177 274.55 391.438 274.55 391.718V396.17H274.032C273.967 396.17 273.892 396.17 273.808 396.17C273.724 396.17 273.621 396.17 273.5 396.17ZM284.786 396.31C284.058 396.31 283.41 396.151 282.84 395.834C282.28 395.517 281.842 395.073 281.524 394.504C281.207 393.935 281.048 393.281 281.048 392.544C281.048 391.975 281.137 391.461 281.314 391.004C281.492 390.537 281.739 390.131 282.056 389.786C282.383 389.441 282.77 389.175 283.218 388.988C283.666 388.792 284.152 388.694 284.674 388.694C285.169 388.694 285.617 388.783 286.018 388.96C286.429 389.137 286.779 389.385 287.068 389.702C287.367 390.01 287.591 390.379 287.74 390.808C287.89 391.237 287.955 391.709 287.936 392.222L287.922 392.712H281.832L281.678 391.83H287.124L286.872 392.068V391.732C286.854 391.396 286.756 391.074 286.578 390.766C286.401 390.449 286.149 390.192 285.822 389.996C285.505 389.8 285.122 389.702 284.674 389.702C284.152 389.702 283.699 389.809 283.316 390.024C282.934 390.229 282.64 390.537 282.434 390.948C282.229 391.359 282.126 391.867 282.126 392.474C282.126 393.053 282.238 393.557 282.462 393.986C282.686 394.406 283.004 394.733 283.414 394.966C283.834 395.199 284.338 395.316 284.926 395.316C285.272 395.316 285.612 395.26 285.948 395.148C286.294 395.027 286.672 394.793 287.082 394.448L287.628 395.204C287.414 395.419 287.157 395.61 286.858 395.778C286.56 395.937 286.233 396.067 285.878 396.17C285.524 396.263 285.16 396.31 284.786 396.31ZM296.207 396.31C295.573 396.31 294.999 396.147 294.485 395.82C293.972 395.484 293.566 395.031 293.267 394.462C292.969 393.883 292.819 393.23 292.819 392.502C292.819 391.765 292.973 391.111 293.281 390.542C293.589 389.973 294 389.525 294.513 389.198C295.036 388.871 295.619 388.708 296.263 388.708C296.646 388.708 297.001 388.764 297.327 388.876C297.654 388.988 297.943 389.147 298.195 389.352C298.457 389.548 298.671 389.781 298.839 390.052C299.017 390.313 299.138 390.598 299.203 390.906L298.895 390.752L298.937 388.862H299.987V396.17H298.923V394.378L299.203 394.196C299.138 394.476 299.012 394.747 298.825 395.008C298.639 395.26 298.41 395.484 298.139 395.68C297.878 395.876 297.579 396.03 297.243 396.142C296.917 396.254 296.571 396.31 296.207 396.31ZM296.445 395.302C296.931 395.302 297.365 395.185 297.747 394.952C298.13 394.709 298.429 394.378 298.643 393.958C298.867 393.529 298.979 393.043 298.979 392.502C298.979 391.961 298.867 391.48 298.643 391.06C298.429 390.64 298.13 390.309 297.747 390.066C297.365 389.823 296.931 389.702 296.445 389.702C295.951 389.702 295.512 389.823 295.129 390.066C294.756 390.309 294.457 390.64 294.233 391.06C294.019 391.48 293.911 391.961 293.911 392.502C293.911 393.034 294.019 393.515 294.233 393.944C294.448 394.364 294.747 394.695 295.129 394.938C295.512 395.181 295.951 395.302 296.445 395.302ZM302.033 396.17V388.862H303.083L303.111 390.808L302.999 390.542C303.102 390.215 303.265 389.912 303.489 389.632C303.722 389.352 303.998 389.128 304.315 388.96C304.632 388.792 304.982 388.708 305.365 388.708C305.524 388.708 305.673 388.722 305.813 388.75C305.953 388.769 306.07 388.797 306.163 388.834L305.869 390.01C305.748 389.954 305.622 389.917 305.491 389.898C305.37 389.87 305.253 389.856 305.141 389.856C304.824 389.856 304.539 389.912 304.287 390.024C304.035 390.136 303.82 390.295 303.643 390.5C303.466 390.696 303.33 390.925 303.237 391.186C303.144 391.447 303.097 391.727 303.097 392.026V396.17H302.033ZM310.161 396.31C309.433 396.31 308.785 396.151 308.215 395.834C307.655 395.517 307.217 395.073 306.899 394.504C306.582 393.935 306.423 393.281 306.423 392.544C306.423 391.975 306.512 391.461 306.689 391.004C306.867 390.537 307.114 390.131 307.431 389.786C307.758 389.441 308.145 389.175 308.593 388.988C309.041 388.792 309.527 388.694 310.049 388.694C310.544 388.694 310.992 388.783 311.393 388.96C311.804 389.137 312.154 389.385 312.443 389.702C312.742 390.01 312.966 390.379 313.115 390.808C313.265 391.237 313.33 391.709 313.311 392.222L313.297 392.712H307.207L307.053 391.83H312.499L312.247 392.068V391.732C312.229 391.396 312.131 391.074 311.953 390.766C311.776 390.449 311.524 390.192 311.197 389.996C310.88 389.8 310.497 389.702 310.049 389.702C309.527 389.702 309.074 389.809 308.691 390.024C308.309 390.229 308.015 390.537 307.809 390.948C307.604 391.359 307.501 391.867 307.501 392.474C307.501 393.053 307.613 393.557 307.837 393.986C308.061 394.406 308.379 394.733 308.789 394.966C309.209 395.199 309.713 395.316 310.301 395.316C310.647 395.316 310.987 395.26 311.323 395.148C311.669 395.027 312.047 394.793 312.457 394.448L313.003 395.204C312.789 395.419 312.532 395.61 312.233 395.778C311.935 395.937 311.608 396.067 311.253 396.17C310.899 396.263 310.535 396.31 310.161 396.31ZM317.659 396.31C317.024 396.31 316.45 396.147 315.937 395.82C315.423 395.484 315.017 395.031 314.719 394.462C314.42 393.883 314.271 393.23 314.271 392.502C314.271 391.765 314.425 391.111 314.733 390.542C315.041 389.973 315.451 389.525 315.965 389.198C316.487 388.871 317.071 388.708 317.715 388.708C318.097 388.708 318.452 388.764 318.779 388.876C319.105 388.988 319.395 389.147 319.647 389.352C319.908 389.548 320.123 389.781 320.291 390.052C320.468 390.313 320.589 390.598 320.655 390.906L320.347 390.752L320.389 388.862H321.439V396.17H320.375V394.378L320.655 394.196C320.589 394.476 320.463 394.747 320.277 395.008C320.09 395.26 319.861 395.484 319.591 395.68C319.329 395.876 319.031 396.03 318.695 396.142C318.368 396.254 318.023 396.31 317.659 396.31ZM317.897 395.302C318.382 395.302 318.816 395.185 319.199 394.952C319.581 394.709 319.88 394.378 320.095 393.958C320.319 393.529 320.431 393.043 320.431 392.502C320.431 391.961 320.319 391.48 320.095 391.06C319.88 390.64 319.581 390.309 319.199 390.066C318.816 389.823 318.382 389.702 317.897 389.702C317.402 389.702 316.963 389.823 316.581 390.066C316.207 390.309 315.909 390.64 315.685 391.06C315.47 391.48 315.363 391.961 315.363 392.502C315.363 393.034 315.47 393.515 315.685 393.944C315.899 394.364 316.198 394.695 316.581 394.938C316.963 395.181 317.402 395.302 317.897 395.302Z" fill="#4D4E52"/>
</svg>
