<svg xmlns="http://www.w3.org/2000/svg" xmlns:xlink="http://www.w3.org/1999/xlink" width="44" zoomAndPan="magnify" viewBox="0 0 33 32.999998" height="44" preserveAspectRatio="xMidYMid meet" version="1.0"><path fill="#cafe56" d="M 17.636719 30.722656 C 17.953125 30.722656 18.207031 30.46875 18.207031 30.15625 L 18.207031 28.449219 L 11.378906 28.449219 L 11.378906 30.15625 C 11.378906 30.46875 11.636719 30.722656 11.949219 30.722656 L 17.636719 30.722656 " fill-opacity="1" fill-rule="nonzero"/><path fill="#cafe56" d="M 17.636719 31.863281 L 11.949219 31.863281 C 11.335938 31.863281 10.804688 31.535156 10.503906 31.050781 C 8.867188 31.332031 8.179688 31.695312 8 31.863281 C 8.414062 32.300781 10.859375 33 14.792969 33 C 18.726562 33 21.171875 32.300781 21.585938 31.863281 C 21.40625 31.695312 20.71875 31.332031 19.082031 31.050781 C 18.78125 31.535156 18.25 31.863281 17.636719 31.863281 " fill-opacity="1" fill-rule="nonzero"/><path fill="#cafe56" d="M 26.742188 10.242188 C 24.542969 10.242188 22.757812 8.457031 22.757812 6.257812 C 22.757812 4.058594 24.542969 2.277344 26.742188 2.277344 C 28.941406 2.277344 30.722656 4.058594 30.722656 6.257812 C 30.722656 8.457031 28.941406 10.242188 26.742188 10.242188 Z M 32.207031 4.675781 L 32.121094 4.414062 C 32.042969 4.195312 31.953125 3.976562 31.847656 3.761719 L 31.726562 3.515625 L 32.089844 2.757812 L 30.242188 0.910156 L 29.484375 1.273438 L 29.238281 1.152344 C 29.023438 1.046875 28.804688 0.957031 28.585938 0.878906 L 28.324219 0.792969 L 28.046875 0 L 25.4375 0 L 25.160156 0.792969 L 24.898438 0.878906 C 24.679688 0.957031 24.460938 1.046875 24.246094 1.152344 L 23.996094 1.273438 L 23.238281 0.910156 L 21.394531 2.757812 L 21.757812 3.515625 L 21.636719 3.761719 C 21.53125 3.976562 21.4375 4.195312 21.363281 4.414062 L 21.277344 4.675781 L 20.484375 4.953125 L 20.484375 7.5625 L 21.277344 7.839844 L 21.363281 8.101562 C 21.4375 8.320312 21.53125 8.539062 21.636719 8.753906 L 21.757812 9.003906 L 21.394531 9.761719 L 23.238281 11.605469 L 23.996094 11.242188 L 24.246094 11.363281 C 24.460938 11.46875 24.679688 11.5625 24.898438 11.636719 L 25.160156 11.722656 L 25.4375 12.515625 L 28.046875 12.515625 L 28.324219 11.722656 L 28.585938 11.636719 C 28.804688 11.5625 29.023438 11.46875 29.238281 11.363281 L 29.484375 11.242188 L 30.242188 11.605469 L 32.089844 9.761719 L 31.726562 9.003906 L 31.847656 8.753906 C 31.953125 8.539062 32.042969 8.320312 32.121094 8.101562 L 32.207031 7.839844 L 33 7.5625 L 33 4.953125 L 32.207031 4.675781 " fill-opacity="1" fill-rule="nonzero"/><path fill="#cafe56" d="M 21.621094 16.5 C 21.621094 16.8125 21.875 17.070312 22.191406 17.070312 L 22.757812 17.070312 L 22.757812 18.207031 L 22.191406 18.207031 C 21.875 18.207031 21.621094 18.460938 21.621094 18.777344 C 21.621094 19.71875 20.855469 20.484375 19.914062 20.484375 L 19.34375 20.484375 L 19.34375 19.34375 L 19.914062 19.34375 C 20.226562 19.34375 20.484375 19.089844 20.484375 18.777344 C 20.484375 18.335938 20.652344 17.941406 20.925781 17.636719 C 20.652344 17.335938 20.484375 16.941406 20.484375 16.5 C 20.484375 16.1875 20.226562 15.929688 19.914062 15.929688 L 19.34375 15.929688 L 19.34375 14.792969 L 19.914062 14.792969 C 20.855469 14.792969 21.621094 15.558594 21.621094 16.5 Z M 22.757812 14.792969 L 23.328125 14.792969 C 24.269531 14.792969 25.035156 15.558594 25.035156 16.5 C 25.035156 16.8125 25.289062 17.070312 25.601562 17.070312 L 26.171875 17.070312 L 26.171875 18.207031 L 25.601562 18.207031 C 25.289062 18.207031 25.035156 18.460938 25.035156 18.777344 C 25.035156 19.71875 24.269531 20.484375 23.328125 20.484375 L 22.757812 20.484375 L 22.757812 19.34375 L 23.328125 19.34375 C 23.640625 19.34375 23.898438 19.089844 23.898438 18.777344 C 23.898438 18.335938 24.066406 17.941406 24.339844 17.636719 C 24.066406 17.335938 23.898438 16.941406 23.898438 16.5 C 23.898438 16.1875 23.640625 15.929688 23.328125 15.929688 L 22.757812 15.929688 Z M 18.207031 9.101562 L 13.65625 9.101562 L 13.65625 7.964844 L 18.207031 7.964844 Z M 18.207031 11.378906 L 11.378906 11.378906 L 11.378906 10.242188 L 18.207031 10.242188 Z M 18.207031 13.65625 L 11.378906 13.65625 L 11.378906 12.515625 L 18.207031 12.515625 Z M 18.207031 15.929688 L 3.414062 15.929688 L 3.414062 14.792969 L 18.207031 14.792969 Z M 18.207031 18.207031 L 5.691406 18.207031 L 5.691406 17.070312 L 18.207031 17.070312 Z M 18.207031 20.484375 L 17.070312 20.484375 L 17.070312 19.34375 L 18.207031 19.34375 Z M 15.929688 20.484375 L 3.414062 20.484375 L 3.414062 19.34375 L 15.929688 19.34375 Z M 3.414062 17.070312 L 4.550781 17.070312 L 4.550781 18.207031 L 3.414062 18.207031 Z M 3.414062 10.242188 L 3.984375 10.242188 C 4.296875 10.242188 4.550781 9.984375 4.550781 9.671875 C 4.550781 8.730469 5.316406 7.964844 6.257812 7.964844 L 6.828125 7.964844 L 6.828125 9.101562 L 6.257812 9.101562 C 5.945312 9.101562 5.691406 9.359375 5.691406 9.671875 C 5.691406 10.113281 5.519531 10.507812 5.246094 10.808594 C 5.519531 11.113281 5.691406 11.507812 5.691406 11.949219 C 5.691406 12.261719 5.945312 12.515625 6.257812 12.515625 L 6.828125 12.515625 L 6.828125 13.65625 L 6.257812 13.65625 C 5.316406 13.65625 4.550781 12.890625 4.550781 11.949219 C 4.550781 11.636719 4.296875 11.378906 3.984375 11.378906 L 3.414062 11.378906 Z M 7.964844 9.671875 C 7.964844 8.730469 8.730469 7.964844 9.671875 7.964844 L 10.242188 7.964844 L 10.242188 9.101562 L 9.671875 9.101562 C 9.359375 9.101562 9.101562 9.359375 9.101562 9.671875 C 9.101562 10.113281 8.933594 10.507812 8.660156 10.808594 C 8.933594 11.113281 9.101562 11.507812 9.101562 11.949219 C 9.101562 12.261719 9.359375 12.515625 9.671875 12.515625 L 10.242188 12.515625 L 10.242188 13.65625 L 9.671875 13.65625 C 8.730469 13.65625 7.964844 12.890625 7.964844 11.949219 C 7.964844 11.636719 7.710938 11.378906 7.398438 11.378906 L 6.828125 11.378906 L 6.828125 10.242188 L 7.398438 10.242188 C 7.710938 10.242188 7.964844 9.984375 7.964844 9.671875 Z M 11.378906 7.964844 L 12.515625 7.964844 L 12.515625 9.101562 L 11.378906 9.101562 Z M 20.386719 8.734375 L 19.34375 8.367188 L 19.34375 6.828125 L 2.277344 6.828125 L 2.277344 21.621094 L 27.308594 21.621094 L 27.308594 13.65625 L 24.632812 13.65625 L 24.265625 12.613281 C 24.175781 12.582031 24.085938 12.542969 23.996094 12.503906 L 23.003906 12.980469 L 20.019531 9.996094 L 20.496094 9.003906 C 20.457031 8.914062 20.417969 8.824219 20.386719 8.734375 " fill-opacity="1" fill-rule="nonzero"/><path fill="#cafe56" d="M 28.449219 26.171875 L 27.308594 26.171875 L 27.308594 23.898438 L 28.449219 23.898438 Z M 26.171875 26.171875 L 25.035156 26.171875 L 25.035156 23.898438 L 26.171875 23.898438 Z M 23.898438 26.171875 L 22.757812 26.171875 L 22.757812 23.898438 L 23.898438 23.898438 Z M 14.792969 26.171875 C 14.164062 26.171875 13.65625 25.664062 13.65625 25.035156 C 13.65625 24.40625 14.164062 23.898438 14.792969 23.898438 C 15.421875 23.898438 15.929688 24.40625 15.929688 25.035156 C 15.929688 25.664062 15.421875 26.171875 14.792969 26.171875 Z M 7.964844 26.171875 L 6.828125 26.171875 L 6.828125 25.035156 L 7.964844 25.035156 Z M 5.691406 26.171875 L 4.550781 26.171875 L 4.550781 25.035156 L 5.691406 25.035156 Z M 3.414062 26.171875 L 2.277344 26.171875 L 2.277344 25.035156 L 3.414062 25.035156 Z M 29.21875 12.613281 L 28.851562 13.65625 L 28.449219 13.65625 L 28.449219 21.621094 C 28.449219 22.246094 27.9375 22.757812 27.308594 22.757812 L 2.277344 22.757812 C 1.648438 22.757812 1.136719 22.246094 1.136719 21.621094 L 1.136719 6.828125 C 1.136719 6.199219 1.648438 5.691406 2.277344 5.691406 L 19.34375 5.691406 L 19.34375 4.550781 L 1.707031 4.550781 C 0.765625 4.550781 0 5.316406 0 6.257812 L 0 25.601562 C 0 26.546875 0.765625 27.308594 1.707031 27.308594 L 27.878906 27.308594 C 28.820312 27.308594 29.585938 26.546875 29.585938 25.601562 L 29.585938 12.554688 L 29.484375 12.503906 C 29.394531 12.542969 29.304688 12.582031 29.21875 12.613281 " fill-opacity="1" fill-rule="nonzero"/><path fill="#cafe56" d="M 26.742188 4.550781 C 25.800781 4.550781 25.035156 5.316406 25.035156 6.257812 C 25.035156 7.199219 25.800781 7.964844 26.742188 7.964844 C 27.683594 7.964844 28.449219 7.199219 28.449219 6.257812 C 28.449219 5.316406 27.683594 4.550781 26.742188 4.550781 " fill-opacity="1" fill-rule="nonzero"/></svg>