<svg xmlns="http://www.w3.org/2000/svg" xmlns:xlink="http://www.w3.org/1999/xlink" width="44" zoomAndPan="magnify" viewBox="0 0 33 32.999998" height="44" preserveAspectRatio="xMidYMid meet" version="1.0"><path fill="#000000" d="M 6.644531 14.289062 C 9.285156 19.480469 13.53125 23.722656 18.726562 26.363281 L 22.761719 22.320312 C 23.265625 21.816406 23.988281 21.671875 24.621094 21.871094 C 26.675781 22.550781 28.882812 22.917969 31.167969 22.917969 C 32.183594 22.917969 33 23.734375 33 24.75 L 33 31.167969 C 33 32.183594 32.183594 33 31.167969 33 C 13.953125 33 0 19.046875 0 1.832031 C 0 0.816406 0.824219 0 1.832031 0 L 8.25 0 C 9.265625 0 10.082031 0.816406 10.082031 1.832031 C 10.082031 4.117188 10.449219 6.324219 11.128906 8.378906 C 11.328125 9.011719 11.183594 9.734375 10.679688 10.238281 Z M 6.644531 14.289062 " fill-opacity="1" fill-rule="nonzero"/></svg>